<?xml version="1.0" encoding="utf-8"?>
<!-- Generator: Adobe Illustrator 22.0.0, SVG Export Plug-In . SVG Version: 6.00 Build 0)  -->
<svg version="1.1" id="Capa_1" xmlns="http://www.w3.org/2000/svg" xmlns:xlink="http://www.w3.org/1999/xlink" x="0px" y="0px"
	 viewBox="0 0 250 250" style="enable-background:new 0 0 250 250;" xml:space="preserve">
<style type="text/css">
	.st0{fill:#FFFFFF;}
</style>
<g>
	<path class="st0" d="M64.5,129.7c-21.7-9-45.6-15.7-64.3-19c0.7,7.4,1.9,14.3,3.5,21.3c11.3,3.5,23.8,7.9,36.1,13.2
		C48.3,139.6,56.7,134.3,64.5,129.7z"/>
	<path class="st0" d="M108.9,107.3C81.9,91.5,30.5,81.6,1.6,80.9C0.7,86.9,0,93.2,0,99.4c21.7,2.8,53.4,11.1,78.4,22.4
		C91.6,114.9,102.7,110,108.9,107.3z"/>
	<path class="st0" d="M8.6,146.6c2.3,5.8,4.9,11.3,8.1,16.9c3.7-3.2,7.4-6.2,11.3-9C21.3,151.4,14.8,148.9,8.6,146.6z"/>
	<path class="st0" d="M250,105.2c0-1.2,0-2.5,0-3.7c0-6.2-0.5-12.3-1.4-18.3c-90.9,2.5-181.5,47.2-228.5,86.2
		c8.1,12.5,18.3,23.3,30.3,32.4C124.2,122.1,223.2,107.5,250,105.2z"/>
	<path class="st0" d="M121.4,226.3h3.7c53.7,0,99.2-33.8,117-80.9C196.6,163.7,155.2,191.6,121.4,226.3z"/>
	<path class="st0" d="M245.8,134.3c2.1-7.4,3.2-15,3.9-22.9c-71.5,12.5-137.6,47.9-187.3,98.2c12.7,7.4,26.8,12.7,41.9,15
		C154.7,169,215.8,143.8,245.8,134.3z"/>
	<path class="st0" d="M125.6,23.6c-31.2,0-56.7,25.4-56.7,56.6v3.2c18.7,4.4,37,10.4,50,17.8c19.9-8.1,41.2-15,62.9-20.1
		c0-0.2,0-0.7,0-0.9C182.2,49,157,23.6,125.6,23.6z"/>
</g>
</svg>
