<?xml version="1.0" encoding="utf-8"?>
<!-- Generator: Adobe Illustrator 22.0.0, SVG Export Plug-In . SVG Version: 6.00 Build 0)  -->
<svg version="1.1" id="Capa_1" xmlns="http://www.w3.org/2000/svg" xmlns:xlink="http://www.w3.org/1999/xlink" x="0px" y="0px"
	 viewBox="0 0 110 110" style="enable-background:new 0 0 110 110;" xml:space="preserve">
<style type="text/css">
	.st0{fill:#FFFFFF;}
</style>
<g>
	<g>
		<rect x="34.5" y="73.6" class="st0" width="3.7" height="29.8"/>
		<path class="st0" d="M90.4,14.1c0-4.1-3.4-7.4-7.4-7.4H27.1c-4.1,0-7.4,3.3-7.4,7.4v22.3h70.7V14.1z"/>
		<rect x="42" y="73.6" class="st0" width="3.7" height="22.3"/>
		<rect x="27.1" y="73.6" class="st0" width="3.7" height="26.1"/>
		<rect x="49.4" y="73.6" class="st0" width="3.7" height="26.1"/>
		<rect x="19.6" y="73.6" class="st0" width="3.7" height="29.8"/>
		<rect x="79.2" y="73.6" class="st0" width="3.7" height="26.1"/>
		<rect x="86.6" y="73.6" class="st0" width="3.7" height="29.8"/>
		<path class="st0" d="M97.8,40.1H12.2C5.9,40.1,1,45,1,51.3v18.6c0,6.3,4.8,11.2,11.2,11.2h3.7V69.9h78.2v11.2h3.7
			c6.3,0,11.2-4.8,11.2-11.2V51.3C109,45,104.1,40.1,97.8,40.1z M86.6,58.7c-2.2,0-3.7-1.5-3.7-3.7s1.5-3.7,3.7-3.7s3.7,1.5,3.7,3.7
			C90.4,57.2,88.9,58.7,86.6,58.7z"/>
		<rect x="71.8" y="73.6" class="st0" width="3.7" height="22.3"/>
		<rect x="64.3" y="73.6" class="st0" width="3.7" height="29.8"/>
		<rect x="56.9" y="73.6" class="st0" width="3.7" height="22.3"/>
	</g>
</g>
</svg>
