<?xml version="1.0" encoding="utf-8"?>
<!-- Generator: Adobe Illustrator 22.0.0, SVG Export Plug-In . SVG Version: 6.00 Build 0)  -->
<svg version="1.1" id="Capa_1" xmlns="http://www.w3.org/2000/svg" xmlns:xlink="http://www.w3.org/1999/xlink" x="0px" y="0px"
	 viewBox="0 0 100 100" style="enable-background:new 0 0 100 100;" xml:space="preserve">
<style type="text/css">
	.st0{fill:#FFFFFF;}
	.st1{fill:#C1272D;}
</style>
<rect x="11" y="26" class="st0" width="79" height="50"/>
<path class="st1" d="M49.8-0.1c-27.6,0-50,22.4-50,50c0,27.6,22.4,50,50,50s50-22.4,50-50C99.8,22.3,77.4-0.1,49.8-0.1z M85.3,69.1
	c0,0.7-0.1,1.3-0.5,1.9l0,0c-0.8,1.4-2.2,2.4-3.9,2.4H21.3c-0.7,0-1.3-0.2-1.9-0.4c0,0,0,0-0.1,0l0,0c-0.8-0.4-1.5-1-2-1.8l0,0
	c-0.4-0.6-0.5-1.3-0.5-2.1V69c0-0.1,0-0.1,0-0.2V30.2c0,0-0.1-0.1,0-0.1h0l-0.1,0l34.1,0h34.6c0,0,0,0,0,0.1v-0.1h0.1l-0.1,0.1v38.6
	C85.3,68.9,85.3,69,85.3,69.1L85.3,69.1z"/>
<path class="st1" d="M85.3,30.2l-32.5,24c-1,0.7-2.5,0.7-3.5,0l-32.5-24h0c0,0,0,0,0,0.1v38.6c0,0.1,0,0.1,0,0.2V32.8L40,50
	L17.4,71.1c0.5,0.8,1.1,1.4,2,1.8l22.8-21.3l9,6.6l9.1-6.7L83,72.8c-0.6,0.3-1.4,0.4-2.1,0.4H21.3c-0.7,0-1.3,0-1.9-0.3
	c0.6,0.3,1.2,0.5,1.9,0.5h59.6c1.7,0,3.2-1,4-2.4L62.3,49.9l23-17.1v36.2c0-0.1,0-0.1,0-0.2V30.2z"/>
</svg>
