<?xml version="1.0" encoding="utf-8"?>
<!-- Generator: Adobe Illustrator 22.0.0, SVG Export Plug-In . SVG Version: 6.00 Build 0)  -->
<svg version="1.1" id="Capa_1" xmlns="http://www.w3.org/2000/svg" xmlns:xlink="http://www.w3.org/1999/xlink" x="0px" y="0px"
	 viewBox="0 0 100 100" style="enable-background:new 0 0 100 100;" xml:space="preserve">
<style type="text/css">
	.st0{fill:url(#SVGID_1_);}
	.st1{fill:#FFFFFF;}
</style>
<linearGradient id="SVGID_1_" gradientUnits="userSpaceOnUse" x1="37.6749" y1="135.5383" x2="58.5476" y2="-5.7535" gradientTransform="matrix(1 0 0 -1 0 102)">
	<stop  offset="0" style="stop-color:#0E3189"/>
	<stop  offset="0.9409" style="stop-color:#001042"/>
</linearGradient>
<path class="st0" d="M100,49.9c0,26.2-20.1,47.8-45.7,49.8c-1.4,0.3-2.8,0.3-4.3,0.3c-3.7,0-7.4-0.4-10.8-1.2
	C16.8,93.8,0,73.8,0,49.9C0,22.3,22.5,0,50.1,0S100,22.3,100,49.9z"/>
<g>
	<path class="st1" d="M55.7,39.5c0.8-0.9,2.3-1.6,4.5-1.6c2.1,0,4.5,0.3,6.8,0.9l2-10.4c-4-1.4-8.1-1.8-12.4-1.8s-7.6,0.7-10.3,2.2
		s-4.5,3.2-5.5,5.7c-1,2.2-1.5,5.9-1.5,10.6v4.1H31v12h8.3v37.7c3.5,0.8,7.1,1.2,10.8,1.2c1.4,0,2.8,0,4.3-0.3V61.2h11v-12h-11v-3.9
		C54.3,42.3,54.7,40.5,55.7,39.5z"/>
</g>
</svg>
