<?xml version="1.0" encoding="utf-8"?>
<!-- Generator: Adobe Illustrator 22.0.0, SVG Export Plug-In . SVG Version: 6.00 Build 0)  -->
<svg version="1.1" id="Capa_1" xmlns="http://www.w3.org/2000/svg" xmlns:xlink="http://www.w3.org/1999/xlink" x="0px" y="0px"
	 viewBox="0 0 100 100" style="enable-background:new 0 0 100 100;" xml:space="preserve">
<style type="text/css">
	.st0{fill:#FFFFFF;}
	.st1{clip-path:url(#SVGID_2_);fill:none;stroke:#6CD948;stroke-width:35;stroke-miterlimit:10;}
	.st2{fill:url(#SVGID_3_);}
</style>
<rect x="-910" y="-2929" class="st0" width="1920" height="5957"/>
<g>
	<defs>
		<rect id="SVGID_1_" x="-910" y="-2929" width="1920" height="5957"/>
	</defs>
	<clipPath id="SVGID_2_">
		<use xlink:href="#SVGID_1_"  style="overflow:visible;"/>
	</clipPath>
	<g style="clip-path:url(#SVGID_2_);">
		<text transform="matrix(1 0 0 1 -886 1337)"><tspan x="0" y="0" style="font-family:'Montserrat-Black'; font-size:96px;">M</tspan><tspan x="91.6" y="0" style="font-family:'Montserrat-Black'; font-size:96px; letter-spacing:-3;">A</tspan><tspan x="165.6" y="0" style="font-family:'Montserrat-Black'; font-size:96px;">TERIALES</tspan></text>
	</g>
	<line class="st1" x1="-886" y1="1398" x2="-220" y2="1398"/>
</g>
<linearGradient id="SVGID_3_" gradientUnits="userSpaceOnUse" x1="37.6695" y1="-33.5375" x2="58.5422" y2="107.7543">
	<stop  offset="0" style="stop-color:#0E3189"/>
	<stop  offset="0.9409" style="stop-color:#001042"/>
</linearGradient>
<path class="st2" d="M100,49.9c0,26.2-20.1,47.8-45.7,49.8c-1.4,0.3-2.8,0.3-4.3,0.3c-3.7,0-7.4-0.4-10.8-1.2
	C16.8,93.8,0,73.8,0,49.9C0,22.3,22.5,0,50.1,0C77.7,0,100,22.3,100,49.9z"/>
<g>
	<path class="st0" d="M55.7,39.5c0.8-0.9,2.3-1.6,4.5-1.6c2.1,0,4.5,0.3,6.8,0.9L69,28.4c-4-1.4-8.1-1.8-12.4-1.8
		c-4.3,0-7.6,0.7-10.3,2.2c-2.7,1.5-4.5,3.2-5.5,5.7c-1,2.2-1.5,5.9-1.5,10.6v4.1H31v12h8.3v37.7c3.5,0.8,7.1,1.2,10.8,1.2
		c1.4,0,2.8,0,4.3-0.3V61.2h11v-12h-11v-3.9C54.3,42.3,54.7,40.5,55.7,39.5z"/>
</g>
</svg>
