<?xml version="1.0" encoding="utf-8"?>
<!-- Generator: Adobe Illustrator 22.0.0, SVG Export Plug-In . SVG Version: 6.00 Build 0)  -->
<svg version="1.1" id="Capa_1" xmlns="http://www.w3.org/2000/svg" xmlns:xlink="http://www.w3.org/1999/xlink" x="0px" y="0px"
	 viewBox="0 0 110 110" style="enable-background:new 0 0 110 110;" xml:space="preserve">
<style type="text/css">
	.st0{fill:#FFFFFF;}
	.st1{fill:#EDEDED;}
	.st2{fill:#E83158;}
	.st3{fill:#BF1936;}
	.st4{opacity:0.23;fill:#070002;enable-background:new    ;}
	.st5{fill:#4455CC;}
	.st6{fill:#FC842B;}
	.st7{fill:#8EBEF4;}
	.st8{opacity:0.27;fill:#FFFFFF;enable-background:new    ;}
	.st9{opacity:0.2;fill:#FFFFFF;enable-background:new    ;}
</style>
<path class="st0" d="M55.5,40.5c-0.3-0.9-1.6-3.5-3.8-3.5s-2.9,2.2-2.9,3.2S48.3,57.9,48.3,60s2,4.2,5.3,4.2s3.9-3.9,3.9-5
	c0-1,0-5.8,0-9C57.4,45.1,56,41.9,55.5,40.5z"/>
<g>
	<path class="st1" d="M87.3,109.7c-2.4-0.1-8.7-0.5-13.4-2.5c1.7-1.8,3.4-3.7,4.4-3.7C79.9,103.4,83.9,109.1,87.3,109.7z"/>
	<path class="st2" d="M86.8,24.2C86.8,24.2,86.8,24.3,86.8,24.2c0.5,0.1,0.7,0.3,0.7,0.4c0,0.6-4.5,1.1-10,1.1s-10-0.5-10-1.1
		c0-0.2,0.3-0.3,0.8-0.4c1.5-0.4,5.1-0.7,9.3-0.7C81.7,23.5,85.3,23.8,86.8,24.2z"/>
	<path class="st3" d="M86.9,24.3c2.8,0.6-0.1,2.2-0.1,2.2c0,0.2-0.3,0.4-0.9,0.5c-1.5,0.4-4.7,0.7-8.4,0.7c-3.7,0-6.9-0.3-8.4-0.7
		c-0.6-0.2-0.9-0.3-0.9-0.5c0,0-3.1-1.6,0-2.2c-0.5,0.1-0.8,0.3-0.8,0.4c0,0.6,4.5,1.1,10,1.1s10-0.5,10-1.1
		C87.5,24.5,87.2,24.4,86.9,24.3z"/>
	<path class="st2" d="M86.9,24.3c2.8,0.6-0.1,2.2-0.1,2.2c0,0.2-0.3,0.4-0.9,0.5c-1.5,0.4-4.7,0.7-8.4,0.7c-3.7,0-6.9-0.3-8.4-0.7
		c-0.6-0.2-0.9-0.3-0.9-0.5c0,0-3.1-1.6,0-2.2c-0.5,0.1-0.8,0.3-0.8,0.4c0,0.6,4.5,1.1,10,1.1s10-0.5,10-1.1
		C87.5,24.5,87.2,24.4,86.9,24.3z"/>
	<path class="st4" d="M86.9,24.3c2.8,0.6-0.1,2.2-0.1,2.2c0,0.2-0.3,0.4-0.9,0.5c-1.5,0.4-4.7,0.7-8.4,0.7c-3.7,0-6.9-0.3-8.4-0.7
		c-0.6-0.2-0.9-0.3-0.9-0.5c0,0-3.1-1.6,0-2.2c-0.5,0.1-0.8,0.3-0.8,0.4c0,0.6,4.5,1.1,10,1.1s10-0.5,10-1.1
		C87.5,24.5,87.2,24.4,86.9,24.3z"/>
	<path class="st1" d="M103.4,40.3c-0.2-0.4-0.5-0.7-0.8-1.1c-4.1-4.6-16.8-9.4-16.8-9.4V27c-1.5,0.4-4.7,0.7-8.4,0.7
		c-3.7,0-6.9-0.3-8.4-0.7v2.9l-5.5,2.2c0,0-9.2,3.1-11.2,7.2s-6.5,29.8-6.8,34.9c-0.1,0.9-0.1,1.9-0.1,3v0.1
		c-0.2,5.1,0,11.8,0.1,13.3c0.2,1.8,2.3,11.3,3.3,12.2c4.6,3.9,18.5,7.4,20.8,6.9c1.1-0.2,2.7-0.8,4.2-2.4c4.8,2,11.1,2.4,13.4,2.5
		c0.6,0,1,0,1,0c3.6-0.5,13.7-2.9,15.3-4.3c1.6-1.5,5.8-9.5,5.8-10.8C109.4,86,106.3,45.2,103.4,40.3z M66.3,42.6
		c-0.7,3-3.1,14.5-3.2,20.3c0,0.4-0.1,0.7-0.1,1.1c-0.8,3.8-5.3,4.2-7,2.5c-0.4-0.4-0.6-0.8-0.6-1.4c-0.2-3.4,1.7-18.6,3.3-22.1
		c1.3-2.7,5.6-3.3,7.1-2C66.3,41.3,66.5,41.8,66.3,42.6z M75.2,75.2V75C75.2,75.1,75.2,75.2,75.2,75.2L75.2,75.2z"/>
</g>
<rect x="22.2" y="-0.3" class="st5" width="20.4" height="8.8"/>
<path class="st6" d="M52.1,50.6c-1-7-1.9-13.9-3.2-20.8c-0.1-0.3-0.1-0.6-0.2-0.9c-0.8-3.2-1.5-6.5-2.3-9.7
	c-1.2-3.6-2.5-7.2-3.7-10.8c-6.8,0-13.7,0-20.5,0C14.7,20.9,9.2,24.1,4.4,39c-3.9,17.2-6.5,54.4-1.6,70.7c16,0,32,0,47.9,0
	c2.3-5.1,3-23.7,3.1-30C53.6,70,53.2,60.5,52.1,50.6z M19.8,41.6c-0.9,6.9-3.2,18.3-3.5,21.1c-0.4,2.8-1.2,7.1-5,6.1
	C9.2,68.2,9,66,8.9,63.4c-0.1-6.7,1.2-25.7,6.1-28.7C20.1,31.5,20.2,38.4,19.8,41.6z"/>
<g>
	<polygon class="st6" points="89.8,39.5 95.5,44.3 98.5,40.8 100.1,35.5 97.8,33.5 92.9,36.3 	"/>
	<path class="st7" d="M89.3,40.9c1.9,1.6,3.8,3.2,5.6,4.8c1.9,1,6.8-0.5,10.4,1.5c1.4,0.8,3.3,2.8,3.8,4.3c0.2,0.6,0.5,2,0.5,2v56.3
		H85.5c0-15.9,0-31.9,0-47.8c0-0.9,0-1.3,0.2-2.2c0.9-3.6,4.1-4.3,7.6-4.6c1.8-0.2,6.5,0.1,7.7-1.1c0.3-0.3-0.2-0.6-0.6-0.8
		c-2-0.8-4.8-0.6-6.9-0.9c-2.2-0.4-3.9-1.3-5.1-4c-0.4-1-0.8-2-0.8-2.7C87.2,43.1,87.7,42.8,89.3,40.9z"/>
</g>
<path class="st8" d="M36.5,8.7c0,0,1.9,23.4,2.2,29.7c0.7,14.5,2.3,43.6,0.7,58c-0.3,3-1.6,6.7-4.5,11.2c-1.8,2.7,12.4,5,14.5-8.5
	c2.1-13.6-0.3-48.2-2.9-65.1c-1-6.5-6.1-25.4-6.1-25.4L36.5,8.7L36.5,8.7z"/>
<path class="st9" d="M108.1,52.7c-0.6-0.9-1-1.3-1.5-1.8c-1.2-1.2-2.9-1.4-4.1-1.5v6.3c0,1,0.1,0.8,0,2.1v51.7h5.6
	C108.1,109.5,108.1,52.7,108.1,52.7z"/>
</svg>
