<svg id="svg" xmlns="http://www.w3.org/2000/svg" xmlns:xlink="http://www.w3.org/1999/xlink" width="400" height="458.343949044586" viewBox="0, 0, 400,458.343949044586"><g id="svgg"><path id="path0" d="M0.734 114.459 C 1.161 115.194,8.250 127.517,16.487 141.843 L 31.465 167.890 49.618 167.894 C 59.602 167.896,67.770 167.812,67.769 167.707 C 67.767 167.602,64.619 162.242,60.771 155.796 L 53.776 144.076 85.393 143.949 L 117.011 143.822 125.761 128.662 C 130.574 120.325,134.514 113.417,134.517 113.312 C 134.520 113.207,104.245 113.121,67.240 113.121 L -0.042 113.121 0.734 114.459 M161.894 127.834 C 157.298 135.927,153.371 142.809,153.168 143.128 L 152.799 143.708 249.346 143.627 L 345.893 143.546 339.415 154.894 C 335.852 161.135,332.711 166.615,332.435 167.070 L 331.933 167.898 350.002 167.898 L 368.071 167.898 373.894 157.771 C 377.096 152.201,384.166 139.918,389.604 130.475 C 395.041 121.033,399.490 113.265,399.490 113.214 C 399.490 113.163,347.912 113.121,284.871 113.121 L 170.251 113.121 161.894 127.834 M105.910 295.605 C 106.176 296.061,108.725 300.475,111.576 305.414 L 116.758 314.395 134.700 314.395 C 144.568 314.395,152.597 314.309,152.542 314.204 C 152.488 314.099,149.942 309.685,146.886 304.395 L 141.328 294.777 123.378 294.777 L 105.427 294.777 105.910 295.605 M258.521 296.242 C 256.533 299.556,248.153 314.107,248.153 314.245 C 248.153 314.328,256.177 314.395,265.984 314.395 L 283.814 314.395 284.428 313.439 C 285.373 311.969,294.724 295.728,294.916 295.223 C 295.077 294.801,294.132 294.777,277.243 294.777 L 259.400 294.777 258.521 296.242 M215.133 370.698 C 203.772 390.000,200.071 396.096,199.857 395.857 C 199.483 395.440,190.875 381.321,190.716 380.864 C 190.632 380.622,193.416 378.731,199.488 374.908 C 204.542 371.724,208.250 369.234,208.077 369.140 C 207.908 369.049,201.522 366.999,193.885 364.584 C 186.248 362.170,173.924 358.269,166.497 355.916 C 159.070 353.562,152.943 351.687,152.882 351.748 C 152.738 351.890,145.003 408.760,145.111 408.881 C 145.156 408.931,149.512 406.432,154.792 403.327 C 160.071 400.222,164.419 397.716,164.453 397.758 C 164.487 397.800,172.400 411.363,182.038 427.898 C 191.676 444.433,199.643 458.054,199.743 458.166 C 199.843 458.278,203.653 451.973,208.210 444.153 C 219.347 425.041,240.562 388.625,251.667 369.554 C 256.645 361.006,261.846 352.089,263.225 349.739 C 264.604 347.388,265.732 345.410,265.732 345.344 C 265.732 345.277,257.721 345.223,247.930 345.223 L 230.127 345.223 215.133 370.698 " stroke="none" fill="#93cb53" fill-rule="evenodd"></path><path id="path1" d="M167.319 56.413 C 149.421 87.440,134.777 112.931,134.777 113.060 C 134.777 113.362,117.235 143.767,116.959 143.944 C 116.756 144.073,103.505 166.920,103.256 167.570 C 103.154 167.836,106.559 167.897,121.183 167.894 L 139.236 167.891 145.996 155.984 L 152.756 144.076 153.766 143.922 L 154.777 143.767 153.822 143.730 C 153.296 143.711,152.866 143.630,152.866 143.551 C 152.866 143.300,170.012 113.255,170.244 113.099 C 170.367 113.018,176.947 101.553,184.868 87.622 C 192.789 73.691,199.361 62.200,199.472 62.086 C 199.634 61.921,208.408 75.276,208.408 75.688 C 208.408 75.751,204.512 77.747,199.752 80.124 C 194.991 82.501,191.179 84.527,191.280 84.627 C 191.675 85.013,242.673 108.032,242.921 107.936 C 243.208 107.826,258.698 53.263,258.499 53.064 C 258.433 52.998,253.592 55.249,247.741 58.067 C 239.873 61.857,237.050 63.107,236.898 62.869 C 236.784 62.692,228.464 48.477,218.409 31.279 C 208.354 14.082,200.067 0.008,199.994 0.005 C 199.920 0.002,185.216 25.386,167.319 56.413 M259.554 143.631 C 253.424 143.669,248.408 143.769,248.408 143.853 C 248.408 143.938,251.406 149.382,255.070 155.952 L 261.731 167.898 279.656 167.898 C 289.514 167.898,297.580 167.835,297.580 167.759 C 297.580 167.522,284.280 144.359,283.872 143.885 C 283.522 143.480,282.913 143.445,277.094 143.500 C 273.578 143.534,265.685 143.592,259.554 143.631 M339.554 143.624 C 340.010 143.680,340.755 143.680,341.210 143.624 C 341.666 143.567,341.293 143.521,340.382 143.521 C 339.471 143.521,339.099 143.567,339.554 143.624 M109.133 173.000 C 103.773 173.967,100.403 177.312,99.235 182.825 C 98.661 185.538,98.679 218.532,99.256 221.348 C 100.815 228.948,107.489 232.765,116.047 230.952 C 123.070 229.464,125.592 225.111,125.601 214.459 L 125.605 209.172 121.292 209.172 L 116.979 209.172 116.897 214.586 C 116.819 219.750,116.788 220.044,116.217 220.962 C 114.575 223.604,109.992 223.444,108.626 220.697 C 107.847 219.129,107.898 184.816,108.682 183.322 C 110.166 180.493,114.837 180.486,116.291 183.312 C 116.747 184.198,116.826 184.890,116.896 188.599 L 116.976 192.866 121.291 192.866 L 125.605 192.866 125.601 188.599 C 125.588 176.752,119.629 171.107,109.133 173.000 M155.533 173.093 C 150.590 174.039,147.379 177.171,146.051 182.340 C 145.275 185.360,145.388 219.457,146.183 222.271 C 147.964 228.578,152.661 231.631,160.000 231.251 C 168.893 230.791,172.124 226.517,172.407 214.841 L 172.545 209.172 168.183 209.172 L 163.822 209.172 163.822 213.618 C 163.822 221.433,162.287 223.840,158.036 222.695 C 154.688 221.794,154.777 222.359,154.777 201.911 L 154.777 184.586 155.343 183.527 C 157.325 179.821,162.654 180.559,163.532 184.662 C 163.692 185.405,163.822 187.554,163.822 189.439 L 163.822 192.866 168.187 192.866 L 172.552 192.866 172.415 188.217 C 172.064 176.285,166.217 171.047,155.533 173.093 M281.656 172.899 C 275.803 173.809,272.151 177.257,270.976 182.983 C 270.394 185.820,270.374 218.012,270.952 221.060 C 272.199 227.636,276.965 231.329,284.204 231.329 C 291.304 231.329,295.983 227.841,297.420 221.478 C 298.113 218.410,298.037 185.079,297.331 182.317 C 295.581 175.476,289.313 171.710,281.656 172.899 M36.943 202.038 L 36.943 230.573 41.529 230.573 L 46.115 230.573 46.115 218.943 L 46.115 207.313 48.599 207.485 C 54.478 207.892,55.018 209.087,55.027 221.707 C 55.030 225.243,55.153 228.564,55.308 229.287 L 55.584 230.573 60.276 230.573 C 62.857 230.573,64.967 230.487,64.965 230.382 C 64.964 230.277,64.792 229.628,64.583 228.940 C 64.293 227.982,64.202 226.224,64.195 221.424 C 64.179 209.288,63.440 206.272,59.823 203.585 L 58.647 202.712 59.578 202.026 C 62.997 199.506,63.940 196.672,63.940 188.917 C 63.940 175.672,61.313 173.516,45.159 173.508 L 36.943 173.503 36.943 202.038 M69.554 202.038 L 69.554 230.573 81.911 230.573 L 94.268 230.573 94.268 226.497 L 94.268 222.420 86.497 222.420 L 78.726 222.420 78.726 214.140 L 78.726 205.860 84.968 205.860 L 91.210 205.860 91.210 201.656 L 91.210 197.452 84.968 197.452 L 78.726 197.452 78.726 189.682 L 78.726 181.911 86.497 181.911 L 94.268 181.911 94.268 177.707 L 94.268 173.503 81.911 173.503 L 69.554 173.503 69.554 202.038 M130.955 202.038 L 130.955 230.573 135.541 230.573 L 140.127 230.573 140.127 202.038 L 140.127 173.503 135.541 173.503 L 130.955 173.503 130.955 202.038 M177.580 202.038 L 177.580 230.573 189.554 230.573 L 201.529 230.573 201.529 226.497 L 201.529 222.420 194.140 222.420 L 186.752 222.420 186.752 197.962 L 186.752 173.503 182.166 173.503 L 177.580 173.503 177.580 202.038 M211.853 173.822 C 211.795 173.997,209.789 186.522,207.395 201.656 C 205.000 216.790,202.978 229.487,202.902 229.873 L 202.762 230.573 206.981 230.573 C 211.150 230.573,211.202 230.566,211.325 230.000 C 211.450 229.429,212.739 220.782,212.739 220.520 C 212.739 219.980,223.436 220.410,223.555 220.955 C 223.679 221.526,224.968 230.173,224.968 230.435 C 224.968 230.511,227.032 230.573,229.554 230.573 C 233.638 230.573,234.140 230.527,234.140 230.155 C 234.140 229.799,225.748 176.702,225.317 174.331 L 225.166 173.503 218.562 173.503 C 213.505 173.503,211.934 173.578,211.853 173.822 M238.217 202.038 L 238.217 230.573 246.825 230.573 C 257.706 230.573,259.707 230.112,262.552 226.948 C 265.676 223.473,265.725 223.091,265.724 202.166 C 265.723 180.803,265.658 180.331,262.231 176.864 C 259.325 173.923,257.352 173.503,246.450 173.503 L 238.217 173.503 238.217 202.038 M303.439 202.038 L 303.439 230.573 308.025 230.573 L 312.611 230.573 312.611 218.946 L 312.611 207.319 315.086 207.500 C 320.810 207.921,321.067 208.443,321.295 220.127 C 321.399 225.514,321.572 229.015,321.761 229.618 L 322.062 230.573 326.739 230.573 L 331.415 230.573 331.019 229.363 C 330.710 228.416,330.585 226.243,330.445 219.363 C 330.211 207.812,329.567 205.524,325.959 203.410 L 324.833 202.750 325.976 201.993 C 327.219 201.169,328.577 199.440,329.241 197.834 C 330.987 193.612,330.789 182.778,328.899 179.072 C 326.538 174.444,323.657 173.514,311.656 173.508 L 303.439 173.503 303.439 202.038 M338.373 201.338 C 335.941 216.646,333.894 229.487,333.823 229.873 L 333.694 230.573 337.918 230.573 L 342.143 230.573 342.283 229.745 C 342.361 229.290,342.652 227.369,342.930 225.478 C 343.208 223.586,343.499 221.666,343.577 221.210 L 343.717 220.382 349.045 220.382 L 354.372 220.382 354.513 221.210 C 354.590 221.666,354.881 223.586,355.159 225.478 C 355.437 227.369,355.728 229.290,355.806 229.745 L 355.947 230.573 360.521 230.573 C 363.793 230.573,365.096 230.490,365.096 230.281 C 365.096 230.120,363.089 217.378,360.637 201.966 C 358.185 186.553,356.178 173.844,356.178 173.723 C 356.178 173.602,353.167 173.503,349.486 173.503 L 342.794 173.503 338.373 201.338 M286.373 181.720 C 288.661 182.879,288.525 181.666,288.607 201.656 C 288.687 221.226,288.726 220.744,286.993 222.066 C 284.967 223.611,281.510 222.928,280.397 220.764 C 279.638 219.289,279.568 184.889,280.321 183.511 C 281.546 181.270,284.034 180.534,286.373 181.720 M52.751 182.485 C 54.526 183.681,54.650 184.190,54.650 190.318 C 54.650 198.053,54.130 198.824,48.691 199.156 L 46.115 199.313 46.115 190.612 L 46.115 181.911 49.007 181.911 C 51.586 181.911,51.992 181.973,52.751 182.485 M254.526 182.376 C 255.078 182.664,255.631 183.264,255.987 183.958 L 256.561 185.076 256.561 202.038 L 256.561 219.000 255.987 220.131 C 255.107 221.868,254.310 222.196,250.567 222.357 L 247.389 222.495 247.389 202.203 L 247.389 181.911 250.514 181.911 C 253.044 181.911,253.808 181.999,254.526 182.376 M318.981 182.357 C 320.777 183.254,321.146 184.591,321.146 190.191 C 321.146 197.883,320.537 198.793,315.143 199.146 L 312.611 199.312 312.611 190.612 L 312.611 181.911 315.350 181.911 C 317.447 181.912,318.298 182.016,318.981 182.357 M351.083 198.471 C 352.078 205.268,352.957 211.201,353.035 211.656 L 353.178 212.484 349.073 212.484 C 345.963 212.484,344.966 212.407,344.961 212.166 C 344.935 211.025,348.946 185.286,349.092 185.656 C 349.191 185.908,350.087 191.675,351.083 198.471 M220.103 198.153 C 221.135 205.124,222.036 211.201,222.106 211.656 L 222.232 212.484 218.123 212.484 C 215.862 212.484,214.010 212.398,214.006 212.293 C 213.986 211.689,217.978 185.478,218.091 185.478 C 218.166 185.478,219.071 191.182,220.103 198.153 M95.630 233.128 C 89.578 234.219,86.484 238.046,85.825 245.252 C 85.378 250.141,85.683 278.218,86.205 280.210 C 87.840 286.452,91.645 289.232,98.599 289.266 C 108.114 289.313,111.578 285.025,111.588 273.185 L 111.592 268.025 107.403 268.025 L 103.213 268.025 103.135 273.358 C 103.063 278.278,103.017 278.745,102.532 279.393 C 100.612 281.962,96.791 281.825,95.247 279.131 L 94.650 278.089 94.650 261.146 L 94.650 244.204 95.239 243.100 C 96.665 240.428,100.603 240.320,102.532 242.900 C 103.005 243.533,103.065 244.029,103.138 247.916 L 103.218 252.229 107.405 252.229 L 111.592 252.229 111.588 248.089 C 111.576 236.654,105.849 231.284,95.630 233.128 M230.191 233.122 C 225.082 234.050,222.132 236.823,220.707 242.038 C 220.294 243.549,220.255 245.221,220.255 261.146 C 220.255 280.254,220.238 280.011,221.801 283.234 C 225.515 290.885,239.035 291.693,243.806 284.548 C 245.666 281.764,245.942 280.446,246.056 273.822 L 246.156 268.025 241.932 268.025 L 237.707 268.025 237.701 272.930 C 237.694 279.164,237.321 280.210,234.815 281.015 C 232.837 281.651,230.648 280.853,229.748 279.167 L 229.172 278.089 229.099 261.931 C 229.009 242.009,229.069 241.645,232.474 241.135 C 236.442 240.540,237.707 242.320,237.707 248.501 L 237.707 252.229 241.935 252.229 L 246.162 252.229 246.055 247.452 C 245.906 240.766,244.740 237.644,241.506 235.270 C 238.933 233.382,233.961 232.438,230.191 233.122 M116.239 256.369 C 116.329 281.421,116.253 280.203,117.939 283.505 C 122.121 291.696,136.776 291.515,140.656 283.224 C 142.167 279.996,142.156 280.183,142.161 255.860 L 142.166 233.631 137.962 233.631 L 133.758 233.631 133.758 255.631 C 133.758 271.376,133.676 277.877,133.469 278.497 C 132.345 281.858,127.553 282.299,125.732 279.209 C 125.235 278.364,125.221 277.820,125.153 255.987 L 125.082 233.631 120.620 233.631 L 116.158 233.631 116.239 256.369 M147.771 261.146 L 147.771 288.662 159.236 288.662 L 170.701 288.662 170.701 284.713 L 170.701 280.764 163.694 280.764 L 156.688 280.764 156.688 257.197 L 156.688 233.631 152.229 233.631 L 147.771 233.631 147.771 261.146 M174.268 261.146 L 174.268 288.662 178.726 288.662 L 183.185 288.662 183.185 261.146 L 183.185 233.631 178.726 233.631 L 174.268 233.631 174.268 261.146 M195.564 234.331 C 195.304 235.588,187.006 287.902,187.006 288.287 C 187.006 288.602,187.660 288.662,191.052 288.662 L 195.097 288.662 195.367 286.815 C 195.516 285.799,195.840 283.564,196.088 281.847 L 196.539 278.726 201.709 278.726 C 204.553 278.726,206.879 278.780,206.879 278.845 C 206.879 279.114,208.164 287.561,208.286 288.089 C 208.416 288.657,208.460 288.662,212.901 288.662 C 217.044 288.662,217.376 288.629,217.271 288.217 C 217.209 287.971,215.221 275.589,212.853 260.701 L 208.548 233.631 202.128 233.631 L 195.709 233.631 195.564 234.331 M257.580 233.764 C 257.580 233.837,255.631 246.122,253.248 261.064 C 250.866 276.006,248.917 288.328,248.917 288.446 C 248.917 288.565,250.745 288.662,252.978 288.662 L 257.039 288.662 257.199 287.580 C 257.286 286.984,257.614 284.777,257.927 282.675 L 258.495 278.854 263.636 278.785 L 268.777 278.716 268.902 279.294 C 268.970 279.612,269.263 281.535,269.552 283.567 C 269.842 285.599,270.141 287.576,270.219 287.962 L 270.359 288.662 274.797 288.662 C 277.238 288.662,279.236 288.609,279.236 288.544 C 279.236 288.479,277.287 276.194,274.904 261.244 C 272.522 246.294,270.573 233.965,270.573 233.846 C 270.573 233.728,267.650 233.631,264.076 233.631 C 260.503 233.631,257.580 233.691,257.580 233.764 M282.803 261.146 L 282.803 288.662 286.877 288.662 L 290.952 288.662 291.017 269.618 L 291.083 250.573 296.200 269.554 L 301.318 288.535 305.946 288.604 L 310.573 288.674 310.573 261.152 L 310.573 233.631 306.626 233.631 L 302.679 233.631 302.613 249.579 L 302.548 265.528 298.788 251.554 C 296.721 243.868,294.787 236.691,294.492 235.605 L 293.954 233.631 288.378 233.631 L 282.803 233.631 282.803 261.146 M203.692 257.816 C 204.744 264.882,205.605 270.758,205.605 270.873 C 205.605 270.988,203.814 271.083,201.624 271.083 L 197.643 271.083 197.773 270.382 C 197.844 269.997,198.747 263.965,199.779 256.979 C 200.811 249.992,201.684 244.432,201.718 244.622 C 201.752 244.812,202.640 250.750,203.692 257.816 M265.733 258.288 C 266.714 264.913,267.516 270.502,267.516 270.708 C 267.516 271.022,266.870 271.083,263.539 271.083 L 259.563 271.083 259.695 270.510 C 259.769 270.194,260.667 264.268,261.693 257.341 C 263.041 248.234,263.611 244.953,263.754 245.494 C 263.862 245.905,264.752 251.663,265.733 258.288 M22.196 306.591 C 9.985 327.601,0.039 344.838,0.095 344.893 C 0.151 344.949,71.435 345.040,158.506 345.095 C 245.576 345.151,335.546 345.274,358.440 345.370 C 386.853 345.488,400.034 345.460,399.968 345.282 C 399.916 345.138,390.299 328.317,378.599 307.903 L 357.325 270.786 339.638 270.935 C 329.910 271.018,321.907 271.129,321.853 271.183 C 321.799 271.237,327.322 280.866,334.126 292.581 C 340.930 304.296,346.497 313.939,346.497 314.011 C 346.497 314.082,332.459 314.140,315.302 314.140 C 294.780 314.140,284.053 314.227,283.949 314.395 C 283.723 314.761,248.227 314.745,248.105 314.378 C 248.041 314.186,230.291 314.178,187.510 314.348 C 154.233 314.481,110.549 314.517,90.435 314.429 L 53.863 314.268 66.930 291.465 C 77.072 273.767,79.897 268.651,79.553 268.610 C 79.308 268.581,71.299 268.520,61.753 268.473 L 44.398 268.389 22.196 306.591 " stroke="none" fill="#145434" fill-rule="evenodd"></path><path id="path2" d="M330.764 143.622 C 331.150 143.680,331.780 143.680,332.166 143.622 C 332.551 143.564,332.236 143.516,331.465 143.516 C 330.694 143.516,330.379 143.564,330.764 143.622 M333.694 143.624 C 334.150 143.680,334.895 143.680,335.350 143.624 C 335.806 143.567,335.433 143.521,334.522 143.521 C 333.611 143.521,333.239 143.567,333.694 143.624 M122.501 314.586 C 125.629 314.626,130.673 314.626,133.712 314.586 C 136.750 314.545,134.191 314.512,128.025 314.512 C 121.860 314.512,119.374 314.545,122.501 314.586 M257.025 314.586 C 261.975 314.625,270.000 314.625,274.859 314.586 C 279.719 314.547,275.669 314.515,265.860 314.516 C 256.051 314.516,252.075 314.547,257.025 314.586 M235.750 345.159 C 238.807 345.200,243.737 345.200,246.705 345.159 C 249.673 345.118,247.172 345.085,241.146 345.085 C 235.121 345.085,232.692 345.118,235.750 345.159 " stroke="none" fill="#5c9444" fill-rule="evenodd"></path><path id="path3" d="M253.966 143.630 C 257.094 143.671,262.138 143.671,265.177 143.630 C 268.215 143.590,265.656 143.556,259.490 143.557 C 253.325 143.557,250.839 143.590,253.966 143.630 M147.314 314.584 C 148.253 314.632,149.859 314.633,150.881 314.584 C 151.903 314.536,151.134 314.496,149.172 314.495 C 147.210 314.495,146.374 314.535,147.314 314.584 M262.873 345.155 C 263.472 345.209,264.389 345.208,264.911 345.153 C 265.433 345.099,264.943 345.055,263.822 345.055 C 262.701 345.056,262.274 345.101,262.873 345.155 " stroke="none" fill="#478442" fill-rule="evenodd"></path><path id="path4" d="M336.756 143.624 C 337.214 143.681,337.902 143.680,338.285 143.622 C 338.668 143.563,338.293 143.517,337.452 143.518 C 336.611 143.520,336.298 143.567,336.756 143.624 M140.701 314.584 C 141.646 314.633,143.194 314.633,144.140 314.584 C 145.086 314.535,144.312 314.495,142.420 314.495 C 140.529 314.495,139.755 314.535,140.701 314.584 M254.472 345.158 C 255.916 345.204,258.209 345.204,259.568 345.158 C 260.926 345.112,259.745 345.075,256.943 345.075 C 254.140 345.075,253.028 345.113,254.472 345.158 " stroke="none" fill="#549444" fill-rule="evenodd"></path></g></svg>