<?xml version="1.0" encoding="utf-8"?>
<!-- Generator: Adobe Illustrator 22.0.0, SVG Export Plug-In . SVG Version: 6.00 Build 0)  -->
<svg version="1.1" id="Capa_1" xmlns="http://www.w3.org/2000/svg" xmlns:xlink="http://www.w3.org/1999/xlink" x="0px" y="0px"
	 viewBox="0 0 423.8 435.5" style="enable-background:new 0 0 423.8 435.5;" xml:space="preserve">
<style type="text/css">
	.st0{fill:#E6E6E6;}
	.st1{fill:#6CD948;}
	.st2{opacity:0.3;}
	.st3{fill:#B6E9E3;}
	.st4{fill:#00CF41;}
	.st5{opacity:0.1;}
	.st6{fill:#00C1B3;}
	.st7{opacity:0.1;fill:#E4FFDC;}
</style>
<ellipse class="st0" cx="214" cy="378.2" rx="130.7" ry="10.6"/>
<path class="st1" d="M276.4,192.9l50.6-33.7l25.1,41.5c0,0,17.5,23.4,10.2,46.3c-7.4,22.9-31.2,33.2-42.6,33.6L276.4,192.9z"/>
<path class="st2" d="M276.4,192.9l50.6-33.7l25.1,41.5c0,0,17.5,23.4,10.2,46.3c-7.4,22.9-31.2,33.2-42.6,33.6L276.4,192.9z"/>
<path class="st1" d="M129.5,179.8l31.7,60.7l-20.8-11.8l-12.2,19.2c0,0-7,16,11.9,22.4c0,0-74.2,7-77.4-39.6c0,0-0.3-23,15.7-36.4
	L59,179.8H129.5z"/>
<path class="st2" d="M129.5,179.8l31.7,60.7l-20.8-11.8l-12.2,19.2c0,0-7,16,11.9,22.4c0,0-74.2,7-77.4-39.6c0,0-0.3-23,15.7-36.4
	L59,179.8H129.5z"/>
<path class="st1" d="M161.2,66c0,0-15.1-2.9-33,29.1s-30,50.2-30,50.2l70.7,39.3L233.3,89C233.3,89,205.9,64.1,161.2,66z"/>
<path class="st2" d="M161.2,66c0,0-15.1-2.9-33,29.1s-30,50.2-30,50.2l70.7,39.3L233.3,89C233.3,89,205.9,64.1,161.2,66z"/>
<g>
	<path class="st0" d="M214.6,123.3H18.5c-3.9,0-7-3.2-7-7v0c0-3.9,3.2-7,7-7h196.1c3.9,0,7,3.2,7,7v0
		C221.6,120.2,218.5,123.3,214.6,123.3z"/>
	<path class="st0" d="M182.9,112.4H35.6c-5,0-9-4.1-9-9l0,0c0-5,4.1-9,9-9h147.3c5,0,9,4.1,9,9l0,0
		C191.9,108.4,187.9,112.4,182.9,112.4z"/>
	<path class="st0" d="M107.7,104H66c-7.6,0-13.9-6.2-13.9-13.9l0,0c0-7.6,6.2-13.9,13.9-13.9h41.6c7.6,0,13.9,6.2,13.9,13.9l0,0
		C121.5,97.8,115.3,104,107.7,104z"/>
</g>
<path class="st0" d="M404.4,185.7H297.7c-3.6,0-6.5-5.2-6.5-11.6l0,0c0-6.4,2.9-11.6,6.5-11.6h106.8c3.6,0,6.5,5.2,6.5,11.6l0,0
	C411,180.5,408,185.7,404.4,185.7z"/>
<path class="st0" d="M377.5,175.8h-51.9c-9.5,0-17.3-7.8-17.3-17.3l0,0c0-9.5,7.8-17.3,17.3-17.3h51.9c9.5,0,17.3,7.8,17.3,17.3l0,0
	C394.8,168.1,387,175.8,377.5,175.8z"/>
<g>
	<g>
		<g>
			<path class="st3" d="M322.8,210.4c0,60.5-49.1,109.6-109.6,109.6c-60.5,0-109.6-49.1-109.6-109.6c0-60.5,49-109.6,109.6-109.6
				C273.7,100.8,322.8,149.9,322.8,210.4z"/>
			<path class="st4" d="M115.6,160.6c-0.1,0.1,6.2,2,6.1,5c-0.2,2.9-4.3,7.7-1.5,10.8c2.8,3.1,4.5,7.6,6.8,5.7
				c2.3-1.8-2.3-6-2.2-9.7c0.2-3.7-2.5-7.7,0-6.3c2.5,1.4,2.2,4.8,2.8,7.7c0.6,2.9,5.2,6.1,3.8,8.8c-1.4,2.6-1.5,5.7,2.8,8.5
				c4.3,2.8,7.1,3.1,10.3,3.2c3.2,0.2,1.5,1.2,5.9,4.6c4.3,3.4,3.5,6.6,8.3,8.6c4.8,2,7.1,1.4,8.3,2.9c1.2,1.5,1.4,5.4-2.5,7.6
				c-3.9,2.2-4.9,2.8-4.6,4.9c0.3,2.2-2.3,7.7,1.9,12.2c4.2,4.5,1.2,6.5,6,9.6c4.8,3.1,8,3.5,7.9,8.2c-0.2,4.6-3.1,11.7-1.7,18
				c1.4,6.3-1.1,7.4,0.2,11.7c1.2,4.3,0.8,6.3,1.5,11.9c0.8,5.5,3.7,13.7,11.7,16c8,2.3,1.4-4.8,0.9-5.4c-0.5-0.6,0.2-3.7,0.6-5.9
				c0.5-2.2-2.2-2.9-2.9-4.2c-0.8-1.2-0.3-1.5,1.1-3.2c1.4-1.7-2.3-3.2-1.4-5.2c0.9-2,6.6,1.4,10.3-2c3.7-3.4,4.2-4.9,7.1-7.9
				c2.9-2.9,4.2-1.7,4.5-7.4c0.3-5.7-0.5-6,2-6.8c2.5-0.8,9.6,2.9,12-6.2c2.5-9.1-2-8.3,2.5-12c4.5-3.7,4.5-5.9,2.5-8.6
				c-2-2.7-2-3.9-4.9-4.7c-2.9-0.8-7.7,0.3-9.7-1.2c-2-1.5-2.3-0.9-4.5-3.1c-2.2-2.2-3.5-0.3-2.9-2.6c0.6-2.3,1.7-5.2-0.3-7.1
				c-2-1.8-6.3-1.4-7.6-2.6c-1.2-1.2-0.5-5.1-2.8-6.6c-2.3-1.5-4-0.9-6.2-0.9c-2.2,0-4.8-0.3-4.9-1.5c-0.2-1.2-1.5-2-3.9-2.8
				c-2.3-0.8-3.9-0.6-5.2,1.1c-1.4,1.7,0.5,1.7-3.2,2.3c-3.7,0.6-9.6,0.9-10-2c-0.5-2.9,1.2-3.9,0.5-7.4c-0.8-3.5-2.3-2.5-3.9-3.1
				c-1.5-0.6-2.2-2-0.6-2.3c1.5-0.3,2.5-2.2,0.9-3.4c-1.5-1.2-3.1-1.1-5.1,0.2c-2,1.2-2.9,2-5.7,1.4c-2.8-0.6-5.2-2.8-3.4-6
				c1.8-3.2,3.1-8.5,7.1-9.6c4-1.1,15.9-2,15.9,1.7c0,3.7,2,5.2,4.5,6c2.5,0.8-0.9-6.2,0.5-7.6c1.4-1.4,7.7-2.2,12-7.7
				c4.3-5.5,4.8-6,8.9-7.6c4.2-1.5,3.8-3.4,8-4.9c4.2-1.5,6.5,0.5,7.4-1.4c0.9-1.9-4.6-5.2-1.9-5.7c2.8-0.5,5.6,3.7,7.7,3.1
				c2.1-0.6,2.2,0.9,2.7,3.2c0.5,2.3,3.7,4.9,5.4,3.7c1.7-1.2,2.2-4,0.8-5.1c-1.4-1.1-4.3-1.5-3.1-2.6c1.2-1.1,3.5-2,3.2-4.2
				c-0.3-2.2-2.8-2.3-2.9-3.7c-0.2-1.4-0.2-3.1-0.5-4.3c-0.3-1.2-2.5-1.2-3.9,0c-1.4,1.2-3.1,0.3-2.9-2c0.2-2.3-0.6-5.2-3.4-4.8
				c-2.8,0.5-5.4-1.6-6.8,0c-1.4,1.6-1.4,3.9-1.3,6.5c0.2,2.6-0.6,4.6-1.8,4c-1.2-0.6-4.3-2.2-5.1-0.5c-0.8,1.7-1.7,3.5-2.8,3.2
				c-1.1-0.3-0.6-3.9-1.5-4.9c-0.9-1.1-3.1-1.1-4.5-1.5c-1.4-0.5-4-0.3-3.9-2.3c0.1-2-0.6-4.4,2.3-5.1c2.9-0.7,8.6-6.9,10.9-5.7
				c2.3,1.2,0.9,3.4,3.5,4.2c2.6,0.8,3.5-1.4,4.8-3.2c1.2-1.9,2.8-2.6,5.1-2.8c2.3-0.2,6.9,0.2,7.6,1.9c0.6,1.7,0.6,2.6-1.2,2.8
				c-1.9,0.2-5.5-1.1-5.1,0.3c0.5,1.4,2.6,0.9,4.9,2.6c2.3,1.7,3.7,5.5,5.5,3.7c1.8-1.8,0.9-5.1,3.9-4.2c2.9,0.9,6.2,0.6,5.4-1.2
				c-0.8-1.9-1.5-1.7-2.9-4.6c-1.4-2.9-2.6-4-5.2-5.6c-2.6-1.5-3.5-3.9-6.5-3.4c-2.9,0.5-7.2,0.9-8,1.5c-0.8,0.6-3.7,1.7-4.1,2.6
				c-0.5,0.9-3.6,2.3-3.3,1.4c0.3-0.9,4.9-5.4,4.2-5.6c-0.8-0.2-6.8-1.8-8.5-1c-1.7,0.8-3.2,0.9-1.7,3.1c1.5,2.2,0.9,2.9-0.5,3.1
				c-1.4,0.2-4.2,0-6.3,0.2c-2.2,0.2-3.7-0.8-3.2-1.5c0.5-0.8,4.2,0.2,5.7-1.9c1.5-2-0.6-3.7-3.4-3.1c-2.8,0.5-4.2-0.1-4.9-2.3
				c-0.8-2.2-7.8-1.7-7.8-1.7s1.5-0.6-0.6,0.2c-2.1,0.9-2,4.9-0.3,6c1.7,1.1,4.8,1.8,4.6,3.2c-0.2,1.4-2.3,1.5-4.6-0.2
				c-2.3-1.7-3.2-1.7-4.6-3.1c-1.4-1.4-2.2-2.8-2.6-2.5c-0.5,0.2-0.5,0.2-0.5,0.2l0,0C163.5,112.7,135.3,123.1,115.6,160.6z"/>
			<path class="st4" d="M288.5,289.9c0,0-3.3-1.2-3-4.5c0.3-3.2-0.5-7.9-1.8-10.6c-1.4-2.8-0.3-6.9-1.1-9.1
				c-0.8-2.2-2.9-2.8-1.8-6.3c1.1-3.5,5.8-4.5,3.7-10.8c-2-6.3-3.9-4.3-4.6-9.1c-0.8-4.8,3.5-4.9,1.5-9.4c-2-4.5-1.2-3.9-6.8-5.2
				c-5.5-1.4-6,0-8.5,0c-2.5,0-12,1.5-14.5-2.2c-2.5-3.7-5.1-7.9-6.5-9.1c-1.4-1.2-2.9-7.6-2.2-10c0.8-2.5,2.3-1.8,2.9-3.9
				c0.6-2-2.9-2-2.2-4.3c0.8-2.3,7.1-6.6,10-8.3c2.9-1.7,4-1.5,4-4.8c0-3.2,11.1-4.3,16.2-4.5c5.1-0.2,14.6-0.6,14.5,2.5
				c0,3.1-1.1,4,4.6,5.7c5.7,1.7,5.4,5.9,6.6,4.9c1.2-0.9-1.7-4.5,3.4-5.4c5.1-0.9,5.5,0.5,7.2,2.5c1.7,2,4.4,3.7,7.6,3.4
				c3.1-0.3,3.2,0.3,3.2,0.3s5.5,21.9-3.2,50.7C308.5,273.8,288.5,289.9,288.5,289.9z"/>
			<path class="st4" d="M319.1,182.1c0,0-5.9,1.6-7.5-2.6c-1.5-4.2-1.1-8.8-2.3-7.9c-1.2,0.9-2.5,3.2-1.5,6c0.9,2.9-2.3,5.1-3.7,3.4
				c-1.4-1.7-1.7-6.8-3.5-10.2c-1.8-3.4-3.2-5.4-5.1-5.2c-1.8,0.2-3.8,1.7-0.8,3.5c3.1,1.8,4.8,3.4,4.8,6c0,2.6-2.2,5.7-4.3,4.8
				c-2.2-0.9-5.9-0.5-3.9-2.3c2-1.7,3.9-1,3.2-2.8c-0.6-1.9-2.1-4.3-3.8-5.6c-1.7-1.2-1.3-2.8-3.7-2.6c-2.5,0.2-0.2,1.2-2.5,1.7
				c-2.3,0.5-2.8-1.2-4.6-0.1c-1.9,1.1-1.1,1.8-2.5,3.7c-1.4,1.9-2.2,4-4.3,4c-2.2,0-9.6-0.6-10-4c-0.5-3.4-1.7-5.3,1.8-6.3
				c3.5-1.1,5.9,1.8,7.7,0c1.8-1.8-1.7-5.5,1.8-7.1c3.5-1.5,3.4,0.2,5.7-2c2.3-2.2,0.2-5.4,5.4-5.5c5.2-0.2,8.8,0.3,7.6-2
				c-1.2-2.3-3.4-0.9-6-3.9c-2.6-2.9-6.2-2.5-2.5-5.4c3.7-2.9,6.9-3.7,6.9-3.7h2.1C293.7,136.1,314.8,158.5,319.1,182.1z"/>
			<path class="st4" d="M271.2,155.2c0,0,4,1.1,5.7-0.8c1.7-1.9,2.8-2,1.2-4.8c-1.5-2.8-2.2-4.9-2.5-6.9c-0.3-2-1.7,0-3.7,0
				c-2,0-2.6,1.5-0.8,2.9c1.8,1.4,3.6,2,3.3,3.7c-0.4,1.7-1,1.8-2.2,2.8C271.1,153,269,153.5,271.2,155.2z"/>
			<path class="st4" d="M262.4,151.3c0.3-1.4,4.3-3.4,5.8-3.5c1.5-0.2,3.9,1.2,3.4,1.8c-0.5,0.5-2.3,1.2-3.4,1.8
				C267.2,152,262,153.8,262.4,151.3z"/>
		</g>
		<g class="st5">
			<path class="st6" d="M154.9,167.3c0-21.4,6.2-41.4,16.8-58.3c-39.8,14.9-68.1,55.6-68.1,101.4c0,60.5,49,109.6,109.6,109.6
				c39.1,0,73.4-20.5,92.8-51.3c-12.8,5.2-26.8,8.2-41.5,8.2C203.9,276.8,154.9,227.8,154.9,167.3z"/>
		</g>
	</g>
	<path class="st7" d="M289.4,141.6c26.6,32.2,30.5,72.8,8.9,90.7c-21.7,17.9-60.8,6.3-87.3-26c-26.6-32.2-30.5-72.8-8.9-90.7
		C223.7,97.8,262.8,109.4,289.4,141.6z"/>
	<path class="st7" d="M283.1,135.3c22.1,26.8,27.3,59.1,11.5,72.1c-15.7,13-46.4,1.8-68.6-25c-22.1-26.8-27.3-59.1-11.5-72.1
		C230.3,97.3,261,108.5,283.1,135.3z"/>
</g>
<path class="st1" d="M362.5,222.9c1.3,9.1,0.7,20.3-9.6,31.8c0,0-19.3,18.9-34.8,20.5c-15.5,1.7-15.5,1.7-15.5,1.7l-43.3-2.2v-20
	l-36.6,57.1l41.1,65.3l-4.5-31.5h25c0,0,22.1,3.9,33.8-17.2c11.7-21.1,11.7-21.1,11.7-21.1l20-31.6l7.2-11.6
	C356.9,264.1,371,242.5,362.5,222.9"/>
<path class="st1" d="M62.8,232.2c0,0-4,19.5,13,44.2l24,45.4c0,0,11.1,24.6,28.4,25.6h75.2v-76.7l-63.3-0.4
	C140.1,270.3,70.3,277.9,62.8,232.2z"/>
<path class="st1" d="M161.2,66c0,0,28.5,4.8,46.4,30.7c17.9,25.9,29.7,47.6,29.7,47.6l-19.8,11.2l72.4,6.1l29.8-66.2l-20.4,11.2
	l-15.3-24.9c0,0-11.1-15.3-29.8-16.9C235.3,63.2,161.2,66,161.2,66z"/>
</svg>
