<?xml version="1.0" encoding="utf-8"?>
<!-- Generator: Adobe Illustrator 23.0.2, SVG Export Plug-In . SVG Version: 6.00 Build 0)  -->
<svg version="1.1" id="Capa_1" xmlns="http://www.w3.org/2000/svg" xmlns:xlink="http://www.w3.org/1999/xlink" x="0px" y="0px"
	 viewBox="0 0 423.8 344.2" style="enable-background:new 0 0 423.8 344.2;" xml:space="preserve">
<style type="text/css">
	.st0{fill:#E6E6E6;}
	.st1{fill:#6CD948;}
	.st2{opacity:0.3;enable-background:new    ;}
	.st3{fill:#B6E9E3;}
	.st4{fill:#00CF41;}
	.st5{opacity:0.1;}
	.st6{fill:#00C1B3;}
	.st7{opacity:0.1;fill:#E4FFDC;enable-background:new    ;}
</style>
<ellipse class="st0" cx="214.8" cy="333" rx="138.6" ry="11.2"/>
<path class="st1" d="M281,136.4l53.7-35.7l26.6,44c0,0,18.6,24.8,10.8,49.1c-7.9,24.3-33.1,35.2-45.2,35.6L281,136.4z"/>
<path class="st2" d="M281,136.4l53.7-35.7l26.6,44c0,0,18.6,24.8,10.8,49.1c-7.9,24.3-33.1,35.2-45.2,35.6L281,136.4z"/>
<path class="st1" d="M125.2,122.5l33.6,64.4l-22.1-12.5l-12.9,20.4c0,0-7.4,17,12.6,23.8c0,0-78.7,7.4-82.1-42
	c0,0-0.3-24.4,16.7-38.6l-20.6-15.4H125.2z"/>
<path class="st2" d="M125.2,122.5l33.6,64.4l-22.1-12.5l-12.9,20.4c0,0-7.4,17,12.6,23.8c0,0-78.7,7.4-82.1-42
	c0,0-0.3-24.4,16.7-38.6l-20.6-15.4H125.2z"/>
<path class="st1" d="M158.8,1.8c0,0-16-3.1-35,30.9S92,85.9,92,85.9l75,41.7l68.3-101.4C235.3,26.2,206.2-0.2,158.8,1.8z"/>
<path class="st2" d="M158.8,1.8c0,0-16-3.1-35,30.9S92,85.9,92,85.9l75,41.7l68.3-101.4C235.3,26.2,206.2-0.2,158.8,1.8z"/>
<g>
	<path class="st0" d="M215.5,62.6H7.4c-4.1,0-7.4-3.4-7.4-7.4l0,0c0-4.1,3.4-7.4,7.4-7.4h208c4.1,0,7.4,3.4,7.4,7.4l0,0
		C222.9,59.3,219.6,62.6,215.5,62.6z"/>
	<path class="st0" d="M181.8,51H25.6c-5.3,0-9.5-4.3-9.5-9.5l0,0c0-5.3,4.3-9.5,9.5-9.5h156.3c5.3,0,9.5,4.3,9.5,9.5l0,0
		C191.4,46.8,187.1,51,181.8,51z"/>
	<path class="st0" d="M102.1,42.1H57.8c-8.1,0-14.7-6.6-14.7-14.7l0,0c0-8.1,6.6-14.7,14.7-14.7h44.1c8.1,0,14.7,6.6,14.7,14.7l0,0
		C116.7,35.5,110.1,42.1,102.1,42.1z"/>
</g>
<path class="st0" d="M416.8,128.8H303.6c-3.8,0-6.9-5.5-6.9-12.3l0,0c0-6.8,3.1-12.3,6.9-12.3h113.3c3.8,0,6.9,5.5,6.9,12.3l0,0
	C423.8,123.3,420.6,128.8,416.8,128.8z"/>
<path class="st0" d="M388.3,118.3h-55.1c-10.1,0-18.4-8.3-18.4-18.4l0,0c0-10.1,8.3-18.4,18.4-18.4h55.1c10.1,0,18.4,8.3,18.4,18.4
	l0,0C406.6,110.1,398.3,118.3,388.3,118.3z"/>
<g>
	<g>
		<g>
			<path class="st3" d="M330.2,155c0,64.2-52.1,116.3-116.3,116.3S97.7,219.2,97.7,155S149.7,38.7,214,38.7
				C278.1,38.7,330.2,90.8,330.2,155z"/>
			<path class="st4" d="M110.4,102.2c-0.1,0.1,6.6,2.1,6.5,5.3c-0.2,3.1-4.6,8.2-1.6,11.5s4.8,8.1,7.2,6c2.4-1.9-2.4-6.4-2.3-10.3
				c0.2-3.9-2.7-8.2,0-6.7c2.7,1.5,2.3,5.1,3,8.2c0.6,3.1,5.5,6.5,4,9.3c-1.5,2.8-1.6,6,3,9c4.6,3,7.5,3.3,10.9,3.4
				c3.4,0.2,1.6,1.3,6.3,4.9c4.6,3.6,3.7,7,8.8,9.1c5.1,2.1,7.5,1.5,8.8,3.1c1.3,1.6,1.5,5.7-2.7,8.1c-4.1,2.3-5.2,3-4.9,5.2
				c0.3,2.3-2.4,8.2,2,12.9c4.5,4.8,1.3,6.9,6.4,10.2c5.1,3.3,8.5,3.7,8.4,8.7c-0.2,4.9-3.3,12.4-1.8,19.1c1.5,6.7-1.2,7.9,0.2,12.4
				c1.3,4.6,0.8,6.7,1.6,12.6c0.8,5.8,3.9,14.5,12.4,17s1.5-5.1,1-5.7c-0.5-0.6,0.2-3.9,0.6-6.3c0.5-2.3-2.3-3.1-3.1-4.5
				c-0.8-1.3-0.3-1.6,1.2-3.4c1.5-1.8-2.4-3.4-1.5-5.5c1-2.1,7,1.5,10.9-2.1c3.9-3.6,4.5-5.2,7.5-8.4c3.1-3.1,4.5-1.8,4.8-7.9
				c0.3-6-0.5-6.4,2.1-7.2c2.7-0.8,10.2,3.1,12.7-6.6c2.7-9.7-2.1-8.8,2.7-12.7s4.8-6.3,2.7-9.1c-2.1-2.9-2.1-4.1-5.2-5
				c-3.1-0.8-8.2,0.3-10.3-1.3c-2.1-1.6-2.4-1-4.8-3.3c-2.3-2.3-3.7-0.3-3.1-2.8c0.6-2.4,1.8-5.5-0.3-7.5c-2.1-1.9-6.7-1.5-8.1-2.8
				c-1.3-1.3-0.5-5.4-3-7c-2.4-1.6-4.2-1-6.6-1s-5.1-0.3-5.2-1.6c-0.2-1.3-1.6-2.1-4.1-3c-2.4-0.8-4.1-0.6-5.5,1.2
				c-1.5,1.8,0.5,1.8-3.4,2.4c-3.9,0.6-10.2,1-10.6-2.1c-0.5-3.1,1.3-4.1,0.5-7.9c-0.8-3.7-2.4-2.7-4.1-3.3
				c-1.6-0.6-2.3-2.1-0.6-2.4c1.6-0.3,2.7-2.3,1-3.6c-1.6-1.3-3.3-1.2-5.4,0.2c-2.1,1.3-3.1,2.1-6,1.5c-3-0.6-5.5-3-3.6-6.4
				s3.3-9,7.5-10.2c4.2-1.2,16.9-2.1,16.9,1.8c0,3.9,2.1,5.5,4.8,6.4s-1-6.6,0.5-8.1c1.5-1.5,8.2-2.3,12.7-8.2s5.1-6.4,9.4-8.1
				c4.5-1.6,4-3.6,8.5-5.2s6.9,0.5,7.9-1.5c1-2-4.9-5.5-2-6c3-0.5,5.9,3.9,8.2,3.3c2.2-0.6,2.3,1,2.9,3.4s3.9,5.2,5.7,3.9
				c1.8-1.3,2.3-4.2,0.8-5.4s-4.6-1.6-3.3-2.8c1.3-1.2,3.7-2.1,3.4-4.5c-0.3-2.3-3-2.4-3.1-3.9c-0.2-1.5-0.2-3.3-0.5-4.6
				s-2.7-1.3-4.1,0s-3.3,0.3-3.1-2.1s-0.6-5.5-3.6-5.1c-3,0.5-5.7-1.7-7.2,0c-1.5,1.7-1.5,4.1-1.4,6.9c0.2,2.8-0.6,4.9-1.9,4.2
				c-1.3-0.6-4.6-2.3-5.4-0.5c-0.8,1.8-1.8,3.7-3,3.4c-1.2-0.3-0.6-4.1-1.6-5.2c-1-1.2-3.3-1.2-4.8-1.6c-1.5-0.5-4.2-0.3-4.1-2.4
				c0.1-2.1-0.6-4.7,2.4-5.4c3.1-0.7,9.1-7.3,11.6-6c2.4,1.3,1,3.6,3.7,4.5c2.8,0.8,3.7-1.5,5.1-3.4c1.3-2,3-2.8,5.4-3
				c2.4-0.2,7.3,0.2,8.1,2c0.6,1.8,0.6,2.8-1.3,3c-2,0.2-5.8-1.2-5.4,0.3c0.5,1.5,2.8,1,5.2,2.8c2.4,1.8,3.9,5.8,5.8,3.9
				c1.9-1.9,1-5.4,4.1-4.5c3.1,1,6.6,0.6,5.7-1.3c-0.8-2-1.6-1.8-3.1-4.9c-1.5-3.1-2.8-4.2-5.5-5.9c-2.8-1.6-3.7-4.1-6.9-3.6
				c-3.1,0.5-7.6,1-8.5,1.6s-3.9,1.8-4.3,2.8c-0.5,1-3.8,2.4-3.5,1.5c0.3-1,5.2-5.7,4.5-5.9c-0.8-0.2-7.2-1.9-9-1.1
				c-1.8,0.8-3.4,1-1.8,3.3c1.6,2.3,1,3.1-0.5,3.3c-1.5,0.2-4.5,0-6.7,0.2c-2.3,0.2-3.9-0.8-3.4-1.6c0.5-0.8,4.5,0.2,6-2
				c1.6-2.1-0.6-3.9-3.6-3.3c-3,0.5-4.5-0.1-5.2-2.4c-0.8-2.3-8.3-1.8-8.3-1.8s1.6-0.6-0.6,0.2c-2.2,1-2.1,5.2-0.3,6.4
				c1.8,1.2,5.1,1.9,4.9,3.4c-0.2,1.5-2.4,1.6-4.9-0.2c-2.4-1.8-3.4-1.8-4.9-3.3c-1.5-1.5-2.3-3-2.8-2.7c-0.5,0.2-0.5,0.2-0.5,0.2
				l0,0C161.2,51.3,131.3,62.4,110.4,102.2z"/>
			<path class="st4" d="M293.8,239.3c0,0-3.5-1.3-3.2-4.8c0.3-3.4-0.5-8.4-1.9-11.2c-1.5-3-0.3-7.3-1.2-9.7c-0.8-2.3-3.1-3-1.9-6.7
				c1.2-3.7,6.2-4.8,3.9-11.5c-2.1-6.7-4.1-4.6-4.9-9.7c-0.8-5.1,3.7-5.2,1.6-10c-2.1-4.8-1.3-4.1-7.2-5.5c-5.8-1.5-6.4,0-9,0
				s-12.7,1.6-15.4-2.3c-2.7-3.9-5.4-8.4-6.9-9.7c-1.5-1.3-3.1-8.1-2.3-10.6c0.8-2.7,2.4-1.9,3.1-4.1c0.6-2.1-3.1-2.1-2.3-4.6
				c0.8-2.4,7.5-7,10.6-8.8c3.1-1.8,4.2-1.6,4.2-5.1c0-3.4,11.8-4.6,17.2-4.8c5.4-0.2,15.5-0.6,15.4,2.7c0,3.3-1.2,4.2,4.9,6
				c6,1.8,5.7,6.3,7,5.2c1.3-1-1.8-4.8,3.6-5.7c5.4-1,5.8,0.5,7.6,2.7c1.8,2.1,4.7,3.9,8.1,3.6c3.3-0.3,3.4,0.3,3.4,0.3
				s5.8,23.2-3.4,53.8C315.1,222.2,293.8,239.3,293.8,239.3z"/>
			<path class="st4" d="M326.3,125c0,0-6.3,1.7-8-2.8c-1.6-4.5-1.2-9.3-2.4-8.4c-1.3,1-2.7,3.4-1.6,6.4c1,3.1-2.4,5.4-3.9,3.6
				c-1.5-1.8-1.8-7.2-3.7-10.8c-1.9-3.6-3.4-5.7-5.4-5.5c-1.9,0.2-4,1.8-0.8,3.7c3.3,1.9,5.1,3.6,5.1,6.4c0,2.8-2.3,6-4.6,5.1
				c-2.3-1-6.3-0.5-4.1-2.4c2.1-1.8,4.1-1.1,3.4-3c-0.6-2-2.2-4.6-4-5.9c-1.8-1.3-1.4-3-3.9-2.8c-2.7,0.2-0.2,1.3-2.7,1.8
				c-2.4,0.5-3-1.3-4.9-0.1c-2,1.2-1.2,1.9-2.7,3.9c-1.5,2-2.3,4.2-4.6,4.2c-2.3,0-10.2-0.6-10.6-4.2c-0.5-3.6-1.8-5.6,1.9-6.7
				c3.7-1.2,6.3,1.9,8.2,0c1.9-1.9-1.8-5.8,1.9-7.5c3.7-1.6,3.6,0.2,6-2.1c2.4-2.3,0.2-5.7,5.7-5.8c5.5-0.2,9.3,0.3,8.1-2.1
				c-1.3-2.4-3.6-1-6.4-4.1c-2.8-3.1-6.6-2.7-2.7-5.7c3.9-3.1,7.3-3.9,7.3-3.9h2.2C299.4,76.2,321.7,99.9,326.3,125z"/>
			<path class="st4" d="M275.5,96.4c0,0,4.2,1.2,6-0.8c1.8-2,3-2.1,1.3-5.1c-1.6-3-2.3-5.2-2.7-7.3c-0.3-2.1-1.8,0-3.9,0
				c-2.1,0-2.8,1.6-0.8,3.1c1.9,1.5,3.8,2.1,3.5,3.9c-0.4,1.8-1.1,1.9-2.3,3C275.4,94.1,273.2,94.6,275.5,96.4z"/>
			<path class="st4" d="M266.2,92.3c0.3-1.5,4.6-3.6,6.2-3.7c1.6-0.2,4.1,1.3,3.6,1.9c-0.5,0.5-2.4,1.3-3.6,1.9
				C271.3,93,265.7,94.9,266.2,92.3z"/>
		</g>
		<g class="st5">
			<path class="st6" d="M152.1,109.3c0-22.7,6.6-43.9,17.8-61.8c-42.2,15.8-72.2,59-72.2,107.6c0,64.2,52,116.3,116.3,116.3
				c41.5,0,77.9-21.7,98.4-54.4c-13.6,5.5-28.4,8.7-44,8.7C204.1,225.4,152.1,173.4,152.1,109.3z"/>
		</g>
	</g>
	<path class="st7" d="M294.8,82c28.2,34.2,32.4,77.2,9.4,96.2c-23,19-64.5,6.7-92.6-27.6c-28.2-34.2-32.4-77.2-9.4-96.2
		C225.1,35.5,266.6,47.8,294.8,82z"/>
	<path class="st7" d="M288.1,75.3c23.4,28.4,29,62.7,12.2,76.5c-16.7,13.8-49.2,1.9-72.8-26.5c-23.4-28.4-29-62.7-12.2-76.5
		S264.7,46.9,288.1,75.3z"/>
</g>
<path class="st1" d="M372.3,168.2c1.4,9.7,0.7,21.5-10.2,33.7c0,0-20.5,20-36.9,21.7c-16.4,1.8-16.4,1.8-16.4,1.8l-45.9-2.3V202
	L224,262.5l43.6,69.3l-4.8-33.4h26.5c0,0,23.4,4.1,35.9-18.2c12.4-22.4,12.4-22.4,12.4-22.4l21.2-33.5l7.6-12.3
	C366.4,211.9,381.4,189,372.3,168.2"/>
<path class="st1" d="M54.4,178.1c0,0-4.2,20.7,13.8,46.9l25.5,48.2c0,0,11.8,26.1,30.1,27.2h79.8v-81.4l-67.2-0.4
	C136.4,218.5,62.4,226.6,54.4,178.1z"/>
<path class="st1" d="M158.8,1.8c0,0,30.2,5.1,49.2,32.6s31.5,50.5,31.5,50.5l-21,11.9l76.8,6.5L326.9,33l-21.6,11.9l-16.2-26.4
	c0,0-11.8-16.2-31.6-17.9C237.4-1.2,158.8,1.8,158.8,1.8z"/>
</svg>
