<?xml version="1.0" encoding="utf-8"?>
<!-- Generator: Adobe Illustrator 22.0.0, SVG Export Plug-In . SVG Version: 6.00 Build 0)  -->
<svg version="1.1" id="Layer_1" xmlns="http://www.w3.org/2000/svg" xmlns:xlink="http://www.w3.org/1999/xlink" x="0px" y="0px"
	 viewBox="0 0 526.2 483.2" style="enable-background:new 0 0 526.2 483.2;" xml:space="preserve">
<style type="text/css">
	.st0{opacity:0.18;fill:#D1D948;enable-background:new    ;}
	.st1{fill:#DEE3F9;}
	.st2{opacity:0.42;fill:url(#SVGID_1_);enable-background:new    ;}
	.st3{fill:#606BF1;}
	.st4{fill:url(#SVGID_2_);}
	.st5{fill:url(#SVGID_3_);}
	.st6{fill:#3F3D56;}
	.st7{fill:url(#SVGID_4_);}
	.st8{fill:url(#SVGID_5_);}
	.st9{fill:url(#SVGID_6_);}
	.st10{opacity:0.54;fill:#FFFFFF;enable-background:new    ;}
	.st11{opacity:0.15;fill:url(#SVGID_7_);enable-background:new    ;}
	.st12{opacity:0.15;fill:url(#SVGID_8_);enable-background:new    ;}
	.st13{opacity:0.18;fill:#68E1FD;enable-background:new    ;}
	.st14{fill:#6CD948;}
	.st15{opacity:0.25;enable-background:new    ;}
	.st16{opacity:0.56;enable-background:new    ;}
	.st17{fill:#7BC928;}
	.st18{opacity:0.39;fill:#FFFFFF;enable-background:new    ;}
	.st19{opacity:0.15;enable-background:new    ;}
	.st20{fill:#FFFFFF;}
	.st21{fill:#2EC169;}
</style>
<path class="st0" d="M292.8,477.4c58.6-0.7,119.6-2,171.9-28.5c13.6-6.9,26.5-15.5,36.7-26.9c18.7-20.9,26.7-50.1,24.8-78
	c-1-16.9-5.7-33.5-13.6-48.5c-6.8-12.7-16.2-24-21.9-37.2c-20.8-47.8,9.9-105.7-9.2-154.2c-10.6-27-35.6-46.4-62.8-56.5
	s-56.6-12.2-85.6-13.1c-24.7-0.8-50.4-1.1-72.5-12c-10.1-5-19.1-12-29.4-16.6c-38.5-17.2-82.5,3.4-119.6,23.5
	c-8.4,4.6-16.9,9.2-23.7,15.9c-7.1,7.1-12,16.1-17.6,24.4c-24.5,36.3-66.9,65-70,108.7c-2.8,38.8,27.5,72.3,34,110.6
	c7.2,42.2-14.9,83.2-24.7,124.9c-5,21.2-5.9,53.3,17.7,64.5c18.2,8.7,50.9,1.6,70.2,1.4L292.8,477.4z"/>
<polygon class="st1" points="94.1,367.2 94.1,362.2 104.1,362.2 104.1,331.1 127.7,331.1 127.7,271.4 145.3,271.4 145.3,355.3 
	157.3,355.3 157.3,310.6 185,310.6 185,365.7 195.7,365.7 195.7,268.1 202.1,268.1 202.1,277.2 212.8,277.2 212.8,302.9 
	216.1,302.9 216.1,348.9 241.6,348.9 241.6,310.7 252.5,310.7 252.5,302.3 276.8,302.3 276.8,338.5 293.3,338.5 293.3,330.4 
	321,330.4 321,274 347.4,274 347.4,340.7 377.7,340.7 377.7,304.1 380.9,304.1 380.9,259.9 401.2,259.9 401.2,320.9 401.8,320.9 
	401.8,357.5 414.6,357.5 414.6,302.5 439.6,302.5 439.6,310.5 447.3,310.5 447.3,347.1 461.6,347.1 461.6,263.3 469.3,263.3 
	469.3,286.4 482.4,286.4 482.4,322.9 502.9,322.9 502.9,388.3 94.1,388.3 "/>
<polygon class="st1" points="174.3,388.3 18.6,388.3 18.6,367.2 18.6,362.2 27.2,362.2 27.2,331.1 47.4,331.1 47.4,271.4 
	62.5,271.4 62.5,355.3 72.8,355.3 72.8,310.6 96.4,310.6 96.4,365.7 105.7,365.7 105.7,268.1 111.1,268.1 111.1,277.2 120.3,277.2 
	120.3,302.9 123.1,302.9 123.1,348.9 145,348.9 145,310.7 154.3,310.7 154.3,302.3 175.1,302.3 175.1,338.5 "/>
<title>Recycle Waste</title>
<linearGradient id="SVGID_1_" gradientUnits="userSpaceOnUse" x1="255.599" y1="226.1877" x2="255.599" y2="333.5679" gradientTransform="matrix(1 0 0 1 -28.68 166.64)">
	<stop  offset="1.000000e-02" style="stop-color:#000000"/>
	<stop  offset="0.13" style="stop-color:#000000;stop-opacity:0.69"/>
	<stop  offset="1" style="stop-color:#000000;stop-opacity:0"/>
</linearGradient>
<path class="st2" d="M18.1,448c-6,1.6-13.9,6.8-10.4,12c1.3,1.9,3.7,2.6,5.9,3c8.9,1.5,17.9-0.2,26.8-1.6c56.9-9,115-4.3,172.6-1.8
	c68.1,3,100.2,3.1,168.4,0.3c12.5-0.5,25.1-1.2,37-4.8c13.3-1.9,21.3-14.2,28.6-27.8c-13.5-1.9-24.2,0.4-39,0.2l-56.8-2
	c2.1,5.3,6.9,9.9,12.1,11.2s11.8,3.5,11.9,8.9c-22.5,0.9-56.3,1.7-78.2-3.3c-8.6-2-17.1-4.8-25.9-5.9c-9.2-1.2-18.6-0.5-27.8,0.3
	l-93.9,4.8c1-5.7,2.9-15.7,8.2-17.9c-29.6-0.8-40.8,2-70.4,2.9c-12.4,0.4-27.1,2.6-38.7,6.9C36.8,437.6,30.5,444.6,18.1,448z"/>
<g>
	<path class="st3" d="M278.2,279.3l-50.9-0.7l-11.5-0.2c0,0,0-0.1,0-0.3c-0.1-2.8,1-49,1-49.1c0.5-10.4,0.2-20.9,1.5-31.2l0,0
		c2-14.6,3.2-27.2,8.2-33.2c1-1.2,2.3-12.8,27.2-11.5c19.2,1,22.8,3.3,25.2,46.2C279.4,209.2,278.2,279.3,278.2,279.3z"/>
	
		<linearGradient id="SVGID_2_" gradientUnits="userSpaceOnUse" x1="273.9363" y1="-14.4261" x2="287.1588" y2="-14.4261" gradientTransform="matrix(1 0 0 1 -28.68 166.64)">
		<stop  offset="0" style="stop-color:#ECC4D7"/>
		<stop  offset="0.42" style="stop-color:#EFD4D1"/>
		<stop  offset="0.6" style="stop-color:#F0DCCE"/>
		<stop  offset="1" style="stop-color:#F2EAC9"/>
	</linearGradient>
	<path class="st4" d="M248.2,156.3c0.4,0.4,0.9,0.8,1.4,1c0.6,0.2,1.2,0.3,1.8,0.2c1.2,0.1,2.5-0.2,3.6-0.7c1.3-0.7,2.3-1.8,2.8-3.2
		s0.7-2.8,0.6-4.3c0-0.3-0.1-0.6-0.2-0.9c-0.3-0.4-0.8-0.6-1.3-0.6c-2-0.3-4-0.4-6.1-0.6c-1.2-0.1-4.1-0.8-5,0.3
		C244,149.8,246.7,154.8,248.2,156.3z"/>
	
		<linearGradient id="SVGID_3_" gradientUnits="userSpaceOnUse" x1="266.41" y1="-40.4834" x2="295.93" y2="-40.4834" gradientTransform="matrix(1 0 0 1 -28.68 166.64)">
		<stop  offset="0" style="stop-color:#ECC4D7"/>
		<stop  offset="0.42" style="stop-color:#EFD4D1"/>
		<stop  offset="0.6" style="stop-color:#F0DCCE"/>
		<stop  offset="1" style="stop-color:#F2EAC9"/>
	</linearGradient>
	<path class="st5" d="M238.5,133c0.2,2.5,0.8,4.9,1.9,7.2c2.1,3.6,6.3,5.6,10.5,5.8c3.3,0.3,6.5-0.7,9.1-2.6
		c1.4-1.2,2.6-2.7,3.6-4.3c0.8-1.1,1.5-2.4,2-3.7c0.5-1.5,0.8-3.1,0.9-4.7c0.4-3.7,0.6-7.4,0.6-11.1c0.1-1.5,0-3.1-0.3-4.6
		c-0.5-2.6-1.7-5-3.6-6.9c-0.7-0.7-1.5-1.3-2.4-1.6c-0.9-0.2-1.9-0.3-2.8-0.2c-1.6,0.1-3.2,0.2-4.8,0.4c-1.2,0.1-2.3,0.3-3.4,0.7
		c-1.7,0.6-3.2,1.6-4.5,2.8c-3,2.7-5.3,6.2-6.5,10c-0.6,1.7-1,3.5-1.1,5.3C237.9,128.1,238.1,130.6,238.5,133z"/>
	<path class="st6" d="M233.8,120.2c-0.5-1.6-0.9-3.3-1.1-5c-0.2-3.5,0.4-6.9,1.8-10.1c0.3-0.8,0.7-1.6,1.2-2.3
		c0.7-0.9,1.6-1.6,2.6-2.2c6.7-4.2,15.2-4.7,22.9-2.6c4.4,1.2,9,3.2,13.3,1.9c-0.2,0.8-0.6,1.6-1.2,2.3c1.4,0,2.7-0.5,3.8-1.3
		c-0.1,0.9-0.5,1.9-1,2.7l1.4-0.4c-1.4,2.5-3.1,4.9-4.9,7.1c-0.5,0.6-0.9,1.2-1.2,1.9c-0.3,1.1-0.5,2.2-0.5,3.3
		c-0.3,1.7-0.7,3.4-1.4,5l-1.9,4.9c-0.7-4.1,0.3-8.7-1.9-12.1c-0.4-0.7-1-1.2-1.7-1.6c-1.5-0.7-3.3-0.2-4.9,0.2
		c-4.3,0.9-8.7,0.3-13,0.1c-0.8-0.1-1.6,0-2.3,0.3c-0.5,0.3-1,0.7-1.4,1.2c-1,1.2-1.9,2.5-2.5,3.9c-0.6,1.5-1,3-1.2,4.5
		c-0.2,1-0.2,4-1,4.7C235.9,127.9,234.1,121.3,233.8,120.2z"/>
	<path class="st6" d="M266.7,134.6c-0.2,3.9-0.6,8.1-3.2,11.1c-2,2.1-4.7,3.3-7.5,3.6c-2.8,0.2-5.7,0.1-8.5-0.3
		c-1.2-0.1-2.3-0.3-3.3-0.8c-2.7-1.4-4.6-3.9-5.5-6.8l-1.2-5.9c-0.6-2.9,0.4-6.2,0.3-9.2c0.6,2,1.5,3.9,2.7,5.7
		c0.5,0.8,1.2,1.6,2,2.1c1.2,0.7,2.6,1,4,1.1c2.2,0.2,4.3,0.3,6.5,0.2c2,0,4-0.2,6-0.8c1.9-0.6,3.6-1.8,4.8-3.5
		c0.6-0.9,2.2-6.4,3.2-5.7S266.8,133.3,266.7,134.6z"/>
	
		<linearGradient id="SVGID_4_" gradientUnits="userSpaceOnUse" x1="276.3929" y1="-25.4586" x2="287.3228" y2="-25.4586" gradientTransform="matrix(1 0 0 1 -28.68 166.64)">
		<stop  offset="0" style="stop-color:#ECC4D7"/>
		<stop  offset="0.42" style="stop-color:#EFD4D1"/>
		<stop  offset="0.6" style="stop-color:#F0DCCE"/>
		<stop  offset="1" style="stop-color:#F2EAC9"/>
	</linearGradient>
	<path class="st7" d="M257.6,138.5c0.2,0,0.3,0,0.5,0.1c0.3,0.2,0.5,0.5,0.6,0.9c0.2,1.6-0.8,3.2-2.3,3.8s-3.1,0.8-4.6,0.5
		c-0.6,0-1.2-0.1-1.7-0.4c-0.6-0.3-1.1-0.7-1.5-1.2c-0.2-0.2-0.4-0.5-0.6-0.8c-0.2-0.6-0.1-1.2,0.3-1.7c0.9-1.2,2.5-1.1,3.9-1.2
		C253.9,138.4,255.7,138.4,257.6,138.5z"/>
	<path class="st6" d="M215.8,278.4l1.9,132.4l-0.6,20.5c0,0-21,8.6-21.5,13.1s30.7,2.3,30.7,2.3l13.1-118.6c0,0,9.7-13.1,14.8-1.1
		c5.1,12,0.6,120.9,0.6,120.9s31.1,2,32.8-0.6s-18.4-12.8-18.4-12.8s9.1-109.5,9.1-118s-0.1-37.2-0.1-37.2L215.8,278.4z"/>
	<path class="st3" d="M279.5,161.4l25.9,22.6c0,0,35-22.8,41.3-21.1s14.3,15.2-5.7,24.4c-6,2.7-15.4,8.8-23.9,13.7
		c-9.4,5.4-21.2,3.9-29-3.6l-14-13.5c-4.2-5-10-7.6-10.2-14.2l-0.6-3.3C263.2,158.2,261.4,150.8,279.5,161.4z"/>
	<path class="st3" d="M210.6,168.2c-4,1.9-8,3.8-12.4,4.5s-8.8,0.2-13.1-0.4c-9.5-1.4-18.9-3.6-28.1-6.5c-3.4-1.1-6.8-2.3-10.4-2.1
		c-3.6,0.1-7.3-0.2-8.7,3.1c-2.5,5.7,3.1,11.5,8.5,14.7c12.1,7.2,25.9,11.1,39.5,15c4.4,1.2,8.9,2.4,13.4,2.2
		c4.7-0.3,9.1-2.1,13.5-4c7.3-3.2,14.9-6.8,19.1-13.5c2.6-4.2,7.2-18.4,2-22C229.7,156.2,214.9,166.2,210.6,168.2z"/>
	
		<linearGradient id="SVGID_5_" gradientUnits="userSpaceOnUse" x1="374.936" y1="-6.7088" x2="411.101" y2="-6.7088" gradientTransform="matrix(1 0 0 1 -28.68 166.64)">
		<stop  offset="0" style="stop-color:#ECC4D7"/>
		<stop  offset="0.42" style="stop-color:#EFD4D1"/>
		<stop  offset="0.6" style="stop-color:#F0DCCE"/>
		<stop  offset="1" style="stop-color:#F2EAC9"/>
	</linearGradient>
	<path class="st8" d="M356.7,158.7c2.4-2.7,4.2-5.7,6.9-8.1c2.9-2.5,6.5-4,10.4-4.3c1.2-0.1,2.3,0,3.4,0.3c3,1.1,4.5,4.4,4.9,7.5
		c0.3,2,0,4-0.7,5.9c-1.4,3.2-4.8,5.1-8.1,6.2s-6.8,1.6-10,3.1c-3.3,1.6-6.4,4.2-10.1,4.3c-3,0-8.6-3.3-6.9-6.9
		c0.8-1.7,3.5-2.5,4.9-3.5C353.4,162,355.1,160.4,356.7,158.7z"/>
	
		<linearGradient id="SVGID_6_" gradientUnits="userSpaceOnUse" x1="-5734.0366" y1="-7.4088" x2="-5697.8628" y2="-7.4088" gradientTransform="matrix(-1 0 0 1 -5584.29 166.64)">
		<stop  offset="0" style="stop-color:#ECC4D7"/>
		<stop  offset="0.42" style="stop-color:#EFD4D1"/>
		<stop  offset="0.6" style="stop-color:#F0DCCE"/>
		<stop  offset="1" style="stop-color:#F2EAC9"/>
	</linearGradient>
	<path class="st9" d="M139.3,158.1c-2.4-2.7-4.2-5.7-6.9-8.1c-2.9-2.5-6.5-4.1-10.4-4.4c-1.2-0.1-2.3,0-3.4,0.3
		c-3,1.1-4.5,4.4-4.9,7.5c-0.3,2-0.1,4,0.7,5.9c1.4,3.2,4.8,5.1,8.1,6.2s6.8,1.6,10,3.1c3.3,1.6,6.4,4.2,10.1,4.3
		c2.9,0,8.6-3.3,6.9-6.9c-0.8-1.7-3.5-2.5-4.9-3.5C142.6,161.3,140.9,159.8,139.3,158.1z"/>
	<path class="st10" d="M404.7,183.6l-5.2,2.7c-5.1,2.6-11.4,0.6-14.1-4.5l-16-30c-0.2-0.4-0.2-0.9,0-1.3l0.9-2c0.3-0.8,0-1.6-0.8-2
		c-0.2-0.1-0.4-0.1-0.7-0.1h-1.1c-0.6,0-1.1-0.3-1.4-0.8l-6.9-12.6c-0.2-0.4-0.2-0.9-0.1-1.3l3-7.2c0-0.1,0-0.1,0.1-0.2l-4.1-6.5
		l7.2-4.6l4.6,7.2l9.1,0.7c0.5,0,1,0.3,1.2,0.8l8.1,15.1c0.1,0.2,0.2,0.5,0.2,0.7c0,0.3-0.1,0.6-0.3,0.9c-0.5,0.7-0.4,1.6,0.3,2.1
		c0.2,0.1,0.3,0.2,0.5,0.3l3.8,1c0.4,0.1,0.7,0.4,0.9,0.7l15.1,26.1c2.9,5.1,1.1,11.5-3.9,14.4C405,183.4,404.8,183.5,404.7,183.6z"
		/>
	<path class="st10" d="M406.7,181.9l-5.2,2.7c-5.1,2.6-11.4,0.6-14.1-4.4l-16-30c-0.2-0.4-0.2-0.9,0-1.3l0.9-2c0.3-0.8,0-1.6-0.8-2
		c-0.2-0.1-0.4-0.1-0.7-0.1h-1.1c-0.6,0-1.1-0.3-1.4-0.8l-6.9-12.6c-0.2-0.4-0.2-0.9-0.1-1.3l3-7.2c0,0,0-0.1,0.1-0.1l-4.1-6.5
		l7.2-4.6l4.6,7.2l9.1,0.7c0.5,0.1,1,0.3,1.2,0.8l8.1,15.1c0.3,0.5,0.2,1.2-0.1,1.6c-0.5,0.7-0.4,1.6,0.3,2.1
		c0.2,0.1,0.3,0.2,0.5,0.3l3.8,1c0.4,0.1,0.7,0.4,0.9,0.7l15.1,26.1c2.9,5.1,1.1,11.6-4,14.4C406.9,181.7,406.8,181.8,406.7,181.9z"
		/>
</g>
<linearGradient id="SVGID_7_" gradientUnits="userSpaceOnUse" x1="171.8622" y1="163.2731" x2="323.0622" y2="-7.9869" gradientTransform="matrix(1 0 0 1 -28.68 166.64)">
	<stop  offset="1.000000e-02" style="stop-color:#000000"/>
	<stop  offset="0.13" style="stop-color:#000000;stop-opacity:0.69"/>
	<stop  offset="1" style="stop-color:#000000;stop-opacity:0"/>
</linearGradient>
<path class="st11" d="M229.8,278.7l-13.9-0.2c0,0,0-0.1,0-0.3c-0.1-3,1.4-27.2,1-48.8c0-0.1,0.3-25.5,2-31.4l0,0
	c0.1-0.4,0.3-0.9,0.4-1.2c0,0,5.4-4.2,5.8-2C225.5,196.7,227,264.3,229.8,278.7z"/>
<linearGradient id="SVGID_8_" gradientUnits="userSpaceOnUse" x1="-5484.2192" y1="155.9083" x2="-5349.0894" y2="2.8483" gradientTransform="matrix(-1 0 0 1 -5138.6401 166.64)">
	<stop  offset="1.000000e-02" style="stop-color:#000000"/>
	<stop  offset="0.13" style="stop-color:#000000;stop-opacity:0.69"/>
	<stop  offset="1" style="stop-color:#000000;stop-opacity:0"/>
</linearGradient>
<path class="st12" d="M263.9,279.2l13.9-0.1c0,0,0-0.1,0-0.3c0.1-3,2.4-75.5,0.7-81.4c0,0-2.4-2.2-4.3,7.1
	C273.8,206.4,266.7,264.9,263.9,279.2z"/>
<polygon class="st13" points="369.9,146.9 388.3,137.9 388.6,141.9 393,144 398.6,153 377.6,163.7 371.4,152.1 372.6,148.3 "/>
<g>
	<path class="st14" d="M468.3,248.3c0,0-3.9,2.7-6.5,16.4s-7.7-8.1-7.7-8.1l3.7-11.4L468.3,248.3z"/>
	<path class="st15" d="M468.3,248.3c0,0-3.9,2.7-6.5,16.4s-7.7-8.1-7.7-8.1l3.7-11.4L468.3,248.3z"/>
	<path class="st14" d="M331.6,248.3c0,0,3.9,2.7,6.5,16.4s7.7-8.1,7.7-8.1l-3.7-11.4L331.6,248.3z"/>
	<path class="st15" d="M331.6,248.3c0,0,3.9,2.7,6.5,16.4s7.7-8.1,7.7-8.1l-3.7-11.4L331.6,248.3z"/>
	<path class="st14" d="M399.4,242.9h0.7h0.7l0,0l61.6,0.3l-8,170.8c0,0-1.5,14.7-15.4,14.7c-11.9,0-32.8,0-38.3,0
		c-0.8,0-1.3,0-1.3,0c-5.4,0-26.3,0-38.3,0c-13.8,0-15.4-14.7-15.4-14.7l-8-170.8L399.4,242.9L399.4,242.9z"/>
	<path class="st15" d="M399.4,242.9h0.7h0.7l0,0l61.6,0.3l-8,170.8c0,0-1.5,14.7-15.4,14.7c-11.9,0-32.8,0-38.3,0
		c-0.8,0-1.3,0-1.3,0c-5.4,0-26.3,0-38.3,0c-13.8,0-15.4-14.7-15.4-14.7l-8-170.8L399.4,242.9L399.4,242.9z"/>
	<path class="st14" d="M399.4,249.7h0.7h0.7l0,0l61.6,0.3l-8,164.6c0,0-1.5,14.1-15.4,14.1c-11.9,0-32.8,0-38.3,0
		c-0.8,0-1.3,0-1.3,0c-5.4,0-26.3,0-38.3,0c-13.8,0-15.4-14.1-15.4-14.1l-8-164.6L399.4,249.7L399.4,249.7z"/>
	<g>
		<path class="st14" d="M451,248.5c0,0-0.4,17-5.3,17s-5.6-16.7-5.6-16.7L451,248.5z"/>
		<path class="st15" d="M451,248.5c0,0-0.4,17-5.3,17s-5.6-16.7-5.6-16.7L451,248.5z"/>
		<path class="st14" d="M448,248.7c0,0,0.6,16.2-2.6,16.2s-2.7-16-2.7-16L448,248.7z"/>
		<path class="st16" d="M448,248.7c0,0,0.6,16.2-2.6,16.2s-2.7-16-2.7-16L448,248.7z"/>
	</g>
	<g>
		<path class="st14" d="M420.6,248.5c0,0-0.4,17-5.3,17s-5.6-16.7-5.6-16.7L420.6,248.5z"/>
		<path class="st15" d="M420.6,248.5c0,0-0.4,17-5.3,17s-5.6-16.7-5.6-16.7L420.6,248.5z"/>
		<path class="st14" d="M417.6,248.7c0,0,0.6,16.2-2.6,16.2s-2.7-16-2.7-16L417.6,248.7z"/>
		<path class="st16" d="M417.6,248.7c0,0,0.6,16.2-2.6,16.2s-2.7-16-2.7-16L417.6,248.7z"/>
	</g>
	<g>
		<path class="st14" d="M390.1,248.5c0,0-0.4,17-5.3,17s-5.6-16.7-5.6-16.7L390.1,248.5z"/>
		<path class="st15" d="M390.1,248.5c0,0-0.4,17-5.3,17s-5.6-16.7-5.6-16.7L390.1,248.5z"/>
		<path class="st14" d="M387.1,248.7c0,0,0.6,16.2-2.6,16.2c-3.3,0-2.7-16-2.7-16L387.1,248.7z"/>
		<path class="st16" d="M387.1,248.7c0,0,0.6,16.2-2.6,16.2c-3.3,0-2.7-16-2.7-16L387.1,248.7z"/>
	</g>
	<g>
		<path class="st14" d="M359.7,248.5c0,0-0.4,17-5.3,17s-5.6-16.7-5.6-16.7L359.7,248.5z"/>
		<path class="st15" d="M359.7,248.5c0,0-0.4,17-5.3,17s-5.6-16.7-5.6-16.7L359.7,248.5z"/>
		<path class="st17" d="M356.7,248.7c0,0,0.6,16.2-2.6,16.2c-3.3,0-2.7-16-2.7-16L356.7,248.7z"/>
		<path class="st16" d="M356.7,248.7c0,0,0.6,16.2-2.6,16.2c-3.3,0-2.7-16-2.7-16L356.7,248.7z"/>
	</g>
	<path class="st14" d="M335,235.7c0,0-3.3,1-3.3,4.9s0.2,7.8,0.2,7.8h66h4.4h66c0,0,0.2-3.9,0.2-7.8c0-3.9-3.3-4.9-3.3-4.9H335z"/>
	<path class="st18" d="M332.8,238.2c0,0.6,29.6,1.1,66,1.1s66-0.5,66-1.1s-30-0.6-66.4-0.6S332.8,237.6,332.8,238.2z"/>
	<path class="st19" d="M400.8,428.7c-0.8,0-1.3,0-1.3,0c-5.4,0-26.3,0-38.3,0c-13.8,0-15.4-14.1-15.4-14.1l-2.2-45
		c5.5,12.2,20.5,34.5,56.1,34.5c35.8,0,51.1-20.6,56.7-31.7l-2,42.1c0,0-1.5,14.1-15.4,14.1C427.1,428.7,406.2,428.7,400.8,428.7z"
		/>
	<g>
		<g>
			<path class="st20" d="M411.2,311.7c0,0-7.5-14.4-9.4-17.4s-4.6-8.2-8.3-9l14.1-0.3c0,0,3.3-1,8.2,7.6c4.1,7.1,6.7,12.3,6.7,12.3
				L411.2,311.7z"/>
			<path class="st20" d="M400.3,294.4c0,0-3-6.9-8.2-8.5c0,0-2.5-0.3-5.5,4.8c-3.1,5.5-3.5,6.5-3.5,6.5l-4-2.1l4.9,12.5l14.3-1.1
				l-4.4-2.7L400.3,294.4z"/>
		</g>
		<g>
			<path class="st20" d="M389.6,312.2c0,0-8.4,13.9-10.1,17c-1.6,3.1-4.7,8.2-3.4,11.8l-7.6-11.9c0,0-2.5-2.3,2.3-10.9
				c4-7.2,7.1-12.1,7.1-12.1L389.6,312.2z"/>
			<path class="st20" d="M380.3,330.5c0,0-4.3,6.1-3,11.3c0,0,1,2.4,6.9,2.2c6.3-0.1,7.4-0.4,7.4-0.4l0.3,4.5l8.2-10.6l-8.3-11.7
				l-0.1,5.2L380.3,330.5z"/>
		</g>
		<g>
			<path class="st20" d="M400.9,331c0,0,16.3,0.3,19.8,0.1c3.5-0.2,9.4-0.1,11.9-3l-6.5,12.6c0,0-0.7,3.3-10.6,3.5
				c-8.2,0.1-14,0-14,0L400.9,331z"/>
			<path class="st20" d="M421.3,329.7c0,0,7.5,0.7,11.3-3.1c0,0,1.5-2.1-1.6-7.1c-3.3-5.4-4-6.2-4-6.2l3.7-2.5l-13.3-1.7l-5.9,13.1
				l4.5-2.5L421.3,329.7z"/>
		</g>
	</g>
</g>
<g>
	<path class="st14" d="M175.5,248.3c0,0-3.9,2.7-6.5,16.4s-7.7-8.1-7.7-8.1l3.7-11.4L175.5,248.3z"/>
	<path class="st15" d="M175.5,248.3c0,0-3.9,2.7-6.5,16.4s-7.7-8.1-7.7-8.1l3.7-11.4L175.5,248.3z"/>
	<path class="st14" d="M38.8,248.3c0,0,3.9,2.7,6.5,16.4s7.7-8.1,7.7-8.1l-3.7-11.4L38.8,248.3z"/>
	<path class="st15" d="M38.8,248.3c0,0,3.9,2.7,6.5,16.4s7.7-8.1,7.7-8.1l-3.7-11.4L38.8,248.3z"/>
	<path class="st14" d="M106.6,242.9h0.7h0.7l0,0l61.6,0.3l-8,170.8c0,0-1.5,14.7-15.4,14.7c-11.9,0-32.8,0-38.3,0
		c-0.8,0-1.3,0-1.3,0c-5.4,0-26.3,0-38.3,0C54.5,428.7,53,414,53,414l-8-170.8L106.6,242.9L106.6,242.9z"/>
	<path class="st15" d="M106.6,242.9h0.7h0.7l0,0l61.6,0.3l-8,170.8c0,0-1.5,14.7-15.4,14.7c-11.9,0-32.8,0-38.3,0
		c-0.8,0-1.3,0-1.3,0c-5.4,0-26.3,0-38.3,0C54.5,428.7,53,414,53,414l-8-170.8L106.6,242.9L106.6,242.9z"/>
	<path class="st14" d="M106.6,249.7h0.7h0.7l0,0l61.6,0.3l-8,164.6c0,0-1.5,14.1-15.4,14.1c-11.9,0-32.8,0-38.3,0
		c-0.8,0-1.3,0-1.3,0c-5.4,0-26.3,0-38.3,0c-13.8,0-15.4-14.1-15.4-14.1L45,250L106.6,249.7L106.6,249.7z"/>
	<g>
		<path class="st14" d="M158.2,248.5c0,0-0.4,17-5.3,17c-4.9,0-5.6-16.7-5.6-16.7L158.2,248.5z"/>
		<path class="st15" d="M158.2,248.5c0,0-0.4,17-5.3,17c-4.9,0-5.6-16.7-5.6-16.7L158.2,248.5z"/>
		<path class="st14" d="M155.2,248.7c0,0,0.6,16.2-2.6,16.2c-3.3,0-2.7-16-2.7-16L155.2,248.7z"/>
		<path class="st16" d="M155.2,248.7c0,0,0.6,16.2-2.6,16.2c-3.3,0-2.7-16-2.7-16L155.2,248.7z"/>
	</g>
	<g>
		<path class="st14" d="M127.8,248.5c0,0-0.4,17-5.3,17s-5.6-16.7-5.6-16.7L127.8,248.5z"/>
		<path class="st15" d="M127.8,248.5c0,0-0.4,17-5.3,17s-5.6-16.7-5.6-16.7L127.8,248.5z"/>
		<path class="st14" d="M124.8,248.7c0,0,0.6,16.2-2.6,16.2c-3.3,0-2.7-16-2.7-16L124.8,248.7z"/>
		<path class="st16" d="M124.8,248.7c0,0,0.6,16.2-2.6,16.2c-3.3,0-2.7-16-2.7-16L124.8,248.7z"/>
	</g>
	<g>
		<path class="st14" d="M97.3,248.5c0,0-0.4,17-5.3,17s-5.6-16.7-5.6-16.7L97.3,248.5z"/>
		<path class="st15" d="M97.3,248.5c0,0-0.4,17-5.3,17s-5.6-16.7-5.6-16.7L97.3,248.5z"/>
		<path class="st14" d="M94.3,248.7c0,0,0.6,16.2-2.6,16.2c-3.3,0-2.7-16-2.7-16L94.3,248.7z"/>
		<path class="st16" d="M94.3,248.7c0,0,0.6,16.2-2.6,16.2c-3.3,0-2.7-16-2.7-16L94.3,248.7z"/>
	</g>
	<g>
		<path class="st14" d="M66.9,248.5c0,0-0.4,17-5.3,17S56,248.8,56,248.8L66.9,248.5z"/>
		<path class="st15" d="M66.9,248.5c0,0-0.4,17-5.3,17S56,248.8,56,248.8L66.9,248.5z"/>
		<path class="st17" d="M63.9,248.7c0,0,0.6,16.2-2.6,16.2c-3.3,0-2.7-16-2.7-16L63.9,248.7z"/>
		<path class="st16" d="M63.9,248.7c0,0,0.6,16.2-2.6,16.2c-3.3,0-2.7-16-2.7-16L63.9,248.7z"/>
	</g>
	<path class="st14" d="M42.2,235.7c0,0-3.3,1-3.3,4.9s0.2,7.8,0.2,7.8h66h4.4h66c0,0,0.2-3.9,0.2-7.8c0-3.9-3.3-4.9-3.3-4.9H42.2z"
		/>
	<path class="st18" d="M40,238.2c0,0.6,29.6,1.1,66,1.1s66-0.5,66-1.1s-30-0.6-66.4-0.6S40,237.6,40,238.2z"/>
	<path class="st19" d="M108,428.7c-0.8,0-1.3,0-1.3,0c-5.4,0-26.3,0-38.3,0c-13.8,0-15.4-14.1-15.4-14.1l-2.2-45
		c5.5,12.2,20.5,34.5,56.1,34.5c35.8,0,51.1-20.6,56.7-31.7l-2,42.1c0,0-1.5,14.1-15.4,14.1C134.3,428.7,113.4,428.7,108,428.7z"/>
	<g>
		<g>
			<path class="st20" d="M118.4,311.7c0,0-7.5-14.4-9.4-17.4s-4.6-8.2-8.3-9l14.1-0.3c0,0,3.3-1,8.2,7.6c4.1,7.1,6.7,12.3,6.7,12.3
				L118.4,311.7z"/>
			<path class="st20" d="M107.5,294.4c0,0-3-6.9-8.2-8.5c0,0-2.5-0.3-5.5,4.8c-3.1,5.5-3.5,6.5-3.5,6.5l-4-2.1l4.9,12.5l14.3-1.1
				l-4.4-2.7L107.5,294.4z"/>
		</g>
		<g>
			<path class="st20" d="M96.8,312.2c0,0-8.4,13.9-10.1,17c-1.6,3.1-4.7,8.2-3.4,11.8l-7.6-11.9c0,0-2.5-2.3,2.3-10.9
				c4-7.2,7.1-12.1,7.1-12.1L96.8,312.2z"/>
			<path class="st20" d="M87.5,330.5c0,0-4.3,6.1-3,11.3c0,0,1,2.4,6.9,2.2c6.3-0.1,7.4-0.4,7.4-0.4l0.3,4.5l8.2-10.6L99,325.8
				l-0.1,5.2L87.5,330.5z"/>
		</g>
		<g>
			<path class="st20" d="M108.1,331c0,0,16.3,0.3,19.8,0.1c3.5-0.2,9.4-0.1,11.9-3l-6.5,12.6c0,0-0.7,3.3-10.6,3.5
				c-8.2,0.1-14,0-14,0L108.1,331z"/>
			<path class="st20" d="M128.5,329.7c0,0,7.5,0.7,11.3-3.1c0,0,1.5-2.1-1.6-7.1c-3.3-5.4-4-6.2-4-6.2l3.7-2.5l-13.3-1.7l-5.9,13.1
				l4.5-2.5L128.5,329.7z"/>
		</g>
	</g>
</g>
<g>
	<g>
		<path class="st14" d="M135.9,130.7l-29.8-9.3l-13.3,42.9l29.8,9.3c0.8,0.2,1.6-0.1,1.9-0.9l12.5-40.2
			C137.2,131.8,136.7,131,135.9,130.7z"/>
		<polygon class="st21" points="92.8,164.3 91,160.9 102.7,123.3 106.1,121.5 		"/>
	</g>
	<g>
		
			<rect x="116.4" y="130.9" transform="matrix(0.2967 -0.955 0.955 0.2967 -50.0183 210.5504)" class="st21" width="3" height="16.6"/>
		
			<rect x="114.6" y="136.7" transform="matrix(0.2967 -0.955 0.955 0.2967 -56.7622 212.8756)" class="st21" width="3" height="16.6"/>
	</g>
</g>
</svg>
