<?xml version="1.0" encoding="utf-8"?>
<!-- Generator: Adobe Illustrator 22.0.0, SVG Export Plug-In . SVG Version: 6.00 Build 0)  -->
<svg version="1.1" id="Capa_1" xmlns="http://www.w3.org/2000/svg" xmlns:xlink="http://www.w3.org/1999/xlink" x="0px" y="0px"
	 viewBox="0 0 110 110" style="enable-background:new 0 0 110 110;" xml:space="preserve">
<style type="text/css">
	.st0{fill:#E0D4B1;}
	.st1{fill:#BEB297;}
	.st2{fill:#59D88D;}
	.st3{fill:#2EC169;}
</style>
<g>
	<g>
		<polygon class="st0" points="0.2,4.5 76.8,3.6 75.9,101.9 0,102.6 		"/>
		<polygon class="st1" points="8.4,13.2 39.3,12.7 39.5,25.1 7.2,25.1 		"/>
		<polygon class="st1" points="45.6,13.5 45.3,25.5 70.3,25 70.3,14 		"/>
		<polygon class="st1" points="6.9,31.8 70.6,31.4 70.2,35.9 6.2,35.7 		"/>
		<polygon class="st1" points="6.3,40.1 36.3,39.8 36.5,43.5 5.7,43.2 		"/>
		<polygon class="st1" points="5.7,48.9 35.7,48.6 36,52.3 5.2,52 		"/>
		<polygon class="st1" points="40.6,89.3 68.3,88.8 68.6,92.2 40,92.1 		"/>
		<polygon class="st1" points="5.8,56.4 35.7,56.1 36,59.7 5.2,59.4 		"/>
		<polygon class="st1" points="40.2,41 40.5,84.2 69.2,85.1 68.7,41.3 		"/>
		<polygon class="st1" points="6,63.5 35.3,64.1 36.4,90.3 6.4,88.9 		"/>
	</g>
	<g>
		<g>
			<path class="st2" d="M107.3,35.9l-48.4-0.2l0.3,70.6l48.4,0.2c1.3,0,2.4-1,2.4-2.2L109.7,38C109.7,36.8,108.6,35.9,107.3,35.9z"
				/>
			<polygon class="st3" points="59.2,106.2 54.9,101.8 54.7,40 58.9,35.6 			"/>
		</g>
		<g>
			<polygon class="st3" points="97.5,59.3 71.8,59.2 71.8,54.5 97.5,54.6 			"/>
			<polygon class="st3" points="97.6,68.7 71.8,68.6 71.8,63.9 97.5,64 			"/>
		</g>
	</g>
</g>
</svg>
