<?xml version="1.0" encoding="utf-8"?>
<!-- Generator: Adobe Illustrator 22.0.0, SVG Export Plug-In . SVG Version: 6.00 Build 0)  -->
<svg version="1.1" id="Capa_1" xmlns="http://www.w3.org/2000/svg" xmlns:xlink="http://www.w3.org/1999/xlink" x="0px" y="0px"
	 viewBox="0 0 110 110" style="enable-background:new 0 0 110 110;" xml:space="preserve">
<style type="text/css">
	.st0{fill:#C6E7EA;}
	.st1{fill:#E51043;}
	.st2{opacity:0.56;fill:#F1F3F5;enable-background:new    ;}
	.st3{fill:#2A2AD0;}
	.st4{fill:#BAE5D2;}
	.st5{fill:#52BDCE;}
	.st6{fill:#D2EDEF;}
	.st7{fill:#373737;}
</style>
<g>
	<path class="st0" d="M71.7,91.4h-5.4c-7.3,0-13.3-7.2-13.3-15.9V25.6c0,0,6-15.9,13.3-15.9h5.4C79,9.7,85,25.6,85,25.6v49.9
		C85.1,84.3,79.1,91.4,71.7,91.4z"/>
	<rect x="63.2" y="2.6" class="st1" width="11.8" height="7.6"/>
	<path class="st2" d="M68.1,12.9l-2.6,13.5v52.1c0,0,1,6.4,4.1,8.7c3.2,2.4-11.5,2.8-12.9-8s0-53.7,0-53.7l7.4-13.6L68.1,12.9z"/>
</g>
<g>
	<path class="st0" d="M17.5,94.6h-5.1c-6.8,0-12.5-7.7-12.5-16.9V24.5c0,0,5.6-16.9,12.6-16.9h5.1c6.9,0,12.5,16.9,12.5,16.9v53.2
		C30.1,86.9,24.5,94.6,17.5,94.6z"/>
	<rect x="9.4" y="-0.1" class="st3" width="11.2" height="8.1"/>
	<path class="st2" d="M14.1,11l-2.5,14.4V81c0,0,0.9,6.8,4,9.3c3,2.6-10.9,3-12.2-8.5s0-57.3,0-57.3l7-14.4L14.1,11z"/>
</g>
<g>
	<path class="st4" d="M46.1,109.4h-6.1c-8.3,0-15.1-8.6-15.1-19.1V30.4c0,0,6.8-19.1,15.1-19.1h6.1c8.3,0,15.1,19.1,15.1,19.1v59.9
		C61.2,100.8,54.4,109.4,46.1,109.4z"/>
	<rect x="36.4" y="2.7" class="st5" width="13.5" height="9.1"/>
	<path class="st2" d="M41.9,15.2L39,31.5v62.6c0,0,1.1,7.7,4.8,10.5c3.6,2.8-13.2,3.3-14.6-9.5c-1.4-12.9,0-64.5,0-64.5l8.4-16.3
		L41.9,15.2z"/>
</g>
<g>
	<path class="st6" d="M97.3,102.8h-5.1c-7,0-12.7-8.4-12.7-18.6V25.8c0,0,5.7-18.6,12.7-18.6h5.1c7,0,12.7,18.6,12.7,18.6v58.4
		C110,94.4,104.3,102.8,97.3,102.8z"/>
	<rect x="89.3" y="-0.3" class="st7" width="11.3" height="7.9"/>
	<path class="st2" d="M93.8,10.8l-2.4,15.9v61c0,0,0.9,7.5,3.9,10.2c3,2.8-11,3.2-12.2-9.3c-1.2-12.6,0-63,0-63l7-15.9L93.8,10.8z"
		/>
</g>
</svg>
