<?xml version="1.0" encoding="utf-8"?>
<!-- Generator: Adobe Illustrator 22.0.0, SVG Export Plug-In . SVG Version: 6.00 Build 0)  -->
<svg version="1.1" id="Capa_1" xmlns="http://www.w3.org/2000/svg" xmlns:xlink="http://www.w3.org/1999/xlink" x="0px" y="0px"
	 viewBox="0 0 110 110" style="enable-background:new 0 0 110 110;" xml:space="preserve">
<style type="text/css">
	.st0{fill:#FFFFFF;}
</style>
<g>
	<path class="st0" d="M28.8,57c-9.4-3.9-19.7-6.8-27.8-8.2C1.3,52,1.8,55,2.5,58c4.9,1.5,10.3,3.4,15.6,5.7
		C21.8,61.3,25.4,59,28.8,57z"/>
	<path class="st0" d="M48,47.3C36.3,40.5,14.1,36.2,1.6,35.9c-0.4,2.6-0.7,5.3-0.7,8c9.4,1.2,23.1,4.8,33.9,9.7
		C40.5,50.6,45.3,48.5,48,47.3z"/>
	<path class="st0" d="M4.6,64.3c1,2.5,2.1,4.9,3.5,7.3c1.6-1.4,3.2-2.7,4.9-3.9C10.1,66.4,7.3,65.3,4.6,64.3z"/>
	<path class="st0" d="M109,46.4c0-0.5,0-1.1,0-1.6c0-2.7-0.2-5.3-0.6-7.9C69.1,38,29.9,57.3,9.6,74.2c3.5,5.4,7.9,10.1,13.1,14
		C54.6,53.7,97.4,47.4,109,46.4z"/>
	<path class="st0" d="M53.4,98.8c0.5,0,1.1,0,1.6,0c23.2,0,42.9-14.6,50.6-35C85.9,71.7,68,83.8,53.4,98.8z"/>
	<path class="st0" d="M107.2,59c0.9-3.2,1.4-6.5,1.7-9.9c-30.9,5.4-59.5,20.7-81,42.5c5.5,3.2,11.6,5.5,18.1,6.5
		C67.8,74,94.2,63.1,107.2,59z"/>
	<path class="st0" d="M55.2,11.1c-13.5,0-24.5,11-24.5,24.5c0,0.5,0,0.9,0,1.4c8.1,1.9,16,4.5,21.6,7.7c8.6-3.5,17.8-6.5,27.2-8.7
		c0-0.1,0-0.3,0-0.4C79.7,22.1,68.8,11.1,55.2,11.1z"/>
</g>
</svg>
