<?xml version="1.0" encoding="utf-8"?>
<!-- Generator: Adobe Illustrator 22.0.0, SVG Export Plug-In . SVG Version: 6.00 Build 0)  -->
<svg version="1.1" id="Capa_1" xmlns="http://www.w3.org/2000/svg" xmlns:xlink="http://www.w3.org/1999/xlink" x="0px" y="0px"
	 viewBox="0 0 110 110" style="enable-background:new 0 0 110 110;" xml:space="preserve">
<style type="text/css">
	.st0{fill:#D1D948;}
	.st1{opacity:0.25;fill:#E6E6E6;}
	.st2{opacity:8.000000e-02;}
	.st3{fill:#C0C9CC;}
	.st4{fill:#E34B54;}
</style>
<g>
	<g>
		<polygon class="st0" points="104,109.8 51,109.6 48.9,36.2 106.5,36.3 		"/>
		<polygon class="st1" points="61.5,109.7 53.4,109.5 51.2,36.2 63.9,36.8 		"/>
		<polygon class="st2" points="48.9,36.8 49.1,44.9 106.2,45 106.5,36.9 		"/>
		
			<rect x="47" y="36.1" transform="matrix(1 3.114145e-03 -3.114145e-03 1 0.1253 -0.2417)" class="st0" width="61.3" height="8.1"/>
	</g>
	<g>
		<path class="st3" d="M108.3,40.6l0-0.9c-0.1-10.5-0.4-38.4-31.7-38.5c-8.6,0-15.3,2.4-20.1,7.2c-9.2,9.2-9.1,25.3-9.1,32.1l-1,0
			c0-7-0.2-23.3,9.3-32.8c5-5,11.9-7.5,20.6-7.5c0,0,0.1,0,0.1,0c32.2,0.1,32.6,29.8,32.7,39.5l0,0.9L108.3,40.6z"/>
	</g>
	<rect x="70.1" y="-0.1" transform="matrix(1 3.114145e-03 -3.114145e-03 1 4.212673e-03 -0.2395)" width="13.6" height="2.8"/>
</g>
<path class="st4" d="M81,78.4c0-0.1,0-0.2,0-0.3c-0.6-0.1-1.1-0.2-1.7-0.4c0-2.9,0-5.8,0-8.8c0.5-0.1,1.1-0.2,1.7-0.4
	c0-0.1,0-0.2,0-0.3c-0.4,0-0.7-0.1-1.1-0.1c-4,0-7.9,0-11.9,0c-2.4,0-4.1,1-5.4,3C61.4,73,60.3,75,59,76.9c-0.4,0.5-1.2,1-1.8,1
	c-5.5,0-11.1,0-16.6,0c-5.5,0-11.1,0-16.6,0c-0.6,0-1.4-0.5-1.8-1c-1.3-1.9-2.4-3.9-3.6-5.8c-1.2-2-3-3-5.4-3c-4,0-7.9,0-11.9,0
	c-0.4,0-0.7,0.1-1.1,0.1c0,0.1,0,0.2,0,0.3c0.6,0.1,1.1,0.3,1.7,0.4c0,3,0,5.9,0,8.8c-0.6,0.1-1.2,0.3-1.7,0.4c0,0.1,0,0.2,0,0.3
	c0.6,0.1,1.2,0.2,1.7,0.3c0,9.3,0,18.5,0,27.6c-0.6,0.1-1.2,0.2-1.7,0.3c0,0.1,0,0.2,0,0.3c1.3,0,2.6,0,3.9,0c0.3,2.8,0.5,2.9,3,2.9
	c11.2,0,22.3,0,33.5,0c11.2,0,22.3,0,33.5,0c2.5,0,2.6-0.1,3-2.9c1.4,0,2.7,0,3.9,0c0-0.1,0-0.2,0-0.3c-0.5-0.1-1.1-0.2-1.7-0.3
	c0-9.2,0-18.3,0-27.6C79.8,78.6,80.4,78.5,81,78.4z M68.4,82.6c0.6,0,1,0.5,1,1c0,0.6-0.5,1-1,1s-1-0.5-1-1
	C67.4,83.1,67.9,82.6,68.4,82.6z M66.7,79.8c0.6,0,1,0.5,1,1c0,0.6-0.5,1-1,1s-1-0.5-1-1C65.7,80.2,66.1,79.8,66.7,79.8z M64.7,82.6
	c0.6,0,1,0.5,1,1c0,0.6-0.5,1-1,1c-0.6,0-1-0.5-1-1C63.7,83.1,64.1,82.6,64.7,82.6z M62.9,79.8c0.6,0,1,0.5,1,1c0,0.6-0.5,1-1,1
	s-1-0.5-1-1C61.9,80.2,62.4,79.8,62.9,79.8z M60.9,82.6c0.6,0,1,0.5,1,1c0,0.6-0.5,1-1,1c-0.6,0-1-0.5-1-1
	C59.9,83.1,60.4,82.6,60.9,82.6z M59.2,79.8c0.6,0,1,0.5,1,1c0,0.6-0.5,1-1,1c-0.6,0-1-0.5-1-1C58.2,80.2,58.6,79.8,59.2,79.8z
	 M57.2,82.6c0.6,0,1,0.5,1,1c0,0.6-0.5,1-1,1c-0.6,0-1-0.5-1-1C56.2,83.1,56.7,82.6,57.2,82.6z M55.5,79.8c0.6,0,1,0.5,1,1
	c0,0.6-0.5,1-1,1c-0.6,0-1-0.5-1-1C54.5,80.2,54.9,79.8,55.5,79.8z M53.5,82.6c0.6,0,1,0.5,1,1c0,0.6-0.5,1-1,1c-0.6,0-1-0.5-1-1
	C52.5,83.1,52.9,82.6,53.5,82.6z M51.7,79.8c0.6,0,1,0.5,1,1c0,0.6-0.5,1-1,1c-0.6,0-1-0.5-1-1C50.7,80.2,51.2,79.8,51.7,79.8z
	 M49.7,82.6c0.6,0,1,0.5,1,1c0,0.6-0.5,1-1,1s-1-0.5-1-1C48.7,83.1,49.2,82.6,49.7,82.6z M48,79.8c0.6,0,1,0.5,1,1c0,0.6-0.5,1-1,1
	c-0.6,0-1-0.5-1-1C47,80.2,47.4,79.8,48,79.8z M46,82.6c0.6,0,1,0.5,1,1c0,0.6-0.5,1-1,1c-0.6,0-1-0.5-1-1
	C45,83.1,45.4,82.6,46,82.6z M44.2,79.8c0.6,0,1,0.5,1,1c0,0.6-0.5,1-1,1c-0.6,0-1-0.5-1-1C43.2,80.2,43.7,79.8,44.2,79.8z
	 M42.2,82.6c0.6,0,1,0.5,1,1c0,0.6-0.5,1-1,1c-0.6,0-1-0.5-1-1C41.2,83.1,41.7,82.6,42.2,82.6z M40.5,79.8c0.6,0,1,0.5,1,1
	c0,0.6-0.5,1-1,1c-0.6,0-1-0.5-1-1C39.5,80.2,39.9,79.8,40.5,79.8z M38.5,82.6c0.6,0,1,0.5,1,1c0,0.6-0.5,1-1,1s-1-0.5-1-1
	C37.5,83.1,38,82.6,38.5,82.6z M36.8,79.8c0.6,0,1,0.5,1,1c0,0.6-0.5,1-1,1c-0.6,0-1-0.5-1-1C35.8,80.2,36.2,79.8,36.8,79.8z
	 M34.8,82.6c0.6,0,1,0.5,1,1c0,0.6-0.5,1-1,1c-0.6,0-1-0.5-1-1C33.8,83.1,34.2,82.6,34.8,82.6z M33,79.8c0.6,0,1,0.5,1,1
	c0,0.6-0.5,1-1,1c-0.6,0-1-0.5-1-1C32,80.2,32.5,79.8,33,79.8z M31,82.6c0.6,0,1,0.5,1,1c0,0.6-0.5,1-1,1c-0.6,0-1-0.5-1-1
	C30,83.1,30.5,82.6,31,82.6z M29.3,79.8c0.6,0,1,0.5,1,1c0,0.6-0.5,1-1,1s-1-0.5-1-1C28.3,80.2,28.7,79.8,29.3,79.8z M27.3,82.6
	c0.6,0,1,0.5,1,1c0,0.6-0.5,1-1,1c-0.6,0-1-0.5-1-1C26.3,83.1,26.7,82.6,27.3,82.6z M25.5,79.8c0.6,0,1,0.5,1,1c0,0.6-0.5,1-1,1
	s-1-0.5-1-1C24.5,80.2,25,79.8,25.5,79.8z M23.6,82.6c0.6,0,1,0.5,1,1c0,0.6-0.5,1-1,1c-0.6,0-1-0.5-1-1
	C22.5,83.1,23,82.6,23.6,82.6z M21.8,79.8c0.6,0,1,0.5,1,1c0,0.6-0.5,1-1,1c-0.6,0-1-0.5-1-1C20.8,80.2,21.2,79.8,21.8,79.8z
	 M19.8,82.6c0.6,0,1,0.5,1,1c0,0.6-0.5,1-1,1c-0.6,0-1-0.5-1-1C18.8,83.1,19.3,82.6,19.8,82.6z M18.1,79.8c0.6,0,1,0.5,1,1
	c0,0.6-0.5,1-1,1c-0.6,0-1-0.5-1-1C17.1,80.2,17.5,79.8,18.1,79.8z M16.1,82.6c0.6,0,1,0.5,1,1c0,0.6-0.5,1-1,1c-0.6,0-1-0.5-1-1
	C15.1,83.1,15.5,82.6,16.1,82.6z M14.3,79.8c0.6,0,1,0.5,1,1c0,0.6-0.5,1-1,1c-0.6,0-1-0.5-1-1C13.3,80.2,13.8,79.8,14.3,79.8z
	 M12.3,82.6c0.6,0,1,0.5,1,1c0,0.6-0.5,1-1,1c-0.6,0-1-0.5-1-1C11.3,83.1,11.8,82.6,12.3,82.6z M10.6,79.8c0.6,0,1,0.5,1,1
	c0,0.6-0.5,1-1,1c-0.6,0-1-0.5-1-1C9.6,80.2,10,79.8,10.6,79.8z M11.2,105c0,0.4-0.3,0.6-0.6,0.6c-0.4,0-0.6-0.3-0.6-0.6V93.8
	c0-0.4,0.3-0.6,0.6-0.6c0.4,0,0.6,0.3,0.6,0.6V105z M10.6,87.2c-0.6,0-1-0.5-1-1c0-0.6,0.5-1,1-1c0.6,0,1,0.5,1,1
	C11.6,86.7,11.1,87.2,10.6,87.2z M11.3,89c0-0.6,0.5-1,1-1c0.6,0,1,0.5,1,1c0,0.6-0.5,1-1,1C11.8,90.1,11.3,89.6,11.3,89z M14,105
	c0,0.4-0.3,0.6-0.6,0.6c-0.4,0-0.6-0.3-0.6-0.6V93.8c0-0.4,0.3-0.6,0.6-0.6c0.4,0,0.6,0.3,0.6,0.6V105z M14.3,87.2c-0.6,0-1-0.5-1-1
	c0-0.6,0.5-1,1-1c0.6,0,1,0.5,1,1C15.3,86.7,14.9,87.2,14.3,87.2z M16.7,105c0,0.4-0.3,0.6-0.6,0.6c-0.4,0-0.6-0.3-0.6-0.6V93.8
	c0-0.4,0.3-0.6,0.6-0.6c0.4,0,0.6,0.3,0.6,0.6V105z M16.1,90.1c-0.6,0-1-0.5-1-1c0-0.6,0.5-1,1-1c0.6,0,1,0.5,1,1
	C17.1,89.6,16.6,90.1,16.1,90.1z M17.1,86.2c0-0.6,0.5-1,1-1c0.6,0,1,0.5,1,1c0,0.6-0.5,1-1,1C17.5,87.2,17.1,86.7,17.1,86.2z
	 M19.4,105c0,0.4-0.3,0.6-0.6,0.6c-0.4,0-0.6-0.3-0.6-0.6V93.8c0-0.4,0.3-0.6,0.6-0.6c0.4,0,0.6,0.3,0.6,0.6V105z M19.8,90.1
	c-0.6,0-1-0.5-1-1c0-0.6,0.5-1,1-1c0.6,0,1,0.5,1,1C20.8,89.6,20.4,90.1,19.8,90.1z M22.1,105c0,0.4-0.3,0.6-0.6,0.6
	c-0.4,0-0.6-0.3-0.6-0.6V93.8c0-0.4,0.3-0.6,0.6-0.6c0.4,0,0.6,0.3,0.6,0.6V105z M21.8,87.2c-0.6,0-1-0.5-1-1c0-0.6,0.5-1,1-1
	c0.6,0,1,0.5,1,1C22.8,86.7,22.4,87.2,21.8,87.2z M22.5,89c0-0.6,0.5-1,1-1c0.6,0,1,0.5,1,1c0,0.6-0.5,1-1,1
	C23,90.1,22.5,89.6,22.5,89z M24.9,105c0,0.4-0.3,0.6-0.6,0.6c-0.4,0-0.6-0.3-0.6-0.6V93.8c0-0.4,0.3-0.6,0.6-0.6
	c0.4,0,0.6,0.3,0.6,0.6V105z M25.5,87.2c-0.6,0-1-0.5-1-1c0-0.6,0.5-1,1-1s1,0.5,1,1C26.6,86.7,26.1,87.2,25.5,87.2z M27.6,105
	c0,0.4-0.3,0.6-0.6,0.6c-0.4,0-0.6-0.3-0.6-0.6V93.8c0-0.4,0.3-0.6,0.6-0.6c0.4,0,0.6,0.3,0.6,0.6V105z M27.3,90.1c-0.6,0-1-0.5-1-1
	c0-0.6,0.5-1,1-1c0.6,0,1,0.5,1,1C28.3,89.6,27.8,90.1,27.3,90.1z M28.3,86.2c0-0.6,0.5-1,1-1s1,0.5,1,1c0,0.6-0.5,1-1,1
	S28.3,86.7,28.3,86.2z M30.3,105c0,0.4-0.3,0.6-0.6,0.6c-0.4,0-0.6-0.3-0.6-0.6V93.8c0-0.4,0.3-0.6,0.6-0.6c0.4,0,0.6,0.3,0.6,0.6
	V105z M31,90.1c-0.6,0-1-0.5-1-1c0-0.6,0.5-1,1-1c0.6,0,1,0.5,1,1C32,89.6,31.6,90.1,31,90.1z M33.1,105c0,0.4-0.3,0.6-0.6,0.6
	c-0.4,0-0.6-0.3-0.6-0.6V93.8c0-0.4,0.3-0.6,0.6-0.6c0.4,0,0.6,0.3,0.6,0.6V105z M33,87.2c-0.6,0-1-0.5-1-1c0-0.6,0.5-1,1-1
	c0.6,0,1,0.5,1,1C34,86.7,33.6,87.2,33,87.2z M33.8,89c0-0.6,0.5-1,1-1c0.6,0,1,0.5,1,1c0,0.6-0.5,1-1,1
	C34.2,90.1,33.8,89.6,33.8,89z M35.8,105c0,0.4-0.3,0.6-0.6,0.6c-0.4,0-0.6-0.3-0.6-0.6V93.8c0-0.4,0.3-0.6,0.6-0.6
	c0.4,0,0.6,0.3,0.6,0.6V105z M35.8,86.2c0-0.6,0.5-1,1-1c0.6,0,1,0.5,1,1c0,0.6-0.5,1-1,1C36.2,87.2,35.8,86.7,35.8,86.2z M38.5,105
	c0,0.4-0.3,0.6-0.6,0.6c-0.4,0-0.6-0.3-0.6-0.6V93.8c0-0.4,0.3-0.6,0.6-0.6c0.4,0,0.6,0.3,0.6,0.6V105z M38.5,90.1c-0.6,0-1-0.5-1-1
	c0-0.6,0.5-1,1-1s1,0.5,1,1C39.5,89.6,39.1,90.1,38.5,90.1z M39.5,86.2c0-0.6,0.5-1,1-1c0.6,0,1,0.5,1,1c0,0.6-0.5,1-1,1
	C39.9,87.2,39.5,86.7,39.5,86.2z M41.3,105c0,0.4-0.3,0.6-0.6,0.6c-0.4,0-0.6-0.3-0.6-0.6V93.8c0-0.4,0.3-0.6,0.6-0.6
	c0.4,0,0.6,0.3,0.6,0.6V105z M41.2,89c0-0.6,0.5-1,1-1c0.6,0,1,0.5,1,1c0,0.6-0.5,1-1,1C41.7,90.1,41.2,89.6,41.2,89z M44,105
	c0,0.4-0.3,0.6-0.6,0.6c-0.4,0-0.6-0.3-0.6-0.6V93.8c0-0.4,0.3-0.6,0.6-0.6c0.4,0,0.6,0.3,0.6,0.6V105z M44.2,87.2c-0.6,0-1-0.5-1-1
	c0-0.6,0.5-1,1-1c0.6,0,1,0.5,1,1C45.2,86.7,44.8,87.2,44.2,87.2z M46.7,105c0,0.4-0.3,0.6-0.6,0.6c-0.4,0-0.6-0.3-0.6-0.6V93.8
	c0-0.4,0.3-0.6,0.6-0.6c0.4,0,0.6,0.3,0.6,0.6V105z M46,90.1c-0.6,0-1-0.5-1-1c0-0.6,0.5-1,1-1c0.6,0,1,0.5,1,1
	C47,89.6,46.5,90.1,46,90.1z M47,86.2c0-0.6,0.5-1,1-1c0.6,0,1,0.5,1,1c0,0.6-0.5,1-1,1C47.4,87.2,47,86.7,47,86.2z M49.5,105
	c0,0.4-0.3,0.6-0.6,0.6c-0.4,0-0.6-0.3-0.6-0.6V93.8c0-0.4,0.3-0.6,0.6-0.6c0.4,0,0.6,0.3,0.6,0.6V105z M49.7,90.1c-0.6,0-1-0.5-1-1
	c0-0.6,0.5-1,1-1s1,0.5,1,1C50.7,89.6,50.3,90.1,49.7,90.1z M52.2,105c0,0.4-0.3,0.6-0.6,0.6c-0.4,0-0.6-0.3-0.6-0.6V93.8
	c0-0.4,0.3-0.6,0.6-0.6c0.4,0,0.6,0.3,0.6,0.6V105z M51.7,87.2c-0.6,0-1-0.5-1-1c0-0.6,0.5-1,1-1c0.6,0,1,0.5,1,1
	C52.7,86.7,52.3,87.2,51.7,87.2z M52.5,89c0-0.6,0.5-1,1-1c0.6,0,1,0.5,1,1c0,0.6-0.5,1-1,1C52.9,90.1,52.5,89.6,52.5,89z M54.9,105
	c0,0.4-0.3,0.6-0.6,0.6c-0.4,0-0.6-0.3-0.6-0.6V93.8c0-0.4,0.3-0.6,0.6-0.6c0.4,0,0.6,0.3,0.6,0.6V105z M55.5,87.2c-0.6,0-1-0.5-1-1
	c0-0.6,0.5-1,1-1c0.6,0,1,0.5,1,1C56.5,86.7,56,87.2,55.5,87.2z M57.7,105c0,0.4-0.3,0.6-0.6,0.6c-0.4,0-0.6-0.3-0.6-0.6V93.8
	c0-0.4,0.3-0.6,0.6-0.6c0.4,0,0.6,0.3,0.6,0.6V105z M57.2,90.1c-0.6,0-1-0.5-1-1c0-0.6,0.5-1,1-1c0.6,0,1,0.5,1,1
	C58.2,89.6,57.8,90.1,57.2,90.1z M58.2,86.2c0-0.6,0.5-1,1-1c0.6,0,1,0.5,1,1c0,0.6-0.5,1-1,1C58.6,87.2,58.2,86.7,58.2,86.2z
	 M60.4,105c0,0.4-0.3,0.6-0.6,0.6c-0.4,0-0.6-0.3-0.6-0.6V93.8c0-0.4,0.3-0.6,0.6-0.6c0.4,0,0.6,0.3,0.6,0.6V105z M60.9,90.1
	c-0.6,0-1-0.5-1-1c0-0.6,0.5-1,1-1c0.6,0,1,0.5,1,1C62,89.6,61.5,90.1,60.9,90.1z M63.1,105c0,0.4-0.3,0.6-0.6,0.6
	c-0.4,0-0.6-0.3-0.6-0.6V93.8c0-0.4,0.3-0.6,0.6-0.6c0.4,0,0.6,0.3,0.6,0.6V105z M62.9,87.2c-0.6,0-1-0.5-1-1c0-0.6,0.5-1,1-1
	s1,0.5,1,1C63.9,86.7,63.5,87.2,62.9,87.2z M63.7,89c0-0.6,0.5-1,1-1c0.6,0,1,0.5,1,1c0,0.6-0.5,1-1,1C64.1,90.1,63.7,89.6,63.7,89z
	 M65.8,105c0,0.4-0.3,0.6-0.6,0.6c-0.4,0-0.6-0.3-0.6-0.6V93.8c0-0.4,0.3-0.6,0.6-0.6c0.4,0,0.6,0.3,0.6,0.6V105z M65.7,86.2
	c0-0.6,0.5-1,1-1s1,0.5,1,1c0,0.6-0.5,1-1,1S65.7,86.7,65.7,86.2z M68.6,105c0,0.4-0.3,0.6-0.6,0.6c-0.4,0-0.6-0.3-0.6-0.6V93.8
	c0-0.4,0.3-0.6,0.6-0.6c0.4,0,0.6,0.3,0.6,0.6V105z M68.4,90.1c-0.6,0-1-0.5-1-1c0-0.6,0.5-1,1-1s1,0.5,1,1
	C69.4,89.6,69,90.1,68.4,90.1z M71.3,105c0,0.4-0.3,0.6-0.6,0.6c-0.4,0-0.6-0.3-0.6-0.6V93.8c0-0.4,0.3-0.6,0.6-0.6
	c0.4,0,0.6,0.3,0.6,0.6V105z M70.4,87.2c-0.6,0-1-0.5-1-1c0-0.6,0.5-1,1-1c0.6,0,1,0.5,1,1C71.4,86.7,71,87.2,70.4,87.2z M70.4,81.8
	c-0.6,0-1-0.5-1-1c0-0.6,0.5-1,1-1c0.6,0,1,0.5,1,1C71.4,81.3,71,81.8,70.4,81.8z"/>
</svg>
