<?xml version="1.0" encoding="utf-8"?>
<!-- Generator: Adobe Illustrator 23.0.2, SVG Export Plug-In . SVG Version: 6.00 Build 0)  -->
<svg version="1.1" id="Layer_1" xmlns="http://www.w3.org/2000/svg" xmlns:xlink="http://www.w3.org/1999/xlink" x="0px" y="0px"
	 viewBox="0 0 416 309.33" style="enable-background:new 0 0 416 309.33;" xml:space="preserve">
<style type="text/css">
	.st0{fill:#DEE3F9;}
	.st1{fill:#F4F2DF;}
	.st2{fill:#CFC344;}
	.st3{fill:#56548C;}
	.st4{fill:#D1D948;}
	.st5{fill:#BEC7EA;}
	.st6{fill:#E34B54;}
	.st7{fill:#C6D1DD;}
	.st8{fill:#A2ACB6;}
	.st9{fill:#F3C627;}
	.st10{fill:#D4930D;}
	.st11{opacity:0.38;}
	.st12{fill:#505659;}
	.st13{opacity:0.51;}
	.st14{fill:#FFFFFF;}
	.st15{opacity:0.5;}
	.st16{fill:#9EA2B2;}
	.st17{opacity:0.12;fill:#E6E6E6;}
	.st18{opacity:0.08;}
	.st19{fill:none;stroke:#C0C9CC;stroke-miterlimit:10;}
	.st20{fill:#6CD948;}
	.st21{opacity:0.25;}
	.st22{opacity:0.56;}
	.st23{fill:#7BC928;}
	.st24{opacity:0.39;fill:#FFFFFF;}
	.st25{opacity:0.15;}
	.st26{fill:#F2EFF1;}
	.st27{opacity:0.18;}
	.st28{fill:#2EBDAF;}
	.st29{fill:#E0D4B1;}
	.st30{fill:#BEB297;}
	.st31{fill:#DE9C63;}
	.st32{fill:#F6C188;}
	.st33{fill:#D18C46;}
	.st34{fill:#EDAC73;}
	.st35{fill:#A17449;}
	.st36{fill:#59D88D;}
	.st37{fill:#2EC169;}
	.st38{fill:#D2EDEF;}
	.st39{fill:#373737;}
	.st40{opacity:0.56;fill:#F1F3F5;}
	.st41{fill:#C6E7EA;}
	.st42{fill:#B3EAFC;}
	.st43{fill:#F4C746;}
	.st44{fill:#BAE5D2;}
	.st45{fill:#52BDCE;}
	.st46{fill:#2A2AD0;}
</style>
<g>
	<polygon class="st0" points="25.25,207.48 25.25,204.82 30.57,204.82 30.57,188.31 43.06,188.31 43.06,156.69 52.38,156.69 
		52.38,201.13 58.78,201.13 58.78,177.45 73.42,177.45 73.42,206.64 79.12,206.64 79.12,154.9 82.49,154.9 82.49,159.74 
		88.19,159.74 88.19,173.36 89.91,173.36 89.91,197.73 103.47,197.73 103.47,177.51 109.23,177.51 109.23,173.07 122.12,173.07 
		122.12,192.24 130.84,192.24 130.84,187.92 145.55,187.92 145.55,158.04 159.53,158.04 159.53,193.41 175.6,193.41 175.6,174.01 
		177.28,174.01 177.28,150.58 188.07,150.58 188.07,182.93 188.38,182.93 188.38,202.32 195.13,202.32 195.13,173.13 208.41,173.13 
		208.41,177.42 212.48,177.42 212.48,196.81 220.06,196.81 220.06,152.37 224.13,152.37 224.13,164.6 231.11,164.6 231.11,183.99 
		241.93,183.99 241.93,218.66 25.25,218.66 	"/>
	<polygon class="st0" points="187.04,207.48 187.04,204.82 192.36,204.82 192.36,188.31 204.85,188.31 204.85,156.69 214.17,156.69 
		214.17,201.13 220.57,201.13 220.57,177.45 235.21,177.45 235.21,206.64 240.91,206.64 240.91,154.9 244.27,154.9 244.27,159.74 
		249.98,159.74 249.98,173.36 251.69,173.36 251.69,197.73 265.26,197.73 265.26,177.51 271.02,177.51 271.02,173.07 283.91,173.07 
		283.91,192.24 292.62,192.24 292.62,187.92 307.34,187.92 307.34,158.04 321.32,158.04 321.32,193.41 337.39,193.41 337.39,174.01 
		339.07,174.01 339.07,150.58 349.86,150.58 349.86,182.93 350.17,182.93 350.17,202.32 356.92,202.32 356.92,173.13 370.2,173.13 
		370.2,177.42 374.27,177.42 374.27,196.81 381.85,196.81 381.85,152.37 385.92,152.37 385.92,164.6 392.9,164.6 392.9,183.99 
		403.72,183.99 403.72,218.66 187.04,218.66 	"/>
	<g>
		<path class="st1" d="M406.88,174.88c1.59-2.05,2.54-4.62,2.54-7.41c0-5.9-4.23-10.81-9.83-11.86c0-0.12,0.01-0.24,0.01-0.36
			c0-6.98-5.1-12.74-11.77-13.83v0c0,0,0,0,0,0c-0.29-0.05-0.58-0.09-0.88-0.12c-0.36-0.04-0.73-0.07-1.1-0.08
			c-0.18-0.46-0.38-0.9-0.6-1.33c-0.05-0.1-0.1-0.2-0.16-0.3c-0.21-0.4-0.44-0.79-0.68-1.17c-0.02-0.02-0.03-0.05-0.04-0.07
			c-2.45-3.73-6.49-6.33-11.15-6.83c-0.06-0.01-0.12-0.01-0.18-0.02c-0.49-0.05-0.99-0.08-1.49-0.08h0l0,0h0
			c-1.59,0-3.12,0.24-4.56,0.69c-0.48,0.15-0.95,0.32-1.41,0.52c-0.92,0.39-1.79,0.86-2.61,1.41c-0.41,0.28-0.8,0.57-1.18,0.88
			c-0.76,0.63-1.45,1.32-2.08,2.08c-2.19,2.65-3.5,6.05-3.5,9.76c0,0.88,0.08,1.74,0.22,2.58c-0.58-0.07-1.17-0.11-1.77-0.11l0,0
			l0,0c-3.14,0-6.06,0.95-8.47,2.59c-0.81,0.54-1.56,1.17-2.24,1.85c-0.34,0.34-0.67,0.7-0.98,1.08c-2.16,2.62-3.46,5.98-3.46,9.64
			c0,1.86,0.34,3.64,0.95,5.29c0.61,1.65,1.51,3.16,2.62,4.48c-0.98,1.34-1.76,2.84-2.29,4.45s-0.82,3.33-0.82,5.12
			c0,0.5,0.03,0.99,0.07,1.48c0.01,0.14,0.03,0.29,0.05,0.43c0.04,0.37,0.1,0.74,0.17,1.1c0.02,0.13,0.04,0.26,0.07,0.38
			c0.1,0.45,0.21,0.9,0.34,1.33c0.04,0.14,0.09,0.28,0.14,0.42c0.1,0.31,0.21,0.61,0.33,0.91c0.07,0.17,0.14,0.34,0.21,0.51
			c0.13,0.3,0.28,0.59,0.43,0.88c0.1,0.19,0.2,0.37,0.3,0.56c0.14,0.25,0.29,0.51,0.45,0.75c0,0,0.01,0,0.01,0
			c2.89,4.51,7.93,7.5,13.68,7.5c4.23,0,8.08-1.61,10.97-4.26c2.51,2.38,5.9,3.84,9.63,3.84c2.55,0,4.94-0.69,7.01-1.88
			c2.87,2.55,6.65,4.1,10.79,4.1c8.98,0,16.25-7.28,16.25-16.25C410.86,181.45,409.35,177.73,406.88,174.88z"/>
		<polygon class="st0" points="392.07,177.91 376.63,193.82 376.63,176.16 384.21,167.18 376.63,173.57 376.63,162.18 
			373.73,162.18 373.73,185.16 357.61,174.74 373.73,187.62 373.73,230.12 376.63,230.12 376.63,196.81 		"/>
	</g>
	<g>
		<path class="st1" d="M220.88,174.88c-1.59-2.05-2.54-4.62-2.54-7.41c0-5.9,4.23-10.81,9.83-11.86c0-0.12-0.01-0.24-0.01-0.36
			c0-6.98,5.1-12.74,11.77-13.83v0c0,0,0,0,0,0c0.29-0.05,0.58-0.09,0.88-0.12c0.36-0.04,0.73-0.07,1.1-0.08
			c0.18-0.46,0.38-0.9,0.6-1.33c0.05-0.1,0.1-0.2,0.16-0.3c0.21-0.4,0.44-0.79,0.68-1.17c0.02-0.02,0.03-0.05,0.04-0.07
			c2.45-3.73,6.49-6.33,11.15-6.83c0.06-0.01,0.12-0.01,0.18-0.02c0.49-0.05,0.99-0.08,1.49-0.08h0l0,0h0
			c1.59,0,3.12,0.24,4.56,0.69c0.48,0.15,0.95,0.32,1.41,0.52c0.92,0.39,1.79,0.86,2.61,1.41c0.41,0.28,0.8,0.57,1.18,0.88
			c0.76,0.63,1.45,1.32,2.08,2.08c2.19,2.65,3.5,6.05,3.5,9.76c0,0.88-0.08,1.74-0.22,2.58c0.58-0.07,1.17-0.11,1.77-0.11l0,0l0,0
			c3.14,0,6.06,0.95,8.47,2.59c0.81,0.54,1.56,1.17,2.24,1.85c0.34,0.34,0.67,0.7,0.98,1.08c2.16,2.62,3.46,5.98,3.46,9.64
			c0,1.86-0.34,3.64-0.95,5.29c-0.61,1.65-1.51,3.16-2.62,4.48c0.98,1.34,1.76,2.84,2.29,4.45s0.82,3.33,0.82,5.12
			c0,0.5-0.03,0.99-0.07,1.48c-0.01,0.14-0.03,0.29-0.05,0.43c-0.04,0.37-0.1,0.74-0.17,1.1c-0.02,0.13-0.04,0.26-0.07,0.38
			c-0.1,0.45-0.21,0.9-0.34,1.33c-0.04,0.14-0.09,0.28-0.14,0.42c-0.1,0.31-0.21,0.61-0.33,0.91c-0.07,0.17-0.14,0.34-0.21,0.51
			c-0.13,0.3-0.28,0.59-0.43,0.88c-0.1,0.19-0.2,0.37-0.3,0.56c-0.14,0.25-0.29,0.51-0.45,0.75c0,0-0.01,0-0.01,0
			c-2.89,4.51-7.93,7.5-13.68,7.5c-4.23,0-8.08-1.61-10.97-4.26c-2.51,2.38-5.9,3.84-9.63,3.84c-2.55,0-4.94-0.69-7.01-1.88
			c-2.87,2.55-6.65,4.1-10.79,4.1c-8.98,0-16.25-7.28-16.25-16.25C216.9,181.45,218.4,177.73,220.88,174.88z"/>
		<polygon class="st0" points="235.69,177.91 251.13,193.82 251.13,176.16 243.55,167.18 251.13,173.57 251.13,162.18 
			254.02,162.18 254.02,185.16 270.14,174.74 254.02,187.62 254.02,230.12 251.13,230.12 251.13,196.81 		"/>
	</g>
	<g>
		<path class="st2" d="M389.47,136.76c2.77-3.56,4.43-8.03,4.43-12.89c0-10.26-7.36-18.8-17.09-20.63c0.01-0.21,0.02-0.42,0.02-0.63
			c0-12.13-8.87-22.17-20.47-24.05v0c0,0,0,0,0,0c-0.51-0.08-1.02-0.16-1.53-0.21c-0.63-0.07-1.26-0.12-1.91-0.13
			c-0.31-0.79-0.67-1.56-1.04-2.32c-0.09-0.17-0.18-0.35-0.27-0.52c-0.37-0.69-0.76-1.37-1.19-2.03c-0.03-0.04-0.05-0.08-0.08-0.12
			c-4.26-6.49-11.28-11-19.39-11.89c-0.1-0.01-0.21-0.03-0.31-0.04c-0.86-0.08-1.72-0.14-2.6-0.14c0,0,0,0,0,0l0,0h0
			c-2.76,0-5.43,0.42-7.93,1.2c-0.84,0.26-1.65,0.56-2.45,0.9c-1.6,0.67-3.11,1.5-4.53,2.46c-0.71,0.48-1.39,0.99-2.05,1.54
			c-1.32,1.09-2.53,2.3-3.62,3.62c-3.81,4.61-6.09,10.52-6.09,16.97c0,1.53,0.14,3.03,0.38,4.49c-1.01-0.12-2.04-0.18-3.08-0.18l0,0
			h0c-5.46,0-10.53,1.66-14.74,4.5c-1.4,0.95-2.71,2.03-3.9,3.22c-0.6,0.6-1.16,1.22-1.7,1.87c-3.76,4.56-6.02,10.4-6.02,16.77
			c0,3.24,0.58,6.34,1.65,9.2c1.07,2.86,2.62,5.49,4.56,7.79c-1.7,2.33-3.06,4.94-3.99,7.74c-0.93,2.8-1.43,5.79-1.43,8.9
			c0,0.87,0.05,1.73,0.13,2.58c0.02,0.25,0.05,0.5,0.08,0.74c0.08,0.64,0.17,1.28,0.29,1.91c0.04,0.22,0.08,0.45,0.12,0.67
			c0.17,0.78,0.36,1.56,0.6,2.32c0.07,0.24,0.16,0.48,0.24,0.72c0.18,0.53,0.37,1.06,0.58,1.58c0.12,0.3,0.24,0.59,0.37,0.88
			c0.23,0.52,0.48,1.03,0.74,1.54c0.17,0.33,0.34,0.65,0.52,0.97c0.25,0.44,0.5,0.88,0.78,1.31c0.01,0,0.02,0,0.02,0
			c5.02,7.84,13.79,13.05,23.8,13.05c7.35,0,14.05-2.81,19.07-7.41c4.37,4.13,10.27,6.67,16.76,6.67c4.44,0,8.6-1.19,12.18-3.26
			c4.99,4.43,11.56,7.13,18.76,7.13c15.61,0,28.27-12.65,28.27-28.27C396.38,148.18,393.77,141.72,389.47,136.76z"/>
		<polygon class="st3" points="363.71,142.03 336.85,169.71 336.85,139 350.03,123.36 336.85,134.48 336.85,114.67 331.82,114.67 
			331.82,154.65 303.78,136.52 331.82,158.93 331.82,232.84 336.85,232.84 336.85,174.92 		"/>
	</g>
	<g>
		<path class="st4" d="M158.17,150.8c-2.02-2.6-3.23-5.87-3.23-9.42c0-7.5,5.38-13.74,12.49-15.08c0-0.15-0.01-0.31-0.01-0.46
			c0-8.87,6.48-16.2,14.96-17.57v0c0,0,0,0,0,0c0.37-0.06,0.74-0.11,1.12-0.15c0.46-0.05,0.92-0.09,1.39-0.1
			c0.22-0.58,0.49-1.14,0.76-1.69c0.06-0.13,0.13-0.25,0.2-0.38c0.27-0.51,0.56-1,0.87-1.48c0.02-0.03,0.04-0.06,0.06-0.09
			c3.12-4.75,8.24-8.04,14.17-8.68c0.08-0.01,0.15-0.02,0.23-0.03c0.63-0.06,1.26-0.1,1.9-0.1c0,0,0,0,0,0l0,0h0
			c2.02,0,3.97,0.31,5.8,0.88c0.61,0.19,1.21,0.41,1.79,0.66c1.17,0.49,2.27,1.1,3.31,1.8c0.52,0.35,1.02,0.72,1.5,1.12
			c0.96,0.79,1.85,1.68,2.64,2.64c2.78,3.37,4.45,7.69,4.45,12.4c0,1.12-0.1,2.21-0.28,3.28c0.74-0.09,1.49-0.13,2.25-0.13l0,0h0
			c3.99,0,7.7,1.21,10.77,3.29c1.02,0.69,1.98,1.48,2.85,2.35c0.44,0.44,0.85,0.89,1.24,1.37c2.75,3.33,4.4,7.6,4.4,12.25
			c0,2.37-0.43,4.63-1.21,6.72c-0.78,2.09-1.92,4.01-3.33,5.69c1.24,1.71,2.23,3.61,2.91,5.65c0.68,2.04,1.05,4.23,1.05,6.5
			c0,0.64-0.04,1.26-0.1,1.88c-0.02,0.18-0.04,0.36-0.06,0.54c-0.06,0.47-0.13,0.93-0.21,1.39c-0.03,0.16-0.06,0.33-0.09,0.49
			c-0.12,0.57-0.27,1.14-0.44,1.69c-0.05,0.18-0.12,0.35-0.18,0.53c-0.13,0.39-0.27,0.77-0.42,1.15c-0.09,0.22-0.17,0.43-0.27,0.64
			c-0.17,0.38-0.35,0.75-0.54,1.12c-0.12,0.24-0.25,0.47-0.38,0.71c-0.18,0.32-0.37,0.65-0.57,0.96c-0.01,0-0.01,0-0.02,0
			c-3.67,5.73-10.08,9.54-17.39,9.54c-5.37,0-10.26-2.05-13.94-5.41c-3.19,3.02-7.5,4.88-12.24,4.88c-3.24,0-6.28-0.87-8.9-2.38
			c-3.65,3.24-8.45,5.21-13.71,5.21c-11.41,0-20.65-9.25-20.65-20.65C153.12,159.15,155.03,154.43,158.17,150.8z"/>
		<polygon class="st3" points="177,154.66 196.62,174.88 196.62,152.44 186.99,141.02 196.62,149.14 196.62,134.66 200.3,134.66 
			200.3,163.88 220.79,150.63 200.3,167 200.3,221.01 196.62,221.01 196.62,178.69 		"/>
	</g>
	<path class="st0" d="M257.71,237.3H17.79c-2.65,0-4.82-2.17-4.82-4.82v0c0-2.65,2.17-4.82,4.82-4.82h239.92
		c2.65,0,4.82,2.17,4.82,4.82v0C262.53,235.14,260.36,237.3,257.71,237.3z"/>
	<path class="st0" d="M280.63,289.46H40.71c-2.65,0-4.82-2.17-4.82-4.82l0,0c0-2.65,2.17-4.82,4.82-4.82h239.92
		c2.65,0,4.82,2.17,4.82,4.82l0,0C285.44,287.29,283.28,289.46,280.63,289.46z"/>
	<path class="st0" d="M319.08,238.09h71.34c2.87,0,5.21-2.34,5.21-5.21l0,0c0-2.87-2.35-5.21-5.21-5.21h-71.34
		c-2.87,0-5.21,2.35-5.21,5.21l0,0C313.87,235.75,316.22,238.09,319.08,238.09z"/>
	<path class="st0" d="M27.26,282.27h343.06c5.92,0,10.77-4.85,10.77-10.77l0,0c0-5.92-4.85-10.77-10.77-10.77H27.26
		c-5.92,0-10.77,4.85-10.77,10.77l0,0C16.48,277.43,21.33,282.27,27.26,282.27z"/>
	<path class="st5" d="M192.42,276.47h124.11c3,0,5.45-2.45,5.45-5.45l0,0c0-3-2.45-5.45-5.45-5.45H192.42c-3,0-5.45,2.45-5.45,5.45
		l0,0C186.97,274.02,189.43,276.47,192.42,276.47z"/>
	<path class="st5" d="M303.41,271.5h52.47c1.71,0,3.11-1.4,3.11-3.11l0,0c0-1.71-1.4-3.11-3.11-3.11h-52.47
		c-1.71,0-3.11,1.4-3.11,3.11l0,0C300.31,270.1,301.7,271.5,303.41,271.5z"/>
	<g>
		<path class="st2" d="M120.54,112.78c2.76-3.55,4.41-8,4.41-12.85c0-10.23-7.34-18.74-17.04-20.57c0.01-0.21,0.02-0.42,0.02-0.63
			c0-12.1-8.84-22.1-20.41-23.97v0c0,0,0,0,0,0c-0.51-0.08-1.01-0.16-1.53-0.21c-0.63-0.07-1.26-0.12-1.9-0.13
			c-0.31-0.79-0.66-1.56-1.04-2.31c-0.09-0.17-0.18-0.34-0.27-0.52c-0.37-0.69-0.76-1.37-1.18-2.02c-0.03-0.04-0.05-0.08-0.08-0.12
			c-4.25-6.47-11.25-10.97-19.34-11.85c-0.1-0.01-0.21-0.03-0.31-0.04c-0.85-0.08-1.71-0.14-2.59-0.14c0,0,0,0,0,0l0,0h0
			c-2.75,0-5.41,0.42-7.91,1.2c-0.83,0.26-1.65,0.56-2.44,0.89c-1.59,0.67-3.1,1.5-4.52,2.45c-0.71,0.48-1.39,0.99-2.05,1.53
			c-1.31,1.08-2.52,2.29-3.61,3.61c-3.79,4.6-6.07,10.49-6.07,16.92c0,1.53,0.14,3.02,0.38,4.47c-1.01-0.12-2.03-0.18-3.07-0.18l0,0
			h0c-5.44,0-10.5,1.65-14.69,4.49c-1.4,0.94-2.7,2.02-3.89,3.21c-0.59,0.59-1.16,1.22-1.7,1.87c-3.75,4.54-6,10.37-6,16.72
			c0,3.23,0.58,6.32,1.65,9.17s2.61,5.48,4.54,7.76c-1.7,2.33-3.05,4.92-3.98,7.71c-0.93,2.79-1.43,5.77-1.43,8.87
			c0,0.87,0.05,1.72,0.13,2.57c0.02,0.25,0.05,0.49,0.08,0.74c0.08,0.64,0.17,1.27,0.29,1.9c0.04,0.22,0.08,0.44,0.12,0.66
			c0.17,0.78,0.36,1.55,0.59,2.31c0.07,0.24,0.16,0.48,0.24,0.72c0.18,0.53,0.37,1.06,0.58,1.57c0.12,0.29,0.24,0.59,0.37,0.88
			c0.23,0.52,0.48,1.03,0.74,1.53c0.17,0.33,0.34,0.65,0.52,0.97c0.25,0.44,0.5,0.88,0.77,1.31c0.01,0,0.02,0,0.02,0
			c5.01,7.82,13.75,13.01,23.72,13.01c7.33,0,14-2.8,19.02-7.39c4.36,4.12,10.23,6.65,16.71,6.65c4.43,0,8.57-1.19,12.15-3.25
			c4.98,4.42,11.52,7.11,18.7,7.11c15.56,0,28.18-12.62,28.18-28.18C127.43,124.18,124.83,117.73,120.54,112.78z"/>
		<polygon class="st3" points="94.86,118.04 68.09,145.64 68.09,115.02 81.23,99.43 68.09,110.51 68.09,90.76 63.07,90.76 
			63.07,130.62 35.11,112.55 63.07,134.89 63.07,208.58 68.09,208.58 68.09,150.83 		"/>
	</g>
	<path class="st2" d="M28.81,232.03c-6.24-3.81-9.04-10.23-7.67-13.11c1.49-3.13,8.81-4.8,16.62-0.64c-0.26-1.18-4.08-19.19,0-20.78
		c3.27-1.27,10.02,8.63,11.51,10.87c-1.5-13.01-1.18-19.83,0.96-20.46c1.57-0.46,4.13,2.41,7.67,8.63c1.29-4.48,2.57-6.72,3.84-6.71
		c2.49,0.01,4.94,8.64,7.35,25.89c1.19-6.3,3.71-17.55,7.03-17.58c4.15-0.04,7.39,17.42,8.31,22.7c5.39-5.69,8.7-8.14,9.91-7.35
		c1.54,0.99-0.27,7.17-5.43,18.54C68.88,231.82,48.85,232.25,28.81,232.03z"/>
	<path class="st2" d="M351.12,233.94c3.78-2.31,5.48-6.2,4.65-7.94c-0.9-1.89-5.34-2.91-10.07-0.39c0.16-0.71,2.47-11.63,0-12.59
		c-1.98-0.77-6.07,5.23-6.97,6.58c0.91-7.88,0.72-12.01-0.58-12.39c-0.95-0.28-2.5,1.46-4.65,5.23c-0.78-2.71-1.56-4.07-2.32-4.07
		c-1.51,0.01-2.99,5.24-4.45,15.69c-0.72-3.82-2.25-10.63-4.26-10.65c-2.51-0.03-4.48,10.56-5.04,13.75c-3.27-3.44-5.27-4.93-6-4.45
		c-0.93,0.6,0.17,4.35,3.29,11.23C326.84,233.81,338.98,234.06,351.12,233.94z"/>
	<path class="st2" d="M183.16,235.27c3.78-2.31,5.48-6.2,4.65-7.94c-0.9-1.89-5.34-2.91-10.07-0.39c0.16-0.71,2.47-11.63,0-12.59
		c-1.98-0.77-6.07,5.23-6.97,6.58c0.91-7.88,0.72-12.01-0.58-12.39c-0.95-0.28-2.5,1.46-4.65,5.23c-0.78-2.71-1.56-4.07-2.32-4.07
		c-1.51,0.01-2.99,5.24-4.45,15.69c-0.72-3.82-2.25-10.63-4.26-10.65c-2.51-0.03-4.48,10.56-5.04,13.75c-3.27-3.44-5.27-4.93-6-4.45
		c-0.93,0.6,0.17,4.35,3.29,11.23C158.89,235.14,171.02,235.4,183.16,235.27z"/>
	<path class="st0" d="M292.61,298.48h38.26c2.48,0,4.51-2.03,4.51-4.51l0,0c0-2.48-2.03-4.51-4.51-4.51h-38.26
		c-2.48,0-4.51,2.03-4.51,4.51l0,0C288.09,296.45,290.12,298.48,292.61,298.48z"/>
	<path class="st0" d="M221.65,55.47H116.63c-1.42,0-2.58-1.16-2.58-2.58v0c0-1.42,1.16-2.58,2.58-2.58h105.03
		c1.42,0,2.58,1.16,2.58,2.58v0C224.23,54.31,223.07,55.47,221.65,55.47z"/>
	<path class="st0" d="M188.29,53.37h-61.63c-2.08,0-3.77-1.7-3.77-3.78l0,0c0-2.08,1.7-3.78,3.77-3.78h61.63
		c2.08,0,3.77,1.7,3.77,3.78l0,0C192.07,51.67,190.37,53.37,188.29,53.37z"/>
	<path class="st0" d="M268.88,90.36h-38.56c-1.3,0-2.36-1.7-2.36-3.78l0,0c0-2.08,1.06-3.78,2.36-3.78h38.56
		c1.3,0,2.36,1.7,2.36,3.78l0,0C271.24,88.66,270.18,90.36,268.88,90.36z"/>
	<path class="st0" d="M156.82,52.1H139.4c-3.19,0-5.8-2.61-5.8-5.8l0,0c0-3.19,2.61-5.8,5.8-5.8h17.42c3.19,0,5.8,2.61,5.8,5.8l0,0
		C162.62,49.49,160.01,52.1,156.82,52.1z"/>
	<path class="st0" d="M258.55,88.33h-17.42c-3.19,0-5.8-2.61-5.8-5.8l0,0c0-3.19,2.61-5.8,5.8-5.8h17.42c3.19,0,5.8,2.61,5.8,5.8
		l0,0C264.36,85.72,261.75,88.33,258.55,88.33z"/>
	<path class="st2" d="M214.28,234.41c-3.78-2.31-5.48-6.2-4.65-7.94c0.9-1.89,5.34-2.91,10.07-0.39c-0.16-0.71-2.47-11.63,0-12.59
		c1.98-0.77,6.07,5.23,6.97,6.58c-0.91-7.88-0.72-12.01,0.58-12.39c0.95-0.28,2.5,1.46,4.65,5.23c0.78-2.71,1.56-4.07,2.32-4.07
		c1.51,0.01,2.99,5.24,4.45,15.69c0.72-3.82,2.25-10.63,4.26-10.65c2.51-0.03,4.48,10.56,5.04,13.75c3.27-3.44,5.27-4.93,6-4.45
		c0.93,0.6-0.17,4.35-3.29,11.23C238.55,234.28,226.41,234.54,214.28,234.41z"/>
</g>
<g>
	<path class="st6" d="M348.67,68.94c0.63-0.87,1.22-1.67,1.81-2.47c-0.07-0.05-0.14-0.11-0.21-0.16c-0.31,0.29-0.62,0.58-0.99,0.93
		c-5.77-4.22-11.56-8.45-17.41-12.73c0.19-0.39,0.39-0.81,0.58-1.22c-0.06-0.05-0.11-0.1-0.17-0.15c-0.33,0.29-0.66,0.59-1.04,0.92
		c-1.84-1.35-3.67-2.68-5.57-4.07c0.17-0.39,0.35-0.81,0.53-1.23c-0.06-0.04-0.12-0.09-0.18-0.13c-0.19,0.2-0.41,0.38-0.58,0.6
		c-1.82,2.49-3.62,5.01-5.46,7.49c-1.11,1.49-1.27,3.07-0.6,4.76c0.65,1.65,1.39,3.26,1.98,4.93c0.16,0.46,0.1,1.19-0.17,1.57
		c-2.54,3.51-5.1,7-7.65,10.5c-2.56,3.49-5.12,6.99-7.69,10.47c-0.28,0.38-0.96,0.66-1.44,0.64c-1.77-0.06-3.53-0.27-5.29-0.39
		c-1.81-0.12-3.27,0.51-4.35,2.01c-1.8,2.51-3.66,4.98-5.48,7.47c-0.16,0.22-0.27,0.49-0.4,0.73c0.06,0.04,0.12,0.09,0.18,0.13
		c0.34-0.3,0.68-0.6,1.01-0.88c1.9,1.39,3.73,2.72,5.57,4.07c-0.21,0.46-0.38,0.87-0.56,1.27c0.07,0.04,0.13,0.08,0.19,0.12
		c0.34-0.32,0.68-0.63,0.99-0.93c5.86,4.28,11.64,8.51,17.41,12.73c-0.22,0.46-0.4,0.84-0.58,1.22c0.07,0.05,0.15,0.1,0.22,0.15
		c0.59-0.8,1.18-1.61,1.81-2.47c1.91,1.06,2.05,1.03,3.19-0.52c5.14-7.03,10.28-14.06,15.42-21.08
		c5.14-7.03,10.28-14.06,15.42-21.08C350.27,70.58,350.26,70.43,348.67,68.94z M334.01,66.55c-0.26,0.35-0.75,0.43-1.1,0.17
		c-0.35-0.26-0.43-0.75-0.17-1.1c0.26-0.35,0.75-0.43,1.1-0.17S334.27,66.2,334.01,66.55z M331.85,63.04
		c0.26-0.35,0.75-0.43,1.1-0.17s0.43,0.75,0.17,1.1c-0.26,0.35-0.75,0.43-1.1,0.17C331.67,63.89,331.59,63.39,331.85,63.04z
		 M332.29,68.91c-0.26,0.35-0.75,0.43-1.1,0.17s-0.43-0.75-0.17-1.1c0.26-0.35,0.75-0.43,1.1-0.17
		C332.47,68.06,332.54,68.56,332.29,68.91z M331.4,66.33c-0.26,0.35-0.75,0.43-1.1,0.17c-0.35-0.26-0.43-0.75-0.17-1.1
		s0.75-0.43,1.1-0.17S331.65,65.98,331.4,66.33z M307.72,96.03c0.26-0.35,0.75-0.43,1.1-0.17c0.35,0.26,0.43,0.75,0.17,1.1
		s-0.75,0.43-1.1,0.17S307.47,96.39,307.72,96.03z M307.11,94.87c-0.35-0.26-0.43-0.75-0.17-1.1s0.75-0.43,1.1-0.17
		c0.35,0.26,0.43,0.75,0.17,1.1C307.95,95.05,307.46,95.12,307.11,94.87z M308.83,92.51c-0.35-0.26-0.43-0.75-0.17-1.1
		s0.75-0.43,1.1-0.17s0.43,0.75,0.17,1.1C309.67,92.69,309.18,92.77,308.83,92.51z M309.45,93.68c0.26-0.35,0.75-0.43,1.1-0.17
		c0.35,0.26,0.43,0.75,0.17,1.1s-0.75,0.43-1.1,0.17C309.27,94.52,309.19,94.03,309.45,93.68z M310.38,89.06
		c0.26-0.35,0.75-0.43,1.1-0.17c0.35,0.26,0.43,0.75,0.17,1.1c-0.26,0.35-0.75,0.43-1.1,0.17S310.13,89.41,310.38,89.06z
		 M310.34,96.26c0.26-0.35,0.75-0.43,1.1-0.17c0.35,0.26,0.43,0.75,0.17,1.1c-0.26,0.35-0.75,0.43-1.1,0.17
		S310.08,96.61,310.34,96.26z M311.34,92.42c-0.35-0.26-0.43-0.75-0.17-1.1c0.26-0.35,0.75-0.43,1.1-0.17s0.43,0.75,0.17,1.1
		C312.18,92.6,311.69,92.68,311.34,92.42z M312.1,86.7c0.26-0.35,0.75-0.43,1.1-0.17s0.43,0.75,0.17,1.1
		c-0.26,0.35-0.75,0.43-1.1,0.17C311.92,87.54,311.85,87.05,312.1,86.7z M312.06,93.9c0.26-0.35,0.75-0.43,1.1-0.17
		c0.35,0.26,0.43,0.75,0.17,1.1c-0.26,0.35-0.75,0.43-1.1,0.17S311.8,94.25,312.06,93.9z M313.06,90.06
		c-0.35-0.26-0.43-0.75-0.17-1.1c0.26-0.35,0.75-0.43,1.1-0.17c0.35,0.26,0.43,0.75,0.17,1.1S313.41,90.32,313.06,90.06z
		 M313.83,84.34c0.26-0.35,0.75-0.43,1.1-0.17s0.43,0.75,0.17,1.1c-0.26,0.35-0.75,0.43-1.1,0.17S313.57,84.69,313.83,84.34z
		 M313.78,91.54c0.26-0.35,0.75-0.43,1.1-0.17s0.43,0.75,0.17,1.1c-0.26,0.35-0.75,0.43-1.1,0.17
		C313.6,92.39,313.53,91.89,313.78,91.54z M314.79,87.71c-0.35-0.26-0.43-0.75-0.17-1.1c0.26-0.35,0.75-0.43,1.1-0.17
		s0.43,0.75,0.17,1.1S315.14,87.96,314.79,87.71z M315.55,81.99c0.26-0.35,0.75-0.43,1.1-0.17c0.35,0.26,0.43,0.75,0.17,1.1
		c-0.26,0.35-0.75,0.43-1.1,0.17C315.37,82.83,315.29,82.34,315.55,81.99z M315.51,89.19c0.26-0.35,0.75-0.43,1.1-0.17
		c0.35,0.26,0.43,0.75,0.17,1.1c-0.26,0.35-0.75,0.43-1.1,0.17S315.25,89.54,315.51,89.19z M316.51,85.35
		c-0.35-0.26-0.43-0.75-0.17-1.1c0.26-0.35,0.75-0.43,1.1-0.17c0.35,0.26,0.43,0.75,0.17,1.1S316.86,85.61,316.51,85.35z
		 M317.27,79.63c0.26-0.35,0.75-0.43,1.1-0.17s0.43,0.75,0.17,1.1c-0.26,0.35-0.75,0.43-1.1,0.17
		C317.09,80.47,317.02,79.98,317.27,79.63z M317.23,86.83c0.26-0.35,0.75-0.43,1.1-0.17s0.43,0.75,0.17,1.1
		c-0.26,0.35-0.75,0.43-1.1,0.17C317.05,87.67,316.97,87.18,317.23,86.83z M318.23,83c-0.35-0.26-0.43-0.75-0.17-1.1
		s0.75-0.43,1.1-0.17s0.43,0.75,0.17,1.1S318.58,83.25,318.23,83z M319,77.27c0.26-0.35,0.75-0.43,1.1-0.17
		c0.35,0.26,0.43,0.75,0.17,1.1s-0.75,0.43-1.1,0.17S318.74,77.62,319,77.27z M318.95,84.47c0.26-0.35,0.75-0.43,1.1-0.17
		c0.35,0.26,0.43,0.75,0.17,1.1c-0.26,0.35-0.75,0.43-1.1,0.17S318.7,84.82,318.95,84.47z M319.96,80.64
		c-0.35-0.26-0.43-0.75-0.17-1.1s0.75-0.43,1.1-0.17s0.43,0.75,0.17,1.1S320.31,80.9,319.96,80.64z M320.72,74.92
		c0.26-0.35,0.75-0.43,1.1-0.17s0.43,0.75,0.17,1.1s-0.75,0.43-1.1,0.17C320.54,75.76,320.46,75.27,320.72,74.92z M320.68,82.12
		c0.26-0.35,0.75-0.43,1.1-0.17s0.43,0.75,0.17,1.1c-0.26,0.35-0.75,0.43-1.1,0.17C320.5,82.96,320.42,82.47,320.68,82.12z
		 M321.68,78.28c-0.35-0.26-0.43-0.75-0.17-1.1s0.75-0.43,1.1-0.17c0.35,0.26,0.43,0.75,0.17,1.1S322.03,78.54,321.68,78.28z
		 M322.44,72.56c0.26-0.35,0.75-0.43,1.1-0.17c0.35,0.26,0.43,0.75,0.17,1.1s-0.75,0.43-1.1,0.17S322.19,72.91,322.44,72.56z
		 M322.4,79.76c0.26-0.35,0.75-0.43,1.1-0.17s0.43,0.75,0.17,1.1c-0.26,0.35-0.75,0.43-1.1,0.17S322.14,80.11,322.4,79.76z
		 M323.4,75.93c-0.35-0.26-0.43-0.75-0.17-1.1s0.75-0.43,1.1-0.17c0.35,0.26,0.43,0.75,0.17,1.1
		C324.25,76.11,323.75,76.18,323.4,75.93z M324.17,70.2c0.26-0.35,0.75-0.43,1.1-0.17s0.43,0.75,0.17,1.1s-0.75,0.43-1.1,0.17
		C323.99,71.05,323.91,70.55,324.17,70.2z M324.12,77.4c0.26-0.35,0.75-0.43,1.1-0.17c0.35,0.26,0.43,0.75,0.17,1.1
		s-0.75,0.43-1.1,0.17S323.87,77.75,324.12,77.4z M325.13,73.57c-0.35-0.26-0.43-0.75-0.17-1.1s0.75-0.43,1.1-0.17
		c0.35,0.26,0.43,0.75,0.17,1.1C325.97,73.75,325.48,73.83,325.13,73.57z M325.89,67.85c0.26-0.35,0.75-0.43,1.1-0.17
		s0.43,0.75,0.17,1.1s-0.75,0.43-1.1,0.17S325.63,68.2,325.89,67.85z M325.85,75.05c0.26-0.35,0.75-0.43,1.1-0.17
		s0.43,0.75,0.17,1.1c-0.26,0.35-0.75,0.43-1.1,0.17C325.67,75.89,325.59,75.4,325.85,75.05z M326.85,71.21
		c-0.35-0.26-0.43-0.75-0.17-1.1s0.75-0.43,1.1-0.17c0.35,0.26,0.43,0.75,0.17,1.1C327.69,71.39,327.2,71.47,326.85,71.21z
		 M327.61,65.49c0.26-0.35,0.75-0.43,1.1-0.17c0.35,0.26,0.43,0.75,0.17,1.1s-0.75,0.43-1.1,0.17S327.36,65.84,327.61,65.49z
		 M327.57,72.69c0.26-0.35,0.75-0.43,1.1-0.17c0.35,0.26,0.43,0.75,0.17,1.1s-0.75,0.43-1.1,0.17S327.31,73.04,327.57,72.69z
		 M328.57,68.86c-0.35-0.26-0.43-0.75-0.17-1.1c0.26-0.35,0.75-0.43,1.1-0.17c0.35,0.26,0.43,0.75,0.17,1.1
		C329.42,69.04,328.92,69.11,328.57,68.86z M329.29,70.33c0.26-0.35,0.75-0.43,1.1-0.17s0.43,0.75,0.17,1.1s-0.75,0.43-1.1,0.17
		C329.11,71.18,329.04,70.68,329.29,70.33z M330.61,64.06c-0.26,0.35-0.75,0.43-1.1,0.17c-0.35-0.26-0.43-0.75-0.17-1.1
		c0.26-0.35,0.75-0.43,1.1-0.17S330.86,63.71,330.61,64.06z M328.45,60.56c0.26-0.35,0.75-0.43,1.1-0.17
		c0.35,0.26,0.43,0.75,0.17,1.1c-0.26,0.35-0.75,0.43-1.1,0.17S328.19,60.91,328.45,60.56z M326.72,62.91
		c0.26-0.35,0.75-0.43,1.1-0.17s0.43,0.75,0.17,1.1c-0.26,0.35-0.75,0.43-1.1,0.17C326.54,63.76,326.47,63.26,326.72,62.91z
		 M325,65.27c0.26-0.35,0.75-0.43,1.1-0.17c0.35,0.26,0.43,0.75,0.17,1.1c-0.26,0.35-0.75,0.43-1.1,0.17
		C324.82,66.11,324.74,65.62,325,65.27z M323.28,67.63c0.26-0.35,0.75-0.43,1.1-0.17c0.35,0.26,0.43,0.75,0.17,1.1
		c-0.26,0.35-0.75,0.43-1.1,0.17S323.02,67.98,323.28,67.63z M321.55,69.98c0.26-0.35,0.75-0.43,1.1-0.17s0.43,0.75,0.17,1.1
		c-0.26,0.35-0.75,0.43-1.1,0.17C321.37,70.83,321.3,70.33,321.55,69.98z M319.83,72.34c0.26-0.35,0.75-0.43,1.1-0.17
		c0.35,0.26,0.43,0.75,0.17,1.1c-0.26,0.35-0.75,0.43-1.1,0.17S319.57,72.69,319.83,72.34z M318.11,74.69
		c0.26-0.35,0.75-0.43,1.1-0.17c0.35,0.26,0.43,0.75,0.17,1.1c-0.26,0.35-0.75,0.43-1.1,0.17
		C317.93,75.54,317.85,75.05,318.11,74.69z M316.38,77.05c0.26-0.35,0.75-0.43,1.1-0.17c0.35,0.26,0.43,0.75,0.17,1.1
		c-0.26,0.35-0.75,0.43-1.1,0.17S316.13,77.4,316.38,77.05z M314.66,79.41c0.26-0.35,0.75-0.43,1.1-0.17s0.43,0.75,0.17,1.1
		s-0.75,0.43-1.1,0.17S314.4,79.76,314.66,79.41z M312.94,81.76c0.26-0.35,0.75-0.43,1.1-0.17s0.43,0.75,0.17,1.1
		s-0.75,0.43-1.1,0.17C312.76,82.61,312.68,82.12,312.94,81.76z M311.21,84.12c0.26-0.35,0.75-0.43,1.1-0.17
		c0.35,0.26,0.43,0.75,0.17,1.1s-0.75,0.43-1.1,0.17C311.03,84.96,310.96,84.47,311.21,84.12z M309.49,86.48
		c0.26-0.35,0.75-0.43,1.1-0.17s0.43,0.75,0.17,1.1s-0.75,0.43-1.1,0.17C309.31,87.32,309.23,86.83,309.49,86.48z M307.77,88.83
		c0.26-0.35,0.75-0.43,1.1-0.17c0.35,0.26,0.43,0.75,0.17,1.1s-0.75,0.43-1.1,0.17C307.59,89.68,307.51,89.19,307.77,88.83z
		 M306.04,91.19c0.26-0.35,0.75-0.43,1.1-0.17s0.43,0.75,0.17,1.1c-0.26,0.35-0.75,0.43-1.1,0.17
		C305.86,92.03,305.79,91.54,306.04,91.19z M306.31,95.95c0.35,0.26,0.43,0.75,0.17,1.1c-0.26,0.35-0.75,0.43-1.1,0.17
		s-0.43-0.75-0.17-1.1S305.96,95.7,306.31,95.95z M304.32,93.55c0.26-0.35,0.75-0.43,1.1-0.17c0.35,0.26,0.43,0.75,0.17,1.1
		s-0.75,0.43-1.1,0.17S304.06,93.9,304.32,93.55z M302.15,99.19c-0.26,0.35-0.75,0.43-1.1,0.17c-0.35-0.26-0.43-0.75-0.17-1.1
		c0.26-0.35,0.75-0.43,1.1-0.17S302.4,98.84,302.15,99.19z M302.6,95.9c0.26-0.35,0.75-0.43,1.1-0.17s0.43,0.75,0.17,1.1
		s-0.75,0.43-1.1,0.17S302.34,96.25,302.6,95.9z M303.49,98.48c0.26-0.35,0.75-0.43,1.1-0.17c0.35,0.26,0.43,0.75,0.17,1.1
		c-0.26,0.35-0.75,0.43-1.1,0.17C303.31,99.32,303.23,98.83,303.49,98.48z M305.55,101.68c-0.26,0.35-0.75,0.43-1.1,0.17
		s-0.43-0.75-0.17-1.1c0.26-0.35,0.75-0.43,1.1-0.17C305.73,100.83,305.8,101.33,305.55,101.68z M306,98.39
		c0.26-0.35,0.75-0.43,1.1-0.17s0.43,0.75,0.17,1.1s-0.75,0.43-1.1,0.17C305.82,99.23,305.74,98.74,306,98.39z M308.16,101.9
		c-0.26,0.35-0.75,0.43-1.1,0.17s-0.43-0.75-0.17-1.1c0.26-0.35,0.75-0.43,1.1-0.17C308.34,101.05,308.42,101.55,308.16,101.9z
		 M308.61,98.61c0.26-0.35,0.75-0.43,1.1-0.17c0.35,0.26,0.43,0.75,0.17,1.1c-0.26,0.35-0.75,0.43-1.1,0.17
		C308.43,99.46,308.36,98.96,308.61,98.61z M317.19,110.19c-0.16,0.22-0.47,0.27-0.69,0.11l-7.1-5.19
		c-0.22-0.16-0.27-0.47-0.11-0.69s0.47-0.27,0.69-0.11l7.1,5.19C317.31,109.66,317.35,109.97,317.19,110.19z M318.45,108.47
		c-0.16,0.22-0.47,0.27-0.69,0.11l-7.1-5.19c-0.22-0.16-0.27-0.47-0.11-0.69c0.16-0.22,0.47-0.27,0.69-0.11l7.1,5.19
		C318.57,107.94,318.61,108.25,318.45,108.47z M319.71,106.75c-0.16,0.22-0.47,0.27-0.69,0.11l-7.1-5.19
		c-0.22-0.16-0.27-0.47-0.11-0.69c0.16-0.22,0.47-0.27,0.69-0.11l7.1,5.19C319.82,106.22,319.87,106.53,319.71,106.75z
		 M320.97,105.03c-0.16,0.22-0.47,0.27-0.69,0.11l-7.1-5.19c-0.22-0.16-0.27-0.47-0.11-0.69c0.16-0.22,0.47-0.27,0.69-0.11l7.1,5.19
		C321.08,104.5,321.13,104.81,320.97,105.03z M322.23,103.31c-0.16,0.22-0.47,0.27-0.69,0.11l-7.1-5.19
		c-0.22-0.16-0.27-0.47-0.11-0.69s0.47-0.27,0.69-0.11l7.1,5.19C322.34,102.78,322.39,103.09,322.23,103.31z M323.49,101.59
		c-0.16,0.22-0.47,0.27-0.69,0.11l-7.1-5.19c-0.22-0.16-0.27-0.47-0.11-0.69s0.47-0.27,0.69-0.11l7.1,5.19
		C323.6,101.06,323.65,101.37,323.49,101.59z M324.75,99.87c-0.16,0.22-0.47,0.27-0.69,0.11l-7.1-5.19
		c-0.22-0.16-0.27-0.47-0.11-0.69c0.16-0.22,0.47-0.27,0.69-0.11l7.1,5.19C324.86,99.33,324.91,99.64,324.75,99.87z M326,98.14
		c-0.16,0.22-0.47,0.27-0.69,0.11l-7.1-5.19c-0.22-0.16-0.27-0.47-0.11-0.69c0.16-0.22,0.47-0.27,0.69-0.11l7.1,5.19
		C326.12,97.61,326.17,97.92,326,98.14z M327.26,96.42c-0.16,0.22-0.47,0.27-0.69,0.11l-7.1-5.19c-0.22-0.16-0.27-0.47-0.11-0.69
		s0.47-0.27,0.69-0.11l7.1,5.19C327.38,95.89,327.42,96.2,327.26,96.42z M328.52,94.7c-0.16,0.22-0.47,0.27-0.69,0.11l-7.1-5.19
		c-0.22-0.16-0.27-0.47-0.11-0.69s0.47-0.27,0.69-0.11l7.1,5.19C328.63,94.17,328.68,94.48,328.52,94.7z M329.78,92.98
		c-0.16,0.22-0.47,0.27-0.69,0.11l-7.1-5.19c-0.22-0.16-0.27-0.47-0.11-0.69c0.16-0.22,0.47-0.27,0.69-0.11l7.1,5.19
		C329.89,92.45,329.94,92.76,329.78,92.98z M331.04,91.26c-0.16,0.22-0.47,0.27-0.69,0.11l-7.1-5.19c-0.22-0.16-0.27-0.47-0.11-0.69
		c0.16-0.22,0.47-0.27,0.69-0.11l7.1,5.19C331.15,90.73,331.2,91.04,331.04,91.26z M332.3,89.54c-0.16,0.22-0.47,0.27-0.69,0.11
		l-7.1-5.19c-0.22-0.16-0.27-0.47-0.11-0.69c0.16-0.22,0.47-0.27,0.69-0.11l7.1,5.19C332.41,89.01,332.46,89.32,332.3,89.54z
		 M333.56,87.82L333.56,87.82c-0.16,0.22-0.47,0.27-0.69,0.11l-7.1-5.19c-0.22-0.16-0.27-0.47-0.11-0.69s0.47-0.27,0.69-0.11
		l7.1,5.19C333.67,87.29,333.72,87.6,333.56,87.82z M334.81,86.09c-0.16,0.22-0.47,0.27-0.69,0.11l-7.1-5.19
		c-0.22-0.16-0.27-0.47-0.11-0.69s0.47-0.27,0.69-0.11l7.1,5.19C334.93,85.56,334.98,85.87,334.81,86.09z M336.07,84.37
		c-0.16,0.22-0.47,0.27-0.69,0.11l-7.1-5.19c-0.22-0.16-0.27-0.47-0.11-0.69c0.16-0.22,0.47-0.27,0.69-0.11l7.1,5.19
		C336.19,83.84,336.24,84.15,336.07,84.37z M337.33,82.65c-0.16,0.22-0.47,0.27-0.69,0.11l-7.1-5.19c-0.22-0.16-0.27-0.47-0.11-0.69
		c0.16-0.22,0.47-0.27,0.69-0.11l7.1,5.19C337.45,82.12,337.49,82.43,337.33,82.65z M338.59,80.93c-0.16,0.22-0.47,0.27-0.69,0.11
		l-7.1-5.19c-0.22-0.16-0.27-0.47-0.11-0.69s0.47-0.27,0.69-0.11l7.1,5.19C338.7,80.4,338.75,80.71,338.59,80.93z M339.85,79.21
		c-0.16,0.22-0.47,0.27-0.69,0.11l-7.1-5.19c-0.22-0.16-0.27-0.47-0.11-0.69s0.47-0.27,0.69-0.11l7.1,5.19
		C339.96,78.68,340.01,78.99,339.85,79.21z M341.11,77.49c-0.16,0.22-0.47,0.27-0.69,0.11l-7.1-5.19c-0.22-0.16-0.27-0.47-0.11-0.69
		c0.16-0.22,0.47-0.27,0.69-0.11l7.1,5.19C341.22,76.96,341.27,77.27,341.11,77.49z M342.37,75.77c-0.16,0.22-0.47,0.27-0.69,0.11
		l-7.1-5.19c-0.22-0.16-0.27-0.47-0.11-0.69c0.16-0.22,0.47-0.27,0.69-0.11l7.1,5.19C342.48,75.24,342.53,75.55,342.37,75.77z
		 M343.63,74.05c-0.16,0.22-0.47,0.27-0.69,0.11l-7.1-5.19c-0.22-0.16-0.27-0.47-0.11-0.69c0.16-0.22,0.47-0.27,0.69-0.11l7.1,5.19
		C343.74,73.52,343.79,73.83,343.63,74.05z M344.88,72.32L344.88,72.32c-0.16,0.22-0.47,0.27-0.69,0.11l-7.1-5.19
		c-0.22-0.16-0.27-0.47-0.11-0.69s0.47-0.27,0.69-0.11l7.1,5.19C345,71.79,345.05,72.1,344.88,72.32z"/>
	<g>
		<g>
			<path class="st7" d="M266.18,57.38l6.51-34.25c0.32-1.68,1.94-2.77,3.61-2.45l30.47,5.8c1.68,0.32,2.77,1.93,2.45,3.61
				l-5.62,29.55c-0.19,1.01-1.04,2.27-1.9,2.82l-2.04,1.3L266.18,57.38z"/>
			<path class="st7" d="M264.1,68.31l2.08-10.93l33.49,6.37L297.71,65l-6.92,4.41l-7.02,4.49c-0.86,0.55-2.38,0.84-3.38,0.65
				l-13.83-2.63C264.89,71.6,263.78,69.98,264.1,68.31z M268.2,66.3l-0.49,2.6c-0.06,0.33,0.16,0.66,0.49,0.72l10.52,2
				c1.01,0.19,2.52-0.09,3.39-0.64l1.68-1.06c0.86-0.55,0.75-1.14-0.25-1.33l-14.61-2.78C268.59,65.75,268.27,65.96,268.2,66.3z"/>
			<polygon class="st8" points="294.72,67.91 291.25,70.06 290.79,69.41 297.71,65 298.27,65.72 			"/>
			<path class="st9" d="M290.54,71.4c-0.22-0.36-0.17-0.8,0.13-0.98l0.58-0.36l3.47-2.15l3.55-2.19l0.5-0.31
				c0.3-0.18,0.72-0.04,0.94,0.32l1.86,3.01c0.23,0.36,0.2,0.78-0.06,0.94s-0.47,0.29-0.47,0.29l-7.29,4.51c0,0-0.21,0.13-0.47,0.29
				c-0.26,0.16-0.65,0-0.87-0.36L290.54,71.4z"/>
		</g>
		<g>
			<g>
				<path class="st10" d="M298.83,66.69c0.08,0.01,0.15,0.06,0.2,0.14l1.41,2.28c0.09,0.14,0.04,0.32-0.1,0.41
					c-0.14,0.09-0.32,0.04-0.41-0.1l-1.41-2.28c-0.09-0.14-0.04-0.32,0.1-0.41C298.68,66.69,298.76,66.67,298.83,66.69z"/>
			</g>
			<g>
				<path class="st10" d="M297.49,67.52c0.08,0.01,0.15,0.06,0.2,0.14l1.41,2.28c0.09,0.14,0.04,0.32-0.1,0.41
					c-0.14,0.09-0.32,0.04-0.41-0.1l-1.41-2.28c-0.09-0.14-0.04-0.32,0.1-0.41C297.34,67.52,297.42,67.5,297.49,67.52z"/>
			</g>
			<g>
				<path class="st10" d="M296.15,68.35c0.08,0.01,0.15,0.06,0.2,0.14l1.41,2.28c0.09,0.14,0.04,0.32-0.1,0.41
					c-0.14,0.09-0.32,0.04-0.41-0.1l-1.41-2.28c-0.09-0.14-0.04-0.32,0.1-0.41C296,68.34,296.08,68.33,296.15,68.35z"/>
			</g>
			<g>
				<path class="st10" d="M294.81,69.18c0.08,0.01,0.15,0.06,0.2,0.14l1.41,2.28c0.09,0.14,0.04,0.32-0.1,0.41
					c-0.14,0.09-0.32,0.04-0.41-0.1l-1.41-2.28c-0.09-0.14-0.04-0.32,0.1-0.41C294.66,69.17,294.74,69.16,294.81,69.18z"/>
			</g>
			<g>
				<path class="st10" d="M293.47,70c0.08,0.01,0.15,0.06,0.2,0.14l1.41,2.28c0.09,0.14,0.04,0.32-0.1,0.41
					c-0.14,0.09-0.32,0.04-0.41-0.1l-1.41-2.28c-0.09-0.14-0.04-0.32,0.1-0.41C293.33,70,293.4,69.99,293.47,70z"/>
			</g>
			<g>
				<path class="st10" d="M292.13,70.83c0.08,0.01,0.15,0.06,0.2,0.14l1.41,2.28c0.09,0.14,0.04,0.32-0.1,0.41
					c-0.14,0.09-0.32,0.04-0.41-0.1l-1.41-2.28c-0.09-0.14-0.04-0.32,0.1-0.41C291.99,70.83,292.06,70.82,292.13,70.83z"/>
			</g>
		</g>
		<g class="st11">
			<path class="st12" d="M297.78,56.95c-0.21,1.09-2.51,2.19-3.45,2.79l-2.2,1.41l-2.12,1.36l-7.48,4.77l-1.37,0.88l2.38,0.45
				c1.01,0.19,1.12,0.78,0.25,1.33l-1.68,1.06c-0.87,0.55-2.38,0.83-3.39,0.64l-2.32-0.44l-1.46,0.93c-0.93,0.6-2.57,0.91-3.65,0.71
				l9.1,1.73c1,0.19,2.51-0.1,3.38-0.65l7.02-4.49l6.92-4.41l1.96-1.25l2.04-1.3c0.86-0.55,1.71-1.81,1.9-2.82l5.62-29.55
				c0.32-1.68-0.78-3.29-2.45-3.61l-3.09-0.59L297.78,56.95z"/>
		</g>
		<g>
			<path class="st7" d="M268.98,65.52l14.61,2.78c0.83,0.16,1.02,0.55,1.06,0.77c0.04,0.22,0.01,0.65-0.71,1.11l-1.68,1.06
				c-0.94,0.59-2.52,0.89-3.6,0.68l-10.52-2c-0.49-0.09-0.82-0.57-0.73-1.07l0.49-2.6C268.01,65.75,268.48,65.43,268.98,65.52z
				 M278.77,71.33c0.94,0.18,2.36-0.09,3.18-0.6l1.68-1.06c0.38-0.24,0.45-0.43,0.44-0.49c-0.01-0.07-0.15-0.21-0.59-0.3
				l-14.61-2.78c-0.17-0.03-0.34,0.08-0.37,0.25l-0.49,2.6c-0.03,0.17,0.08,0.34,0.25,0.37L278.77,71.33z"/>
		</g>
		<g class="st13">
			<path class="st14" d="M303.7,49.65c0.48,0.09,0.8,0.56,0.71,1.04l-1.67,8.77c-0.15,0.77-0.85,1.82-1.51,2.24l-10.92,6.96
				c-0.41,0.26-0.96,0.14-1.23-0.27c-0.26-0.41-0.14-0.96,0.27-1.23l10.92-6.96c0.25-0.16,0.67-0.78,0.72-1.07l1.67-8.77
				C302.76,49.88,303.22,49.56,303.7,49.65z"/>
		</g>
		<g class="st15">
			<path class="st14" d="M304.74,44.22c0.48,0.09,0.8,0.56,0.71,1.04l-0.21,1.1c-0.09,0.48-0.56,0.8-1.04,0.71
				c-0.48-0.09-0.8-0.56-0.71-1.04l0.21-1.1C303.79,44.45,304.26,44.13,304.74,44.22z"/>
		</g>
	</g>
	<g>
		<g>
			<polygon class="st16" points="321.71,179.17 282.6,198.91 253.53,145.58 296.05,124.11 			"/>
			<polygon class="st17" points="290.36,195.03 284.34,197.98 255.27,144.73 264.84,140.39 			"/>
			<polygon class="st18" points="253.77,146.02 256.98,151.91 299.1,130.64 296.27,124.57 			"/>
			
				<rect x="250.87" y="134.34" transform="matrix(0.8927 -0.4507 0.4507 0.8927 -32.4108 139.2691)" class="st16" width="50.72" height="6.7"/>
		</g>
		<path class="st19" d="M253.81,149.49c-4.32-8.35-14.9-29.44,6.89-40.45c24.19-12.21,35.17,10.69,38.69,17.36"/>
		<rect x="255.48" y="108.19" transform="matrix(0.8927 -0.4507 0.4507 0.8927 -21.2551 129.4046)" width="11.22" height="2.28"/>
	</g>
	<g>
		<path class="st20" d="M340.52,170.09c0,0-2.48,1.71-4.12,10.3c-1.64,8.6-4.83-5.12-4.83-5.12l2.32-7.15L340.52,170.09z"/>
		<path class="st21" d="M340.52,170.09c0,0-2.48,1.71-4.12,10.3c-1.64,8.6-4.83-5.12-4.83-5.12l2.32-7.15L340.52,170.09z"/>
		<path class="st20" d="M254.5,170.09c0,0,2.48,1.71,4.12,10.3c1.64,8.6,4.83-5.12,4.83-5.12l-2.32-7.15L254.5,170.09z"/>
		<path class="st21" d="M254.5,170.09c0,0,2.48,1.71,4.12,10.3c1.64,8.6,4.83-5.12,4.83-5.12l-2.32-7.15L254.5,170.09z"/>
		<path class="st20" d="M297.19,166.68l0.42,0l0.42,0v0l38.76,0.2l-5.02,107.44c0,0-0.97,9.22-9.66,9.22c-7.52,0-20.66,0-24.08,0
			c-0.53,0-0.84,0-0.84,0c-3.42,0-16.56,0-24.08,0c-8.69,0-9.66-9.22-9.66-9.22l-5.02-107.44L297.19,166.68L297.19,166.68z"/>
		<path class="st21" d="M297.19,166.68l0.42,0l0.42,0v0l38.76,0.2l-5.02,107.44c0,0-0.97,9.22-9.66,9.22c-7.52,0-20.66,0-24.08,0
			c-0.53,0-0.84,0-0.84,0c-3.42,0-16.56,0-24.08,0c-8.69,0-9.66-9.22-9.66-9.22l-5.02-107.44L297.19,166.68L297.19,166.68z"/>
		<path class="st20" d="M297.19,170.93l0.42,0l0.42,0v0l38.76,0.19l-5.02,103.53c0,0-0.97,8.88-9.66,8.88c-7.52,0-20.66,0-24.08,0
			c-0.53,0-0.84,0-0.84,0c-3.42,0-16.56,0-24.08,0c-8.69,0-9.66-8.88-9.66-8.88l-5.02-103.53L297.19,170.93L297.19,170.93z"/>
		<g>
			<path class="st20" d="M329.64,170.2c0,0-0.22,10.7-3.31,10.7c-3.09,0-3.54-10.52-3.54-10.52L329.64,170.2z"/>
			<path class="st21" d="M329.64,170.2c0,0-0.22,10.7-3.31,10.7c-3.09,0-3.54-10.52-3.54-10.52L329.64,170.2z"/>
			<path class="st20" d="M327.76,170.32c0,0,0.4,10.21-1.66,10.21s-1.7-10.09-1.7-10.09L327.76,170.32z"/>
			<path class="st22" d="M327.76,170.32c0,0,0.4,10.21-1.66,10.21s-1.7-10.09-1.7-10.09L327.76,170.32z"/>
		</g>
		<g>
			<path class="st20" d="M310.48,170.2c0,0-0.22,10.7-3.31,10.7c-3.09,0-3.54-10.52-3.54-10.52L310.48,170.2z"/>
			<path class="st21" d="M310.48,170.2c0,0-0.22,10.7-3.31,10.7c-3.09,0-3.54-10.52-3.54-10.52L310.48,170.2z"/>
			<path class="st20" d="M308.6,170.32c0,0,0.4,10.21-1.66,10.21c-2.06,0-1.7-10.09-1.7-10.09L308.6,170.32z"/>
			<path class="st22" d="M308.6,170.32c0,0,0.4,10.21-1.66,10.21c-2.06,0-1.7-10.09-1.7-10.09L308.6,170.32z"/>
		</g>
		<g>
			<path class="st20" d="M291.32,170.2c0,0-0.22,10.7-3.31,10.7c-3.09,0-3.54-10.52-3.54-10.52L291.32,170.2z"/>
			<path class="st21" d="M291.32,170.2c0,0-0.22,10.7-3.31,10.7c-3.09,0-3.54-10.52-3.54-10.52L291.32,170.2z"/>
			<path class="st20" d="M289.44,170.32c0,0,0.4,10.21-1.66,10.21c-2.06,0-1.7-10.09-1.7-10.09L289.44,170.32z"/>
			<path class="st22" d="M289.44,170.32c0,0,0.4,10.21-1.66,10.21c-2.06,0-1.7-10.09-1.7-10.09L289.44,170.32z"/>
		</g>
		<g>
			<path class="st20" d="M272.17,170.2c0,0-0.22,10.7-3.31,10.7c-3.09,0-3.54-10.52-3.54-10.52L272.17,170.2z"/>
			<path class="st21" d="M272.17,170.2c0,0-0.22,10.7-3.31,10.7c-3.09,0-3.54-10.52-3.54-10.52L272.17,170.2z"/>
			<path class="st23" d="M270.29,170.32c0,0,0.4,10.21-1.66,10.21c-2.06,0-1.7-10.09-1.7-10.09L270.29,170.32z"/>
			<path class="st22" d="M270.29,170.32c0,0,0.4,10.21-1.66,10.21c-2.06,0-1.7-10.09-1.7-10.09L270.29,170.32z"/>
		</g>
		<path class="st20" d="M256.63,162.11c0,0-2.06,0.64-2.06,3.09c0,2.45,0.13,4.89,0.13,4.89h41.53h2.77h41.53
			c0,0,0.13-2.45,0.13-4.89c0-2.45-2.06-3.09-2.06-3.09H256.63z"/>
		<path class="st24" d="M255.27,163.68c0,0.37,18.59,0.68,41.53,0.68s41.53-0.3,41.53-0.68c0-0.37-18.86-0.41-41.79-0.41
			C273.6,163.27,255.27,163.31,255.27,163.68z"/>
		<path class="st25" d="M298.02,283.53c-0.53,0-0.84,0-0.84,0c-3.42,0-16.56,0-24.08,0c-8.69,0-9.66-8.88-9.66-8.88l-1.37-28.3
			c3.47,7.7,12.87,21.73,35.3,21.73c22.54,0,32.12-12.93,35.67-19.94l-1.29,26.51c0,0-0.97,8.88-9.66,8.88
			C314.59,283.53,301.44,283.53,298.02,283.53z"/>
		<g>
			<g>
				<path class="st14" d="M304.56,209.96c0,0-4.75-9.07-5.91-10.97c-1.17-1.9-2.9-5.18-5.23-5.65l8.9-0.22c0,0,2.06-0.62,5.14,4.79
					c2.55,4.49,4.23,7.73,4.23,7.73L304.56,209.96z"/>
				<path class="st14" d="M297.73,199.07c0,0-1.89-4.33-5.13-5.32c0,0-1.6-0.22-3.45,3c-1.98,3.44-2.2,4.1-2.2,4.1l-2.5-1.3
					l3.07,7.86l9.02-0.69l-2.76-1.73L297.73,199.07z"/>
			</g>
			<g>
				<path class="st14" d="M290.97,210.28c0,0-5.31,8.75-6.34,10.72c-1.03,1.98-2.94,5.16-2.14,7.4l-4.78-7.51
					c0,0-1.6-1.44,1.45-6.87c2.53-4.5,4.44-7.61,4.44-7.61L290.97,210.28z"/>
				<path class="st14" d="M285.17,221.76c0,0-2.73,3.85-1.91,7.14c0,0,0.64,1.48,4.35,1.41c3.97-0.08,4.65-0.23,4.65-0.23l0.18,2.81
					l5.15-6.68l-5.25-7.37l-0.05,3.26L285.17,221.76z"/>
			</g>
			<g>
				<path class="st14" d="M298.08,222.08c0,0,10.23,0.17,12.46,0.06c2.23-0.11,5.94-0.06,7.47-1.88l-4.07,7.92
					c0,0-0.44,2.11-6.67,2.21c-5.16,0.09-8.81,0.01-8.81,0.01L298.08,222.08z"/>
				<path class="st14" d="M310.92,221.3c0,0,4.7,0.41,7.12-1.95c0,0,0.96-1.3-0.98-4.47c-2.07-3.38-2.55-3.9-2.55-3.9l2.34-1.58
					l-8.37-1.07l-3.72,8.25l2.84-1.6L310.92,221.3z"/>
			</g>
		</g>
	</g>
</g>
<path class="st24" d="M158.62,163.68c0,0.37,18.59,0.68,41.53,0.68s41.53-0.3,41.53-0.68c0-0.37-18.86-0.41-41.79-0.41
	S158.62,163.31,158.62,163.68z"/>
<g>
	<g>
		<polygon class="st26" points="197.45,188.59 165.91,173.01 186.05,132.75 218.16,148.77 		"/>
		<polygon class="st27" points="195.88,183.32 183.1,177.05 185.52,171.92 198.72,178.68 		"/>
		<polygon class="st27" points="180.67,175.42 183.24,170.56 172.89,165.58 170.68,170.08 		"/>
		<polygon class="st27" points="200.22,175.96 174.03,162.87 175.09,161.08 201.29,174.54 		"/>
		<polygon class="st27" points="202.14,172.68 189.79,166.56 190.43,164.99 203,171.54 		"/>
		<polygon class="st27" points="204.13,169.18 191.79,163.06 192.43,161.49 204.99,168.04 		"/>
		<polygon class="st27" points="197.98,145.33 186.51,139.74 187.12,138.28 198.78,144.27 		"/>
		<polygon class="st27" points="205.63,166.12 193.28,159.99 193.92,158.42 206.48,164.97 		"/>
		<polygon class="st6" points="188.44,165.28 196.98,147.44 185.41,141.1 176.8,159.16 		"/>
		<polygon class="st28" points="206.98,163.12 195.06,156.78 199.9,145.79 211.89,152.63 		"/>
	</g>
	<g>
		<g>
			<polygon class="st29" points="148.75,79.34 176.82,58.12 203.77,94.17 175.06,115.7 			"/>
			<polygon class="st30" points="154.17,80.29 165.49,71.68 169,76.15 157.04,84.92 			"/>
			<polygon class="st30" points="168.05,70.25 171.24,74.71 180.33,67.69 177.3,63.71 			"/>
			<polygon class="st30" points="158.8,87.47 182.24,69.93 183.36,71.68 159.59,89.07 			"/>
			<polygon class="st30" points="160.87,90.66 171.87,82.37 172.99,83.64 161.51,91.94 			"/>
			<polygon class="st30" points="163.1,94.01 174.11,85.72 175.22,86.99 163.74,95.29 			"/>
			<polygon class="st30" points="187.19,99.2 197.32,91.46 198.35,92.65 187.77,100.39 			"/>
			<polygon class="st30" points="165.18,96.72 176.18,88.43 177.3,89.7 165.81,98 			"/>
			<polygon class="st30" points="173.63,81.73 185.75,97.36 196.6,89.86 184.32,74.07 			"/>
			<polygon class="st30" points="167.25,99.27 178.25,91.46 185.91,100.71 174.43,108.37 			"/>
		</g>
		<g>
			<polygon class="st31" points="215.21,27.61 199.24,52.96 229.38,67.06 246.88,42.78 			"/>
			<polygon class="st32" points="184.83,33.11 199.24,52.96 215.21,27.61 201.6,9.13 			"/>
			<polygon class="st33" points="246.88,42.78 235.01,24.6 201.6,9.13 215.21,27.61 			"/>
			<polygon class="st34" points="201.6,9.13 186.2,7.37 199.33,27.04 215.21,27.61 			"/>
			<polygon class="st35" points="235.01,24.6 227.5,37.97 246.88,42.78 			"/>
			<polygon class="st32" points="246.88,42.78 254.11,55.43 219.18,40.07 215.21,27.61 			"/>
		</g>
	</g>
	<g>
		<g>
			<path class="st36" d="M246.53,98.79l-25.88-8.04l-11.57,37.23l25.88,8.04c0.69,0.21,1.42-0.12,1.62-0.75l10.86-34.94
				C247.63,99.7,247.22,99.01,246.53,98.79z"/>
			<polygon class="st37" points="209.09,127.98 207.51,124.98 217.66,92.33 220.65,90.75 			"/>
		</g>
		<g>
			
				<rect x="229.58" y="98.98" transform="matrix(0.2967 -0.955 0.955 0.2967 60.9738 295.1512)" class="st37" width="2.6" height="14.4"/>
			
				<rect x="228.04" y="103.94" transform="matrix(0.2967 -0.955 0.955 0.2967 55.1569 297.177)" class="st37" width="2.6" height="14.39"/>
		</g>
	</g>
	<g>
		<path class="st20" d="M243.86,170.09c0,0-2.48,1.71-4.12,10.3c-1.64,8.6-4.83-5.12-4.83-5.12l2.32-7.15L243.86,170.09z"/>
		<path class="st21" d="M243.86,170.09c0,0-2.48,1.71-4.12,10.3c-1.64,8.6-4.83-5.12-4.83-5.12l2.32-7.15L243.86,170.09z"/>
		<path class="st20" d="M157.84,170.09c0,0,2.48,1.71,4.12,10.3c1.64,8.6,4.83-5.12,4.83-5.12l-2.32-7.15L157.84,170.09z"/>
		<path class="st21" d="M157.84,170.09c0,0,2.48,1.71,4.12,10.3c1.64,8.6,4.83-5.12,4.83-5.12l-2.32-7.15L157.84,170.09z"/>
		<path class="st20" d="M200.53,166.68l0.42,0l0.42,0v0l38.76,0.2l-5.02,107.44c0,0-0.97,9.22-9.66,9.22c-7.52,0-20.66,0-24.08,0
			c-0.53,0-0.84,0-0.84,0c-3.42,0-16.56,0-24.08,0c-8.69,0-9.66-9.22-9.66-9.22l-5.02-107.44L200.53,166.68L200.53,166.68z"/>
		<path class="st21" d="M200.53,166.68l0.42,0l0.42,0v0l38.76,0.2l-5.02,107.44c0,0-0.97,9.22-9.66,9.22c-7.52,0-20.66,0-24.08,0
			c-0.53,0-0.84,0-0.84,0c-3.42,0-16.56,0-24.08,0c-8.69,0-9.66-9.22-9.66-9.22l-5.02-107.44L200.53,166.68L200.53,166.68z"/>
		<path class="st20" d="M200.53,170.93l0.42,0l0.42,0v0l38.76,0.19l-5.02,103.53c0,0-0.97,8.88-9.66,8.88c-7.52,0-20.66,0-24.08,0
			c-0.53,0-0.84,0-0.84,0c-3.42,0-16.56,0-24.08,0c-8.69,0-9.66-8.88-9.66-8.88l-5.02-103.53L200.53,170.93L200.53,170.93z"/>
		<g>
			<path class="st20" d="M232.98,170.2c0,0-0.22,10.7-3.31,10.7c-3.09,0-3.54-10.52-3.54-10.52L232.98,170.2z"/>
			<path class="st21" d="M232.98,170.2c0,0-0.22,10.7-3.31,10.7c-3.09,0-3.54-10.52-3.54-10.52L232.98,170.2z"/>
			<path class="st20" d="M231.1,170.32c0,0,0.4,10.21-1.66,10.21s-1.7-10.09-1.7-10.09L231.1,170.32z"/>
			<path class="st22" d="M231.1,170.32c0,0,0.4,10.21-1.66,10.21s-1.7-10.09-1.7-10.09L231.1,170.32z"/>
		</g>
		<g>
			<path class="st20" d="M213.82,170.2c0,0-0.22,10.7-3.31,10.7c-3.09,0-3.54-10.52-3.54-10.52L213.82,170.2z"/>
			<path class="st21" d="M213.82,170.2c0,0-0.22,10.7-3.31,10.7c-3.09,0-3.54-10.52-3.54-10.52L213.82,170.2z"/>
			<path class="st20" d="M211.94,170.32c0,0,0.4,10.21-1.66,10.21c-2.06,0-1.7-10.09-1.7-10.09L211.94,170.32z"/>
			<path class="st22" d="M211.94,170.32c0,0,0.4,10.21-1.66,10.21c-2.06,0-1.7-10.09-1.7-10.09L211.94,170.32z"/>
		</g>
		<g>
			<path class="st20" d="M194.66,170.2c0,0-0.22,10.7-3.31,10.7c-3.09,0-3.54-10.52-3.54-10.52L194.66,170.2z"/>
			<path class="st21" d="M194.66,170.2c0,0-0.22,10.7-3.31,10.7c-3.09,0-3.54-10.52-3.54-10.52L194.66,170.2z"/>
			<path class="st20" d="M192.78,170.32c0,0,0.4,10.21-1.66,10.21c-2.06,0-1.7-10.09-1.7-10.09L192.78,170.32z"/>
			<path class="st22" d="M192.78,170.32c0,0,0.4,10.21-1.66,10.21c-2.06,0-1.7-10.09-1.7-10.09L192.78,170.32z"/>
		</g>
		<g>
			<path class="st20" d="M175.51,170.2c0,0-0.22,10.7-3.31,10.7c-3.09,0-3.54-10.52-3.54-10.52L175.51,170.2z"/>
			<path class="st21" d="M175.51,170.2c0,0-0.22,10.7-3.31,10.7c-3.09,0-3.54-10.52-3.54-10.52L175.51,170.2z"/>
			<path class="st23" d="M173.63,170.32c0,0,0.4,10.21-1.66,10.21c-2.06,0-1.7-10.09-1.7-10.09L173.63,170.32z"/>
			<path class="st22" d="M173.63,170.32c0,0,0.4,10.21-1.66,10.21c-2.06,0-1.7-10.09-1.7-10.09L173.63,170.32z"/>
		</g>
		<path class="st20" d="M159.97,162.11c0,0-2.06,0.64-2.06,3.09c0,2.45,0.13,4.89,0.13,4.89h41.53h2.77h41.53
			c0,0,0.13-2.45,0.13-4.89c0-2.45-2.06-3.09-2.06-3.09H159.97z"/>
		<path class="st25" d="M201.37,283.53c-0.53,0-0.84,0-0.84,0c-3.42,0-16.56,0-24.08,0c-8.69,0-9.66-8.88-9.66-8.88l-1.37-28.3
			c3.47,7.7,12.87,21.73,35.3,21.73c22.54,0,32.12-12.93,35.67-19.94l-1.29,26.51c0,0-0.97,8.88-9.66,8.88
			C217.93,283.53,204.78,283.53,201.37,283.53z"/>
		<g>
			<g>
				<path class="st14" d="M207.91,209.96c0,0-4.75-9.07-5.91-10.97c-1.17-1.9-2.9-5.18-5.23-5.65l8.9-0.22c0,0,2.06-0.62,5.14,4.79
					c2.55,4.49,4.23,7.73,4.23,7.73L207.91,209.96z"/>
				<path class="st14" d="M201.08,199.07c0,0-1.89-4.33-5.13-5.32c0,0-1.6-0.22-3.45,3c-1.98,3.44-2.2,4.1-2.2,4.1l-2.5-1.3
					l3.07,7.86l9.02-0.69l-2.76-1.73L201.08,199.07z"/>
			</g>
			<g>
				<path class="st14" d="M194.32,210.28c0,0-5.31,8.75-6.34,10.72c-1.03,1.98-2.94,5.16-2.14,7.4l-4.78-7.51
					c0,0-1.6-1.44,1.45-6.87c2.53-4.5,4.44-7.61,4.44-7.61L194.32,210.28z"/>
				<path class="st14" d="M188.51,221.76c0,0-2.73,3.85-1.91,7.14c0,0,0.64,1.48,4.35,1.41c3.97-0.08,4.65-0.23,4.65-0.23l0.18,2.81
					l5.15-6.68l-5.25-7.37l-0.05,3.26L188.51,221.76z"/>
			</g>
			<g>
				<path class="st14" d="M201.43,222.08c0,0,10.23,0.17,12.46,0.06c2.23-0.11,5.94-0.06,7.47-1.88l-4.07,7.92
					c0,0-0.44,2.11-6.67,2.21c-5.16,0.09-8.81,0.01-8.81,0.01L201.43,222.08z"/>
				<path class="st14" d="M214.26,221.3c0,0,4.7,0.41,7.12-1.95c0,0,0.96-1.3-0.98-4.47c-2.07-3.38-2.55-3.9-2.55-3.9l2.34-1.58
					l-8.37-1.07l-3.72,8.25l2.84-1.6L214.26,221.3z"/>
			</g>
		</g>
	</g>
</g>
<g>
	<g>
		<path class="st38" d="M138.69,143.57l-2.19,0.83c-3.01,1.14-6.85-1.56-8.53-6.01l-9.57-25.3c0,0-0.59-9.01,2.42-10.14l2.19-0.83
			c3.01-1.14,8.53,6.01,8.53,6.01l9.57,25.3C142.79,137.87,141.7,142.43,138.69,143.57z"/>
		
			<rect x="118.68" y="98.76" transform="matrix(0.9354 -0.3537 0.3537 0.9354 -27.8139 49.4122)" class="st39" width="5.23" height="4.1"/>
		<path class="st40" d="M122.09,104.31l1.54,7.26l10,26.45c0,0,1.62,3.08,3.4,3.79c1.78,0.71-4.23,3.21-6.82-2.04
			c-2.59-5.25-10.3-27.25-10.3-27.25l0.45-8.01L122.09,104.31z"/>
	</g>
	<g>
		<path class="st41" d="M77.88,172.8l-2.67-1.54c-3.67-2.12-4.99-6.76-2.94-10.3l11.69-20.19c0,0,6.73-4.71,10.4-2.59l2.67,1.54
			c3.67,2.12,2.94,10.3,2.94,10.3l-11.69,20.19C86.22,173.76,81.55,174.93,77.88,172.8z"/>
		
			<rect x="93.06" y="135.83" transform="matrix(0.8655 0.5009 -0.5009 0.8655 81.8989 -29.8348)" class="st6" width="6.89" height="3.54"/>
		<path class="st40" d="M94.41,139.93l-4.46,4.73l-12.21,21.11c0,0-1.01,2.86,0.04,4.76c1.05,1.9-6.45-2.23-4.58-6.95
			c1.87-4.72,12.59-21.75,12.59-21.75l6.88-3.33L94.41,139.93z"/>
	</g>
	<g>
		<path class="st42" d="M134.53,162.9l-1.42,4.31c-1.96,5.93-6.01,9.98-9,8.99l-17.04-5.63c0,0-4.87-3.61-2.91-9.55l3.71-11
			c1.96-5.93,7.75-5.34,7.75-5.34l17.04,5.63C135.65,151.3,136.49,156.96,134.53,162.9z"/>
		
			<rect x="97.45" y="154.03" transform="matrix(0.3136 -0.9496 0.9496 0.3136 -75.6641 206.2051)" class="st28" width="14.68" height="2.82"/>
		<path class="st40" d="M106.09,160.42l4.5,2.61l17.26,5.7c0,0,2.29,0.14,3.7-1.47c1.41-1.6-1.29,7.02-5.1,6.59
			c-3.8-0.43-18.28-5.26-18.28-5.26l-3.16-5L106.09,160.42z"/>
	</g>
	<g>
		<path class="st41" d="M60.71,135.2L59,132.77c-2.35-3.35-1.63-7.94,1.6-10.21l38.06-27.66c0,0,7.8-1.39,10.15,1.95l1.71,2.43
			c2.35,3.35-1.6,10.21-1.6,10.21l-38.06,27.66C67.63,139.43,63.06,138.55,60.71,135.2z"/>
		
			<rect x="107.61" y="95.5" transform="matrix(0.575 0.8182 -0.8182 0.575 126.6755 -49.448)" class="st43" width="6.65" height="3.41"/>
		<path class="st40" d="M108.15,98.4l-5.82,2.34l-38.89,28.25c0,0-2.04,2.09-1.89,4.18c0.15,2.09-4.75-4.57-1.19-7.94
			c3.55-3.38,39.48-28.66,39.48-28.66l7.37-0.13L108.15,98.4z"/>
	</g>
	<g>
		<path class="st44" d="M95.71,63.91l1.6-3.11c2.21-4.27,7.39-6.02,11.52-3.89l23.52,12.14c0,0,5.7,7.37,3.5,11.64l-1.6,3.11
			c-2.21,4.27-11.52,3.89-11.52,3.89L99.21,75.55C95.08,73.42,93.51,68.18,95.71,63.91z"/>
		
			<rect x="132.72" y="81.1" transform="matrix(-0.4587 0.8886 -0.8886 -0.4587 273.1465 -0.1762)" class="st45" width="7.81" height="4.01"/>
		<path class="st40" d="M133.87,80.85l-5.61-4.8l-24.58-12.69c0,0-3.29-0.99-5.39,0.31c-2.09,1.3,2.17-7.43,7.63-5.57
			c5.45,1.87,25.33,13.08,25.33,13.08l4.15,7.61L133.87,80.85z"/>
	</g>
	<g>
		<path class="st41" d="M99.21,41.59l-2.69-3.66c-3.7-5.03-4.65-10.68-2.11-12.55l14.46-10.63c0,0,5.77-1.88,9.47,3.16l6.81,9.39
			c3.7,5.03-0.14,9.42-0.14,9.42l-14.46,10.63C108.01,49.22,102.91,46.63,99.21,41.59z"/>
		
			<rect x="115.18" y="20.27" transform="matrix(0.5921 0.8059 -0.8059 0.5921 67.4453 -89.8922)" class="st28" width="14.68" height="2.82"/>
		<path class="st40" d="M117.71,19.84L112.97,22L98.32,32.76c0,0-1.44,1.79-0.95,3.86c0.49,2.08-4.97-5.12-2.41-7.97
			c2.55-2.85,14.88-11.85,14.88-11.85l5.9,0.32L117.71,19.84z"/>
	</g>
	<g>
		<path class="st41" d="M81.79,89.7l-2.82,1.24c-3.88,1.7-8.72-0.7-10.76-5.35L56.6,59.13c0,0-0.53-9.84,3.35-11.54l2.82-1.24
			c3.88-1.7,10.76,5.35,10.76,5.35l11.61,26.46C87.17,82.8,85.67,88,81.79,89.7z"/>
		
			<rect x="57.16" y="42.97" transform="matrix(0.9157 -0.4018 0.4018 0.9157 -13.0396 28.1518)" class="st46" width="6.89" height="4.38"/>
		<path class="st40" d="M61.53,48.91l1.79,7.78l12.13,27.66c0,0,1.99,3.15,4.25,3.67c2.26,0.52-5.49,4.17-8.67-1.23
			s-12.5-28.5-12.5-28.5l0.77-8.9L61.53,48.91z"/>
	</g>
	<g>
		<path class="st20" d="M147.23,170.09c0,0-2.48,1.71-4.12,10.3c-1.64,8.6-4.83-5.12-4.83-5.12l2.32-7.15L147.23,170.09z"/>
		<path class="st21" d="M147.23,170.09c0,0-2.48,1.71-4.12,10.3c-1.64,8.6-4.83-5.12-4.83-5.12l2.32-7.15L147.23,170.09z"/>
		<path class="st20" d="M61.22,170.09c0,0,2.48,1.71,4.12,10.3c1.64,8.6,4.83-5.12,4.83-5.12l-2.32-7.15L61.22,170.09z"/>
		<path class="st21" d="M61.22,170.09c0,0,2.48,1.71,4.12,10.3c1.64,8.6,4.83-5.12,4.83-5.12l-2.32-7.15L61.22,170.09z"/>
		<path class="st20" d="M103.9,166.68l0.42,0l0.42,0v0l38.76,0.2l-5.02,107.44c0,0-0.97,9.22-9.66,9.22c-7.52,0-20.66,0-24.08,0
			c-0.53,0-0.84,0-0.84,0c-3.42,0-16.56,0-24.08,0c-8.69,0-9.66-9.22-9.66-9.22l-5.02-107.44L103.9,166.68L103.9,166.68z"/>
		<path class="st21" d="M103.9,166.68l0.42,0l0.42,0v0l38.76,0.2l-5.02,107.44c0,0-0.97,9.22-9.66,9.22c-7.52,0-20.66,0-24.08,0
			c-0.53,0-0.84,0-0.84,0c-3.42,0-16.56,0-24.08,0c-8.69,0-9.66-9.22-9.66-9.22l-5.02-107.44L103.9,166.68L103.9,166.68z"/>
		<path class="st20" d="M103.9,170.93l0.42,0l0.42,0v0l38.76,0.19l-5.02,103.53c0,0-0.97,8.88-9.66,8.88c-7.52,0-20.66,0-24.08,0
			c-0.53,0-0.84,0-0.84,0c-3.42,0-16.56,0-24.08,0c-8.69,0-9.66-8.88-9.66-8.88l-5.02-103.53L103.9,170.93L103.9,170.93z"/>
		<g>
			<path class="st20" d="M136.35,170.2c0,0-0.22,10.7-3.31,10.7c-3.09,0-3.54-10.52-3.54-10.52L136.35,170.2z"/>
			<path class="st21" d="M136.35,170.2c0,0-0.22,10.7-3.31,10.7c-3.09,0-3.54-10.52-3.54-10.52L136.35,170.2z"/>
			<path class="st20" d="M134.47,170.32c0,0,0.4,10.21-1.66,10.21c-2.06,0-1.7-10.09-1.7-10.09L134.47,170.32z"/>
			<path class="st22" d="M134.47,170.32c0,0,0.4,10.21-1.66,10.21c-2.06,0-1.7-10.09-1.7-10.09L134.47,170.32z"/>
		</g>
		<g>
			<path class="st20" d="M117.2,170.2c0,0-0.22,10.7-3.31,10.7c-3.09,0-3.54-10.52-3.54-10.52L117.2,170.2z"/>
			<path class="st21" d="M117.2,170.2c0,0-0.22,10.7-3.31,10.7c-3.09,0-3.54-10.52-3.54-10.52L117.2,170.2z"/>
			<path class="st20" d="M115.32,170.32c0,0,0.4,10.21-1.66,10.21c-2.06,0-1.7-10.09-1.7-10.09L115.32,170.32z"/>
			<path class="st22" d="M115.32,170.32c0,0,0.4,10.21-1.66,10.21c-2.06,0-1.7-10.09-1.7-10.09L115.32,170.32z"/>
		</g>
		<g>
			<path class="st20" d="M98.04,170.2c0,0-0.22,10.7-3.31,10.7c-3.09,0-3.54-10.52-3.54-10.52L98.04,170.2z"/>
			<path class="st21" d="M98.04,170.2c0,0-0.22,10.7-3.31,10.7c-3.09,0-3.54-10.52-3.54-10.52L98.04,170.2z"/>
			<path class="st20" d="M96.16,170.32c0,0,0.4,10.21-1.66,10.21c-2.06,0-1.7-10.09-1.7-10.09L96.16,170.32z"/>
			<path class="st22" d="M96.16,170.32c0,0,0.4,10.21-1.66,10.21c-2.06,0-1.7-10.09-1.7-10.09L96.16,170.32z"/>
		</g>
		<g>
			<path class="st20" d="M78.88,170.2c0,0-0.22,10.7-3.31,10.7c-3.09,0-3.54-10.52-3.54-10.52L78.88,170.2z"/>
			<path class="st21" d="M78.88,170.2c0,0-0.22,10.7-3.31,10.7c-3.09,0-3.54-10.52-3.54-10.52L78.88,170.2z"/>
			<path class="st23" d="M77,170.32c0,0,0.4,10.21-1.66,10.21c-2.06,0-1.7-10.09-1.7-10.09L77,170.32z"/>
			<path class="st22" d="M77,170.32c0,0,0.4,10.21-1.66,10.21c-2.06,0-1.7-10.09-1.7-10.09L77,170.32z"/>
		</g>
		<path class="st20" d="M63.34,162.11c0,0-2.06,0.64-2.06,3.09c0,2.45,0.13,4.89,0.13,4.89h41.53h2.77h41.53
			c0,0,0.13-2.45,0.13-4.89c0-2.45-2.06-3.09-2.06-3.09H63.34z"/>
		<path class="st24" d="M61.99,163.68c0,0.37,18.59,0.68,41.53,0.68s41.53-0.3,41.53-0.68c0-0.37-18.86-0.41-41.79-0.41
			S61.99,163.31,61.99,163.68z"/>
		<path class="st25" d="M104.74,283.53c-0.53,0-0.84,0-0.84,0c-3.42,0-16.56,0-24.08,0c-8.69,0-9.66-8.88-9.66-8.88l-1.37-28.3
			c3.47,7.7,12.87,21.73,35.3,21.73c22.54,0,32.12-12.93,35.67-19.94l-1.29,26.51c0,0-0.97,8.88-9.66,8.88
			C121.3,283.53,108.16,283.53,104.74,283.53z"/>
		<g>
			<g>
				<path class="st14" d="M111.28,209.96c0,0-4.75-9.07-5.91-10.97c-1.17-1.9-2.9-5.18-5.23-5.65l8.9-0.22c0,0,2.06-0.62,5.14,4.79
					c2.55,4.49,4.23,7.73,4.23,7.73L111.28,209.96z"/>
				<path class="st14" d="M104.45,199.07c0,0-1.89-4.33-5.13-5.32c0,0-1.6-0.22-3.45,3c-1.98,3.44-2.2,4.1-2.2,4.1l-2.5-1.3
					l3.07,7.86l9.02-0.69l-2.76-1.73L104.45,199.07z"/>
			</g>
			<g>
				<path class="st14" d="M97.69,210.28c0,0-5.31,8.75-6.34,10.72c-1.03,1.98-2.94,5.16-2.14,7.4l-4.78-7.51c0,0-1.6-1.44,1.45-6.87
					c2.53-4.5,4.44-7.61,4.44-7.61L97.69,210.28z"/>
				<path class="st14" d="M91.88,221.76c0,0-2.73,3.85-1.91,7.14c0,0,0.64,1.48,4.35,1.41c3.97-0.08,4.65-0.23,4.65-0.23l0.18,2.81
					l5.15-6.68l-5.25-7.37l-0.05,3.26L91.88,221.76z"/>
			</g>
			<g>
				<path class="st14" d="M104.8,222.08c0,0,10.23,0.17,12.46,0.06c2.23-0.11,5.94-0.06,7.47-1.88l-4.07,7.92
					c0,0-0.44,2.11-6.67,2.21c-5.16,0.09-8.81,0.01-8.81,0.01L104.8,222.08z"/>
				<path class="st14" d="M117.64,221.3c0,0,4.7,0.41,7.12-1.95c0,0,0.96-1.3-0.98-4.47c-2.07-3.38-2.55-3.9-2.55-3.9l2.34-1.58
					l-8.37-1.07l-3.72,8.25l2.84-1.6L117.64,221.3z"/>
			</g>
		</g>
	</g>
</g>
</svg>
