<?xml version="1.0" encoding="utf-8"?>
<!-- Generator: Adobe Illustrator 23.0.2, SVG Export Plug-In . SVG Version: 6.00 Build 0)  -->
<svg version="1.1" id="Layer_1" xmlns="http://www.w3.org/2000/svg" xmlns:xlink="http://www.w3.org/1999/xlink" x="0px" y="0px"
	 viewBox="0 0 416 297.4" style="enable-background:new 0 0 416 297.4;" xml:space="preserve">
<style type="text/css">
	.st0{fill:#DEE3F9;}
	.st1{fill:#F4F2DF;}
	.st2{fill:#CFC344;}
	.st3{fill:#56548C;}
	.st4{fill:#D1D948;}
	.st5{fill:#BEC7EA;}
	.st6{fill:#E34B54;}
	.st7{fill:#C6D1DD;}
	.st8{fill:#A2ACB6;}
	.st9{fill:#F3C627;}
	.st10{fill:#D4930D;}
	.st11{opacity:0.38;}
	.st12{fill:#505659;}
	.st13{opacity:0.51;}
	.st14{fill:#FFFFFF;}
	.st15{opacity:0.5;}
	.st16{fill:#9EA2B2;}
	.st17{opacity:0.12;fill:#E6E6E6;enable-background:new    ;}
	.st18{opacity:8.000000e-02;enable-background:new    ;}
	.st19{fill:none;stroke:#C0C9CC;stroke-miterlimit:10;}
	.st20{fill:#6CD948;}
	.st21{opacity:0.25;enable-background:new    ;}
	.st22{opacity:0.56;enable-background:new    ;}
	.st23{fill:#7BC928;}
	.st24{opacity:0.39;fill:#FFFFFF;enable-background:new    ;}
	.st25{opacity:0.15;enable-background:new    ;}
	.st26{fill:#F2EFF1;}
	.st27{opacity:0.18;enable-background:new    ;}
	.st28{fill:#2EBDAF;}
	.st29{fill:#E0D4B1;}
	.st30{fill:#BEB297;}
	.st31{fill:#DE9C63;}
	.st32{fill:#F6C188;}
	.st33{fill:#D18C46;}
	.st34{fill:#EDAC73;}
	.st35{fill:#A17449;}
	.st36{fill:#59D88D;}
	.st37{fill:#2EC169;}
	.st38{fill:#D2EDEF;}
	.st39{fill:#373737;}
	.st40{opacity:0.56;fill:#F1F3F5;enable-background:new    ;}
	.st41{fill:#C6E7EA;}
	.st42{fill:#B3EAFC;}
	.st43{fill:#F4C746;}
	.st44{fill:#BAE5D2;}
	.st45{fill:#52BDCE;}
	.st46{fill:#2A2AD0;}
</style>
<g>
	<polygon class="st0" points="22,204.5 22,201.7 27.4,201.7 27.4,184.9 40.2,184.9 40.2,152.6 49.7,152.6 49.7,198 56.3,198 
		56.3,173.8 71.2,173.8 71.2,203.6 77,203.6 77,150.7 80.5,150.7 80.5,155.7 86.3,155.7 86.3,169.6 88.1,169.6 88.1,194.5 
		101.9,194.5 101.9,173.8 107.8,173.8 107.8,169.3 121,169.3 121,188.9 129.9,188.9 129.9,184.5 144.9,184.5 144.9,153.9 
		159.2,153.9 159.2,190.1 175.6,190.1 175.6,170.3 177.3,170.3 177.3,146.3 188.4,146.3 188.4,179.4 188.7,179.4 188.7,199.2 
		195.6,199.2 195.6,169.4 209.1,169.4 209.1,173.7 213.3,173.7 213.3,193.6 221,193.6 221,148.1 225.2,148.1 225.2,160.6 
		232.3,160.6 232.3,180.5 243.4,180.5 243.4,215.9 22,215.9 	"/>
	<polygon class="st0" points="187.3,204.5 187.3,201.7 192.7,201.7 192.7,184.9 205.5,184.9 205.5,152.6 215,152.6 215,198 
		221.6,198 221.6,173.8 236.5,173.8 236.5,203.6 242.3,203.6 242.3,150.7 245.8,150.7 245.8,155.7 251.6,155.7 251.6,169.6 
		253.4,169.6 253.4,194.5 267.2,194.5 267.2,173.8 273.1,173.8 273.1,169.3 286.3,169.3 286.3,188.9 295.2,188.9 295.2,184.5 
		310.2,184.5 310.2,153.9 324.5,153.9 324.5,190.1 340.9,190.1 340.9,170.3 342.6,170.3 342.6,146.3 353.7,146.3 353.7,179.4 
		354,179.4 354,199.2 360.9,199.2 360.9,169.4 374.4,169.4 374.4,173.7 378.6,173.7 378.6,193.6 386.3,193.6 386.3,148.1 
		390.5,148.1 390.5,160.6 397.6,160.6 397.6,180.5 408.7,180.5 408.7,215.9 187.3,215.9 	"/>
	<g>
		<path class="st1" d="M411.9,171.1c1.6-2.1,2.6-4.7,2.6-7.6c0-6-4.3-11-10-12.1c0-0.1,0-0.2,0-0.4c0-7.1-5.2-13-12-14.1l0,0l0,0
			c-0.3-0.1-0.6-0.1-0.9-0.1c-0.4,0-0.7-0.1-1.1-0.1c-0.2-0.5-0.4-0.9-0.6-1.4c-0.1-0.1-0.1-0.2-0.2-0.3c-0.2-0.4-0.4-0.8-0.7-1.2
			c0,0,0-0.1,0-0.1c-2.5-3.8-6.6-6.5-11.4-7c-0.1,0-0.1,0-0.2,0c-0.5-0.1-1-0.1-1.5-0.1l0,0l0,0l0,0c-1.6,0-3.2,0.2-4.7,0.7
			c-0.5,0.2-1,0.3-1.4,0.5c-0.9,0.4-1.8,0.9-2.7,1.4c-0.4,0.3-0.8,0.6-1.2,0.9c-0.8,0.6-1.5,1.3-2.1,2.1c-2.2,2.7-3.6,6.2-3.6,10
			c0,0.9,0.1,1.8,0.2,2.6c-0.6-0.1-1.2-0.1-1.8-0.1l0,0l0,0c-3.2,0-6.2,1-8.7,2.6c-0.8,0.6-1.6,1.2-2.3,1.9c-0.3,0.3-0.7,0.7-1,1.1
			c-2.2,2.7-3.5,6.1-3.5,9.8c0,1.9,0.3,3.7,1,5.4c0.6,1.7,1.5,3.2,2.7,4.6c-1,1.4-1.8,2.9-2.3,4.5c-0.5,1.6-0.8,3.4-0.8,5.2
			c0,0.5,0,1,0.1,1.5c0,0.1,0,0.3,0.1,0.4c0,0.4,0.1,0.8,0.2,1.1c0,0.1,0,0.3,0.1,0.4c0.1,0.5,0.2,0.9,0.3,1.4
			c0,0.1,0.1,0.3,0.1,0.4c0.1,0.3,0.2,0.6,0.3,0.9c0.1,0.2,0.1,0.3,0.2,0.5c0.1,0.3,0.3,0.6,0.4,0.9c0.1,0.2,0.2,0.4,0.3,0.6
			c0.1,0.3,0.3,0.5,0.5,0.8h0c3,4.6,8.1,7.7,14,7.7c4.3,0,8.3-1.6,11.2-4.4c2.6,2.4,6,3.9,9.8,3.9c2.6,0,5-0.7,7.2-1.9
			c2.9,2.6,6.8,4.2,11,4.2c9.2,0,16.6-7.4,16.6-16.6C416,177.9,414.4,174.1,411.9,171.1z"/>
		<polygon class="st0" points="396.8,174.2 381,190.5 381,172.5 388.8,163.3 381,169.8 381,158.2 378.1,158.2 378.1,181.7 
			361.6,171 378.1,184.2 378.1,227.6 381,227.6 381,193.6 		"/>
	</g>
	<g>
		<path class="st1" d="M221.9,171.1c-1.6-2.1-2.6-4.7-2.6-7.6c0-6,4.3-11,10-12.1c0-0.1,0-0.2,0-0.4c0-7.1,5.2-13,12-14.1l0,0l0,0
			c0.3-0.1,0.6-0.1,0.9-0.1c0.4,0,0.7-0.1,1.1-0.1c0.2-0.5,0.4-0.9,0.6-1.4c0.1-0.1,0.1-0.2,0.2-0.3c0.2-0.4,0.4-0.8,0.7-1.2
			c0,0,0-0.1,0-0.1c2.5-3.8,6.6-6.5,11.4-7c0.1,0,0.1,0,0.2,0c0.5-0.1,1-0.1,1.5-0.1l0,0l0,0l0,0c1.6,0,3.2,0.2,4.7,0.7
			c0.5,0.2,1,0.3,1.4,0.5c0.9,0.4,1.8,0.9,2.7,1.4c0.4,0.3,0.8,0.6,1.2,0.9c0.8,0.6,1.5,1.3,2.1,2.1c2.2,2.7,3.6,6.2,3.6,10
			c0,0.9-0.1,1.8-0.2,2.6c0.6-0.1,1.2-0.1,1.8-0.1l0,0l0,0c3.2,0,6.2,1,8.7,2.6c0.8,0.6,1.6,1.2,2.3,1.9c0.3,0.3,0.7,0.7,1,1.1
			c2.2,2.7,3.5,6.1,3.5,9.8c0,1.9-0.3,3.7-1,5.4c-0.6,1.7-1.5,3.2-2.7,4.6c1,1.4,1.8,2.9,2.3,4.5c0.5,1.6,0.8,3.4,0.8,5.2
			c0,0.5,0,1-0.1,1.5c0,0.1,0,0.3-0.1,0.4c0,0.4-0.1,0.8-0.2,1.1c0,0.1,0,0.3-0.1,0.4c-0.1,0.5-0.2,0.9-0.3,1.4
			c0,0.1-0.1,0.3-0.1,0.4c-0.1,0.3-0.2,0.6-0.3,0.9c-0.1,0.2-0.1,0.3-0.2,0.5c-0.1,0.3-0.3,0.6-0.4,0.9c-0.1,0.2-0.2,0.4-0.3,0.6
			c-0.1,0.3-0.3,0.5-0.5,0.8h0c-3,4.6-8.1,7.7-14,7.7c-4.3,0-8.3-1.6-11.2-4.4c-2.6,2.4-6,3.9-9.8,3.9c-2.6,0-5-0.7-7.2-1.9
			c-2.9,2.6-6.8,4.2-11,4.2c-9.2,0-16.6-7.4-16.6-16.6C217.8,177.9,219.4,174.1,221.9,171.1z"/>
		<polygon class="st0" points="237,174.2 252.8,190.5 252.8,172.5 245,163.3 252.8,169.8 252.8,158.2 255.7,158.2 255.7,181.7 
			272.2,171 255.7,184.2 255.7,227.6 252.8,227.6 252.8,193.6 		"/>
	</g>
	<g>
		<path class="st2" d="M394.1,132.2c2.8-3.6,4.5-8.2,4.5-13.2c0-10.5-7.5-19.2-17.5-21.1c0-0.2,0-0.4,0-0.6
			c0-12.4-9.1-22.7-20.9-24.6l0,0l0,0c-0.5-0.1-1-0.2-1.6-0.2c-0.6-0.1-1.3-0.1-2-0.1c-0.3-0.8-0.7-1.6-1.1-2.4
			c-0.1-0.2-0.2-0.4-0.3-0.5c-0.4-0.7-0.8-1.4-1.2-2.1c0,0-0.1-0.1-0.1-0.1c-4.4-6.6-11.5-11.2-19.8-12.1c-0.1,0-0.2,0-0.3,0
			c-0.9-0.1-1.8-0.1-2.7-0.1l0,0l0,0l0,0c-2.8,0-5.5,0.4-8.1,1.2c-0.9,0.3-1.7,0.6-2.5,0.9c-1.6,0.7-3.2,1.5-4.6,2.5
			c-0.7,0.5-1.4,1-2.1,1.6c-1.3,1.1-2.6,2.3-3.7,3.7c-3.9,4.7-6.2,10.7-6.2,17.3c0,1.6,0.1,3.1,0.4,4.6c-1-0.1-2.1-0.2-3.1-0.2l0,0
			l0,0c-5.6,0-10.8,1.7-15.1,4.6c-1.4,1-2.8,2.1-4,3.3c-0.6,0.6-1.2,1.2-1.7,1.9c-3.8,4.7-6.2,10.6-6.2,17.1c0,3.3,0.6,6.5,1.7,9.4
			c1.1,2.9,2.7,5.6,4.7,8c-1.7,2.4-3.1,5-4.1,7.9s-1.5,5.9-1.5,9.1c0,0.9,0.1,1.8,0.1,2.6c0,0.3,0.1,0.5,0.1,0.8
			c0.1,0.7,0.2,1.3,0.3,2c0,0.2,0.1,0.5,0.1,0.7c0.2,0.8,0.4,1.6,0.6,2.4c0.1,0.2,0.2,0.5,0.2,0.7c0.2,0.5,0.4,1.1,0.6,1.6
			c0.1,0.3,0.2,0.6,0.4,0.9c0.2,0.5,0.5,1.1,0.8,1.6c0.2,0.3,0.3,0.7,0.5,1c0.3,0.4,0.5,0.9,0.8,1.3c0,0,0,0,0,0
			c5.1,8,14.1,13.3,24.3,13.3c7.5,0,14.4-2.9,19.5-7.6c4.5,4.2,10.5,6.8,17.1,6.8c4.5,0,8.8-1.2,12.4-3.3c5.1,4.5,11.8,7.3,19.2,7.3
			c15.9,0,28.9-12.9,28.9-28.9C401.2,143.9,398.5,137.3,394.1,132.2z"/>
		<polygon class="st3" points="367.8,137.6 340.4,165.9 340.4,134.5 353.8,118.5 340.4,129.9 340.4,109.6 335.2,109.6 335.2,150.5 
			306.6,132 335.2,154.9 335.2,230.4 340.4,230.4 340.4,171.2 		"/>
	</g>
	<g>
		<path class="st4" d="M157.8,146.5c-2.1-2.7-3.3-6-3.3-9.6c0-7.7,5.5-14,12.8-15.4c0-0.2,0-0.3,0-0.5c0-9.1,6.6-16.6,15.3-18l0,0
			l0,0c0.4-0.1,0.8-0.1,1.1-0.2c0.5-0.1,0.9-0.1,1.4-0.1c0.2-0.6,0.5-1.2,0.8-1.7c0.1-0.1,0.1-0.3,0.2-0.4c0.3-0.5,0.6-1,0.9-1.5
			c0,0,0-0.1,0.1-0.1c3.2-4.9,8.4-8.2,14.5-8.9c0.1,0,0.2,0,0.2,0c0.6-0.1,1.3-0.1,1.9-0.1l0,0l0,0l0,0c2.1,0,4.1,0.3,5.9,0.9
			c0.6,0.2,1.2,0.4,1.8,0.7c1.2,0.5,2.3,1.1,3.4,1.8c0.5,0.4,1,0.7,1.5,1.1c1,0.8,1.9,1.7,2.7,2.7c2.8,3.4,4.5,7.9,4.5,12.7
			c0,1.1-0.1,2.3-0.3,3.4c0.8-0.1,1.5-0.1,2.3-0.1l0,0l0,0c4.1,0,7.9,1.2,11,3.4c1,0.7,2,1.5,2.9,2.4c0.4,0.4,0.9,0.9,1.3,1.4
			c2.8,3.4,4.5,7.8,4.5,12.5c0,2.4-0.4,4.7-1.2,6.9c-0.8,2.1-2,4.1-3.4,5.8c1.3,1.7,2.3,3.7,3,5.8c0.7,2.1,1.1,4.3,1.1,6.6
			c0,0.7,0,1.3-0.1,1.9c0,0.2,0,0.4-0.1,0.6c-0.1,0.5-0.1,1-0.2,1.4c0,0.2-0.1,0.3-0.1,0.5c-0.1,0.6-0.3,1.2-0.4,1.7
			c-0.1,0.2-0.1,0.4-0.2,0.5c-0.1,0.4-0.3,0.8-0.4,1.2c-0.1,0.2-0.2,0.4-0.3,0.7c-0.2,0.4-0.4,0.8-0.6,1.1c-0.1,0.2-0.3,0.5-0.4,0.7
			c-0.2,0.3-0.4,0.7-0.6,1c0,0,0,0,0,0c-3.7,5.9-10.3,9.7-17.8,9.7c-5.5,0-10.5-2.1-14.2-5.5c-3.3,3.1-7.7,5-12.5,5
			c-3.3,0-6.4-0.9-9.1-2.4c-3.7,3.3-8.6,5.3-14,5.3c-11.7,0-21.1-9.5-21.1-21.1C152.7,155.1,154.6,150.3,157.8,146.5z"/>
		<polygon class="st3" points="177.1,150.5 197.1,171.1 197.1,148.2 187.3,136.6 197.1,144.8 197.1,130.1 200.9,130.1 200.9,159.9 
			221.8,146.4 200.9,163.1 200.9,218.3 197.1,218.3 197.1,175 		"/>
	</g>
	<path class="st0" d="M259.5,234.9H14.4c-2.7,0-4.9-2.2-4.9-4.9l0,0c0-2.7,2.2-4.9,4.9-4.9h245.1c2.7,0,4.9,2.2,4.9,4.9l0,0
		C264.4,232.7,262.2,234.9,259.5,234.9z"/>
	<path class="st0" d="M282.9,288.2H37.8c-2.7,0-4.9-2.2-4.9-4.9l0,0c0-2.7,2.2-4.9,4.9-4.9h245.1c2.7,0,4.9,2.2,4.9,4.9l0,0
		C287.8,286,285.6,288.2,282.9,288.2z"/>
	<path class="st0" d="M322.2,235.7h72.9c2.9,0,5.3-2.4,5.3-5.3l0,0c0-2.9-2.4-5.3-5.3-5.3h-72.9c-2.9,0-5.3,2.4-5.3,5.3l0,0
		C316.9,233.3,319.3,235.7,322.2,235.7z"/>
	<path class="st0" d="M24.1,280.9h350.5c6,0,11-5,11-11l0,0c0-6-5-11-11-11H24.1c-6,0-11,5-11,11l0,0C13,275.9,18,280.9,24.1,280.9z
		"/>
	<path class="st5" d="M192.8,274.9h126.8c3.1,0,5.6-2.5,5.6-5.6l0,0c0-3.1-2.5-5.6-5.6-5.6H192.8c-3.1,0-5.6,2.5-5.6,5.6l0,0
		C187.2,272.4,189.8,274.9,192.8,274.9z"/>
	<path class="st5" d="M306.2,269.9h53.6c1.7,0,3.2-1.4,3.2-3.2l0,0c0-1.7-1.4-3.2-3.2-3.2h-53.6c-1.7,0-3.2,1.4-3.2,3.2l0,0
		C303,268.4,304.5,269.9,306.2,269.9z"/>
	<g>
		<path class="st2" d="M119.4,107.7c2.8-3.6,4.5-8.2,4.5-13.1c0-10.5-7.5-19.1-17.4-21c0-0.2,0-0.4,0-0.6c0-12.4-9-22.6-20.9-24.5
			l0,0l0,0c-0.5-0.1-1-0.2-1.6-0.2c-0.6-0.1-1.3-0.1-1.9-0.1c-0.3-0.8-0.7-1.6-1.1-2.4c-0.1-0.2-0.2-0.3-0.3-0.5
			c-0.4-0.7-0.8-1.4-1.2-2.1c0,0-0.1-0.1-0.1-0.1C75.2,36.4,68,31.8,59.7,30.9c-0.1,0-0.2,0-0.3,0c-0.9-0.1-1.7-0.1-2.6-0.1l0,0l0,0
			l0,0c-2.8,0-5.5,0.4-8.1,1.2c-0.8,0.3-1.7,0.6-2.5,0.9c-1.6,0.7-3.2,1.5-4.6,2.5c-0.7,0.5-1.4,1-2.1,1.6c-1.3,1.1-2.6,2.3-3.7,3.7
			c-3.9,4.7-6.2,10.7-6.2,17.3c0,1.6,0.1,3.1,0.4,4.6c-1-0.1-2.1-0.2-3.1-0.2l0,0l0,0c-5.6,0-10.7,1.7-15,4.6c-1.4,1-2.8,2.1-4,3.3
			c-0.6,0.6-1.2,1.2-1.7,1.9C2.3,76.7,0,82.6,0,89.1c0,3.3,0.6,6.5,1.7,9.4s2.7,5.6,4.6,7.9c-1.7,2.4-3.1,5-4.1,7.9
			s-1.5,5.9-1.5,9.1c0,0.9,0.1,1.8,0.1,2.6c0,0.3,0.1,0.5,0.1,0.8c0.1,0.7,0.2,1.3,0.3,1.9c0,0.2,0.1,0.4,0.1,0.7
			c0.2,0.8,0.4,1.6,0.6,2.4c0.1,0.2,0.2,0.5,0.2,0.7c0.2,0.5,0.4,1.1,0.6,1.6c0.1,0.3,0.2,0.6,0.4,0.9c0.2,0.5,0.5,1.1,0.8,1.6
			c0.2,0.3,0.3,0.7,0.5,1c0.3,0.4,0.5,0.9,0.8,1.3c0,0,0,0,0,0c5.1,8,14,13.3,24.2,13.3c7.5,0,14.3-2.9,19.4-7.6
			c4.5,4.2,10.5,6.8,17.1,6.8c4.5,0,8.8-1.2,12.4-3.3c5.1,4.5,11.8,7.3,19.1,7.3c15.9,0,28.8-12.9,28.8-28.8
			C126.4,119.3,123.7,112.8,119.4,107.7z"/>
		<polygon class="st3" points="93.1,113.1 65.8,141.3 65.8,110 79.2,94.1 65.8,105.4 65.8,85.2 60.6,85.2 60.6,125.9 32.1,107.5 
			60.6,130.3 60.6,205.6 65.8,205.6 65.8,146.6 		"/>
	</g>
	<path class="st2" d="M25.6,229.5c-6.4-3.9-9.2-10.5-7.8-13.4c1.5-3.2,9-4.9,17-0.7c-0.3-1.2-4.2-19.6,0-21.2
		c3.3-1.3,10.2,8.8,11.8,11.1c-1.5-13.3-1.2-20.3,1-20.9c1.6-0.5,4.2,2.5,7.8,8.8c1.3-4.6,2.6-6.9,3.9-6.9c2.5,0,5,8.8,7.5,26.5
		c1.2-6.4,3.8-17.9,7.2-18c4.2,0,7.6,17.8,8.5,23.2c5.5-5.8,8.9-8.3,10.1-7.5c1.6,1-0.3,7.3-5.5,18.9
		C66.6,229.3,46.1,229.8,25.6,229.5z"/>
	<path class="st2" d="M355,231.5c3.9-2.4,5.6-6.3,4.8-8.1c-0.9-1.9-5.5-3-10.3-0.4c0.2-0.7,2.5-11.9,0-12.9c-2-0.8-6.2,5.3-7.1,6.7
		c0.9-8.1,0.7-12.3-0.6-12.7c-1-0.3-2.6,1.5-4.8,5.3c-0.8-2.8-1.6-4.2-2.4-4.2c-1.5,0-3.1,5.4-4.5,16c-0.7-3.9-2.3-10.9-4.4-10.9
		c-2.6,0-4.6,10.8-5.1,14c-3.3-3.5-5.4-5-6.1-4.5c-1,0.6,0.2,4.4,3.4,11.5C330.1,231.4,342.5,231.6,355,231.5z"/>
	<path class="st2" d="M183.3,232.8c3.9-2.4,5.6-6.3,4.8-8.1c-0.9-1.9-5.5-3-10.3-0.4c0.2-0.7,2.5-11.9,0-12.9
		c-2-0.8-6.2,5.3-7.1,6.7c0.9-8.1,0.7-12.3-0.6-12.7c-1-0.3-2.6,1.5-4.8,5.3c-0.8-2.8-1.6-4.2-2.4-4.2c-1.5,0-3.1,5.4-4.5,16
		c-0.7-3.9-2.3-10.9-4.4-10.9c-2.6,0-4.6,10.8-5.1,14c-3.3-3.5-5.4-5-6.1-4.5c-1,0.6,0.2,4.4,3.4,11.5
		C158.5,232.7,170.9,233,183.3,232.8z"/>
	<path class="st0" d="M295.2,297.4h39.1c2.5,0,4.6-2.1,4.6-4.6l0,0c0-2.5-2.1-4.6-4.6-4.6h-39.1c-2.5,0-4.6,2.1-4.6,4.6l0,0
		C290.6,295.4,292.6,297.4,295.2,297.4z"/>
	<path class="st0" d="M222.7,49.1H115.4c-1.5,0-2.6-1.2-2.6-2.6l0,0c0-1.5,1.2-2.6,2.6-2.6h107.3c1.5,0,2.6,1.2,2.6,2.6l0,0
		C225.3,48,224.1,49.1,222.7,49.1z"/>
	<path class="st0" d="M188.6,47h-63c-2.1,0-3.9-1.7-3.9-3.9l0,0c0-2.1,1.7-3.9,3.9-3.9h63c2.1,0,3.9,1.7,3.9,3.9l0,0
		C192.4,45.3,190.7,47,188.6,47z"/>
	<path class="st0" d="M270.9,84.8h-39.4c-1.3,0-2.4-1.7-2.4-3.9l0,0c0-2.1,1.1-3.9,2.4-3.9h39.4c1.3,0,2.4,1.7,2.4,3.9l0,0
		C273.3,83.1,272.3,84.8,270.9,84.8z"/>
	<path class="st0" d="M156.4,45.7h-17.8c-3.3,0-5.9-2.7-5.9-5.9l0,0c0-3.3,2.7-5.9,5.9-5.9h17.8c3.3,0,5.9,2.7,5.9,5.9l0,0
		C162.4,43,159.7,45.7,156.4,45.7z"/>
	<path class="st0" d="M260.4,82.7h-17.8c-3.3,0-5.9-2.7-5.9-5.9l0,0c0-3.3,2.7-5.9,5.9-5.9h17.8c3.3,0,5.9,2.7,5.9,5.9l0,0
		C266.3,80.1,263.6,82.7,260.4,82.7z"/>
	<path class="st2" d="M215.1,232c-3.9-2.4-5.6-6.3-4.8-8.1c0.9-1.9,5.5-3,10.3-0.4c-0.2-0.7-2.5-11.9,0-12.9c2-0.8,6.2,5.3,7.1,6.7
		c-0.9-8.1-0.7-12.3,0.6-12.7c1-0.3,2.6,1.5,4.8,5.3c0.8-2.8,1.6-4.2,2.4-4.2c1.5,0,3.1,5.4,4.5,16c0.7-3.9,2.3-10.9,4.4-10.9
		c2.6,0,4.6,10.8,5.1,14c3.3-3.5,5.4-5,6.1-4.5c1,0.6-0.2,4.4-3.4,11.5C239.9,231.8,227.5,232.1,215.1,232z"/>
</g>
<g>
	<path class="st6" d="M352.4,62.9c0.6-0.9,1.2-1.7,1.8-2.5c-0.1-0.1-0.1-0.1-0.2-0.2c-0.3,0.3-0.6,0.6-1,1
		c-5.9-4.3-11.8-8.6-17.8-13c0.2-0.4,0.4-0.8,0.6-1.2c-0.1-0.1-0.1-0.1-0.2-0.2c-0.3,0.3-0.7,0.6-1.1,0.9c-1.9-1.4-3.7-2.7-5.7-4.2
		c0.2-0.4,0.4-0.8,0.5-1.3c-0.1,0-0.1-0.1-0.2-0.1c-0.2,0.2-0.4,0.4-0.6,0.6c-1.9,2.5-3.7,5.1-5.6,7.7c-1.1,1.5-1.3,3.1-0.6,4.9
		c0.7,1.7,1.4,3.3,2,5c0.2,0.5,0.1,1.2-0.2,1.6c-2.6,3.6-5.2,7.2-7.8,10.7c-2.6,3.6-5.2,7.1-7.9,10.7c-0.3,0.4-1,0.7-1.5,0.7
		c-1.8-0.1-3.6-0.3-5.4-0.4c-1.8-0.1-3.3,0.5-4.4,2.1c-1.8,2.6-3.7,5.1-5.6,7.6c-0.2,0.2-0.3,0.5-0.4,0.7c0.1,0,0.1,0.1,0.2,0.1
		c0.3-0.3,0.7-0.6,1-0.9c1.9,1.4,3.8,2.8,5.7,4.2c-0.2,0.5-0.4,0.9-0.6,1.3c0.1,0,0.1,0.1,0.2,0.1c0.3-0.3,0.7-0.6,1-1
		c6,4.4,11.9,8.7,17.8,13c-0.2,0.5-0.4,0.9-0.6,1.2c0.1,0.1,0.2,0.1,0.2,0.2c0.6-0.8,1.2-1.6,1.8-2.5c2,1.1,2.1,1.1,3.3-0.5
		c5.3-7.2,10.5-14.4,15.8-21.5c5.3-7.2,10.5-14.4,15.8-21.5C354.1,64.6,354.1,64.4,352.4,62.9z M337.5,60.5
		c-0.3,0.4-0.8,0.4-1.1,0.2c-0.4-0.3-0.4-0.8-0.2-1.1c0.3-0.4,0.8-0.4,1.1-0.2C337.7,59.6,337.7,60.1,337.5,60.5z M335.3,56.9
		c0.3-0.4,0.8-0.4,1.1-0.2c0.4,0.3,0.4,0.8,0.2,1.1c-0.3,0.4-0.8,0.4-1.1,0.2C335.1,57.7,335,57.2,335.3,56.9z M335.7,62.9
		c-0.3,0.4-0.8,0.4-1.1,0.2c-0.4-0.3-0.4-0.8-0.2-1.1c0.3-0.4,0.8-0.4,1.1-0.2C335.9,62,336,62.5,335.7,62.9z M334.8,60.2
		c-0.3,0.4-0.8,0.4-1.1,0.2c-0.4-0.3-0.4-0.8-0.2-1.1s0.8-0.4,1.1-0.2C335,59.4,335.1,59.9,334.8,60.2z M310.6,90.6
		c0.3-0.4,0.8-0.4,1.1-0.2s0.4,0.8,0.2,1.1s-0.8,0.4-1.1,0.2S310.4,91,310.6,90.6z M310,89.4c-0.4-0.3-0.4-0.8-0.2-1.1
		s0.8-0.4,1.1-0.2s0.4,0.8,0.2,1.1S310.3,89.7,310,89.4z M311.7,87c-0.4-0.3-0.4-0.8-0.2-1.1s0.8-0.4,1.1-0.2s0.4,0.8,0.2,1.1
		S312.1,87.3,311.7,87z M312.4,88.2c0.3-0.4,0.8-0.4,1.1-0.2s0.4,0.8,0.2,1.1c-0.3,0.4-0.8,0.4-1.1,0.2
		C312.2,89,312.1,88.5,312.4,88.2z M313.3,83.5c0.3-0.4,0.8-0.4,1.1-0.2s0.4,0.8,0.2,1.1c-0.3,0.4-0.8,0.4-1.1,0.2
		S313.1,83.8,313.3,83.5z M313.3,90.8c0.3-0.4,0.8-0.4,1.1-0.2s0.4,0.8,0.2,1.1c-0.3,0.4-0.8,0.4-1.1,0.2S313,91.2,313.3,90.8z
		 M314.3,86.9c-0.4-0.3-0.4-0.8-0.2-1.1c0.3-0.4,0.8-0.4,1.1-0.2s0.4,0.8,0.2,1.1C315.2,87.1,314.7,87.2,314.3,86.9z M315.1,81.1
		c0.3-0.4,0.8-0.4,1.1-0.2s0.4,0.8,0.2,1.1c-0.3,0.4-0.8,0.4-1.1,0.2C314.9,81.9,314.8,81.4,315.1,81.1z M315,88.4
		c0.3-0.4,0.8-0.4,1.1-0.2s0.4,0.8,0.2,1.1c-0.3,0.4-0.8,0.4-1.1,0.2S314.8,88.8,315,88.4z M316.1,84.5c-0.4-0.3-0.4-0.8-0.2-1.1
		c0.3-0.4,0.8-0.4,1.1-0.2s0.4,0.8,0.2,1.1S316.4,84.8,316.1,84.5z M316.9,78.6c0.3-0.4,0.8-0.4,1.1-0.2s0.4,0.8,0.2,1.1
		s-0.8,0.4-1.1,0.2S316.6,79,316.9,78.6z M316.8,86c0.3-0.4,0.8-0.4,1.1-0.2s0.4,0.8,0.2,1.1c-0.3,0.4-0.8,0.4-1.1,0.2
		C316.6,86.9,316.5,86.4,316.8,86z M317.8,82.1c-0.4-0.3-0.4-0.8-0.2-1.1c0.3-0.4,0.8-0.4,1.1-0.2s0.4,0.8,0.2,1.1
		C318.7,82.3,318.2,82.3,317.8,82.1z M318.6,76.2c0.3-0.4,0.8-0.4,1.1-0.2c0.4,0.3,0.4,0.8,0.2,1.1c-0.3,0.4-0.8,0.4-1.1,0.2
		S318.3,76.6,318.6,76.2z M318.6,83.6c0.3-0.4,0.8-0.4,1.1-0.2s0.4,0.8,0.2,1.1c-0.3,0.4-0.8,0.4-1.1,0.2S318.3,84,318.6,83.6z
		 M319.6,79.7c-0.4-0.3-0.4-0.8-0.2-1.1c0.3-0.4,0.8-0.4,1.1-0.2s0.4,0.8,0.2,1.1S319.9,79.9,319.6,79.7z M320.4,73.8
		c0.3-0.4,0.8-0.4,1.1-0.2s0.4,0.8,0.2,1.1c-0.3,0.4-0.8,0.4-1.1,0.2C320.2,74.7,320.1,74.2,320.4,73.8z M320.3,81.2
		c0.3-0.4,0.8-0.4,1.1-0.2s0.4,0.8,0.2,1.1c-0.3,0.4-0.8,0.4-1.1,0.2C320.1,82,320.1,81.5,320.3,81.2z M321.3,77.3
		c-0.4-0.3-0.4-0.8-0.2-1.1s0.8-0.4,1.1-0.2c0.4,0.3,0.4,0.8,0.2,1.1S321.7,77.5,321.3,77.3z M322.1,71.4c0.3-0.4,0.8-0.4,1.1-0.2
		s0.4,0.8,0.2,1.1s-0.8,0.4-1.1,0.2S321.9,71.8,322.1,71.4z M322.1,78.8c0.3-0.4,0.8-0.4,1.1-0.2s0.4,0.8,0.2,1.1
		c-0.3,0.4-0.8,0.4-1.1,0.2S321.8,79.1,322.1,78.8z M323.1,74.9c-0.4-0.3-0.4-0.8-0.2-1.1s0.8-0.4,1.1-0.2c0.4,0.3,0.4,0.8,0.2,1.1
		S323.5,75.1,323.1,74.9z M323.9,69c0.3-0.4,0.8-0.4,1.1-0.2s0.4,0.8,0.2,1.1s-0.8,0.4-1.1,0.2C323.7,69.9,323.6,69.4,323.9,69z
		 M323.9,76.4c0.3-0.4,0.8-0.4,1.1-0.2c0.4,0.3,0.4,0.8,0.2,1.1c-0.3,0.4-0.8,0.4-1.1,0.2C323.7,77.2,323.6,76.7,323.9,76.4z
		 M324.9,72.4c-0.4-0.3-0.4-0.8-0.2-1.1s0.8-0.4,1.1-0.2s0.4,0.8,0.2,1.1S325.2,72.7,324.9,72.4z M325.6,66.6
		c0.3-0.4,0.8-0.4,1.1-0.2c0.4,0.3,0.4,0.8,0.2,1.1s-0.8,0.4-1.1,0.2C325.5,67.5,325.4,67,325.6,66.6z M325.6,74
		c0.3-0.4,0.8-0.4,1.1-0.2c0.4,0.3,0.4,0.8,0.2,1.1c-0.3,0.4-0.8,0.4-1.1,0.2S325.3,74.3,325.6,74z M326.6,70
		c-0.4-0.3-0.4-0.8-0.2-1.1s0.8-0.4,1.1-0.2s0.4,0.8,0.2,1.1C327.5,70.2,327,70.3,326.6,70z M327.4,64.2c0.3-0.4,0.8-0.4,1.1-0.2
		c0.4,0.3,0.4,0.8,0.2,1.1s-0.8,0.4-1.1,0.2C327.2,65.1,327.2,64.6,327.4,64.2z M327.4,71.6c0.3-0.4,0.8-0.4,1.1-0.2
		s0.4,0.8,0.2,1.1s-0.8,0.4-1.1,0.2S327.1,71.9,327.4,71.6z M328.4,67.6c-0.4-0.3-0.4-0.8-0.2-1.1s0.8-0.4,1.1-0.2s0.4,0.8,0.2,1.1
		C329.3,67.8,328.8,67.9,328.4,67.6z M329.2,61.8c0.3-0.4,0.8-0.4,1.1-0.2c0.4,0.3,0.4,0.8,0.2,1.1s-0.8,0.4-1.1,0.2
		C329,62.7,328.9,62.2,329.2,61.8z M329.1,69.1c0.3-0.4,0.8-0.4,1.1-0.2s0.4,0.8,0.2,1.1c-0.3,0.4-0.8,0.4-1.1,0.2
		S328.9,69.5,329.1,69.1z M330.2,65.2c-0.4-0.3-0.4-0.8-0.2-1.1c0.3-0.4,0.8-0.4,1.1-0.2c0.4,0.3,0.4,0.8,0.2,1.1
		C331,65.4,330.5,65.5,330.2,65.2z M330.9,59.4c0.3-0.4,0.8-0.4,1.1-0.2c0.4,0.3,0.4,0.8,0.2,1.1s-0.8,0.4-1.1,0.2
		C330.7,60.2,330.7,59.7,330.9,59.4z M330.9,66.7c0.3-0.4,0.8-0.4,1.1-0.2c0.4,0.3,0.4,0.8,0.2,1.1c-0.3,0.4-0.8,0.4-1.1,0.2
		C330.7,67.6,330.6,67.1,330.9,66.7z M331.9,62.8c-0.4-0.3-0.4-0.8-0.2-1.1c0.3-0.4,0.8-0.4,1.1-0.2s0.4,0.8,0.2,1.1
		C332.8,63,332.3,63.1,331.9,62.8z M332.6,64.3c0.3-0.4,0.8-0.4,1.1-0.2c0.4,0.3,0.4,0.8,0.2,1.1s-0.8,0.4-1.1,0.2
		C332.5,65.2,332.4,64.7,332.6,64.3z M334,57.9c-0.3,0.4-0.8,0.4-1.1,0.2c-0.4-0.3-0.4-0.8-0.2-1.1c0.3-0.4,0.8-0.4,1.1-0.2
		S334.3,57.6,334,57.9z M331.8,54.3c0.3-0.4,0.8-0.4,1.1-0.2c0.4,0.3,0.4,0.8,0.2,1.1c-0.3,0.4-0.8,0.4-1.1,0.2
		S331.5,54.7,331.8,54.3z M330,56.7c0.3-0.4,0.8-0.4,1.1-0.2s0.4,0.8,0.2,1.1c-0.3,0.4-0.8,0.4-1.1,0.2
		C329.8,57.6,329.8,57.1,330,56.7z M328.3,59.2c0.3-0.4,0.8-0.4,1.1-0.2c0.4,0.3,0.4,0.8,0.2,1.1c-0.3,0.4-0.8,0.4-1.1,0.2
		C328.1,60,328,59.5,328.3,59.2z M326.5,61.6c0.3-0.4,0.8-0.4,1.1-0.2s0.4,0.8,0.2,1.1s-0.8,0.4-1.1,0.2
		C326.3,62.4,326.2,61.9,326.5,61.6z M324.7,64c0.3-0.4,0.8-0.4,1.1-0.2c0.4,0.3,0.4,0.8,0.2,1.1c-0.3,0.4-0.8,0.4-1.1,0.2
		C324.6,64.8,324.5,64.3,324.7,64z M323,66.4c0.3-0.4,0.8-0.4,1.1-0.2c0.4,0.3,0.4,0.8,0.2,1.1c-0.3,0.4-0.8,0.4-1.1,0.2
		C322.8,67.2,322.7,66.7,323,66.4z M321.2,68.8c0.3-0.4,0.8-0.4,1.1-0.2s0.4,0.8,0.2,1.1c-0.3,0.4-0.8,0.4-1.1,0.2
		C321,69.7,321,69.1,321.2,68.8z M319.5,71.2c0.3-0.4,0.8-0.4,1.1-0.2s0.4,0.8,0.2,1.1c-0.3,0.4-0.8,0.4-1.1,0.2
		S319.2,71.6,319.5,71.2z M317.7,73.6c0.3-0.4,0.8-0.4,1.1-0.2s0.4,0.8,0.2,1.1s-0.8,0.4-1.1,0.2S317.4,74,317.7,73.6z M315.9,76
		c0.3-0.4,0.8-0.4,1.1-0.2s0.4,0.8,0.2,1.1s-0.8,0.4-1.1,0.2C315.8,76.9,315.7,76.4,315.9,76z M314.2,78.4c0.3-0.4,0.8-0.4,1.1-0.2
		s0.4,0.8,0.2,1.1s-0.8,0.4-1.1,0.2S313.9,78.8,314.2,78.4z M312.4,80.8c0.3-0.4,0.8-0.4,1.1-0.2s0.4,0.8,0.2,1.1s-0.8,0.4-1.1,0.2
		S312.2,81.2,312.4,80.8z M310.7,83.2c0.3-0.4,0.8-0.4,1.1-0.2s0.4,0.8,0.2,1.1s-0.8,0.4-1.1,0.2C310.5,84.1,310.4,83.6,310.7,83.2z
		 M308.9,85.6c0.3-0.4,0.8-0.4,1.1-0.2s0.4,0.8,0.2,1.1s-0.8,0.4-1.1,0.2C308.7,86.5,308.6,86,308.9,85.6z M309.2,90.5
		c0.4,0.3,0.4,0.8,0.2,1.1c-0.3,0.4-0.8,0.4-1.1,0.2c-0.4-0.3-0.4-0.8-0.2-1.1C308.3,90.3,308.8,90.2,309.2,90.5z M307.1,88.1
		c0.3-0.4,0.8-0.4,1.1-0.2s0.4,0.8,0.2,1.1s-0.8,0.4-1.1,0.2S306.9,88.4,307.1,88.1z M304.9,93.8c-0.3,0.4-0.8,0.4-1.1,0.2
		s-0.4-0.8-0.2-1.1c0.3-0.4,0.8-0.4,1.1-0.2S305.2,93.5,304.9,93.8z M305.4,90.5c0.3-0.4,0.8-0.4,1.1-0.2s0.4,0.8,0.2,1.1
		s-0.8,0.4-1.1,0.2C305.2,91.3,305.1,90.8,305.4,90.5z M306.3,93.1c0.3-0.4,0.8-0.4,1.1-0.2s0.4,0.8,0.2,1.1
		c-0.3,0.4-0.8,0.4-1.1,0.2S306,93.4,306.3,93.1z M308.4,96.4c-0.3,0.4-0.8,0.4-1.1,0.2s-0.4-0.8-0.2-1.1c0.3-0.4,0.8-0.4,1.1-0.2
		C308.6,95.5,308.6,96,308.4,96.4z M308.9,93c0.3-0.4,0.8-0.4,1.1-0.2s0.4,0.8,0.2,1.1s-0.8,0.4-1.1,0.2
		C308.7,93.9,308.6,93.4,308.9,93z M311.1,96.6c-0.3,0.4-0.8,0.4-1.1,0.2s-0.4-0.8-0.2-1.1c0.3-0.4,0.8-0.4,1.1-0.2
		C311.2,95.7,311.3,96.2,311.1,96.6z M311.5,93.2c0.3-0.4,0.8-0.4,1.1-0.2s0.4,0.8,0.2,1.1c-0.3,0.4-0.8,0.4-1.1,0.2
		C311.3,94.1,311.3,93.6,311.5,93.2z M320.3,105.1c-0.2,0.2-0.5,0.3-0.7,0.1l-7.3-5.3c-0.2-0.2-0.3-0.5-0.1-0.7s0.5-0.3,0.7-0.1
		l7.3,5.3C320.4,104.5,320.4,104.8,320.3,105.1z M321.6,103.3c-0.2,0.2-0.5,0.3-0.7,0.1l-7.3-5.3c-0.2-0.2-0.3-0.5-0.1-0.7
		c0.2-0.2,0.5-0.3,0.7-0.1l7.3,5.3C321.7,102.8,321.7,103.1,321.6,103.3z M322.9,101.5c-0.2,0.2-0.5,0.3-0.7,0.1l-7.3-5.3
		c-0.2-0.2-0.3-0.5-0.1-0.7s0.5-0.3,0.7-0.1l7.3,5.3C323,101,323,101.3,322.9,101.5z M324.1,99.8c-0.2,0.2-0.5,0.3-0.7,0.1l-7.3-5.3
		c-0.2-0.2-0.3-0.5-0.1-0.7s0.5-0.3,0.7-0.1l7.3,5.3C324.3,99.2,324.3,99.6,324.1,99.8z M325.4,98c-0.2,0.2-0.5,0.3-0.7,0.1
		l-7.3-5.3c-0.2-0.2-0.3-0.5-0.1-0.7s0.5-0.3,0.7-0.1l7.3,5.3C325.5,97.5,325.6,97.8,325.4,98z M326.7,96.3
		c-0.2,0.2-0.5,0.3-0.7,0.1l-7.3-5.3c-0.2-0.2-0.3-0.5-0.1-0.7c0.2-0.2,0.5-0.3,0.7-0.1l7.3,5.3C326.8,95.7,326.9,96,326.7,96.3z
		 M328,94.5c-0.2,0.2-0.5,0.3-0.7,0.1l-7.3-5.3c-0.2-0.2-0.3-0.5-0.1-0.7c0.2-0.2,0.5-0.3,0.7-0.1l7.3,5.3
		C328.1,94,328.2,94.3,328,94.5z M329.3,92.7c-0.2,0.2-0.5,0.3-0.7,0.1l-7.3-5.3c-0.2-0.2-0.3-0.5-0.1-0.7s0.5-0.3,0.7-0.1l7.3,5.3
		C329.4,92.2,329.5,92.5,329.3,92.7z M330.6,91c-0.2,0.2-0.5,0.3-0.7,0.1l-7.3-5.3c-0.2-0.2-0.3-0.5-0.1-0.7s0.5-0.3,0.7-0.1
		l7.3,5.3C330.7,90.4,330.7,90.8,330.6,91z M331.9,89.2c-0.2,0.2-0.5,0.3-0.7,0.1l-7.3-5.3c-0.2-0.2-0.3-0.5-0.1-0.7
		c0.2-0.2,0.5-0.3,0.7-0.1l7.3,5.3C332,88.7,332,89,331.9,89.2z M333.1,87.5c-0.2,0.2-0.5,0.3-0.7,0.1l-7.3-5.3
		c-0.2-0.2-0.3-0.5-0.1-0.7s0.5-0.3,0.7-0.1l7.3,5.3C333.3,86.9,333.3,87.2,333.1,87.5z M334.4,85.7c-0.2,0.2-0.5,0.3-0.7,0.1
		l-7.3-5.3c-0.2-0.2-0.3-0.5-0.1-0.7c0.2-0.2,0.5-0.3,0.7-0.1l7.3,5.3C334.5,85.2,334.6,85.5,334.4,85.7z M335.7,84
		c-0.2,0.2-0.5,0.3-0.7,0.1l-7.3-5.3c-0.2-0.2-0.3-0.5-0.1-0.7s0.5-0.3,0.7-0.1l7.3,5.3C335.8,83.4,335.9,83.7,335.7,84z M337,82.2
		L337,82.2c-0.2,0.2-0.5,0.3-0.7,0.1l-7.3-5.3c-0.2-0.2-0.3-0.5-0.1-0.7s0.5-0.3,0.7-0.1l7.3,5.3C337.1,81.7,337.2,82,337,82.2z
		 M338.3,80.4c-0.2,0.2-0.5,0.3-0.7,0.1l-7.3-5.3c-0.2-0.2-0.3-0.5-0.1-0.7c0.2-0.2,0.5-0.3,0.7-0.1l7.3,5.3
		C338.4,79.9,338.5,80.2,338.3,80.4z M339.6,78.7c-0.2,0.2-0.5,0.3-0.7,0.1l-7.3-5.3c-0.2-0.2-0.3-0.5-0.1-0.7s0.5-0.3,0.7-0.1
		l7.3,5.3C339.7,78.1,339.7,78.4,339.6,78.7z M340.9,76.9c-0.2,0.2-0.5,0.3-0.7,0.1l-7.3-5.3c-0.2-0.2-0.3-0.5-0.1-0.7
		s0.5-0.3,0.7-0.1l7.3,5.3C341,76.4,341,76.7,340.9,76.9z M342.2,75.2c-0.2,0.2-0.5,0.3-0.7,0.1l-7.3-5.3c-0.2-0.2-0.3-0.5-0.1-0.7
		c0.2-0.2,0.5-0.3,0.7-0.1l7.3,5.3C342.3,74.6,342.3,74.9,342.2,75.2z M343.4,73.4c-0.2,0.2-0.5,0.3-0.7,0.1l-7.3-5.3
		c-0.2-0.2-0.3-0.5-0.1-0.7c0.2-0.2,0.5-0.3,0.7-0.1l7.3,5.3C343.6,72.9,343.6,73.2,343.4,73.4z M344.7,71.6
		c-0.2,0.2-0.5,0.3-0.7,0.1l-7.3-5.3c-0.2-0.2-0.3-0.5-0.1-0.7c0.2-0.2,0.5-0.3,0.7-0.1l7.3,5.3C344.8,71.1,344.9,71.4,344.7,71.6z
		 M346,69.9c-0.2,0.2-0.5,0.3-0.7,0.1l-7.3-5.3c-0.2-0.2-0.3-0.5-0.1-0.7s0.5-0.3,0.7-0.1l7.3,5.3C346.1,69.3,346.2,69.7,346,69.9z
		 M347.3,68.1c-0.2,0.2-0.5,0.3-0.7,0.1l-7.3-5.3c-0.2-0.2-0.3-0.5-0.1-0.7s0.5-0.3,0.7-0.1l7.3,5.3
		C347.4,67.6,347.5,67.9,347.3,68.1z M348.6,66.4L348.6,66.4c-0.2,0.2-0.5,0.3-0.7,0.1l-7.3-5.3c-0.2-0.2-0.3-0.5-0.1-0.7
		c0.2-0.2,0.5-0.3,0.7-0.1l7.3,5.3C348.7,65.8,348.8,66.1,348.6,66.4z"/>
	<g>
		<g>
			<path class="st7" d="M268.2,51.1l6.7-35c0.3-1.7,2-2.8,3.7-2.5l31.1,5.9c1.7,0.3,2.8,2,2.5,3.7l-5.7,30.2c-0.2,1-1.1,2.3-1.9,2.9
				l-2.1,1.3L268.2,51.1z"/>
			<path class="st7" d="M266,62.3l2.1-11.2l34.2,6.5l-2,1.3l-7.1,4.5l-7.2,4.6c-0.9,0.6-2.4,0.9-3.5,0.7L268.6,66
				C266.9,65.6,265.7,64,266,62.3z M270.2,60.2l-0.5,2.7c-0.1,0.3,0.2,0.7,0.5,0.7l10.7,2c1,0.2,2.6-0.1,3.5-0.7l1.7-1.1
				c0.9-0.6,0.8-1.2-0.3-1.4L271,59.7C270.6,59.6,270.3,59.9,270.2,60.2z"/>
			<polygon class="st8" points="297.3,61.9 293.8,64.1 293.3,63.4 300.4,58.9 301,59.6 			"/>
			<path class="st9" d="M293.1,65.4c-0.2-0.4-0.2-0.8,0.1-1l0.6-0.4l3.5-2.2l3.6-2.2l0.5-0.3c0.3-0.2,0.7,0,1,0.3l1.9,3.1
				c0.2,0.4,0.2,0.8-0.1,1c-0.3,0.2-0.5,0.3-0.5,0.3l-7.4,4.6c0,0-0.2,0.1-0.5,0.3c-0.3,0.2-0.7,0-0.9-0.4L293.1,65.4z"/>
		</g>
		<g>
			<g>
				<path class="st10" d="M301.5,60.6c0.1,0,0.2,0.1,0.2,0.1l1.4,2.3c0.1,0.1,0,0.3-0.1,0.4c-0.1,0.1-0.3,0-0.4-0.1l-1.4-2.3
					c-0.1-0.1,0-0.3,0.1-0.4C301.4,60.6,301.5,60.6,301.5,60.6z"/>
			</g>
			<g>
				<path class="st10" d="M300.2,61.5c0.1,0,0.2,0.1,0.2,0.1l1.4,2.3c0.1,0.1,0,0.3-0.1,0.4c-0.1,0.1-0.3,0-0.4-0.1l-1.4-2.3
					c-0.1-0.1,0-0.3,0.1-0.4C300,61.5,300.1,61.4,300.2,61.5z"/>
			</g>
			<g>
				<path class="st10" d="M298.8,62.3c0.1,0,0.2,0.1,0.2,0.1l1.4,2.3c0.1,0.1,0,0.3-0.1,0.4c-0.1,0.1-0.3,0-0.4-0.1l-1.4-2.3
					c-0.1-0.1,0-0.3,0.1-0.4C298.6,62.3,298.7,62.3,298.8,62.3z"/>
			</g>
			<g>
				<path class="st10" d="M297.4,63.2c0.1,0,0.2,0.1,0.2,0.1l1.4,2.3c0.1,0.1,0,0.3-0.1,0.4c-0.1,0.1-0.3,0-0.4-0.1l-1.4-2.3
					c-0.1-0.1,0-0.3,0.1-0.4C297.3,63.1,297.3,63.1,297.4,63.2z"/>
			</g>
			<g>
				<path class="st10" d="M296.1,64c0.1,0,0.2,0.1,0.2,0.1l1.4,2.3c0.1,0.1,0,0.3-0.1,0.4c-0.1,0.1-0.3,0-0.4-0.1l-1.4-2.3
					c-0.1-0.1,0-0.3,0.1-0.4C295.9,64,296,64,296.1,64z"/>
			</g>
			<g>
				<path class="st10" d="M294.7,64.8c0.1,0,0.2,0.1,0.2,0.1l1.4,2.3c0.1,0.1,0,0.3-0.1,0.4c-0.1,0.1-0.3,0-0.4-0.1l-1.4-2.3
					c-0.1-0.1,0-0.3,0.1-0.4C294.5,64.8,294.6,64.8,294.7,64.8z"/>
			</g>
		</g>
		<g class="st11">
			<path class="st12" d="M300.5,50.7c-0.2,1.1-2.6,2.2-3.5,2.9l-2.2,1.4l-2.2,1.4l-7.6,4.9l-1.4,0.9l2.4,0.5c1,0.2,1.1,0.8,0.3,1.4
				l-1.7,1.1c-0.9,0.6-2.4,0.8-3.5,0.7l-2.4-0.4l-1.5,1c-1,0.6-2.6,0.9-3.7,0.7l9.3,1.8c1,0.2,2.6-0.1,3.5-0.7l7.2-4.6l7.1-4.5
				l2-1.3l2.1-1.3c0.9-0.6,1.7-1.8,1.9-2.9l5.7-30.2c0.3-1.7-0.8-3.4-2.5-3.7l-3.2-0.6L300.5,50.7z"/>
		</g>
		<g>
			<path class="st7" d="M271,59.4l14.9,2.8c0.8,0.2,1,0.6,1.1,0.8c0,0.2,0,0.7-0.7,1.1l-1.7,1.1c-1,0.6-2.6,0.9-3.7,0.7l-10.7-2
				c-0.5-0.1-0.8-0.6-0.7-1.1l0.5-2.7C270,59.6,270.5,59.3,271,59.4z M281,65.3c1,0.2,2.4-0.1,3.2-0.6l1.7-1.1
				c0.4-0.2,0.5-0.4,0.4-0.5c0-0.1-0.2-0.2-0.6-0.3L270.9,60c-0.2,0-0.3,0.1-0.4,0.3l-0.5,2.7c0,0.2,0.1,0.3,0.3,0.4L281,65.3z"/>
		</g>
		<g class="st13">
			<path class="st14" d="M306.5,43.2c0.5,0.1,0.8,0.6,0.7,1.1l-1.7,9c-0.2,0.8-0.9,1.9-1.5,2.3l-11.2,7.1c-0.4,0.3-1,0.1-1.3-0.3
				c-0.3-0.4-0.1-1,0.3-1.3L303,54c0.3-0.2,0.7-0.8,0.7-1.1l1.7-9C305.5,43.4,306,43.1,306.5,43.2z"/>
		</g>
		<g class="st15">
			<path class="st14" d="M307.6,37.7c0.5,0.1,0.8,0.6,0.7,1.1l-0.2,1.1c-0.1,0.5-0.6,0.8-1.1,0.7c-0.5-0.1-0.8-0.6-0.7-1.1l0.2-1.1
				C306.6,37.9,307.1,37.6,307.6,37.7z"/>
		</g>
	</g>
	<g>
		<g>
			<polygon class="st16" points="324.9,175.5 284.9,195.7 255.2,141.2 298.7,119.3 			"/>
			<polygon class="st17" points="292.9,191.7 286.7,194.7 257,140.3 266.8,135.9 			"/>
			<polygon class="st18" points="255.5,141.7 258.8,147.7 301.8,125.9 298.9,119.7 			"/>
			
				<rect x="252.5" y="129.7" transform="matrix(0.8927 -0.4507 0.4507 0.8927 -30.1258 139.781)" class="st16" width="51.8" height="6.8"/>
		</g>
		<path class="st19" d="M255.5,145.2c-4.4-8.5-15.2-30.1,7-41.3c24.7-12.5,35.9,10.9,39.5,17.7"/>
		<rect x="257.2" y="103" transform="matrix(0.8927 -0.4507 0.4507 0.8927 -18.728 129.6993)" width="11.5" height="2.3"/>
	</g>
	<g>
		<path class="st20" d="M344.1,166.3c0,0-2.5,1.7-4.2,10.5c-1.7,8.8-4.9-5.2-4.9-5.2l2.4-7.3L344.1,166.3z"/>
		<path class="st21" d="M344.1,166.3c0,0-2.5,1.7-4.2,10.5c-1.7,8.8-4.9-5.2-4.9-5.2l2.4-7.3L344.1,166.3z"/>
		<path class="st20" d="M256.2,166.3c0,0,2.5,1.7,4.2,10.5c1.7,8.8,4.9-5.2,4.9-5.2l-2.4-7.3L256.2,166.3z"/>
		<path class="st21" d="M256.2,166.3c0,0,2.5,1.7,4.2,10.5c1.7,8.8,4.9-5.2,4.9-5.2l-2.4-7.3L256.2,166.3z"/>
		<path class="st20" d="M299.9,162.8h0.4h0.4l0,0l39.6,0.2l-5.1,109.8c0,0-1,9.4-9.9,9.4c-7.7,0-21.1,0-24.6,0c-0.5,0-0.9,0-0.9,0
			c-3.5,0-16.9,0-24.6,0c-8.9,0-9.9-9.4-9.9-9.4L260.3,163L299.9,162.8L299.9,162.8z"/>
		<path class="st21" d="M299.9,162.8h0.4h0.4l0,0l39.6,0.2l-5.1,109.8c0,0-1,9.4-9.9,9.4c-7.7,0-21.1,0-24.6,0c-0.5,0-0.9,0-0.9,0
			c-3.5,0-16.9,0-24.6,0c-8.9,0-9.9-9.4-9.9-9.4L260.3,163L299.9,162.8L299.9,162.8z"/>
		<path class="st20" d="M299.9,167.1h0.4h0.4l0,0l39.6,0.2l-5.1,105.8c0,0-1,9.1-9.9,9.1c-7.7,0-21.1,0-24.6,0c-0.5,0-0.9,0-0.9,0
			c-3.5,0-16.9,0-24.6,0c-8.9,0-9.9-9.1-9.9-9.1l-5.1-105.8L299.9,167.1L299.9,167.1z"/>
		<g>
			<path class="st20" d="M333,166.4c0,0-0.2,10.9-3.4,10.9s-3.6-10.7-3.6-10.7L333,166.4z"/>
			<path class="st21" d="M333,166.4c0,0-0.2,10.9-3.4,10.9s-3.6-10.7-3.6-10.7L333,166.4z"/>
			<path class="st20" d="M331.1,166.5c0,0,0.4,10.4-1.7,10.4c-2.1,0-1.7-10.3-1.7-10.3L331.1,166.5z"/>
			<path class="st22" d="M331.1,166.5c0,0,0.4,10.4-1.7,10.4c-2.1,0-1.7-10.3-1.7-10.3L331.1,166.5z"/>
		</g>
		<g>
			<path class="st20" d="M313.4,166.4c0,0-0.2,10.9-3.4,10.9s-3.6-10.7-3.6-10.7L313.4,166.4z"/>
			<path class="st21" d="M313.4,166.4c0,0-0.2,10.9-3.4,10.9s-3.6-10.7-3.6-10.7L313.4,166.4z"/>
			<path class="st20" d="M311.5,166.5c0,0,0.4,10.4-1.7,10.4c-2.1,0-1.7-10.3-1.7-10.3L311.5,166.5z"/>
			<path class="st22" d="M311.5,166.5c0,0,0.4,10.4-1.7,10.4c-2.1,0-1.7-10.3-1.7-10.3L311.5,166.5z"/>
		</g>
		<g>
			<path class="st20" d="M293.9,166.4c0,0-0.2,10.9-3.4,10.9s-3.6-10.7-3.6-10.7L293.9,166.4z"/>
			<path class="st21" d="M293.9,166.4c0,0-0.2,10.9-3.4,10.9s-3.6-10.7-3.6-10.7L293.9,166.4z"/>
			<path class="st20" d="M291.9,166.5c0,0,0.4,10.4-1.7,10.4c-2.1,0-1.7-10.3-1.7-10.3L291.9,166.5z"/>
			<path class="st22" d="M291.9,166.5c0,0,0.4,10.4-1.7,10.4c-2.1,0-1.7-10.3-1.7-10.3L291.9,166.5z"/>
		</g>
		<g>
			<path class="st20" d="M274.3,166.4c0,0-0.2,10.9-3.4,10.9s-3.6-10.7-3.6-10.7L274.3,166.4z"/>
			<path class="st21" d="M274.3,166.4c0,0-0.2,10.9-3.4,10.9s-3.6-10.7-3.6-10.7L274.3,166.4z"/>
			<path class="st23" d="M272.4,166.5c0,0,0.4,10.4-1.7,10.4c-2.1,0-1.7-10.3-1.7-10.3L272.4,166.5z"/>
			<path class="st22" d="M272.4,166.5c0,0,0.4,10.4-1.7,10.4c-2.1,0-1.7-10.3-1.7-10.3L272.4,166.5z"/>
		</g>
		<path class="st20" d="M258.4,158.1c0,0-2.1,0.7-2.1,3.2s0.1,5,0.1,5h42.4h2.8h42.4c0,0,0.1-2.5,0.1-5c0-2.5-2.1-3.2-2.1-3.2H258.4
			z"/>
		<path class="st24" d="M257,159.7c0,0.4,19,0.7,42.4,0.7s42.4-0.3,42.4-0.7c0-0.4-19.3-0.4-42.7-0.4
			C275.7,159.3,257,159.3,257,159.7z"/>
		<path class="st25" d="M300.7,282.2c-0.5,0-0.9,0-0.9,0c-3.5,0-16.9,0-24.6,0c-8.9,0-9.9-9.1-9.9-9.1l-1.4-28.9
			c3.5,7.9,13.1,22.2,36.1,22.2c23,0,32.8-13.2,36.4-20.4l-1.3,27.1c0,0-1,9.1-9.9,9.1C317.6,282.2,304.2,282.2,300.7,282.2z"/>
		<g>
			<g>
				<path class="st14" d="M307.4,207c0,0-4.9-9.3-6-11.2c-1.2-1.9-3-5.3-5.3-5.8l9.1-0.2c0,0,2.1-0.6,5.3,4.9
					c2.6,4.6,4.3,7.9,4.3,7.9L307.4,207z"/>
				<path class="st14" d="M300.4,195.9c0,0-1.9-4.4-5.2-5.4c0,0-1.6-0.2-3.5,3.1c-2,3.5-2.2,4.2-2.2,4.2l-2.6-1.3l3.1,8l9.2-0.7
					l-2.8-1.8L300.4,195.9z"/>
			</g>
			<g>
				<path class="st14" d="M293.5,207.3c0,0-5.4,8.9-6.5,11c-1.1,2-3,5.3-2.2,7.6l-4.9-7.7c0,0-1.6-1.5,1.5-7
					c2.6-4.6,4.5-7.8,4.5-7.8L293.5,207.3z"/>
				<path class="st14" d="M287.6,219c0,0-2.8,3.9-2,7.3c0,0,0.7,1.5,4.4,1.4c4.1-0.1,4.8-0.2,4.8-0.2l0.2,2.9l5.3-6.8l-5.4-7.5
					l-0.1,3.3L287.6,219z"/>
			</g>
			<g>
				<path class="st14" d="M300.8,219.4c0,0,10.5,0.2,12.7,0.1c2.3-0.1,6.1-0.1,7.6-1.9l-4.2,8.1c0,0-0.4,2.2-6.8,2.3
					c-5.3,0.1-9,0-9,0L300.8,219.4z"/>
				<path class="st14" d="M313.9,218.6c0,0,4.8,0.4,7.3-2c0,0,1-1.3-1-4.6c-2.1-3.5-2.6-4-2.6-4l2.4-1.6l-8.6-1.1l-3.8,8.4l2.9-1.6
					L313.9,218.6z"/>
			</g>
		</g>
	</g>
</g>
<path class="st24" d="M158.3,159.7c0,0.4,19,0.7,42.4,0.7s42.4-0.3,42.4-0.7c0-0.4-19.3-0.4-42.7-0.4S158.3,159.3,158.3,159.7z"/>
<g>
	<g>
		<polygon class="st26" points="197.9,185.2 165.7,169.2 186.3,128.1 219.1,144.5 		"/>
		<polygon class="st27" points="196.3,179.8 183.3,173.4 185.8,168.1 199.2,175 		"/>
		<polygon class="st27" points="180.8,171.7 183.4,166.7 172.9,161.6 170.6,166.2 		"/>
		<polygon class="st27" points="200.8,172.3 174,158.9 175.1,157 201.9,170.8 		"/>
		<polygon class="st27" points="202.7,168.9 190.1,162.6 190.8,161 203.6,167.7 		"/>
		<polygon class="st27" points="204.8,165.3 192.2,159.1 192.8,157.5 205.7,164.2 		"/>
		<polygon class="st27" points="198.5,141 186.8,135.2 187.4,133.8 199.3,139.9 		"/>
		<polygon class="st27" points="206.3,162.2 193.7,155.9 194.3,154.3 207.2,161 		"/>
		<polygon class="st6" points="188.7,161.3 197.5,143.1 185.6,136.6 176.8,155.1 		"/>
		<polygon class="st28" points="207.7,159.1 195.5,152.7 200.4,141.4 212.7,148.4 		"/>
	</g>
	<g>
		<g>
			<polygon class="st29" points="148.2,73.5 176.9,51.9 204.4,88.7 175.1,110.7 			"/>
			<polygon class="st30" points="153.7,74.5 165.3,65.7 168.9,70.3 156.7,79.2 			"/>
			<polygon class="st30" points="167.9,64.2 171.2,68.8 180.5,61.6 177.4,57.6 			"/>
			<polygon class="st30" points="158.5,81.8 182.4,63.9 183.6,65.7 159.3,83.5 			"/>
			<polygon class="st30" points="160.6,85.1 171.8,76.6 173,77.9 161.2,86.4 			"/>
			<polygon class="st30" points="162.9,88.5 174.1,80.1 175.2,81.3 163.5,89.8 			"/>
			<polygon class="st30" points="187.5,93.8 197.8,85.9 198.9,87.1 188.1,95 			"/>
			<polygon class="st30" points="165,91.3 176.2,82.8 177.4,84.1 165.6,92.6 			"/>
			<polygon class="st30" points="173.6,76 186,91.9 197.1,84.3 184.5,68.1 			"/>
			<polygon class="st30" points="167.1,93.9 178.3,85.9 186.2,95.4 174.4,103.2 			"/>
		</g>
		<g>
			<polygon class="st31" points="216.1,20.7 199.8,46.6 230.6,61 248.4,36.2 			"/>
			<polygon class="st32" points="185.1,26.3 199.8,46.6 216.1,20.7 202.2,1.8 			"/>
			<polygon class="st33" points="248.4,36.2 236.3,17.6 202.2,1.8 216.1,20.7 			"/>
			<polygon class="st34" points="202.2,1.8 186.5,0 199.9,20.1 216.1,20.7 			"/>
			<polygon class="st35" points="236.3,17.6 228.6,31.3 248.4,36.2 			"/>
			<polygon class="st32" points="248.4,36.2 255.8,49.1 220.1,33.4 216.1,20.7 			"/>
		</g>
	</g>
	<g>
		<g>
			<path class="st36" d="M248.1,93.4l-26.4-8.2l-11.8,38l26.4,8.2c0.7,0.2,1.5-0.1,1.7-0.8L249,95C249.2,94.3,248.8,93.6,248.1,93.4
				z"/>
			<polygon class="st37" points="209.8,123.2 208.2,120.2 218.6,86.8 221.6,85.2 			"/>
		</g>
		<g>
			
				<rect x="230.8" y="93.6" transform="matrix(0.2967 -0.955 0.955 0.2967 66.8434 292.6407)" class="st37" width="2.7" height="14.7"/>
			
				<rect x="229.2" y="98.7" transform="matrix(0.2967 -0.955 0.955 0.2967 60.8895 294.7052)" class="st37" width="2.7" height="14.7"/>
		</g>
	</g>
	<g>
		<path class="st20" d="M245.4,166.3c0,0-2.5,1.7-4.2,10.5c-1.7,8.8-4.9-5.2-4.9-5.2l2.4-7.3L245.4,166.3z"/>
		<path class="st21" d="M245.4,166.3c0,0-2.5,1.7-4.2,10.5c-1.7,8.8-4.9-5.2-4.9-5.2l2.4-7.3L245.4,166.3z"/>
		<path class="st20" d="M157.5,166.3c0,0,2.5,1.7,4.2,10.5c1.7,8.8,4.9-5.2,4.9-5.2l-2.4-7.3L157.5,166.3z"/>
		<path class="st21" d="M157.5,166.3c0,0,2.5,1.7,4.2,10.5c1.7,8.8,4.9-5.2,4.9-5.2l-2.4-7.3L157.5,166.3z"/>
		<path class="st20" d="M201.1,162.8h0.4h0.4l0,0l39.6,0.2l-5.1,109.8c0,0-1,9.4-9.9,9.4c-7.7,0-21.1,0-24.6,0c-0.5,0-0.9,0-0.9,0
			c-3.5,0-16.9,0-24.6,0c-8.9,0-9.9-9.4-9.9-9.4L161.5,163L201.1,162.8L201.1,162.8z"/>
		<path class="st21" d="M201.1,162.8h0.4h0.4l0,0l39.6,0.2l-5.1,109.8c0,0-1,9.4-9.9,9.4c-7.7,0-21.1,0-24.6,0c-0.5,0-0.9,0-0.9,0
			c-3.5,0-16.9,0-24.6,0c-8.9,0-9.9-9.4-9.9-9.4L161.5,163L201.1,162.8L201.1,162.8z"/>
		<path class="st20" d="M201.1,167.1h0.4h0.4l0,0l39.6,0.2l-5.1,105.8c0,0-1,9.1-9.9,9.1c-7.7,0-21.1,0-24.6,0c-0.5,0-0.9,0-0.9,0
			c-3.5,0-16.9,0-24.6,0c-8.9,0-9.9-9.1-9.9-9.1l-5.1-105.8L201.1,167.1L201.1,167.1z"/>
		<g>
			<path class="st20" d="M234.2,166.4c0,0-0.2,10.9-3.4,10.9c-3.2,0-3.6-10.7-3.6-10.7L234.2,166.4z"/>
			<path class="st21" d="M234.2,166.4c0,0-0.2,10.9-3.4,10.9c-3.2,0-3.6-10.7-3.6-10.7L234.2,166.4z"/>
			<path class="st20" d="M232.3,166.5c0,0,0.4,10.4-1.7,10.4s-1.7-10.3-1.7-10.3L232.3,166.5z"/>
			<path class="st22" d="M232.3,166.5c0,0,0.4,10.4-1.7,10.4s-1.7-10.3-1.7-10.3L232.3,166.5z"/>
		</g>
		<g>
			<path class="st20" d="M214.7,166.4c0,0-0.2,10.9-3.4,10.9c-3.2,0-3.6-10.7-3.6-10.7L214.7,166.4z"/>
			<path class="st21" d="M214.7,166.4c0,0-0.2,10.9-3.4,10.9c-3.2,0-3.6-10.7-3.6-10.7L214.7,166.4z"/>
			<path class="st20" d="M212.8,166.5c0,0,0.4,10.4-1.7,10.4s-1.7-10.3-1.7-10.3L212.8,166.5z"/>
			<path class="st22" d="M212.8,166.5c0,0,0.4,10.4-1.7,10.4s-1.7-10.3-1.7-10.3L212.8,166.5z"/>
		</g>
		<g>
			<path class="st20" d="M195.1,166.4c0,0-0.2,10.9-3.4,10.9c-3.2,0-3.6-10.7-3.6-10.7L195.1,166.4z"/>
			<path class="st21" d="M195.1,166.4c0,0-0.2,10.9-3.4,10.9c-3.2,0-3.6-10.7-3.6-10.7L195.1,166.4z"/>
			<path class="st20" d="M193.2,166.5c0,0,0.4,10.4-1.7,10.4s-1.7-10.3-1.7-10.3L193.2,166.5z"/>
			<path class="st22" d="M193.2,166.5c0,0,0.4,10.4-1.7,10.4s-1.7-10.3-1.7-10.3L193.2,166.5z"/>
		</g>
		<g>
			<path class="st20" d="M175.5,166.4c0,0-0.2,10.9-3.4,10.9s-3.6-10.7-3.6-10.7L175.5,166.4z"/>
			<path class="st21" d="M175.5,166.4c0,0-0.2,10.9-3.4,10.9s-3.6-10.7-3.6-10.7L175.5,166.4z"/>
			<path class="st23" d="M173.6,166.5c0,0,0.4,10.4-1.7,10.4s-1.7-10.3-1.7-10.3L173.6,166.5z"/>
			<path class="st22" d="M173.6,166.5c0,0,0.4,10.4-1.7,10.4s-1.7-10.3-1.7-10.3L173.6,166.5z"/>
		</g>
		<path class="st20" d="M159.7,158.1c0,0-2.1,0.7-2.1,3.2s0.1,5,0.1,5h42.4h2.8h42.4c0,0,0.1-2.5,0.1-5c0-2.5-2.1-3.2-2.1-3.2H159.7
			z"/>
		<path class="st25" d="M202,282.2c-0.5,0-0.9,0-0.9,0c-3.5,0-16.9,0-24.6,0c-8.9,0-9.9-9.1-9.9-9.1l-1.4-28.9
			c3.5,7.9,13.1,22.2,36.1,22.2c23,0,32.8-13.2,36.4-20.4l-1.3,27.1c0,0-1,9.1-9.9,9.1C218.9,282.2,205.4,282.2,202,282.2z"/>
		<g>
			<g>
				<path class="st14" d="M208.6,207c0,0-4.9-9.3-6-11.2c-1.2-1.9-3-5.3-5.3-5.8l9.1-0.2c0,0,2.1-0.6,5.3,4.9
					c2.6,4.6,4.3,7.9,4.3,7.9L208.6,207z"/>
				<path class="st14" d="M201.7,195.9c0,0-1.9-4.4-5.2-5.4c0,0-1.6-0.2-3.5,3.1c-2,3.5-2.2,4.2-2.2,4.2l-2.6-1.3l3.1,8l9.2-0.7
					l-2.8-1.8L201.7,195.9z"/>
			</g>
			<g>
				<path class="st14" d="M194.7,207.3c0,0-5.4,8.9-6.5,11c-1.1,2-3,5.3-2.2,7.6l-4.9-7.7c0,0-1.6-1.5,1.5-7
					c2.6-4.6,4.5-7.8,4.5-7.8L194.7,207.3z"/>
				<path class="st14" d="M188.8,219c0,0-2.8,3.9-2,7.3c0,0,0.7,1.5,4.4,1.4c4.1-0.1,4.8-0.2,4.8-0.2l0.2,2.9l5.3-6.8l-5.4-7.5
					l-0.1,3.3L188.8,219z"/>
			</g>
			<g>
				<path class="st14" d="M202,219.4c0,0,10.5,0.2,12.7,0.1c2.3-0.1,6.1-0.1,7.6-1.9l-4.2,8.1c0,0-0.4,2.2-6.8,2.3c-5.3,0.1-9,0-9,0
					L202,219.4z"/>
				<path class="st14" d="M215.1,218.6c0,0,4.8,0.4,7.3-2c0,0,1-1.3-1-4.6c-2.1-3.5-2.6-4-2.6-4l2.4-1.6l-8.6-1.1l-3.8,8.4l2.9-1.6
					L215.1,218.6z"/>
			</g>
		</g>
	</g>
</g>
<g>
	<g>
		<path class="st38" d="M137.9,139.2l-2.2,0.8c-3.1,1.2-7-1.6-8.7-6.1l-9.8-25.8c0,0-0.6-9.2,2.5-10.4l2.2-0.8
			c3.1-1.2,8.7,6.1,8.7,6.1l9.8,25.8C142.1,133.3,141,138,137.9,139.2z"/>
		
			<rect x="117.5" y="93.4" transform="matrix(0.9354 -0.3537 0.3537 0.9354 -25.9995 48.6642)" class="st39" width="5.3" height="4.2"/>
		<path class="st40" d="M121,99l1.6,7.4l10.2,27c0,0,1.7,3.1,3.5,3.9c1.8,0.7-4.3,3.3-7-2.1c-2.6-5.4-10.5-27.8-10.5-27.8l0.5-8.2
			L121,99z"/>
	</g>
	<g>
		<path class="st41" d="M75.8,169l-2.7-1.6c-3.7-2.2-5.1-6.9-3-10.5L82,136.3c0,0,6.9-4.8,10.6-2.6l2.7,1.6c3.7,2.2,3,10.5,3,10.5
			l-11.9,20.6C84.3,170,79.5,171.2,75.8,169z"/>
		<rect x="93" y="129.5" transform="matrix(0.5009 -0.8655 0.8655 0.5009 -67.8425 148.4612)" class="st6" width="3.6" height="7"/>
		<path class="st40" d="M92.7,135.4l-4.6,4.8l-12.5,21.6c0,0-1,2.9,0,4.9c1.1,1.9-6.6-2.3-4.7-7.1s12.9-22.2,12.9-22.2l7-3.4
			L92.7,135.4z"/>
	</g>
	<g>
		<path class="st42" d="M133.7,158.9l-1.5,4.4c-2,6.1-6.1,10.2-9.2,9.2l-17.4-5.8c0,0-5-3.7-3-9.8l3.8-11.2c2-6.1,7.9-5.5,7.9-5.5
			l17.4,5.8C134.8,147.1,135.7,152.8,133.7,158.9z"/>
		
			<rect x="95.8" y="149.8" transform="matrix(0.3136 -0.9496 0.9496 0.3136 -72.7576 201.9244)" class="st28" width="15" height="2.9"/>
		<path class="st40" d="M104.6,156.4l4.6,2.7l17.6,5.8c0,0,2.3,0.1,3.8-1.5c1.4-1.6-1.3,7.2-5.2,6.7c-3.9-0.4-18.7-5.4-18.7-5.4
			l-3.2-5.1L104.6,156.4z"/>
	</g>
	<g>
		<path class="st41" d="M58.2,130.6l-1.7-2.5c-2.4-3.4-1.7-8.1,1.6-10.4L97,89.4c0,0,8-1.4,10.4,2l1.7,2.5
			c2.4,3.4-1.6,10.4-1.6,10.4l-38.9,28.3C65.3,134.9,60.6,134,58.2,130.6z"/>
		
			<rect x="107.8" y="88.4" transform="matrix(0.8182 -0.575 0.575 0.8182 -32.8594 79.6783)" class="st43" width="3.5" height="6.8"/>
		<path class="st40" d="M106.7,93l-5.9,2.4L61,124.3c0,0-2.1,2.1-1.9,4.3s-4.9-4.7-1.2-8.1c3.6-3.5,40.3-29.3,40.3-29.3l7.5-0.1
			L106.7,93z"/>
	</g>
	<g>
		<path class="st44" d="M94,57.8l1.6-3.2c2.3-4.4,7.6-6.2,11.8-4l24,12.4c0,0,5.8,7.5,3.6,11.9l-1.6,3.2c-2.3,4.4-11.8,4-11.8,4
			l-24-12.4C93.4,67.5,91.7,62.1,94,57.8z"/>
		<rect x="131.8" y="75.3" transform="matrix(0.4587 -0.8886 0.8886 0.4587 4.75 162.5633)" class="st45" width="8" height="4.1"/>
		<path class="st40" d="M133,75.1l-5.7-4.9l-25.1-13c0,0-3.4-1-5.5,0.3c-2.1,1.3,2.2-7.6,7.8-5.7c5.6,1.9,25.9,13.4,25.9,13.4
			l4.2,7.8L133,75.1z"/>
	</g>
	<g>
		<path class="st41" d="M97.6,35l-2.7-3.7c-3.8-5.1-4.8-10.9-2.2-12.8l14.8-10.9c0,0,5.9-1.9,9.7,3.2l7,9.6c3.8,5.1-0.1,9.6-0.1,9.6
			l-14.8,10.9C106.6,42.8,101.4,40.1,97.6,35z"/>
		<rect x="119.9" y="7.1" transform="matrix(0.8059 -0.5921 0.5921 0.8059 14.9053 74.71)" class="st28" width="2.9" height="15"/>
		<path class="st40" d="M116.5,12.7l-4.8,2.2l-15,11c0,0-1.5,1.8-1,3.9c0.5,2.1-5.1-5.2-2.5-8.1c2.6-2.9,15.2-12.1,15.2-12.1l6,0.3
			L116.5,12.7z"/>
	</g>
	<g>
		<path class="st41" d="M79.8,84.1l-2.9,1.3c-4,1.7-8.9-0.7-11-5.5L54,52.9c0,0-0.5-10.1,3.4-11.8l2.9-1.3c4-1.7,11,5.5,11,5.5
			l11.9,27C85.3,77.1,83.7,82.4,79.8,84.1z"/>
		
			<rect x="54.6" y="36.4" transform="matrix(0.9157 -0.4018 0.4018 0.9157 -10.6127 26.6094)" class="st46" width="7" height="4.5"/>
		<path class="st40" d="M59.1,42.4l1.8,7.9l12.4,28.3c0,0,2,3.2,4.3,3.7c2.3,0.5-5.6,4.3-8.9-1.3C65.5,75.6,56,52,56,52l0.8-9.1
			L59.1,42.4z"/>
	</g>
	<g>
		<path class="st20" d="M146.6,166.3c0,0-2.5,1.7-4.2,10.5c-1.7,8.8-4.9-5.2-4.9-5.2l2.4-7.3L146.6,166.3z"/>
		<path class="st21" d="M146.6,166.3c0,0-2.5,1.7-4.2,10.5c-1.7,8.8-4.9-5.2-4.9-5.2l2.4-7.3L146.6,166.3z"/>
		<path class="st20" d="M58.8,166.3c0,0,2.5,1.7,4.2,10.5c1.7,8.8,4.9-5.2,4.9-5.2l-2.4-7.3L58.8,166.3z"/>
		<path class="st21" d="M58.8,166.3c0,0,2.5,1.7,4.2,10.5c1.7,8.8,4.9-5.2,4.9-5.2l-2.4-7.3L58.8,166.3z"/>
		<path class="st20" d="M102.4,162.8h0.4h0.4l0,0l39.6,0.2l-5.1,109.8c0,0-1,9.4-9.9,9.4c-7.7,0-21.1,0-24.6,0c-0.5,0-0.9,0-0.9,0
			c-3.5,0-16.9,0-24.6,0c-8.9,0-9.9-9.4-9.9-9.4L62.8,163L102.4,162.8L102.4,162.8z"/>
		<path class="st21" d="M102.4,162.8h0.4h0.4l0,0l39.6,0.2l-5.1,109.8c0,0-1,9.4-9.9,9.4c-7.7,0-21.1,0-24.6,0c-0.5,0-0.9,0-0.9,0
			c-3.5,0-16.9,0-24.6,0c-8.9,0-9.9-9.4-9.9-9.4L62.8,163L102.4,162.8L102.4,162.8z"/>
		<path class="st20" d="M102.4,167.1h0.4h0.4l0,0l39.6,0.2l-5.1,105.8c0,0-1,9.1-9.9,9.1c-7.7,0-21.1,0-24.6,0c-0.5,0-0.9,0-0.9,0
			c-3.5,0-16.9,0-24.6,0c-8.9,0-9.9-9.1-9.9-9.1l-5.1-105.8L102.4,167.1L102.4,167.1z"/>
		<g>
			<path class="st20" d="M135.5,166.4c0,0-0.2,10.9-3.4,10.9s-3.6-10.7-3.6-10.7L135.5,166.4z"/>
			<path class="st21" d="M135.5,166.4c0,0-0.2,10.9-3.4,10.9s-3.6-10.7-3.6-10.7L135.5,166.4z"/>
			<path class="st20" d="M133.6,166.5c0,0,0.4,10.4-1.7,10.4s-1.7-10.3-1.7-10.3L133.6,166.5z"/>
			<path class="st22" d="M133.6,166.5c0,0,0.4,10.4-1.7,10.4s-1.7-10.3-1.7-10.3L133.6,166.5z"/>
		</g>
		<g>
			<path class="st20" d="M116,166.4c0,0-0.2,10.9-3.4,10.9c-3.2,0-3.6-10.7-3.6-10.7L116,166.4z"/>
			<path class="st21" d="M116,166.4c0,0-0.2,10.9-3.4,10.9c-3.2,0-3.6-10.7-3.6-10.7L116,166.4z"/>
			<path class="st20" d="M114,166.5c0,0,0.4,10.4-1.7,10.4c-2.1,0-1.7-10.3-1.7-10.3L114,166.5z"/>
			<path class="st22" d="M114,166.5c0,0,0.4,10.4-1.7,10.4c-2.1,0-1.7-10.3-1.7-10.3L114,166.5z"/>
		</g>
		<g>
			<path class="st20" d="M96.4,166.4c0,0-0.2,10.9-3.4,10.9s-3.6-10.7-3.6-10.7L96.4,166.4z"/>
			<path class="st21" d="M96.4,166.4c0,0-0.2,10.9-3.4,10.9s-3.6-10.7-3.6-10.7L96.4,166.4z"/>
			<path class="st20" d="M94.5,166.5c0,0,0.4,10.4-1.7,10.4c-2.1,0-1.7-10.3-1.7-10.3L94.5,166.5z"/>
			<path class="st22" d="M94.5,166.5c0,0,0.4,10.4-1.7,10.4c-2.1,0-1.7-10.3-1.7-10.3L94.5,166.5z"/>
		</g>
		<g>
			<path class="st20" d="M76.8,166.4c0,0-0.2,10.9-3.4,10.9s-3.6-10.7-3.6-10.7L76.8,166.4z"/>
			<path class="st21" d="M76.8,166.4c0,0-0.2,10.9-3.4,10.9s-3.6-10.7-3.6-10.7L76.8,166.4z"/>
			<path class="st23" d="M74.9,166.5c0,0,0.4,10.4-1.7,10.4c-2.1,0-1.7-10.3-1.7-10.3L74.9,166.5z"/>
			<path class="st22" d="M74.9,166.5c0,0,0.4,10.4-1.7,10.4c-2.1,0-1.7-10.3-1.7-10.3L74.9,166.5z"/>
		</g>
		<path class="st20" d="M60.9,158.1c0,0-2.1,0.7-2.1,3.2s0.1,5,0.1,5h42.4h2.8h42.4c0,0,0.1-2.5,0.1-5c0-2.5-2.1-3.2-2.1-3.2H60.9z"
			/>
		<path class="st24" d="M59.5,159.7c0,0.4,19,0.7,42.4,0.7s42.4-0.3,42.4-0.7c0-0.4-19.3-0.4-42.7-0.4S59.5,159.3,59.5,159.7z"/>
		<path class="st25" d="M103.2,282.2c-0.5,0-0.9,0-0.9,0c-3.5,0-16.9,0-24.6,0c-8.9,0-9.9-9.1-9.9-9.1l-1.4-28.9
			c3.5,7.9,13.1,22.2,36.1,22.2c23,0,32.8-13.2,36.4-20.4l-1.3,27.1c0,0-1,9.1-9.9,9.1C120.1,282.2,106.7,282.2,103.2,282.2z"/>
		<g>
			<g>
				<path class="st14" d="M109.9,207c0,0-4.9-9.3-6-11.2c-1.2-1.9-3-5.3-5.3-5.8l9.1-0.2c0,0,2.1-0.6,5.3,4.9
					c2.6,4.6,4.3,7.9,4.3,7.9L109.9,207z"/>
				<path class="st14" d="M102.9,195.9c0,0-1.9-4.4-5.2-5.4c0,0-1.6-0.2-3.5,3.1c-2,3.5-2.2,4.2-2.2,4.2l-2.6-1.3l3.1,8l9.2-0.7
					l-2.8-1.8L102.9,195.9z"/>
			</g>
			<g>
				<path class="st14" d="M96,207.3c0,0-5.4,8.9-6.5,11c-1.1,2-3,5.3-2.2,7.6l-4.9-7.7c0,0-1.6-1.5,1.5-7c2.6-4.6,4.5-7.8,4.5-7.8
					L96,207.3z"/>
				<path class="st14" d="M90.1,219c0,0-2.8,3.9-2,7.3c0,0,0.7,1.5,4.4,1.4c4.1-0.1,4.8-0.2,4.8-0.2l0.2,2.9l5.3-6.8l-5.4-7.5
					l-0.1,3.3L90.1,219z"/>
			</g>
			<g>
				<path class="st14" d="M103.3,219.4c0,0,10.5,0.2,12.7,0.1c2.3-0.1,6.1-0.1,7.6-1.9l-4.2,8.1c0,0-0.4,2.2-6.8,2.3
					c-5.3,0.1-9,0-9,0L103.3,219.4z"/>
				<path class="st14" d="M116.4,218.6c0,0,4.8,0.4,7.3-2c0,0,1-1.3-1-4.6c-2.1-3.5-2.6-4-2.6-4l2.4-1.6l-8.6-1.1l-3.8,8.4l2.9-1.6
					L116.4,218.6z"/>
			</g>
		</g>
	</g>
</g>
</svg>
