<?xml version="1.0" encoding="utf-8"?>
<!-- Generator: Adobe Illustrator 22.0.0, SVG Export Plug-In . SVG Version: 6.00 Build 0)  -->
<svg version="1.1" id="Capa_1" xmlns="http://www.w3.org/2000/svg" xmlns:xlink="http://www.w3.org/1999/xlink" x="0px" y="0px"
	 viewBox="0 0 416 288.2" style="enable-background:new 0 0 416 288.2;" xml:space="preserve">
<style type="text/css">
	.st0{fill:#DEE3F9;}
	.st1{fill:#F4F2DF;}
	.st2{fill:#CFC344;}
	.st3{fill:#56548C;}
	.st4{fill:#D1D948;}
	.st5{fill:#BEC7EA;}
	.st6{fill:#E34B54;}
	.st7{fill:#C6D1DD;}
	.st8{fill:#A2ACB6;}
	.st9{fill:#F3C627;}
	.st10{fill:#D4930D;}
	.st11{opacity:0.38;fill:#505659;enable-background:new    ;}
	.st12{opacity:0.51;fill:#FFFFFF;enable-background:new    ;}
	.st13{opacity:0.5;fill:#FFFFFF;enable-background:new    ;}
	.st14{fill:#9EA2B2;}
	.st15{opacity:0.12;fill:#E6E6E6;enable-background:new    ;}
	.st16{opacity:8.000000e-02;enable-background:new    ;}
	.st17{fill:none;stroke:#C0C9CC;stroke-miterlimit:10;}
	.st18{fill:#6CD948;}
	.st19{opacity:0.25;enable-background:new    ;}
	.st20{opacity:0.56;enable-background:new    ;}
	.st21{fill:#7BC928;}
	.st22{opacity:0.39;fill:#FFFFFF;enable-background:new    ;}
	.st23{opacity:0.15;enable-background:new    ;}
	.st24{fill:#FFFFFF;}
	.st25{fill:#F2EFF1;}
	.st26{opacity:0.18;enable-background:new    ;}
	.st27{fill:#2EBDAF;}
	.st28{fill:#E0D4B1;}
	.st29{fill:#BEB297;}
	.st30{fill:#DE9C63;}
	.st31{fill:#F6C188;}
	.st32{fill:#D18C46;}
	.st33{fill:#EDAC73;}
	.st34{fill:#A17449;}
	.st35{fill:#59D88D;}
	.st36{fill:#2EC169;}
	.st37{fill:#D2EDEF;}
	.st38{fill:#373737;}
	.st39{opacity:0.56;fill:#F1F3F5;enable-background:new    ;}
	.st40{fill:#C6E7EA;}
	.st41{fill:#B3EAFC;}
	.st42{fill:#F4C746;}
	.st43{fill:#BAE5D2;}
	.st44{fill:#52BDCE;}
	.st45{fill:#2A2AD0;}
</style>
<path class="st0" d="M22,204.5v-2.8h5.4v-16.8h12.8v-32.3h9.5V198h6.6v-24.2h14.9v29.8H77v-52.9h3.5v5h5.8v13.9h1.8v24.9h13.8v-20.7
	h5.9v-4.5H121v19.6h8.9v-4.4h15v-30.6h14.3v36.2h16.4v-19.8h1.7v-24h11.1v33.1h0.3v19.8h6.9v-29.8h13.5v4.3h4.2v19.9h7.7v-45.5h4.2
	v12.5h7.1v19.9h11.1v35.4H22L22,204.5z"/>
<path class="st0" d="M187.3,204.5v-2.8h5.4v-16.8h12.8v-32.3h9.5V198h6.6v-24.2h14.9v29.8h5.8v-52.9h3.5v5h5.8v13.9h1.8v24.9h13.8
	v-20.7h5.9v-4.5h13.2v19.6h8.9v-4.4h15v-30.6h14.3v36.2h16.4v-19.8h1.7v-24h11.1v33.1h0.3v19.8h6.9v-29.8h13.5v4.3h4.2v19.9h7.7
	v-45.5h4.2v12.5h7.1v19.9h11.1v35.4H187.3L187.3,204.5z"/>
<path class="st1" d="M411.9,171.1c1.6-2.1,2.6-4.7,2.6-7.6c0-6-4.3-11-10-12.1c0-0.1,0-0.2,0-0.4c0-7.1-5.2-13-12-14.1
	c-0.3-0.1-0.6-0.1-0.9-0.1c-0.4,0-0.7-0.1-1.1-0.1c-0.2-0.5-0.4-0.9-0.6-1.4c-0.1-0.1-0.1-0.2-0.2-0.3c-0.2-0.4-0.4-0.8-0.7-1.2
	v-0.1c-2.5-3.8-6.6-6.5-11.4-7c-0.1,0-0.1,0-0.2,0c-0.5-0.1-1-0.1-1.5-0.1c-1.6,0-3.2,0.2-4.7,0.7c-0.5,0.2-1,0.3-1.4,0.5
	c-0.9,0.4-1.8,0.9-2.7,1.4c-0.4,0.3-0.8,0.6-1.2,0.9c-0.8,0.6-1.5,1.3-2.1,2.1c-2.2,2.7-3.6,6.2-3.6,10c0,0.9,0.1,1.8,0.2,2.6
	c-0.6-0.1-1.2-0.1-1.8-0.1c-3.2,0-6.2,1-8.7,2.6c-0.8,0.6-1.6,1.2-2.3,1.9c-0.3,0.3-0.7,0.7-1,1.1c-2.2,2.7-3.5,6.1-3.5,9.8
	c0,1.9,0.3,3.7,1,5.4c0.6,1.7,1.5,3.2,2.7,4.6c-1,1.4-1.8,2.9-2.3,4.5s-0.8,3.4-0.8,5.2c0,0.5,0,1,0.1,1.5c0,0.1,0,0.3,0.1,0.4
	c0,0.4,0.1,0.8,0.2,1.1c0,0.1,0,0.3,0.1,0.4c0.1,0.5,0.2,0.9,0.3,1.4c0,0.1,0.1,0.3,0.1,0.4c0.1,0.3,0.2,0.6,0.3,0.9
	c0.1,0.2,0.1,0.3,0.2,0.5c0.1,0.3,0.3,0.6,0.4,0.9c0.1,0.2,0.2,0.4,0.3,0.6c0.1,0.3,0.3,0.5,0.5,0.8c3,4.6,8.1,7.7,14,7.7
	c4.3,0,8.3-1.6,11.2-4.4c2.6,2.4,6,3.9,9.8,3.9c2.6,0,5-0.7,7.2-1.9c2.9,2.6,6.8,4.2,11,4.2c9.2,0,16.6-7.4,16.6-16.6
	C416,177.9,414.4,174.1,411.9,171.1L411.9,171.1z"/>
<path class="st0" d="M396.8,174.2L381,190.5v-18l7.8-9.2l-7.8,6.5v-11.6h-2.9v23.5L361.6,171l16.5,13.2v43.4h2.9v-34L396.8,174.2z"
	/>
<path class="st1" d="M221.9,171.1c-1.6-2.1-2.6-4.7-2.6-7.6c0-6,4.3-11,10-12.1c0-0.1,0-0.2,0-0.4c0-7.1,5.2-13,12-14.1
	c0.3-0.1,0.6-0.1,0.9-0.1c0.4,0,0.7-0.1,1.1-0.1c0.2-0.5,0.4-0.9,0.6-1.4c0.1-0.1,0.1-0.2,0.2-0.3c0.2-0.4,0.4-0.8,0.7-1.2v-0.1
	c2.5-3.8,6.6-6.5,11.4-7h0.2c0.5-0.1,1-0.1,1.5-0.1c1.6,0,3.2,0.2,4.7,0.7c0.5,0.2,1,0.3,1.4,0.5c0.9,0.4,1.8,0.9,2.7,1.4
	c0.4,0.3,0.8,0.6,1.2,0.9c0.8,0.6,1.5,1.3,2.1,2.1c2.2,2.7,3.6,6.2,3.6,10c0,0.9-0.1,1.8-0.2,2.6c0.6-0.1,1.2-0.1,1.8-0.1
	c3.2,0,6.2,1,8.7,2.6c0.8,0.6,1.6,1.2,2.3,1.9c0.3,0.3,0.7,0.7,1,1.1c2.2,2.7,3.5,6.1,3.5,9.8c0,1.9-0.3,3.7-1,5.4
	c-0.6,1.7-1.5,3.2-2.7,4.6c1,1.4,1.8,2.9,2.3,4.5s0.8,3.4,0.8,5.2c0,0.5,0,1-0.1,1.5c0,0.1,0,0.3-0.1,0.4c0,0.4-0.1,0.8-0.2,1.1
	c0,0.1,0,0.3-0.1,0.4c-0.1,0.5-0.2,0.9-0.3,1.4c0,0.1-0.1,0.3-0.1,0.4c-0.1,0.3-0.2,0.6-0.3,0.9c-0.1,0.2-0.1,0.3-0.2,0.5
	c-0.1,0.3-0.3,0.6-0.4,0.9c-0.1,0.2-0.2,0.4-0.3,0.6c-0.1,0.3-0.3,0.5-0.5,0.8c-3,4.6-8.1,7.7-14,7.7c-4.3,0-8.3-1.6-11.2-4.4
	c-2.6,2.4-6,3.9-9.8,3.9c-2.6,0-5-0.7-7.2-1.9c-2.9,2.6-6.8,4.2-11,4.2c-9.2,0-16.6-7.4-16.6-16.6
	C217.8,177.9,219.4,174.1,221.9,171.1L221.9,171.1z"/>
<path class="st0" d="M237,174.2l15.8,16.3v-18l-7.8-9.2l7.8,6.5v-11.6h2.9v23.5l16.5-10.7l-16.5,13.2v43.4h-2.9v-34L237,174.2z"/>
<path class="st2" d="M394.1,132.2c2.8-3.6,4.5-8.2,4.5-13.2c0-10.5-7.5-19.2-17.5-21.1c0-0.2,0-0.4,0-0.6c0-12.4-9.1-22.7-20.9-24.6
	c-0.5-0.1-1-0.2-1.6-0.2c-0.6-0.1-1.3-0.1-2-0.1c-0.3-0.8-0.7-1.6-1.1-2.4c-0.1-0.2-0.2-0.4-0.3-0.5c-0.4-0.7-0.8-1.4-1.2-2.1
	l-0.1-0.1c-4.4-6.6-11.5-11.2-19.8-12.1c-0.1,0-0.2,0-0.3,0c-0.9-0.1-1.8-0.1-2.7-0.1c-2.8,0-5.5,0.4-8.1,1.2
	c-0.9,0.3-1.7,0.6-2.5,0.9c-1.6,0.7-3.2,1.5-4.6,2.5c-0.7,0.5-1.4,1-2.1,1.6c-1.3,1.1-2.6,2.3-3.7,3.7c-3.9,4.7-6.2,10.7-6.2,17.3
	c0,1.6,0.1,3.1,0.4,4.6c-1-0.1-2.1-0.2-3.1-0.2c-5.6,0-10.8,1.7-15.1,4.6c-1.4,1-2.8,2.1-4,3.3c-0.6,0.6-1.2,1.2-1.7,1.9
	c-3.8,4.7-6.2,10.6-6.2,17.1c0,3.3,0.6,6.5,1.7,9.4s2.7,5.6,4.7,8c-1.7,2.4-3.1,5-4.1,7.9s-1.5,5.9-1.5,9.1c0,0.9,0.1,1.8,0.1,2.6
	c0,0.3,0.1,0.5,0.1,0.8c0.1,0.7,0.2,1.3,0.3,2c0,0.2,0.1,0.5,0.1,0.7c0.2,0.8,0.4,1.6,0.6,2.4c0.1,0.2,0.2,0.5,0.2,0.7
	c0.2,0.5,0.4,1.1,0.6,1.6c0.1,0.3,0.2,0.6,0.4,0.9c0.2,0.5,0.5,1.1,0.8,1.6c0.2,0.3,0.3,0.7,0.5,1c0.3,0.4,0.5,0.9,0.8,1.3
	c5.1,8,14.1,13.3,24.3,13.3c7.5,0,14.4-2.9,19.5-7.6c4.5,4.2,10.5,6.8,17.1,6.8c4.5,0,8.8-1.2,12.4-3.3c5.1,4.5,11.8,7.3,19.2,7.3
	c15.9,0,28.9-12.9,28.9-28.9C401.2,143.9,398.5,137.3,394.1,132.2L394.1,132.2z"/>
<path class="st3" d="M367.8,137.6l-27.4,28.3v-31.4l13.4-16l-13.4,11.4v-20.3h-5.2v40.9L306.6,132l28.6,22.9v75.5h5.2v-59.2
	L367.8,137.6z"/>
<path class="st4" d="M157.8,146.5c-2.1-2.7-3.3-6-3.3-9.6c0-7.7,5.5-14,12.8-15.4c0-0.2,0-0.3,0-0.5c0-9.1,6.6-16.6,15.3-18
	c0.4-0.1,0.8-0.1,1.1-0.2c0.5-0.1,0.9-0.1,1.4-0.1c0.2-0.6,0.5-1.2,0.8-1.7c0.1-0.1,0.1-0.3,0.2-0.4c0.3-0.5,0.6-1,0.9-1.5
	c0,0,0-0.1,0.1-0.1c3.2-4.9,8.4-8.2,14.5-8.9h0.2c0.6-0.1,1.3-0.1,1.9-0.1c2.1,0,4.1,0.3,5.9,0.9c0.6,0.2,1.2,0.4,1.8,0.7
	c1.2,0.5,2.3,1.1,3.4,1.8c0.5,0.4,1,0.7,1.5,1.1c1,0.8,1.9,1.7,2.7,2.7c2.8,3.4,4.5,7.9,4.5,12.7c0,1.1-0.1,2.3-0.3,3.4
	c0.8-0.1,1.5-0.1,2.3-0.1c4.1,0,7.9,1.2,11,3.4c1,0.7,2,1.5,2.9,2.4c0.4,0.4,0.9,0.9,1.3,1.4c2.8,3.4,4.5,7.8,4.5,12.5
	c0,2.4-0.4,4.7-1.2,6.9c-0.8,2.1-2,4.1-3.4,5.8c1.3,1.7,2.3,3.7,3,5.8s1.1,4.3,1.1,6.6c0,0.7,0,1.3-0.1,1.9c0,0.2,0,0.4-0.1,0.6
	c-0.1,0.5-0.1,1-0.2,1.4c0,0.2-0.1,0.3-0.1,0.5c-0.1,0.6-0.3,1.2-0.4,1.7c-0.1,0.2-0.1,0.4-0.2,0.5c-0.1,0.4-0.3,0.8-0.4,1.2
	c-0.1,0.2-0.2,0.4-0.3,0.7c-0.2,0.4-0.4,0.8-0.6,1.1c-0.1,0.2-0.3,0.5-0.4,0.7c-0.2,0.3-0.4,0.7-0.6,1c-3.7,5.9-10.3,9.7-17.8,9.7
	c-5.5,0-10.5-2.1-14.2-5.5c-3.3,3.1-7.7,5-12.5,5c-3.3,0-6.4-0.9-9.1-2.4c-3.7,3.3-8.6,5.3-14,5.3c-11.7,0-21.1-9.5-21.1-21.1
	C152.7,155.1,154.6,150.3,157.8,146.5L157.8,146.5z"/>
<path class="st3" d="M177.1,150.5l20,20.6v-22.9l-9.8-11.6l9.8,8.2v-14.7h3.8v29.8l20.9-13.5l-20.9,16.7v55.2h-3.8V175L177.1,150.5z
	"/>
<path class="st0" d="M259.5,234.9H14.4c-2.7,0-4.9-2.2-4.9-4.9s2.2-4.9,4.9-4.9h245.1c2.7,0,4.9,2.2,4.9,4.9
	S262.2,234.9,259.5,234.9z"/>
<path class="st0" d="M282.9,288.2H37.8c-2.7,0-4.9-2.2-4.9-4.9s2.2-4.9,4.9-4.9h245.1c2.7,0,4.9,2.2,4.9,4.9
	S285.6,288.2,282.9,288.2z"/>
<path class="st0" d="M322.2,235.7h72.9c2.9,0,5.3-2.4,5.3-5.3s-2.4-5.3-5.3-5.3h-72.9c-2.9,0-5.3,2.4-5.3,5.3
	S319.3,235.7,322.2,235.7z"/>
<path class="st0" d="M24.1,280.9h350.5c6,0,11-5,11-11s-5-11-11-11H24.1c-6,0-11,5-11,11C13,275.9,18,280.9,24.1,280.9z"/>
<path class="st5" d="M192.8,274.9h126.8c3.1,0,5.6-2.5,5.6-5.6s-2.5-5.6-5.6-5.6H192.8c-3.1,0-5.6,2.5-5.6,5.6
	S189.8,274.9,192.8,274.9z"/>
<path class="st5" d="M306.2,269.9h53.6c1.7,0,3.2-1.4,3.2-3.2c0-1.7-1.4-3.2-3.2-3.2h-53.6c-1.7,0-3.2,1.4-3.2,3.2
	C303,268.4,304.5,269.9,306.2,269.9z"/>
<path class="st2" d="M119.4,107.7c2.8-3.6,4.5-8.2,4.5-13.1c0-10.5-7.5-19.1-17.4-21c0-0.2,0-0.4,0-0.6c0-12.4-9-22.6-20.9-24.5
	c-0.5-0.1-1-0.2-1.6-0.2c-0.6-0.1-1.3-0.1-1.9-0.1c-0.3-0.8-0.7-1.6-1.1-2.4c-0.1-0.2-0.2-0.3-0.3-0.5c-0.4-0.7-0.8-1.4-1.2-2.1
	l-0.1-0.1C75.2,36.4,68,31.8,59.7,30.9c-0.1,0-0.2,0-0.3,0c-0.9-0.1-1.7-0.1-2.6-0.1c-2.8,0-5.5,0.4-8.1,1.2
	c-0.8,0.3-1.7,0.6-2.5,0.9c-1.6,0.7-3.2,1.5-4.6,2.5c-0.7,0.5-1.4,1-2.1,1.6c-1.3,1.1-2.6,2.3-3.7,3.7c-3.9,4.7-6.2,10.7-6.2,17.3
	c0,1.6,0.1,3.1,0.4,4.6c-1-0.1-2.1-0.2-3.1-0.2c-5.6,0-10.7,1.7-15,4.6c-1.4,1-2.8,2.1-4,3.3c-0.6,0.6-1.2,1.2-1.7,1.9
	C2.3,76.7,0,82.6,0,89.1c0,3.3,0.6,6.5,1.7,9.4s2.7,5.6,4.6,7.9c-1.7,2.4-3.1,5-4.1,7.9s-1.5,5.9-1.5,9.1c0,0.9,0.1,1.8,0.1,2.6
	c0,0.3,0.1,0.5,0.1,0.8c0.1,0.7,0.2,1.3,0.3,1.9c0,0.2,0.1,0.4,0.1,0.7l0.6,2.4c0.1,0.2,0.2,0.5,0.2,0.7c0.2,0.5,0.4,1.1,0.6,1.6
	c0.1,0.3,0.2,0.6,0.4,0.9c0.2,0.5,0.5,1.1,0.8,1.6c0.2,0.3,0.3,0.7,0.5,1c0.3,0.4,0.5,0.9,0.8,1.3c5.1,8,14,13.3,24.2,13.3
	c7.5,0,14.3-2.9,19.4-7.6c4.5,4.2,10.5,6.8,17.1,6.8c4.5,0,8.8-1.2,12.4-3.3c5.1,4.5,11.8,7.3,19.1,7.3c15.9,0,28.8-12.9,28.8-28.8
	C126.4,119.3,123.7,112.8,119.4,107.7z"/>
<path class="st3" d="M93.1,113.1l-27.3,28.2V110l13.4-15.9l-13.4,11.3V85.2h-5.2v40.7l-28.5-18.4l28.5,22.8v75.3h5.2v-59L93.1,113.1
	z"/>
<path class="st2" d="M25.6,229.5c-6.4-3.9-9.2-10.5-7.8-13.4c1.5-3.2,9-4.9,17-0.7c-0.3-1.2-4.2-19.6,0-21.2
	c3.3-1.3,10.2,8.8,11.8,11.1c-1.5-13.3-1.2-20.3,1-20.9c1.6-0.5,4.2,2.5,7.8,8.8c1.3-4.6,2.6-6.9,3.9-6.9c2.5,0,5,8.8,7.5,26.5
	c1.2-6.4,3.8-17.9,7.2-18c4.2,0,7.6,17.8,8.5,23.2c5.5-5.8,8.9-8.3,10.1-7.5c1.6,1-0.3,7.3-5.5,18.9
	C66.6,229.3,46.1,229.8,25.6,229.5L25.6,229.5z"/>
<path class="st2" d="M355,231.5c3.9-2.4,5.6-6.3,4.8-8.1c-0.9-1.9-5.5-3-10.3-0.4c0.2-0.7,2.5-11.9,0-12.9c-2-0.8-6.2,5.3-7.1,6.7
	c0.9-8.1,0.7-12.3-0.6-12.7c-1-0.3-2.6,1.5-4.8,5.3c-0.8-2.8-1.6-4.2-2.4-4.2c-1.5,0-3.1,5.4-4.5,16c-0.7-3.9-2.3-10.9-4.4-10.9
	c-2.6,0-4.6,10.8-5.1,14c-3.3-3.5-5.4-5-6.1-4.5c-1,0.6,0.2,4.4,3.4,11.5C330.1,231.4,342.5,231.6,355,231.5L355,231.5z"/>
<path class="st2" d="M183.3,232.8c3.9-2.4,5.6-6.3,4.8-8.1c-0.9-1.9-5.5-3-10.3-0.4c0.2-0.7,2.5-11.9,0-12.9c-2-0.8-6.2,5.3-7.1,6.7
	c0.9-8.1,0.7-12.3-0.6-12.7c-1-0.3-2.6,1.5-4.8,5.3c-0.8-2.8-1.6-4.2-2.4-4.2c-1.5,0-3.1,5.4-4.5,16c-0.7-3.9-2.3-10.9-4.4-10.9
	c-2.6,0-4.6,10.8-5.1,14c-3.3-3.5-5.4-5-6.1-4.5c-1,0.6,0.2,4.4,3.4,11.5C158.5,232.7,170.9,233,183.3,232.8L183.3,232.8z"/>
<path class="st0" d="M222.7,49.1H115.4c-1.5,0-2.6-1.2-2.6-2.6c0-1.5,1.2-2.6,2.6-2.6h107.3c1.5,0,2.6,1.2,2.6,2.6
	C225.3,48,224.1,49.1,222.7,49.1z"/>
<path class="st0" d="M188.6,47h-63c-2.1,0-3.9-1.7-3.9-3.9c0-2.1,1.7-3.9,3.9-3.9h63c2.1,0,3.9,1.7,3.9,3.9
	C192.4,45.3,190.7,47,188.6,47z"/>
<path class="st0" d="M270.9,84.8h-39.4c-1.3,0-2.4-1.7-2.4-3.9c0-2.1,1.1-3.9,2.4-3.9h39.4c1.3,0,2.4,1.7,2.4,3.9
	S272.3,84.8,270.9,84.8z"/>
<path class="st0" d="M156.4,45.7h-17.8c-3.3,0-5.9-2.7-5.9-5.9c0-3.3,2.7-5.9,5.9-5.9h17.8c3.3,0,5.9,2.7,5.9,5.9
	C162.4,43,159.7,45.7,156.4,45.7z"/>
<path class="st0" d="M260.4,82.7h-17.8c-3.3,0-5.9-2.7-5.9-5.9c0-3.3,2.7-5.9,5.9-5.9h17.8c3.3,0,5.9,2.7,5.9,5.9
	C266.3,80.1,263.6,82.7,260.4,82.7z"/>
<path class="st2" d="M215.1,232c-3.9-2.4-5.6-6.3-4.8-8.1c0.9-1.9,5.5-3,10.3-0.4c-0.2-0.7-2.5-11.9,0-12.9c2-0.8,6.2,5.3,7.1,6.7
	c-0.9-8.1-0.7-12.3,0.6-12.7c1-0.3,2.6,1.5,4.8,5.3c0.8-2.8,1.6-4.2,2.4-4.2c1.5,0,3.1,5.4,4.5,16c0.7-3.9,2.3-10.9,4.4-10.9
	c2.6,0,4.6,10.8,5.1,14c3.3-3.5,5.4-5,6.1-4.5c1,0.6-0.2,4.4-3.4,11.5C239.9,231.8,227.5,232.1,215.1,232L215.1,232z"/>
<path class="st6" d="M352.4,62.9c0.6-0.9,1.2-1.7,1.8-2.5c-0.1-0.1-0.1-0.1-0.2-0.2c-0.3,0.3-0.6,0.6-1,1c-5.9-4.3-11.8-8.6-17.8-13
	c0.2-0.4,0.4-0.8,0.6-1.2c-0.1-0.1-0.1-0.1-0.2-0.2c-0.3,0.3-0.7,0.6-1.1,0.9c-1.9-1.4-3.7-2.7-5.7-4.2c0.2-0.4,0.4-0.8,0.5-1.3
	c-0.1,0-0.1-0.1-0.2-0.1c-0.2,0.2-0.4,0.4-0.6,0.6c-1.9,2.5-3.7,5.1-5.6,7.7c-1.1,1.5-1.3,3.1-0.6,4.9c0.7,1.7,1.4,3.3,2,5
	c0.2,0.5,0.1,1.2-0.2,1.6c-2.6,3.6-5.2,7.2-7.8,10.7c-2.6,3.6-5.2,7.1-7.9,10.7c-0.3,0.4-1,0.7-1.5,0.7c-1.8-0.1-3.6-0.3-5.4-0.4
	s-3.3,0.5-4.4,2.1c-1.8,2.6-3.7,5.1-5.6,7.6c-0.2,0.2-0.3,0.5-0.4,0.7c0.1,0,0.1,0.1,0.2,0.1c0.3-0.3,0.7-0.6,1-0.9
	c1.9,1.4,3.8,2.8,5.7,4.2c-0.2,0.5-0.4,0.9-0.6,1.3c0.1,0,0.1,0.1,0.2,0.1c0.3-0.3,0.7-0.6,1-1c6,4.4,11.9,8.7,17.8,13
	c-0.2,0.5-0.4,0.9-0.6,1.2c0.1,0.1,0.2,0.1,0.2,0.2c0.6-0.8,1.2-1.6,1.8-2.5c2,1.1,2.1,1.1,3.3-0.5c5.3-7.2,10.5-14.4,15.8-21.5
	c5.3-7.2,10.5-14.4,15.8-21.5C354.1,64.6,354.1,64.4,352.4,62.9L352.4,62.9z M337.5,60.5c-0.3,0.4-0.8,0.4-1.1,0.2
	c-0.4-0.3-0.4-0.8-0.2-1.1c0.3-0.4,0.8-0.4,1.1-0.2C337.7,59.6,337.7,60.1,337.5,60.5z M335.3,56.9c0.3-0.4,0.8-0.4,1.1-0.2
	c0.4,0.3,0.4,0.8,0.2,1.1c-0.3,0.4-0.8,0.4-1.1,0.2C335.1,57.7,335,57.2,335.3,56.9z M335.7,62.9c-0.3,0.4-0.8,0.4-1.1,0.2
	c-0.4-0.3-0.4-0.8-0.2-1.1c0.3-0.4,0.8-0.4,1.1-0.2C335.9,62,336,62.5,335.7,62.9z M334.8,60.2c-0.3,0.4-0.8,0.4-1.1,0.2
	c-0.4-0.3-0.4-0.8-0.2-1.1s0.8-0.4,1.1-0.2C335,59.4,335.1,59.9,334.8,60.2z M310.6,90.6c0.3-0.4,0.8-0.4,1.1-0.2s0.4,0.8,0.2,1.1
	s-0.8,0.4-1.1,0.2S310.4,91,310.6,90.6z M310,89.4c-0.4-0.3-0.4-0.8-0.2-1.1s0.8-0.4,1.1-0.2s0.4,0.8,0.2,1.1S310.3,89.7,310,89.4z
	 M311.7,87c-0.4-0.3-0.4-0.8-0.2-1.1s0.8-0.4,1.1-0.2s0.4,0.8,0.2,1.1S312.1,87.3,311.7,87z M312.4,88.2c0.3-0.4,0.8-0.4,1.1-0.2
	s0.4,0.8,0.2,1.1c-0.3,0.4-0.8,0.4-1.1,0.2C312.2,89,312.1,88.5,312.4,88.2z M313.3,83.5c0.3-0.4,0.8-0.4,1.1-0.2s0.4,0.8,0.2,1.1
	c-0.3,0.4-0.8,0.4-1.1,0.2S313.1,83.8,313.3,83.5z M313.3,90.8c0.3-0.4,0.8-0.4,1.1-0.2s0.4,0.8,0.2,1.1c-0.3,0.4-0.8,0.4-1.1,0.2
	S313,91.2,313.3,90.8z M314.3,86.9c-0.4-0.3-0.4-0.8-0.2-1.1c0.3-0.4,0.8-0.4,1.1-0.2s0.4,0.8,0.2,1.1
	C315.2,87.1,314.7,87.2,314.3,86.9z M315.1,81.1c0.3-0.4,0.8-0.4,1.1-0.2s0.4,0.8,0.2,1.1c-0.3,0.4-0.8,0.4-1.1,0.2
	C314.9,81.9,314.8,81.4,315.1,81.1z M315,88.4c0.3-0.4,0.8-0.4,1.1-0.2s0.4,0.8,0.2,1.1c-0.3,0.4-0.8,0.4-1.1,0.2
	S314.8,88.8,315,88.4z M316.1,84.5c-0.4-0.3-0.4-0.8-0.2-1.1c0.3-0.4,0.8-0.4,1.1-0.2s0.4,0.8,0.2,1.1S316.4,84.8,316.1,84.5z
	 M316.9,78.6c0.3-0.4,0.8-0.4,1.1-0.2s0.4,0.8,0.2,1.1s-0.8,0.4-1.1,0.2S316.6,79,316.9,78.6z M316.8,86c0.3-0.4,0.8-0.4,1.1-0.2
	s0.4,0.8,0.2,1.1c-0.3,0.4-0.8,0.4-1.1,0.2C316.6,86.9,316.5,86.4,316.8,86z M317.8,82.1c-0.4-0.3-0.4-0.8-0.2-1.1
	c0.3-0.4,0.8-0.4,1.1-0.2s0.4,0.8,0.2,1.1C318.7,82.3,318.2,82.3,317.8,82.1z M318.6,76.2c0.3-0.4,0.8-0.4,1.1-0.2
	c0.4,0.3,0.4,0.8,0.2,1.1c-0.3,0.4-0.8,0.4-1.1,0.2S318.3,76.6,318.6,76.2z M318.6,83.6c0.3-0.4,0.8-0.4,1.1-0.2s0.4,0.8,0.2,1.1
	c-0.3,0.4-0.8,0.4-1.1,0.2S318.3,84,318.6,83.6z M319.6,79.7c-0.4-0.3-0.4-0.8-0.2-1.1c0.3-0.4,0.8-0.4,1.1-0.2s0.4,0.8,0.2,1.1
	S319.9,79.9,319.6,79.7z M320.4,73.8c0.3-0.4,0.8-0.4,1.1-0.2s0.4,0.8,0.2,1.1c-0.3,0.4-0.8,0.4-1.1,0.2
	C320.2,74.7,320.1,74.2,320.4,73.8z M320.3,81.2c0.3-0.4,0.8-0.4,1.1-0.2s0.4,0.8,0.2,1.1c-0.3,0.4-0.8,0.4-1.1,0.2
	C320.1,82,320.1,81.5,320.3,81.2z M321.3,77.3c-0.4-0.3-0.4-0.8-0.2-1.1s0.8-0.4,1.1-0.2c0.4,0.3,0.4,0.8,0.2,1.1
	S321.7,77.5,321.3,77.3z M322.1,71.4c0.3-0.4,0.8-0.4,1.1-0.2s0.4,0.8,0.2,1.1s-0.8,0.4-1.1,0.2S321.9,71.8,322.1,71.4z M322.1,78.8
	c0.3-0.4,0.8-0.4,1.1-0.2s0.4,0.8,0.2,1.1c-0.3,0.4-0.8,0.4-1.1,0.2S321.8,79.1,322.1,78.8z M323.1,74.9c-0.4-0.3-0.4-0.8-0.2-1.1
	s0.8-0.4,1.1-0.2c0.4,0.3,0.4,0.8,0.2,1.1S323.5,75.1,323.1,74.9z M323.9,69c0.3-0.4,0.8-0.4,1.1-0.2s0.4,0.8,0.2,1.1
	s-0.8,0.4-1.1,0.2C323.7,69.9,323.6,69.4,323.9,69z M323.9,76.4c0.3-0.4,0.8-0.4,1.1-0.2c0.4,0.3,0.4,0.8,0.2,1.1
	c-0.3,0.4-0.8,0.4-1.1,0.2C323.7,77.2,323.6,76.7,323.9,76.4z M324.9,72.4c-0.4-0.3-0.4-0.8-0.2-1.1s0.8-0.4,1.1-0.2
	s0.4,0.8,0.2,1.1S325.2,72.7,324.9,72.4z M325.6,66.6c0.3-0.4,0.8-0.4,1.1-0.2c0.4,0.3,0.4,0.8,0.2,1.1s-0.8,0.4-1.1,0.2
	S325.4,67,325.6,66.6z M325.6,74c0.3-0.4,0.8-0.4,1.1-0.2c0.4,0.3,0.4,0.8,0.2,1.1c-0.3,0.4-0.8,0.4-1.1,0.2S325.3,74.3,325.6,74z
	 M326.6,70c-0.4-0.3-0.4-0.8-0.2-1.1s0.8-0.4,1.1-0.2s0.4,0.8,0.2,1.1C327.5,70.2,327,70.3,326.6,70z M327.4,64.2
	c0.3-0.4,0.8-0.4,1.1-0.2c0.4,0.3,0.4,0.8,0.2,1.1s-0.8,0.4-1.1,0.2C327.2,65.1,327.2,64.6,327.4,64.2z M327.4,71.6
	c0.3-0.4,0.8-0.4,1.1-0.2s0.4,0.8,0.2,1.1s-0.8,0.4-1.1,0.2S327.1,71.9,327.4,71.6z M328.4,67.6c-0.4-0.3-0.4-0.8-0.2-1.1
	s0.8-0.4,1.1-0.2s0.4,0.8,0.2,1.1C329.3,67.8,328.8,67.9,328.4,67.6z M329.2,61.8c0.3-0.4,0.8-0.4,1.1-0.2c0.4,0.3,0.4,0.8,0.2,1.1
	s-0.8,0.4-1.1,0.2C329,62.7,328.9,62.2,329.2,61.8z M329.1,69.1c0.3-0.4,0.8-0.4,1.1-0.2s0.4,0.8,0.2,1.1c-0.3,0.4-0.8,0.4-1.1,0.2
	S328.9,69.5,329.1,69.1z M330.2,65.2c-0.4-0.3-0.4-0.8-0.2-1.1c0.3-0.4,0.8-0.4,1.1-0.2c0.4,0.3,0.4,0.8,0.2,1.1
	C331,65.4,330.5,65.5,330.2,65.2z M330.9,59.4c0.3-0.4,0.8-0.4,1.1-0.2c0.4,0.3,0.4,0.8,0.2,1.1s-0.8,0.4-1.1,0.2
	C330.7,60.2,330.7,59.7,330.9,59.4z M330.9,66.7c0.3-0.4,0.8-0.4,1.1-0.2c0.4,0.3,0.4,0.8,0.2,1.1c-0.3,0.4-0.8,0.4-1.1,0.2
	C330.7,67.6,330.6,67.1,330.9,66.7z M331.9,62.8c-0.4-0.3-0.4-0.8-0.2-1.1c0.3-0.4,0.8-0.4,1.1-0.2s0.4,0.8,0.2,1.1
	C332.8,63,332.3,63.1,331.9,62.8z M332.6,64.3c0.3-0.4,0.8-0.4,1.1-0.2c0.4,0.3,0.4,0.8,0.2,1.1s-0.8,0.4-1.1,0.2
	S332.4,64.7,332.6,64.3z M334,57.9c-0.3,0.4-0.8,0.4-1.1,0.2c-0.4-0.3-0.4-0.8-0.2-1.1c0.3-0.4,0.8-0.4,1.1-0.2S334.3,57.6,334,57.9
	z M331.8,54.3c0.3-0.4,0.8-0.4,1.1-0.2c0.4,0.3,0.4,0.8,0.2,1.1c-0.3,0.4-0.8,0.4-1.1,0.2S331.5,54.7,331.8,54.3z M330,56.7
	c0.3-0.4,0.8-0.4,1.1-0.2s0.4,0.8,0.2,1.1c-0.3,0.4-0.8,0.4-1.1,0.2C329.8,57.6,329.8,57.1,330,56.7z M328.3,59.2
	c0.3-0.4,0.8-0.4,1.1-0.2c0.4,0.3,0.4,0.8,0.2,1.1c-0.3,0.4-0.8,0.4-1.1,0.2C328.1,60,328,59.5,328.3,59.2z M326.5,61.6
	c0.3-0.4,0.8-0.4,1.1-0.2s0.4,0.8,0.2,1.1s-0.8,0.4-1.1,0.2C326.3,62.4,326.2,61.9,326.5,61.6z M324.7,64c0.3-0.4,0.8-0.4,1.1-0.2
	c0.4,0.3,0.4,0.8,0.2,1.1c-0.3,0.4-0.8,0.4-1.1,0.2C324.6,64.8,324.5,64.3,324.7,64z M323,66.4c0.3-0.4,0.8-0.4,1.1-0.2
	c0.4,0.3,0.4,0.8,0.2,1.1c-0.3,0.4-0.8,0.4-1.1,0.2C322.8,67.2,322.7,66.7,323,66.4z M321.2,68.8c0.3-0.4,0.8-0.4,1.1-0.2
	s0.4,0.8,0.2,1.1c-0.3,0.4-0.8,0.4-1.1,0.2C321,69.7,321,69.1,321.2,68.8z M319.5,71.2c0.3-0.4,0.8-0.4,1.1-0.2s0.4,0.8,0.2,1.1
	c-0.3,0.4-0.8,0.4-1.1,0.2S319.2,71.6,319.5,71.2z M317.7,73.6c0.3-0.4,0.8-0.4,1.1-0.2s0.4,0.8,0.2,1.1s-0.8,0.4-1.1,0.2
	S317.4,74,317.7,73.6z M315.9,76c0.3-0.4,0.8-0.4,1.1-0.2s0.4,0.8,0.2,1.1s-0.8,0.4-1.1,0.2S315.7,76.4,315.9,76z M314.2,78.4
	c0.3-0.4,0.8-0.4,1.1-0.2s0.4,0.8,0.2,1.1s-0.8,0.4-1.1,0.2S313.9,78.8,314.2,78.4z M312.4,80.8c0.3-0.4,0.8-0.4,1.1-0.2
	s0.4,0.8,0.2,1.1s-0.8,0.4-1.1,0.2S312.2,81.2,312.4,80.8z M310.7,83.2c0.3-0.4,0.8-0.4,1.1-0.2s0.4,0.8,0.2,1.1s-0.8,0.4-1.1,0.2
	C310.5,84.1,310.4,83.6,310.7,83.2z M308.9,85.6c0.3-0.4,0.8-0.4,1.1-0.2s0.4,0.8,0.2,1.1s-0.8,0.4-1.1,0.2
	C308.7,86.5,308.6,86,308.9,85.6z M309.2,90.5c0.4,0.3,0.4,0.8,0.2,1.1c-0.3,0.4-0.8,0.4-1.1,0.2c-0.4-0.3-0.4-0.8-0.2-1.1
	C308.3,90.3,308.8,90.2,309.2,90.5z M307.1,88.1c0.3-0.4,0.8-0.4,1.1-0.2s0.4,0.8,0.2,1.1s-0.8,0.4-1.1,0.2S306.9,88.4,307.1,88.1z
	 M304.9,93.8c-0.3,0.4-0.8,0.4-1.1,0.2s-0.4-0.8-0.2-1.1c0.3-0.4,0.8-0.4,1.1-0.2S305.2,93.5,304.9,93.8z M305.4,90.5
	c0.3-0.4,0.8-0.4,1.1-0.2s0.4,0.8,0.2,1.1s-0.8,0.4-1.1,0.2C305.2,91.3,305.1,90.8,305.4,90.5z M306.3,93.1c0.3-0.4,0.8-0.4,1.1-0.2
	s0.4,0.8,0.2,1.1c-0.3,0.4-0.8,0.4-1.1,0.2S306,93.4,306.3,93.1z M308.4,96.4c-0.3,0.4-0.8,0.4-1.1,0.2s-0.4-0.8-0.2-1.1
	c0.3-0.4,0.8-0.4,1.1-0.2C308.6,95.5,308.6,96,308.4,96.4z M308.9,93c0.3-0.4,0.8-0.4,1.1-0.2s0.4,0.8,0.2,1.1s-0.8,0.4-1.1,0.2
	C308.7,93.9,308.6,93.4,308.9,93z M311.1,96.6c-0.3,0.4-0.8,0.4-1.1,0.2s-0.4-0.8-0.2-1.1c0.3-0.4,0.8-0.4,1.1-0.2
	S311.3,96.2,311.1,96.6z M311.5,93.2c0.3-0.4,0.8-0.4,1.1-0.2s0.4,0.8,0.2,1.1c-0.3,0.4-0.8,0.4-1.1,0.2
	C311.3,94.1,311.3,93.6,311.5,93.2z M320.3,105.1c-0.2,0.2-0.5,0.3-0.7,0.1l-7.3-5.3c-0.2-0.2-0.3-0.5-0.1-0.7s0.5-0.3,0.7-0.1
	l7.3,5.3C320.4,104.5,320.4,104.8,320.3,105.1z M321.6,103.3c-0.2,0.2-0.5,0.3-0.7,0.1l-7.3-5.3c-0.2-0.2-0.3-0.5-0.1-0.7
	s0.5-0.3,0.7-0.1l7.3,5.3C321.7,102.8,321.7,103.1,321.6,103.3z M322.9,101.5c-0.2,0.2-0.5,0.3-0.7,0.1l-7.3-5.3
	c-0.2-0.2-0.3-0.5-0.1-0.7s0.5-0.3,0.7-0.1l7.3,5.3C323,101,323,101.3,322.9,101.5z M324.1,99.8c-0.2,0.2-0.5,0.3-0.7,0.1l-7.3-5.3
	c-0.2-0.2-0.3-0.5-0.1-0.7s0.5-0.3,0.7-0.1l7.3,5.3C324.3,99.2,324.3,99.6,324.1,99.8z M325.4,98c-0.2,0.2-0.5,0.3-0.7,0.1l-7.3-5.3
	c-0.2-0.2-0.3-0.5-0.1-0.7s0.5-0.3,0.7-0.1l7.3,5.3C325.5,97.5,325.6,97.8,325.4,98z M326.7,96.3c-0.2,0.2-0.5,0.3-0.7,0.1l-7.3-5.3
	c-0.2-0.2-0.3-0.5-0.1-0.7s0.5-0.3,0.7-0.1l7.3,5.3C326.8,95.7,326.9,96,326.7,96.3z M328,94.5c-0.2,0.2-0.5,0.3-0.7,0.1l-7.3-5.3
	c-0.2-0.2-0.3-0.5-0.1-0.7s0.5-0.3,0.7-0.1l7.3,5.3C328.1,94,328.2,94.3,328,94.5z M329.3,92.7c-0.2,0.2-0.5,0.3-0.7,0.1l-7.3-5.3
	c-0.2-0.2-0.3-0.5-0.1-0.7s0.5-0.3,0.7-0.1l7.3,5.3C329.4,92.2,329.5,92.5,329.3,92.7z M330.6,91c-0.2,0.2-0.5,0.3-0.7,0.1l-7.3-5.3
	c-0.2-0.2-0.3-0.5-0.1-0.7s0.5-0.3,0.7-0.1l7.3,5.3C330.7,90.4,330.7,90.8,330.6,91z M331.9,89.2c-0.2,0.2-0.5,0.3-0.7,0.1l-7.3-5.3
	c-0.2-0.2-0.3-0.5-0.1-0.7s0.5-0.3,0.7-0.1l7.3,5.3C332,88.7,332,89,331.9,89.2z M333.1,87.5c-0.2,0.2-0.5,0.3-0.7,0.1l-7.3-5.3
	c-0.2-0.2-0.3-0.5-0.1-0.7s0.5-0.3,0.7-0.1l7.3,5.3C333.3,86.9,333.3,87.2,333.1,87.5z M334.4,85.7c-0.2,0.2-0.5,0.3-0.7,0.1
	l-7.3-5.3c-0.2-0.2-0.3-0.5-0.1-0.7s0.5-0.3,0.7-0.1l7.3,5.3C334.5,85.2,334.6,85.5,334.4,85.7z M335.7,84c-0.2,0.2-0.5,0.3-0.7,0.1
	l-7.3-5.3c-0.2-0.2-0.3-0.5-0.1-0.7s0.5-0.3,0.7-0.1l7.3,5.3C335.8,83.4,335.9,83.7,335.7,84z M337,82.2c-0.2,0.2-0.5,0.3-0.7,0.1
	L329,77c-0.2-0.2-0.3-0.5-0.1-0.7s0.5-0.3,0.7-0.1l7.3,5.3C337.1,81.7,337.2,82,337,82.2z M338.3,80.4c-0.2,0.2-0.5,0.3-0.7,0.1
	l-7.3-5.3c-0.2-0.2-0.3-0.5-0.1-0.7s0.5-0.3,0.7-0.1l7.3,5.3C338.4,79.9,338.5,80.2,338.3,80.4z M339.6,78.7
	c-0.2,0.2-0.5,0.3-0.7,0.1l-7.3-5.3c-0.2-0.2-0.3-0.5-0.1-0.7s0.5-0.3,0.7-0.1l7.3,5.3C339.7,78.1,339.7,78.4,339.6,78.7z
	 M340.9,76.9c-0.2,0.2-0.5,0.3-0.7,0.1l-7.3-5.3c-0.2-0.2-0.3-0.5-0.1-0.7s0.5-0.3,0.7-0.1l7.3,5.3C341,76.4,341,76.7,340.9,76.9z
	 M342.2,75.2c-0.2,0.2-0.5,0.3-0.7,0.1l-7.3-5.3c-0.2-0.2-0.3-0.5-0.1-0.7s0.5-0.3,0.7-0.1l7.3,5.3
	C342.3,74.6,342.3,74.9,342.2,75.2z M343.4,73.4c-0.2,0.2-0.5,0.3-0.7,0.1l-7.3-5.3c-0.2-0.2-0.3-0.5-0.1-0.7s0.5-0.3,0.7-0.1
	l7.3,5.3C343.6,72.9,343.6,73.2,343.4,73.4z M344.7,71.6c-0.2,0.2-0.5,0.3-0.7,0.1l-7.3-5.3c-0.2-0.2-0.3-0.5-0.1-0.7
	s0.5-0.3,0.7-0.1l7.3,5.3C344.8,71.1,344.9,71.4,344.7,71.6z M346,69.9c-0.2,0.2-0.5,0.3-0.7,0.1l-7.3-5.3c-0.2-0.2-0.3-0.5-0.1-0.7
	s0.5-0.3,0.7-0.1l7.3,5.3C346.1,69.3,346.2,69.7,346,69.9z M347.3,68.1c-0.2,0.2-0.5,0.3-0.7,0.1l-7.3-5.3c-0.2-0.2-0.3-0.5-0.1-0.7
	s0.5-0.3,0.7-0.1l7.3,5.3C347.4,67.6,347.5,67.9,347.3,68.1z M348.6,66.4c-0.2,0.2-0.5,0.3-0.7,0.1l-7.3-5.3
	c-0.2-0.2-0.3-0.5-0.1-0.7s0.5-0.3,0.7-0.1l7.3,5.3C348.7,65.8,348.8,66.1,348.6,66.4z"/>
<path class="st7" d="M268.2,51.1l6.7-35c0.3-1.7,2-2.8,3.7-2.5l31.1,5.9c1.7,0.3,2.8,2,2.5,3.7l-5.7,30.2c-0.2,1-1.1,2.3-1.9,2.9
	l-2.1,1.3L268.2,51.1z"/>
<path class="st7" d="M266,62.3l2.1-11.2l34.2,6.5l-2,1.3l-7.1,4.5L286,68c-0.9,0.6-2.4,0.9-3.5,0.7L268.6,66
	C266.9,65.6,265.7,64,266,62.3z M270.2,60.2l-0.5,2.7c-0.1,0.3,0.2,0.7,0.5,0.7l10.7,2c1,0.2,2.6-0.1,3.5-0.7l1.7-1.1
	c0.9-0.6,0.8-1.2-0.3-1.4L271,59.7C270.6,59.6,270.3,59.9,270.2,60.2L270.2,60.2z"/>
<path class="st8" d="M297.3,61.9l-3.5,2.2l-0.5-0.7l7.1-4.5l0.6,0.7L297.3,61.9z"/>
<path class="st9" d="M293.1,65.4c-0.2-0.4-0.2-0.8,0.1-1l0.6-0.4l3.5-2.2l3.6-2.2l0.5-0.3c0.3-0.2,0.7,0,1,0.3l1.9,3.1
	c0.2,0.4,0.2,0.8-0.1,1s-0.5,0.3-0.5,0.3l-7.4,4.6c0,0-0.2,0.1-0.5,0.3s-0.7,0-0.9-0.4L293.1,65.4z"/>
<path class="st10" d="M301.5,60.6c0.1,0,0.2,0.1,0.2,0.1l1.4,2.3c0.1,0.1,0,0.3-0.1,0.4s-0.3,0-0.4-0.1l-1.4-2.3
	c-0.1-0.1,0-0.3,0.1-0.4H301.5z"/>
<path class="st10" d="M300.2,61.5c0.1,0,0.2,0.1,0.2,0.1l1.4,2.3c0.1,0.1,0,0.3-0.1,0.4s-0.3,0-0.4-0.1l-1.4-2.3
	c-0.1-0.1,0-0.3,0.1-0.4C300,61.5,300.1,61.4,300.2,61.5L300.2,61.5z"/>
<path class="st10" d="M298.8,62.3c0.1,0,0.2,0.1,0.2,0.1l1.4,2.3c0.1,0.1,0,0.3-0.1,0.4s-0.3,0-0.4-0.1l-1.4-2.3
	c-0.1-0.1,0-0.3,0.1-0.4H298.8z"/>
<path class="st10" d="M297.4,63.2c0.1,0,0.2,0.1,0.2,0.1l1.4,2.3c0.1,0.1,0,0.3-0.1,0.4s-0.3,0-0.4-0.1l-1.4-2.3
	c-0.1-0.1,0-0.3,0.1-0.4S297.3,63.1,297.4,63.2L297.4,63.2z"/>
<path class="st10" d="M296.1,64c0.1,0,0.2,0.1,0.2,0.1l1.4,2.3c0.1,0.1,0,0.3-0.1,0.4s-0.3,0-0.4-0.1l-1.4-2.3
	c-0.1-0.1,0-0.3,0.1-0.4H296.1z"/>
<path class="st10" d="M294.7,64.8c0.1,0,0.2,0.1,0.2,0.1l1.4,2.3c0.1,0.1,0,0.3-0.1,0.4s-0.3,0-0.4-0.1l-1.4-2.3
	c-0.1-0.1,0-0.3,0.1-0.4H294.7z"/>
<path class="st11" d="M300.5,50.7c-0.2,1.1-2.6,2.2-3.5,2.9l-2.2,1.4l-2.2,1.4l-7.6,4.9l-1.4,0.9l2.4,0.5c1,0.2,1.1,0.8,0.3,1.4
	l-1.7,1.1c-0.9,0.6-2.4,0.8-3.5,0.7l-2.4-0.4l-1.5,1c-1,0.6-2.6,0.9-3.7,0.7l9.3,1.8c1,0.2,2.6-0.1,3.5-0.7l7.2-4.6l7.1-4.5l2-1.3
	l2.1-1.3c0.9-0.6,1.7-1.8,1.9-2.9l5.7-30.2c0.3-1.7-0.8-3.4-2.5-3.7l-3.2-0.6L300.5,50.7z"/>
<path class="st7" d="M271,59.4l14.9,2.8c0.8,0.2,1,0.6,1.1,0.8c0,0.2,0,0.7-0.7,1.1l-1.7,1.1c-1,0.6-2.6,0.9-3.7,0.7l-10.7-2
	c-0.5-0.1-0.8-0.6-0.7-1.1l0.5-2.7C270,59.6,270.5,59.3,271,59.4L271,59.4z M281,65.3c1,0.2,2.4-0.1,3.2-0.6l1.7-1.1
	c0.4-0.2,0.5-0.4,0.4-0.5c0-0.1-0.2-0.2-0.6-0.3L270.9,60c-0.2,0-0.3,0.1-0.4,0.3L270,63c0,0.2,0.1,0.3,0.3,0.4L281,65.3z"/>
<path class="st12" d="M306.5,43.2c0.5,0.1,0.8,0.6,0.7,1.1l-1.7,9c-0.2,0.8-0.9,1.9-1.5,2.3l-11.2,7.1c-0.4,0.3-1,0.1-1.3-0.3
	s-0.1-1,0.3-1.3L303,54c0.3-0.2,0.7-0.8,0.7-1.1l1.7-9C305.5,43.4,306,43.1,306.5,43.2L306.5,43.2z"/>
<path class="st13" d="M307.6,37.7c0.5,0.1,0.8,0.6,0.7,1.1l-0.2,1.1c-0.1,0.5-0.6,0.8-1.1,0.7s-0.8-0.6-0.7-1.1l0.2-1.1
	C306.6,37.9,307.1,37.6,307.6,37.7z"/>
<path class="st14" d="M324.9,175.5l-40,20.2l-29.7-54.5l43.5-21.9L324.9,175.5z"/>
<path class="st15" d="M292.9,191.7l-6.2,3L257,140.3l9.8-4.4L292.9,191.7z"/>
<path class="st16" d="M255.5,141.7l3.3,6l43-21.8l-2.9-6.2L255.5,141.7z"/>
<path class="st14" d="M253.7,141.8l46.2-23.3l3.1,6.1l-46.2,23.3L253.7,141.8z"/>
<path class="st17" d="M255.5,145.2c-4.4-8.5-15.2-30.1,7-41.3c24.7-12.5,35.9,10.9,39.5,17.7"/>
<path d="M257.3,105.7l10.3-5.2l1,2.1l-10.3,5.2L257.3,105.7z"/>
<path class="st18" d="M344.1,166.3c0,0-2.5,1.7-4.2,10.5s-4.9-5.2-4.9-5.2l2.4-7.3L344.1,166.3z"/>
<path class="st19" d="M344.1,166.3c0,0-2.5,1.7-4.2,10.5s-4.9-5.2-4.9-5.2l2.4-7.3L344.1,166.3z"/>
<path class="st18" d="M256.2,166.3c0,0,2.5,1.7,4.2,10.5s4.9-5.2,4.9-5.2l-2.4-7.3L256.2,166.3z"/>
<path class="st19" d="M256.2,166.3c0,0,2.5,1.7,4.2,10.5s4.9-5.2,4.9-5.2l-2.4-7.3L256.2,166.3z"/>
<path class="st18" d="M299.9,162.8h0.4h0.4l39.6,0.2l-5.1,109.8c0,0-1,9.4-9.9,9.4c-7.7,0-21.1,0-24.6,0c-0.5,0-0.9,0-0.9,0
	c-3.5,0-16.9,0-24.6,0c-8.9,0-9.9-9.4-9.9-9.4l-5-109.8L299.9,162.8z"/>
<path class="st19" d="M299.9,162.8h0.4h0.4l39.6,0.2l-5.1,109.8c0,0-1,9.4-9.9,9.4c-7.7,0-21.1,0-24.6,0c-0.5,0-0.9,0-0.9,0
	c-3.5,0-16.9,0-24.6,0c-8.9,0-9.9-9.4-9.9-9.4l-5-109.8L299.9,162.8z"/>
<path class="st18" d="M299.9,167.1h0.4h0.4l39.6,0.2l-5.1,105.8c0,0-1,9.1-9.9,9.1c-7.7,0-21.1,0-24.6,0c-0.5,0-0.9,0-0.9,0
	c-3.5,0-16.9,0-24.6,0c-8.9,0-9.9-9.1-9.9-9.1l-5.1-105.8L299.9,167.1z"/>
<path class="st18" d="M333,166.4c0,0-0.2,10.9-3.4,10.9s-3.6-10.7-3.6-10.7L333,166.4z"/>
<path class="st19" d="M333,166.4c0,0-0.2,10.9-3.4,10.9s-3.6-10.7-3.6-10.7L333,166.4z"/>
<path class="st18" d="M331.1,166.5c0,0,0.4,10.4-1.7,10.4s-1.7-10.3-1.7-10.3L331.1,166.5z"/>
<path class="st20" d="M331.1,166.5c0,0,0.4,10.4-1.7,10.4s-1.7-10.3-1.7-10.3L331.1,166.5z"/>
<path class="st18" d="M313.4,166.4c0,0-0.2,10.9-3.4,10.9s-3.6-10.7-3.6-10.7L313.4,166.4z"/>
<path class="st19" d="M313.4,166.4c0,0-0.2,10.9-3.4,10.9s-3.6-10.7-3.6-10.7L313.4,166.4z"/>
<path class="st18" d="M311.5,166.5c0,0,0.4,10.4-1.7,10.4s-1.7-10.3-1.7-10.3L311.5,166.5z"/>
<path class="st20" d="M311.5,166.5c0,0,0.4,10.4-1.7,10.4s-1.7-10.3-1.7-10.3L311.5,166.5z"/>
<path class="st18" d="M293.9,166.4c0,0-0.2,10.9-3.4,10.9s-3.6-10.7-3.6-10.7L293.9,166.4z"/>
<path class="st19" d="M293.9,166.4c0,0-0.2,10.9-3.4,10.9s-3.6-10.7-3.6-10.7L293.9,166.4z"/>
<path class="st18" d="M291.9,166.5c0,0,0.4,10.4-1.7,10.4s-1.7-10.3-1.7-10.3L291.9,166.5z"/>
<path class="st20" d="M291.9,166.5c0,0,0.4,10.4-1.7,10.4s-1.7-10.3-1.7-10.3L291.9,166.5z"/>
<path class="st18" d="M274.3,166.4c0,0-0.2,10.9-3.4,10.9s-3.6-10.7-3.6-10.7L274.3,166.4z"/>
<path class="st19" d="M274.3,166.4c0,0-0.2,10.9-3.4,10.9s-3.6-10.7-3.6-10.7L274.3,166.4z"/>
<path class="st21" d="M272.4,166.5c0,0,0.4,10.4-1.7,10.4s-1.7-10.3-1.7-10.3L272.4,166.5z"/>
<path class="st20" d="M272.4,166.5c0,0,0.4,10.4-1.7,10.4s-1.7-10.3-1.7-10.3L272.4,166.5z"/>
<path class="st18" d="M258.4,158.1c0,0-2.1,0.7-2.1,3.2s0.1,5,0.1,5h42.4h2.8H344c0,0,0.1-2.5,0.1-5s-2.1-3.2-2.1-3.2H258.4z"/>
<path class="st22" d="M257,159.7c0,0.4,19,0.7,42.4,0.7s42.4-0.3,42.4-0.7s-19.3-0.4-42.7-0.4S257,159.3,257,159.7L257,159.7z"/>
<path class="st23" d="M300.7,282.2c-0.5,0-0.9,0-0.9,0c-3.5,0-16.9,0-24.6,0c-8.9,0-9.9-9.1-9.9-9.1l-1.4-28.9
	c3.5,7.9,13.1,22.2,36.1,22.2s32.8-13.2,36.4-20.4l-1.3,27.1c0,0-1,9.1-9.9,9.1C317.6,282.2,304.2,282.2,300.7,282.2L300.7,282.2z"
	/>
<g>
	<path class="st24" d="M307.4,207c0,0-4.9-9.3-6-11.2c-1.2-1.9-3-5.3-5.3-5.8l9.1-0.2c0,0,2.1-0.6,5.3,4.9c2.6,4.6,4.3,7.9,4.3,7.9
		L307.4,207z"/>
	<path class="st24" d="M300.4,195.9c0,0-1.9-4.4-5.2-5.4c0,0-1.6-0.2-3.5,3.1c-2,3.5-2.2,4.2-2.2,4.2l-2.6-1.3l3.1,8l9.2-0.7
		l-2.8-1.8L300.4,195.9z"/>
	<path class="st24" d="M293.5,207.3c0,0-5.4,8.9-6.5,11c-1.1,2-3,5.3-2.2,7.6l-4.9-7.7c0,0-1.6-1.5,1.5-7c2.6-4.6,4.5-7.8,4.5-7.8
		L293.5,207.3z"/>
	<path class="st24" d="M287.6,219c0,0-2.8,3.9-2,7.3c0,0,0.7,1.5,4.4,1.4c4.1-0.1,4.8-0.2,4.8-0.2l0.2,2.9l5.3-6.8l-5.4-7.5
		l-0.1,3.3L287.6,219z"/>
	<path class="st24" d="M300.8,219.4c0,0,10.5,0.2,12.7,0.1c2.3-0.1,6.1-0.1,7.6-1.9l-4.2,8.1c0,0-0.4,2.2-6.8,2.3c-5.3,0.1-9,0-9,0
		L300.8,219.4z"/>
	<path class="st24" d="M313.9,218.6c0,0,4.8,0.4,7.3-2c0,0,1-1.3-1-4.6c-2.1-3.5-2.6-4-2.6-4l2.4-1.6l-8.6-1.1l-3.8,8.4l2.9-1.6
		L313.9,218.6z"/>
	<path class="st22" d="M158.3,159.7c0,0.4,19,0.7,42.4,0.7s42.4-0.3,42.4-0.7s-19.3-0.4-42.7-0.4S158.3,159.3,158.3,159.7
		L158.3,159.7z"/>
</g>
<path class="st25" d="M197.9,185.2l-32.2-16l20.6-41.1l32.8,16.4L197.9,185.2z"/>
<path class="st26" d="M196.3,179.8l-13-6.4l2.5-5.3l13.4,6.9L196.3,179.8z"/>
<path class="st26" d="M180.8,171.7l2.6-5l-10.5-5.1l-2.3,4.6L180.8,171.7z"/>
<path class="st26" d="M200.8,172.3L174,158.9l1.1-1.9l26.8,13.8L200.8,172.3z"/>
<path class="st26" d="M202.7,168.9l-12.6-6.3l0.7-1.6l12.8,6.7L202.7,168.9z"/>
<path class="st26" d="M204.8,165.3l-12.6-6.2l0.6-1.6l12.9,6.7L204.8,165.3z"/>
<path class="st26" d="M198.5,141l-11.7-5.8l0.6-1.4l11.9,6.1L198.5,141z"/>
<path class="st26" d="M206.3,162.2l-12.6-6.3l0.6-1.6l12.9,6.7L206.3,162.2z"/>
<path class="st6" d="M188.7,161.3l8.8-18.2l-11.9-6.5l-8.8,18.5L188.7,161.3z"/>
<path class="st27" d="M207.7,159.1l-12.2-6.4l4.9-11.3l12.3,7L207.7,159.1z"/>
<path class="st28" d="M148.2,73.5l28.7-21.6l27.5,36.8l-29.3,22L148.2,73.5z"/>
<g>
	<path class="st29" d="M153.7,74.5l11.6-8.8l3.6,4.6l-12.2,8.9L153.7,74.5z"/>
	<path class="st29" d="M167.9,64.2l3.3,4.6l9.3-7.2l-3.1-4L167.9,64.2z"/>
	<path class="st29" d="M158.5,81.8l23.9-17.9l1.2,1.8l-24.3,17.8L158.5,81.8z"/>
	<path class="st29" d="M160.6,85.1l11.2-8.5l1.2,1.3l-11.8,8.5L160.6,85.1z"/>
	<path class="st29" d="M162.9,88.5l11.2-8.4l1.1,1.2l-11.7,8.5L162.9,88.5z"/>
	<path class="st29" d="M187.5,93.8l10.3-7.9l1.1,1.2L188.1,95L187.5,93.8z"/>
	<path class="st29" d="M165,91.3l11.2-8.5l1.2,1.3l-11.8,8.5L165,91.3z"/>
	<path class="st29" d="M173.6,76L186,91.9l11.1-7.6l-12.6-16.2L173.6,76z"/>
	<path class="st29" d="M167.1,93.9l11.2-8l7.9,9.5l-11.8,7.8L167.1,93.9z"/>
</g>
<path class="st30" d="M216.1,20.7l-16.3,25.9L230.6,61l17.8-24.8L216.1,20.7z"/>
<path class="st31" d="M185.1,26.3l14.7,20.3l16.3-25.9L202.2,1.8L185.1,26.3z"/>
<path class="st32" d="M248.4,36.2l-12.1-18.6L202.2,1.8l13.9,18.9L248.4,36.2z"/>
<path class="st33" d="M202.2,1.8L186.5,0l13.4,20.1l16.2,0.6L202.2,1.8z"/>
<path class="st34" d="M236.3,17.6l-7.7,13.7l19.8,4.9L236.3,17.6z"/>
<path class="st31" d="M248.4,36.2l7.4,12.9l-35.7-15.7l-4-12.7L248.4,36.2z"/>
<path class="st35" d="M248.1,93.4l-26.4-8.2l-11.8,38l26.4,8.2c0.7,0.2,1.5-0.1,1.7-0.8L249,95C249.2,94.3,248.8,93.6,248.1,93.4z"
	/>
<path class="st36" d="M209.8,123.2l-1.6-3l10.4-33.4l3-1.6L209.8,123.2z"/>
<path class="st36" d="M224.7,100l0.8-2.6l14,4.4l-0.8,2.6L224.7,100z"/>
<path class="st36" d="M223.2,105.1l0.8-2.6l14,4.4l-0.8,2.6L223.2,105.1z"/>
<path class="st18" d="M245.4,166.3c0,0-2.5,1.7-4.2,10.5s-4.9-5.2-4.9-5.2l2.4-7.3L245.4,166.3z"/>
<path class="st19" d="M245.4,166.3c0,0-2.5,1.7-4.2,10.5s-4.9-5.2-4.9-5.2l2.4-7.3L245.4,166.3z"/>
<path class="st18" d="M157.5,166.3c0,0,2.5,1.7,4.2,10.5s4.9-5.2,4.9-5.2l-2.4-7.3L157.5,166.3z"/>
<path class="st19" d="M157.5,166.3c0,0,2.5,1.7,4.2,10.5s4.9-5.2,4.9-5.2l-2.4-7.3L157.5,166.3z"/>
<path class="st18" d="M201.1,162.8h0.4h0.4l39.6,0.2l-5.1,109.8c0,0-1,9.4-9.9,9.4c-7.7,0-21.1,0-24.6,0c-0.5,0-0.9,0-0.9,0
	c-3.5,0-16.9,0-24.6,0c-8.9,0-9.9-9.4-9.9-9.4l-5-109.8L201.1,162.8z"/>
<path class="st19" d="M201.1,162.8h0.4h0.4l39.6,0.2l-5.1,109.8c0,0-1,9.4-9.9,9.4c-7.7,0-21.1,0-24.6,0c-0.5,0-0.9,0-0.9,0
	c-3.5,0-16.9,0-24.6,0c-8.9,0-9.9-9.4-9.9-9.4l-5-109.8L201.1,162.8z"/>
<path class="st18" d="M201.1,167.1h0.4h0.4l39.6,0.2l-5.1,105.8c0,0-1,9.1-9.9,9.1c-7.7,0-21.1,0-24.6,0c-0.5,0-0.9,0-0.9,0
	c-3.5,0-16.9,0-24.6,0c-8.9,0-9.9-9.1-9.9-9.1l-5.1-105.8L201.1,167.1z"/>
<path class="st18" d="M234.2,166.4c0,0-0.2,10.9-3.4,10.9s-3.6-10.7-3.6-10.7L234.2,166.4z"/>
<path class="st19" d="M234.2,166.4c0,0-0.2,10.9-3.4,10.9s-3.6-10.7-3.6-10.7L234.2,166.4z"/>
<path class="st18" d="M232.3,166.5c0,0,0.4,10.4-1.7,10.4s-1.7-10.3-1.7-10.3L232.3,166.5z"/>
<path class="st20" d="M232.3,166.5c0,0,0.4,10.4-1.7,10.4s-1.7-10.3-1.7-10.3L232.3,166.5z"/>
<path class="st18" d="M214.7,166.4c0,0-0.2,10.9-3.4,10.9s-3.6-10.7-3.6-10.7L214.7,166.4z"/>
<path class="st19" d="M214.7,166.4c0,0-0.2,10.9-3.4,10.9s-3.6-10.7-3.6-10.7L214.7,166.4z"/>
<path class="st18" d="M212.8,166.5c0,0,0.4,10.4-1.7,10.4s-1.7-10.3-1.7-10.3L212.8,166.5z"/>
<path class="st20" d="M212.8,166.5c0,0,0.4,10.4-1.7,10.4s-1.7-10.3-1.7-10.3L212.8,166.5z"/>
<path class="st18" d="M195.1,166.4c0,0-0.2,10.9-3.4,10.9s-3.6-10.7-3.6-10.7L195.1,166.4z"/>
<path class="st19" d="M195.1,166.4c0,0-0.2,10.9-3.4,10.9s-3.6-10.7-3.6-10.7L195.1,166.4z"/>
<path class="st18" d="M193.2,166.5c0,0,0.4,10.4-1.7,10.4s-1.7-10.3-1.7-10.3L193.2,166.5z"/>
<path class="st20" d="M193.2,166.5c0,0,0.4,10.4-1.7,10.4s-1.7-10.3-1.7-10.3L193.2,166.5z"/>
<path class="st18" d="M175.5,166.4c0,0-0.2,10.9-3.4,10.9s-3.6-10.7-3.6-10.7L175.5,166.4z"/>
<path class="st19" d="M175.5,166.4c0,0-0.2,10.9-3.4,10.9s-3.6-10.7-3.6-10.7L175.5,166.4z"/>
<path class="st21" d="M173.6,166.5c0,0,0.4,10.4-1.7,10.4s-1.7-10.3-1.7-10.3L173.6,166.5z"/>
<path class="st20" d="M173.6,166.5c0,0,0.4,10.4-1.7,10.4s-1.7-10.3-1.7-10.3L173.6,166.5z"/>
<path class="st18" d="M159.7,158.1c0,0-2.1,0.7-2.1,3.2s0.1,5,0.1,5h42.4h2.8h42.4c0,0,0.1-2.5,0.1-5s-2.1-3.2-2.1-3.2H159.7z"/>
<path class="st23" d="M202,282.2c-0.5,0-0.9,0-0.9,0c-3.5,0-16.9,0-24.6,0c-8.9,0-9.9-9.1-9.9-9.1l-1.4-28.9
	c3.5,7.9,13.1,22.2,36.1,22.2s32.8-13.2,36.4-20.4l-1.3,27.1c0,0-1,9.1-9.9,9.1C218.9,282.2,205.4,282.2,202,282.2L202,282.2z"/>
<path class="st24" d="M208.6,207c0,0-4.9-9.3-6-11.2c-1.2-1.9-3-5.3-5.3-5.8l9.1-0.2c0,0,2.1-0.6,5.3,4.9c2.6,4.6,4.3,7.9,4.3,7.9
	L208.6,207z"/>
<path class="st24" d="M201.7,195.9c0,0-1.9-4.4-5.2-5.4c0,0-1.6-0.2-3.5,3.1c-2,3.5-2.2,4.2-2.2,4.2l-2.6-1.3l3.1,8l9.2-0.7
	l-2.8-1.8L201.7,195.9z"/>
<path class="st24" d="M194.7,207.3c0,0-5.4,8.9-6.5,11c-1.1,2-3,5.3-2.2,7.6l-4.9-7.7c0,0-1.6-1.5,1.5-7c2.6-4.6,4.5-7.8,4.5-7.8
	L194.7,207.3z"/>
<path class="st24" d="M188.8,219c0,0-2.8,3.9-2,7.3c0,0,0.7,1.5,4.4,1.4c4.1-0.1,4.8-0.2,4.8-0.2l0.2,2.9l5.3-6.8l-5.4-7.5l-0.1,3.3
	L188.8,219z"/>
<path class="st24" d="M202,219.4c0,0,10.5,0.2,12.7,0.1c2.3-0.1,6.1-0.1,7.6-1.9l-4.2,8.1c0,0-0.4,2.2-6.8,2.3c-5.3,0.1-9,0-9,0
	L202,219.4z"/>
<path class="st24" d="M215.1,218.6c0,0,4.8,0.4,7.3-2c0,0,1-1.3-1-4.6c-2.1-3.5-2.6-4-2.6-4l2.4-1.6l-8.6-1.1l-3.8,8.4l2.9-1.6
	L215.1,218.6z"/>
<path class="st37" d="M137.9,139.2l-2.2,0.8c-3.1,1.2-7-1.6-8.7-6.1l-9.8-25.8c0,0-0.6-9.2,2.5-10.4l2.2-0.8
	c3.1-1.2,8.7,6.1,8.7,6.1l9.8,25.8C142.1,133.3,141,138,137.9,139.2L137.9,139.2z"/>
<path class="st38" d="M116.9,94.5l5-1.9l1.5,3.9l-5,1.9L116.9,94.5z"/>
<path class="st39" d="M121,99l1.6,7.4l10.2,27c0,0,1.7,3.1,3.5,3.9c1.8,0.7-4.3,3.3-7-2.1c-2.6-5.4-10.5-27.8-10.5-27.8l0.5-8.2
	L121,99z"/>
<path class="st40" d="M75.8,169l-2.7-1.6c-3.7-2.2-5.1-6.9-3-10.5L82,136.3c0,0,6.9-4.8,10.6-2.6l2.7,1.6c3.7,2.2,3,10.5,3,10.5
	l-11.9,20.6C84.3,170,79.5,171.2,75.8,169z"/>
<path class="st6" d="M90.8,132.8l1.8-3.1l6.1,3.5l-1.8,3.1L90.8,132.8z"/>
<path class="st39" d="M92.7,135.4l-4.6,4.8l-12.5,21.6c0,0-1,2.9,0,4.9c1.1,1.9-6.6-2.3-4.7-7.1s12.9-22.2,12.9-22.2l7-3.4
	L92.7,135.4z"/>
<path class="st41" d="M133.7,158.9l-1.5,4.4c-2,6.1-6.1,10.2-9.2,9.2l-17.4-5.8c0,0-5-3.7-3-9.8l3.8-11.2c2-6.1,7.9-5.5,7.9-5.5
	l17.4,5.8C134.8,147.1,135.7,152.8,133.7,158.9L133.7,158.9z"/>
<path class="st27" d="M99.5,157.9l4.7-14.2l2.8,0.9l-4.7,14.2L99.5,157.9z"/>
<path class="st39" d="M104.6,156.4l4.6,2.7l17.6,5.8c0,0,2.3,0.1,3.8-1.5c1.4-1.6-1.3,7.2-5.2,6.7c-3.9-0.4-18.7-5.4-18.7-5.4
	l-3.2-5.1L104.6,156.4z"/>
<path class="st40" d="M58.2,130.6l-1.7-2.5c-2.4-3.4-1.7-8.1,1.6-10.4L97,89.4c0,0,8-1.4,10.4,2l1.7,2.5c2.4,3.4-1.6,10.4-1.6,10.4
	l-38.9,28.3C65.3,134.9,60.6,134,58.2,130.6z"/>
<path class="st42" d="M106.2,90l2.9-2l3.9,5.6l-2.9,2L106.2,90z"/>
<path class="st39" d="M106.7,93l-5.9,2.4L61,124.3c0,0-2.1,2.1-1.9,4.3c0.2,2.2-4.9-4.7-1.2-8.1c3.6-3.5,40.3-29.3,40.3-29.3
	l7.5-0.1L106.7,93z"/>
<path class="st43" d="M94,57.8l1.6-3.2c2.3-4.4,7.6-6.2,11.8-4l24,12.4c0,0,5.8,7.5,3.6,11.9l-1.6,3.2c-2.3,4.4-11.8,4-11.8,4
	l-24-12.4C93.4,67.5,91.7,62.1,94,57.8z"/>
<path class="st44" d="M132.1,80l3.7-7.1l3.6,1.9l-3.7,7.1L132.1,80z"/>
<path class="st39" d="M133,75.1l-5.7-4.9l-25.1-13c0,0-3.4-1-5.5,0.3s2.2-7.6,7.8-5.7s25.9,13.4,25.9,13.4l4.2,7.8L133,75.1z"/>
<path class="st40" d="M97.6,35l-2.7-3.7c-3.8-5.1-4.8-10.9-2.2-12.8l14.8-10.9c0,0,5.9-1.9,9.7,3.2l7,9.6c3.8,5.1-0.1,9.6-0.1,9.6
	l-14.8,10.9C106.6,42.8,101.4,40.1,97.6,35z"/>
<path class="st27" d="M115.7,9.4l2.3-1.7l8.9,12.1l-2.3,1.7L115.7,9.4z"/>
<path class="st39" d="M116.5,12.7l-4.8,2.2l-15,11c0,0-1.5,1.8-1,3.9s-5.1-5.2-2.5-8.1s15.2-12.1,15.2-12.1l6,0.3L116.5,12.7z"/>
<path class="st40" d="M79.8,84.1l-2.9,1.3c-4,1.7-8.9-0.7-11-5.5L54,52.9c0,0-0.5-10.1,3.4-11.8l2.9-1.3c4-1.7,11,5.5,11,5.5
	l11.9,27C85.3,77.1,83.7,82.4,79.8,84.1z"/>
<path class="st45" d="M54,38l6.4-2.8l1.8,4.1l-6.4,2.8L54,38z"/>
<path class="st39" d="M59.1,42.4l1.8,7.9l12.4,28.3c0,0,2,3.2,4.3,3.7S72,86.6,68.7,81C65.5,75.6,56,52,56,52l0.8-9.1L59.1,42.4z"/>
<path class="st18" d="M146.6,166.3c0,0-2.5,1.7-4.2,10.5s-4.9-5.2-4.9-5.2l2.4-7.3L146.6,166.3z"/>
<path class="st19" d="M146.6,166.3c0,0-2.5,1.7-4.2,10.5s-4.9-5.2-4.9-5.2l2.4-7.3L146.6,166.3z"/>
<path class="st18" d="M58.8,166.3c0,0,2.5,1.7,4.2,10.5c1.7,8.8,4.9-5.2,4.9-5.2l-2.4-7.3L58.8,166.3z"/>
<path class="st19" d="M58.8,166.3c0,0,2.5,1.7,4.2,10.5c1.7,8.8,4.9-5.2,4.9-5.2l-2.4-7.3L58.8,166.3z"/>
<path class="st18" d="M102.4,162.8h0.4h0.4l39.6,0.2l-5.1,109.8c0,0-1,9.4-9.9,9.4c-7.7,0-21.1,0-24.6,0c-0.5,0-0.9,0-0.9,0
	c-3.5,0-16.9,0-24.6,0c-8.9,0-9.9-9.4-9.9-9.4l-5-109.8L102.4,162.8z"/>
<path class="st19" d="M102.4,162.8h0.4h0.4l39.6,0.2l-5.1,109.8c0,0-1,9.4-9.9,9.4c-7.7,0-21.1,0-24.6,0c-0.5,0-0.9,0-0.9,0
	c-3.5,0-16.9,0-24.6,0c-8.9,0-9.9-9.4-9.9-9.4l-5-109.8L102.4,162.8z"/>
<path class="st18" d="M102.4,167.1h0.4h0.4l39.6,0.2l-5.1,105.8c0,0-1,9.1-9.9,9.1c-7.7,0-21.1,0-24.6,0c-0.5,0-0.9,0-0.9,0
	c-3.5,0-16.9,0-24.6,0c-8.9,0-9.9-9.1-9.9-9.1l-5.1-105.8L102.4,167.1z"/>
<path class="st18" d="M135.5,166.4c0,0-0.2,10.9-3.4,10.9s-3.6-10.7-3.6-10.7L135.5,166.4z"/>
<path class="st19" d="M135.5,166.4c0,0-0.2,10.9-3.4,10.9s-3.6-10.7-3.6-10.7L135.5,166.4z"/>
<path class="st18" d="M133.6,166.5c0,0,0.4,10.4-1.7,10.4s-1.7-10.3-1.7-10.3L133.6,166.5z"/>
<path class="st20" d="M133.6,166.5c0,0,0.4,10.4-1.7,10.4s-1.7-10.3-1.7-10.3L133.6,166.5z"/>
<path class="st18" d="M116,166.4c0,0-0.2,10.9-3.4,10.9s-3.6-10.7-3.6-10.7L116,166.4z"/>
<path class="st19" d="M116,166.4c0,0-0.2,10.9-3.4,10.9s-3.6-10.7-3.6-10.7L116,166.4z"/>
<path class="st18" d="M114,166.5c0,0,0.4,10.4-1.7,10.4s-1.7-10.3-1.7-10.3L114,166.5z"/>
<path class="st20" d="M114,166.5c0,0,0.4,10.4-1.7,10.4s-1.7-10.3-1.7-10.3L114,166.5z"/>
<path class="st18" d="M96.4,166.4c0,0-0.2,10.9-3.4,10.9s-3.6-10.7-3.6-10.7L96.4,166.4z"/>
<path class="st19" d="M96.4,166.4c0,0-0.2,10.9-3.4,10.9s-3.6-10.7-3.6-10.7L96.4,166.4z"/>
<path class="st18" d="M94.5,166.5c0,0,0.4,10.4-1.7,10.4s-1.7-10.3-1.7-10.3L94.5,166.5z"/>
<path class="st20" d="M94.5,166.5c0,0,0.4,10.4-1.7,10.4s-1.7-10.3-1.7-10.3L94.5,166.5z"/>
<path class="st18" d="M76.8,166.4c0,0-0.2,10.9-3.4,10.9s-3.6-10.7-3.6-10.7L76.8,166.4z"/>
<path class="st19" d="M76.8,166.4c0,0-0.2,10.9-3.4,10.9s-3.6-10.7-3.6-10.7L76.8,166.4z"/>
<path class="st21" d="M74.9,166.5c0,0,0.4,10.4-1.7,10.4s-1.7-10.3-1.7-10.3L74.9,166.5z"/>
<path class="st20" d="M74.9,166.5c0,0,0.4,10.4-1.7,10.4s-1.7-10.3-1.7-10.3L74.9,166.5z"/>
<path class="st18" d="M60.9,158.1c0,0-2.1,0.7-2.1,3.2s0.1,5,0.1,5h42.4h2.8h42.4c0,0,0.1-2.5,0.1-5s-2.1-3.2-2.1-3.2H60.9z"/>
<path class="st22" d="M59.5,159.7c0,0.4,19,0.7,42.4,0.7s42.4-0.3,42.4-0.7s-19.3-0.4-42.7-0.4S59.5,159.3,59.5,159.7z"/>
<path class="st23" d="M103.2,282.2c-0.5,0-0.9,0-0.9,0c-3.5,0-16.9,0-24.6,0c-8.9,0-9.9-9.1-9.9-9.1l-1.4-28.9
	c3.5,7.9,13.1,22.2,36.1,22.2s32.8-13.2,36.4-20.4l-1.3,27.1c0,0-1,9.1-9.9,9.1C120.1,282.2,106.7,282.2,103.2,282.2L103.2,282.2z"
	/>
<path class="st24" d="M109.9,207c0,0-4.9-9.3-6-11.2c-1.2-1.9-3-5.3-5.3-5.8l9.1-0.2c0,0,2.1-0.6,5.3,4.9c2.6,4.6,4.3,7.9,4.3,7.9
	L109.9,207z"/>
<path class="st24" d="M102.9,195.9c0,0-1.9-4.4-5.2-5.4c0,0-1.6-0.2-3.5,3.1c-2,3.5-2.2,4.2-2.2,4.2l-2.6-1.3l3.1,8l9.2-0.7
	l-2.8-1.8L102.9,195.9z"/>
<path class="st24" d="M96,207.3c0,0-5.4,8.9-6.5,11c-1.1,2-3,5.3-2.2,7.6l-4.9-7.7c0,0-1.6-1.5,1.5-7c2.6-4.6,4.5-7.8,4.5-7.8
	L96,207.3z"/>
<path class="st24" d="M90.1,219c0,0-2.8,3.9-2,7.3c0,0,0.7,1.5,4.4,1.4c4.1-0.1,4.8-0.2,4.8-0.2l0.2,2.9l5.3-6.8l-5.4-7.5l-0.1,3.3
	L90.1,219z"/>
<path class="st24" d="M103.3,219.4c0,0,10.5,0.2,12.7,0.1c2.3-0.1,6.1-0.1,7.6-1.9l-4.2,8.1c0,0-0.4,2.2-6.8,2.3c-5.3,0.1-9,0-9,0
	L103.3,219.4z"/>
<path class="st24" d="M116.4,218.6c0,0,4.8,0.4,7.3-2c0,0,1-1.3-1-4.6c-2.1-3.5-2.6-4-2.6-4l2.4-1.6l-8.6-1.1l-3.8,8.4l2.9-1.6
	L116.4,218.6z"/>
</svg>
