<?xml version="1.0" encoding="utf-8"?>
<!-- Generator: Adobe Illustrator 22.0.0, SVG Export Plug-In . SVG Version: 6.00 Build 0)  -->
<svg version="1.1" id="Capa_1" xmlns="http://www.w3.org/2000/svg" xmlns:xlink="http://www.w3.org/1999/xlink" x="0px" y="0px"
	 viewBox="0 0 250 250" style="enable-background:new 0 0 250 250;" xml:space="preserve">
<style type="text/css">
	.st0{fill:#FFFFFF;}
</style>
<g>
	<g>
		<path class="st0" d="M175,134.8L175,134.8v-9.1l0,0c1.5,0,2.8,1.4,2.8,3.1v2.9C177.8,133.4,176.6,134.8,175,134.8z"/>
	</g>
</g>
<g>
	<path class="st0" d="M141.3,41.4H71.7c-11.3,0-21.8,4.3-29.8,12.3L12.6,82.4c-15,14.8-16.8,38.1-4.5,55.1l26.8,36.8h10.5
		c2.5-16.8,16.8-29.5,34.1-29.5s31.8,12.8,34.3,29.5h27.5c4.8,0,8.5-3.8,8.5-8.5V49.9C149.8,45.1,146.1,41.4,141.3,41.4z"/>
	<path class="st0" d="M79.5,149.8c-16.3,0-29.5,13.3-29.5,29.5s13.3,29.5,29.5,29.5s29.5-13.3,29.5-29.5S95.8,149.8,79.5,149.8z
		 M79.5,196.4c-9.5,0-17-7.8-17-17c0-9.5,7.8-17,17-17c9.5,0,17,7.8,17,17C96.8,188.6,89,196.4,79.5,196.4z"/>
	<g>
		<path class="st0" d="M249.5,116l-19.8-65.1c-1.8-5.8-7-9.8-13-9.8h-48.1c-7.5,0-13.8,6.3-13.8,13.8v105.7c0,7.3,5.5,13,12.8,13.8
			c2.5-16.8,16.8-29.5,34.1-29.5s31.8,13,34.1,29.5h0.5c7.5,0,13.8-6.3,13.8-13.8V120C250,118.7,249.7,117.2,249.5,116z M228.2,99.5
			c-2,2.5-5,4-8.3,4h-43.3c-5.5,0-10.3-4.5-10.3-10.3V62.9c0-5.5,4.5-10.3,10.3-10.3h34.1c4.5,0,8.5,3,9.8,7.3l9.3,30.5
			C230.7,93.7,230,97,228.2,99.5z"/>
	</g>
	<path class="st0" d="M201.7,149.8c-16.3,0-29.5,13.3-29.5,29.5s13.3,29.5,29.5,29.5s29.5-13.3,29.5-29.5S217.9,149.8,201.7,149.8z
		 M201.7,196.4c-9.5,0-17-7.8-17-17c0-9.5,7.8-17,17-17c9.5,0,17,7.8,17,17C219,188.6,211.2,196.4,201.7,196.4z"/>
</g>
</svg>
