<?xml version="1.0" encoding="utf-8"?>
<!-- Generator: Adobe Illustrator 22.0.0, SVG Export Plug-In . SVG Version: 6.00 Build 0)  -->
<svg version="1.1" id="Capa_1" xmlns="http://www.w3.org/2000/svg" xmlns:xlink="http://www.w3.org/1999/xlink" x="0px" y="0px"
	 viewBox="0 0 110 110" style="enable-background:new 0 0 110 110;" xml:space="preserve">
<style type="text/css">
	.st0{fill:#FFFFFF;}
</style>
<g>
	<g>
		<path class="st0" d="M105,64.8L105,64.8l0-9.1h0c1.5,0,2.8,1.4,2.8,3.1v2.9C107.8,63.4,106.6,64.8,105,64.8z"/>
	</g>
</g>
<g>
	<path class="st0" d="M60.6,21.6H32.8c-4.5,0-8.7,1.7-11.9,4.9L9.2,38c-6,5.9-6.7,15.2-1.8,22l10.7,14.7h4.2
		C23.3,68,29,62.9,35.9,62.9S48.6,68,49.6,74.7h11c1.9,0,3.4-1.5,3.4-3.4V25C64,23.1,62.5,21.6,60.6,21.6z"/>
	<path class="st0" d="M35.9,64.9c-6.5,0-11.8,5.3-11.8,11.8s5.3,11.8,11.8,11.8s11.8-5.3,11.8-11.8S42.4,64.9,35.9,64.9z M35.9,83.5
		c-3.8,0-6.8-3.1-6.8-6.8c0-3.8,3.1-6.8,6.8-6.8c3.8,0,6.8,3.1,6.8,6.8C42.8,80.4,39.7,83.5,35.9,83.5z"/>
	<g>
		<path class="st0" d="M103.8,51.4l-7.9-26c-0.7-2.3-2.8-3.9-5.2-3.9H71.5c-3,0-5.5,2.5-5.5,5.5v42.2c0,2.9,2.2,5.2,5.1,5.5
			c1-6.7,6.7-11.8,13.6-11.8c6.9,0,12.7,5.2,13.6,11.8h0.2c3,0,5.5-2.5,5.5-5.5V53C104,52.5,103.9,51.9,103.8,51.4z M95.3,44.8
			c-0.8,1-2,1.6-3.3,1.6H74.7c-2.2,0-4.1-1.8-4.1-4.1V30.2c0-2.2,1.8-4.1,4.1-4.1h13.6c1.8,0,3.4,1.2,3.9,2.9l3.7,12.2
			C96.3,42.5,96,43.8,95.3,44.8z"/>
	</g>
	<path class="st0" d="M84.7,64.9c-6.5,0-11.8,5.3-11.8,11.8s5.3,11.8,11.8,11.8s11.8-5.3,11.8-11.8S91.2,64.9,84.7,64.9z M84.7,83.5
		c-3.8,0-6.8-3.1-6.8-6.8c0-3.8,3.1-6.8,6.8-6.8c3.8,0,6.8,3.1,6.8,6.8C91.6,80.4,88.5,83.5,84.7,83.5z"/>
</g>
</svg>
