<?xml version="1.0" encoding="utf-8"?>
<!-- Generator: Adobe Illustrator 22.0.0, SVG Export Plug-In . SVG Version: 6.00 Build 0)  -->
<svg version="1.1" id="Capa_1" xmlns="http://www.w3.org/2000/svg" xmlns:xlink="http://www.w3.org/1999/xlink" x="0px" y="0px"
	 viewBox="0 0 250 250" style="enable-background:new 0 0 250 250;" xml:space="preserve">
<style type="text/css">
	.st0{fill:#FFFFFF;}
</style>
<g>
	<g>
		<rect x="77.5" y="167.6" class="st0" width="8.6" height="68.4"/>
		<path class="st0" d="M206.9,31c0-9.4-7.9-17-17.1-17H60.4c-9.5,0-17.1,7.6-17.1,17v51.2h163.7C206.9,82.2,206.9,31,206.9,31z"/>
		<rect x="94.9" y="167.6" class="st0" width="8.6" height="51.2"/>
		<rect x="60.4" y="167.6" class="st0" width="8.6" height="59.9"/>
		<rect x="112" y="167.6" class="st0" width="8.6" height="59.9"/>
		<rect x="43.1" y="167.6" class="st0" width="8.6" height="68.4"/>
		<rect x="181" y="167.6" class="st0" width="8.6" height="59.9"/>
		<rect x="198.1" y="167.6" class="st0" width="8.6" height="68.4"/>
		<path class="st0" d="M224.1,90.7H25.9C11.3,90.7,0,102,0,116.4v42.7c0,14.5,11.1,25.7,25.9,25.7h8.6v-25.7h181v25.7h8.6
			c14.6,0,25.9-11,25.9-25.7v-42.7C250,102,238.7,90.7,224.1,90.7z M198.1,133.4c-5.1,0-8.6-3.4-8.6-8.5s3.5-8.5,8.6-8.5
			c5.1,0,8.6,3.4,8.6,8.5C206.9,130,203.5,133.4,198.1,133.4z"/>
		<rect x="163.9" y="167.6" class="st0" width="8.6" height="51.2"/>
		<rect x="146.5" y="167.6" class="st0" width="8.6" height="68.4"/>
		<rect x="129.4" y="167.6" class="st0" width="8.6" height="51.2"/>
	</g>
</g>
</svg>
