<?xml version="1.0" encoding="utf-8"?>
<!-- Generator: Adobe Illustrator 22.0.0, SVG Export Plug-In . SVG Version: 6.00 Build 0)  -->
<svg version="1.1" id="Capa_1" xmlns="http://www.w3.org/2000/svg" xmlns:xlink="http://www.w3.org/1999/xlink" x="0px" y="0px"
	 viewBox="0 0 100 100" style="enable-background:new 0 0 100 100;" xml:space="preserve">
<style type="text/css">
	.st0{fill:url(#SVGID_1_);}
	.st1{fill-rule:evenodd;clip-rule:evenodd;fill:#FFFFFF;}
</style>
<g>
	<linearGradient id="SVGID_1_" gradientUnits="userSpaceOnUse" x1="48.9566" y1="-39.7585" x2="50.7769" y2="116.7912">
		<stop  offset="0.1322" style="stop-color:#01CF2D"/>
		<stop  offset="0.794" style="stop-color:#009804"/>
	</linearGradient>
	<path class="st0" d="M100,50c0,27.7-22.4,50-50,50C22.4,100,0,77.6,0,50C0,22.4,22.4,0,50,0C77.6,0,100,22.4,100,50z"/>
	<g>
		<path class="st1" d="M79.6,42.8C76.3,29,64.4,19.6,50,19.4c-1.9,0.1-3.9,0.2-5.8,0.6C24,24,13.6,46.3,23.3,64.3
			c0.3,0.5,0.3,1,0.3,1.5c-1.4,4.6-2.7,9.4-4,14.1c-0.2,0.8-0.2,0.8,0.6,0.6c4.9-1.3,9.8-2.6,14.7-3.8c0.4-0.1,0.7-0.1,1.1,0.1
			c6.3,3.2,13,4.1,20,2.8C72.7,76.3,83.6,59.3,79.6,42.8z M54.3,74.6c-1.5,0.3-2.8,0.4-3.5,0.3c-5.4,0-9.7-1.2-13.7-3.5
			c-0.6-0.3-1-0.5-1.5-0.3c-2.7,0.7-5.4,1.4-8.2,2.1c-0.6,0.2-0.6,0.1-0.5-0.5c0.7-2.5,1.4-5.1,2.2-7.7c0.2-0.7,0.1-1.2-0.3-1.8
			c-5.5-8.9-5.3-20,0.9-28.3c6.4-8.6,15.2-12.1,25.7-9.9c10.3,2.2,17,8.9,19.3,19.2C78,58.4,68.5,72.3,54.3,74.6z"/>
		<path class="st1" d="M57.9,64.3c-1.1,0.1-2.1-0.1-3.2-0.4c-7-2-12.2-6.3-16.5-12.1c-1.6-2.1-3.1-4.5-3.5-7.2
			c-0.6-3.2,0.3-6,2.7-8.1c0.8-0.7,3.1-1.1,4.1-0.6c0.3,0.3,0.5,0.5,0.7,0.8c0.9,2.1,1.8,4.1,2.7,6.2c0.1,0.4,0.1,0.8-0.1,1.3
			c-0.5,0.9-1.2,1.7-1.9,2.5c-0.6,0.5-0.6,1.1-0.2,1.7c2.5,4.2,5.9,7.2,10.4,8.9c0.7,0.3,1.2,0.2,1.6-0.3c0.8-0.9,1.5-1.9,2.3-2.8
			c0.4-0.6,1-0.7,1.7-0.4c1.5,0.7,3,1.4,4.4,2.1c0.4,0.2,0.7,0.3,1,0.5c1.5,0.7,1.5,0.9,1.3,2.5c-0.2,3.2-2.6,4.8-5.4,5.6
			C59.2,64.4,58.6,64.4,57.9,64.3z"/>
	</g>
</g>
</svg>
